<?xml version="1.0" encoding="utf-8"?>
<!-- Generator: Adobe Illustrator 16.0.0, SVG Export Plug-In . SVG Version: 6.00 Build 0)  -->
<!DOCTYPE svg PUBLIC "-//W3C//DTD SVG 1.1//EN" "http://www.w3.org/Graphics/SVG/1.1/DTD/svg11.dtd">
<svg version="1.1" id="Layer_1" xmlns="http://www.w3.org/2000/svg" xmlns:xlink="http://www.w3.org/1999/xlink" x="0px" y="0px"
	 width="319.484px" height="317.259px" viewBox="0 0 319.484 317.259" enable-background="new 0 0 319.484 317.259"
	 xml:space="preserve">
<circle fill="#9BDAD9" cx="158.992" cy="156.26" r="147.485"/>
<path opacity="0.18" fill="#9BDAD9" d="M158.992,8.773c-81.454,0-147.486,66.032-147.486,147.486s66.032,147.485,147.486,147.485
	s147.485-66.031,147.485-147.485S240.446,8.773,158.992,8.773z M158.992,293.245c-75.655,0-136.986-61.33-136.986-136.985
	S83.337,19.273,158.992,19.273S295.978,80.604,295.978,156.26S234.647,293.245,158.992,293.245z"/>
<text transform="matrix(1 0 0 1 64.4321 95.0215)"><tspan x="0" y="0" fill="#003B4C" font-family="'HelveticaNeueLTStd-Bd'" font-size="22.7352">Want to conserve</tspan><tspan x="6.309" y="23.664" fill="#003B4C" font-family="'HelveticaNeueLTStd-Bd'" font-size="22.7352">energy and save</tspan><tspan x="49.073" y="47.328" fill="#003B4C" font-family="'HelveticaNeueLTStd-Bd'" font-size="22.7352">money? </tspan></text>
<text transform="matrix(1 0 0 1 71.7417 186.5566)"><tspan x="0" y="0" fill="#FFFFFF" font-family="'HelveticaNeueLTStd-Bd'" font-size="40.1459">PSE is on</tspan><tspan x="0" y="35.816" fill="#FFFFFF" font-family="'HelveticaNeueLTStd-Bd'" font-size="40.1459">your side.</tspan></text>
</svg>
