<?xml version="1.0" encoding="utf-8"?>
<!-- Generator: Adobe Illustrator 16.0.0, SVG Export Plug-In . SVG Version: 6.00 Build 0)  -->
<!DOCTYPE svg PUBLIC "-//W3C//DTD SVG 1.1//EN" "http://www.w3.org/Graphics/SVG/1.1/DTD/svg11.dtd">
<svg version="1.1" id="Layer_1" xmlns="http://www.w3.org/2000/svg" xmlns:xlink="http://www.w3.org/1999/xlink" x="0px" y="0px"
	 width="245.987px" height="177.695px" viewBox="0 0 245.987 177.695" enable-background="new 0 0 245.987 177.695"
	 xml:space="preserve">
<path fill="#CFDB00" d="M123.82,1.773c-33.897,0-62.895,20.906-74.852,50.52c-9.161,3.717-19.943,2.351-27.967-4.218
	c-1.167,8.549,1.655,17.517,8.398,23.898c3.98,3.768,8.785,6.116,13.796,7.079c-0.048,1.139-0.087,2.28-0.087,3.432
	c0,44.576,36.136,80.712,80.711,80.712s80.711-36.136,80.711-80.712C204.531,37.909,168.396,1.773,123.82,1.773z"/>
<path opacity="0.25" fill="#CFDB00" d="M204.531,82.484c0,44.576-36.136,80.712-80.711,80.712s-80.711-36.136-80.711-80.712
	c0-1.151,0.039-2.293,0.087-3.432c-5.011-0.963-9.816-3.312-13.796-7.079c-6.744-6.382-9.565-15.35-8.398-23.898
	c8.024,6.568,18.806,7.935,27.967,4.218C60.925,22.68,89.923,1.773,123.82,1.773C168.396,1.773,204.531,37.909,204.531,82.484z
	 M197.531,82.484c0-40.645-33.067-73.711-73.711-73.711c-30.21,0-57.043,18.111-68.361,46.141l-1.11,2.75L51.6,58.779
	c-4.163,1.689-8.561,2.546-13.069,2.546c-3.075,0-6.122-0.411-9.059-1.206c1.096,2.524,2.695,4.836,4.74,6.771
	c2.868,2.716,6.432,4.545,10.305,5.289l5.926,1.139l-0.253,6.029c-0.042,0.998-0.081,2.068-0.081,3.138
	c0,40.645,33.067,73.712,73.711,73.712S197.531,123.129,197.531,82.484z"/>
<g>
	<path fill="#55565A" d="M121.88,91.354h10.536c5.554,0,7.501,4.067,7.501,6.986c0,4.955-3.32,7.274-8.016,7.274h-3.722v6.187h-6.3
		V91.354z M128.18,100.747h2.434c1.632,0,3.35-0.114,3.35-2.176c0-1.86-1.431-1.974-2.978-1.974h-2.806V100.747z"/>
	<path fill="#55565A" d="M146.607,104.928c0,0.516,0.088,0.975,0.23,1.348c0.458,1.231,1.832,1.488,3.007,1.488
		c1.03,0,2.605-0.346,2.605-1.861c0-1.061-0.887-1.345-4.409-2.35c-3.236-0.918-6.931-1.803-6.931-5.926
		c0-4.726,4.039-6.76,8.247-6.76c4.439,0,8.362,1.69,8.534,6.674h-5.956c0.114-0.774-0.23-1.29-0.744-1.633
		c-0.516-0.372-1.232-0.518-1.861-0.518c-0.86,0-2.263,0.231-2.263,1.376c0.116,1.463,3.037,1.774,5.927,2.578
		c2.893,0.801,5.756,2.146,5.756,5.897c0,5.329-4.896,7.044-9.45,7.044c-2.319,0-8.933-0.83-8.992-7.358H146.607z"/>
	<path fill="#55565A" d="M160.101,91.354h16.922v5.243H166.4v2.545h9.65v4.868h-9.65v2.55h10.939v5.241h-17.239V91.354z"/>
	<path fill="#55565A" d="M75.841,91.434v3.434h0.121c0.657-1.264,1.519-2.251,2.584-2.959c1.067-0.713,2.429-1.068,4.087-1.068
		c1.343,0,2.559,0.33,3.651,0.987c1.093,0.657,1.824,1.658,2.191,3.003c0.605-1.345,1.501-2.346,2.686-3.003s2.449-0.987,3.79-0.987
		c4.502,0,6.752,2.384,6.752,7.146v13.819h-2.486V98.105c0-1.684-0.354-2.968-1.066-3.85c-0.71-0.881-1.961-1.322-3.75-1.322
		c-1.08,0-1.975,0.2-2.686,0.613c-0.71,0.405-1.277,0.951-1.699,1.636c-0.42,0.687-0.717,1.47-0.887,2.349
		c-0.171,0.883-0.257,1.8-0.257,2.746v11.527h-2.486V97.985c0-0.683-0.074-1.333-0.217-1.952c-0.146-0.619-0.382-1.16-0.712-1.619
		c-0.328-0.462-0.769-0.823-1.322-1.087c-0.552-0.261-1.223-0.394-2.014-0.394c-1.052,0-1.967,0.19-2.744,0.571
		c-0.775,0.384-1.408,0.909-1.894,1.582c-0.487,0.667-0.849,1.458-1.087,2.367c-0.236,0.909-0.354,1.901-0.354,2.98v11.37h-2.487
		V91.434H75.841z"/>
	<path fill="#55565A" d="M104.597,91.434l6.712,17.373l6.277-17.373h2.488l-8.845,23.452c-0.369,0.87-0.711,1.584-1.026,2.153
		c-0.316,0.566-0.665,1.012-1.047,1.343c-0.381,0.327-0.828,0.564-1.342,0.708c-0.513,0.146-1.164,0.218-1.954,0.218
		c-0.501-0.025-0.888-0.046-1.165-0.059c-0.277-0.013-0.52-0.058-0.731-0.14v-2.092c0.288,0.054,0.572,0.1,0.848,0.138
		c0.277,0.04,0.559,0.061,0.851,0.061c0.552,0,1.006-0.079,1.361-0.238c0.356-0.158,0.665-0.373,0.928-0.649
		c0.264-0.277,0.488-0.612,0.672-1.006c0.183-0.396,0.381-0.829,0.593-1.304l0.868-2.29l-8.133-20.295H104.597z"/>
</g>
<g>
	<text transform="matrix(1 0 0 1 62.5732 83.1934)" fill="#55565A" font-family="'HelveticaNeueLTStd-Lt'" font-size="45.7611">That’s</text>
</g>
</svg>
