<?xml version="1.0" encoding="utf-8"?>
<!-- Generator: Adobe Illustrator 17.1.0, SVG Export Plug-In . SVG Version: 6.00 Build 0)  -->
<!DOCTYPE svg PUBLIC "-//W3C//DTD SVG 1.1//EN" "http://www.w3.org/Graphics/SVG/1.1/DTD/svg11.dtd">
<svg version="1.1" id="Layer_1" xmlns="http://www.w3.org/2000/svg" xmlns:xlink="http://www.w3.org/1999/xlink" x="0px" y="0px"
	 viewBox="0 0 640.5 587.6" enable-background="new 0 0 640.5 587.6" xml:space="preserve">
<g>
	<path fill="#C22B2E" d="M549.3,331.3c9.5,0,17.1-7.7,17.1-17.1v-20.7h-31.6l0.2-5.6h8.2c9.5,0,17.1-7.7,17.1-17.1V250h-94.1v-61.7
		c0-24.8-20.1-45-45-45h-0.5v89.3c0,24.6-19.9,44.5-44.5,44.5h-0.4H155.8v103h233.4c2.1,19.8,18.6,35.3,38.6,35.3h31.4h71.7h10.9
		c9.5,0,17.1-7.7,17.1-17.1v-20.7h-26.8l0.1-4.2h12.5c9.5,0,17.1-7.7,17.1-17.1v-20.7h-28.4l0.1-4.2H549.3z"/>
	<rect x="95.5" y="274.8" fill="#01405F" width="218" height="120.1"/>
	<rect x="302.5" y="266.7" fill="#22A0CC" width="69" height="135"/>
	<circle fill="#591B16" cx="320" cy="389.6" r="6.5"/>
</g>
</svg>
