<?xml version="1.0" encoding="utf-8"?>
<!-- Generator: Adobe Illustrator 17.1.0, SVG Export Plug-In . SVG Version: 6.00 Build 0)  -->
<!DOCTYPE svg PUBLIC "-//W3C//DTD SVG 1.1//EN" "http://www.w3.org/Graphics/SVG/1.1/DTD/svg11.dtd">
<svg version="1.1" id="Layer_1" xmlns="http://www.w3.org/2000/svg" xmlns:xlink="http://www.w3.org/1999/xlink" x="0px" y="0px"
	 viewBox="0 0 640.5 587.6" enable-background="new 0 0 640.5 587.6" xml:space="preserve">
<g>
	<g>
		<path fill="#FFFFFF" d="M309.5,278.9L59.9,265.8C66.8,133.4,177,28.9,309.5,28.9V278.9z"/>
		<path fill="#C22B2E" d="M309.5,278.9v-250c138.1,0,250,111.9,250,250s-111.9,250-250,250s-250-111.9-250-250
			c0-5.5,0.1-7.6,0.3-13.1L309.5,278.9z"/>
	</g>
	<g>
		<path fill="#FFFFFF" d="M309.6,278.9l-191.2,58.5C86,231.7,145.5,119.9,251.1,87.6c19.4-5.9,38.1-8.7,58.5-8.7V278.9z"/>
		<path fill="#01405F" d="M309.6,278.9v-200c110.4,0,200,89.5,200,200s-89.5,200-200,200c-90.1,0-164.9-55.3-191.2-141.5
			L309.6,278.9z"/>
	</g>
	<g>
		<path fill="#FFFFFF" d="M309.5,278.9l-20.9,148.5C206.6,415.9,149.5,340,161,258c10.4-73.9,73.9-129.1,148.5-129.1V278.9z"/>
		<path fill="#22A0CC" d="M309.5,278.9v-150c82.8,0,150,67.2,150,150s-67.2,150-150,150c-8.1,0-12.8-0.3-20.9-1.5L309.5,278.9z"/>
	</g>
	<g>
		<path fill="#FFFFFF" d="M309.5,278.9l7-99.8c55.1,3.9,96.6,51.6,92.8,106.7c-3.9,55.1-51.6,96.6-106.7,92.8
			c-55.1-3.9-96.6-51.6-92.8-106.7c3.7-52.4,47.2-93,99.8-93V278.9z"/>
		<path fill="#591B16" d="M309.5,278.9v-100c2.7,0,4.3,0.1,7,0.2L309.5,278.9z"/>
	</g>
	<circle fill="#FFFFFF" cx="309.5" cy="278.9" r="57.9"/>
</g>
</svg>
