<?xml version="1.0" encoding="utf-8"?>
<!-- Generator: Adobe Illustrator 17.1.0, SVG Export Plug-In . SVG Version: 6.00 Build 0)  -->
<!DOCTYPE svg PUBLIC "-//W3C//DTD SVG 1.1//EN" "http://www.w3.org/Graphics/SVG/1.1/DTD/svg11.dtd">
<svg version="1.1" id="Layer_1" xmlns="http://www.w3.org/2000/svg" xmlns:xlink="http://www.w3.org/1999/xlink" x="0px" y="0px"
	 viewBox="0 0 160.6 143.6" enable-background="new 0 0 160.6 143.6" xml:space="preserve">
<g>
	<path fill="#C22B2E" d="M108.2,70.8H107v10h-2v0h-0.2v-6.2c0-3.4-2.8-6.1-6.1-6.1h-1.2v12.3h-2v0h-0.2v-9.6c0-3.4-2.8-6.1-6.1-6.1
		H88v15.7h-2v0h-0.2V49.4c0-4.7-3.8-8.5-8.5-8.5h-0.1V89c0-5.6-4.6-10.2-10.2-10.2H67v23.2c0,9.4,7,17.2,16.1,18.5v0.2h2.6h0.2h28.5
		v-20.6V80.8v-3.9C114.4,73.6,111.6,70.8,108.2,70.8z"/>
	<path fill="none" stroke="#C22B2E" stroke-width="2" stroke-miterlimit="10" d="M71.1,55.3c-2.5-2.5-4.1-6-4.1-9.9s1.6-7.4,4.1-9.9
		c2.5-2.5,6-4.1,9.9-4.1c3.9,0,7.4,1.6,9.9,4.1c2.5,2.5,4.1,6,4.1,9.9s-1.6,7.4-4.1,9.9"/>
	<path fill="none" stroke="#C22B2E" stroke-width="2" stroke-miterlimit="10" d="M65.1,61.3c-4.1-4.1-6.6-9.7-6.6-15.9
		s2.5-11.8,6.6-15.9s9.7-6.6,15.9-6.6c6.2,0,11.8,2.5,15.9,6.6s6.6,9.7,6.6,15.9s-2.5,11.8-6.6,15.9"/>
</g>
</svg>
