<?xml version="1.0" encoding="utf-8"?>
<!-- Generator: Adobe Illustrator 17.1.0, SVG Export Plug-In . SVG Version: 6.00 Build 0)  -->
<!DOCTYPE svg PUBLIC "-//W3C//DTD SVG 1.1//EN" "http://www.w3.org/Graphics/SVG/1.1/DTD/svg11.dtd">
<svg version="1.1" id="Layer_1" xmlns="http://www.w3.org/2000/svg" xmlns:xlink="http://www.w3.org/1999/xlink" x="0px" y="0px"
	 viewBox="0 0 853.5 762" enable-background="new 0 0 853.5 762" xml:space="preserve">
<line fill="none" stroke="#591B16" stroke-width="4" stroke-miterlimit="10" x1="436.2" y1="88.3" x2="436.2" y2="681.6"/>
<line fill="none" stroke="#591B16" stroke-width="4" stroke-miterlimit="10" x1="268" y1="140.6" x2="604.4" y2="629.3"/>
<line fill="none" stroke="#591B16" stroke-width="4" stroke-miterlimit="10" x1="614.9" y1="148.1" x2="257.5" y2="621.8"/>
<line fill="none" stroke="#591B16" stroke-width="4" stroke-miterlimit="10" x1="718.3" y1="476.8" x2="154.1" y2="293.1"/>
<line fill="none" stroke="#591B16" stroke-width="4" stroke-miterlimit="10" x1="720.1" y1="298.9" x2="152.3" y2="471"/>
<circle fill="#C22B2E" stroke="#C22B2E" stroke-width="15" stroke-miterlimit="10" cx="153.8" cy="292.9" r="60"/>
<circle fill="#C22B2E" stroke="#C22B2E" stroke-width="15" stroke-miterlimit="10" cx="257.4" cy="621.6" r="60"/>
<circle fill="#C22B2E" stroke="#C22B2E" stroke-width="15" stroke-miterlimit="10" cx="614.3" cy="148.3" r="60"/>
<circle fill="#C22B2E" stroke="#C22B2E" stroke-width="15" stroke-miterlimit="10" cx="720" cy="298.3" r="60"/>
<circle fill="#C22B2E" stroke="#C22B2E" stroke-width="15" stroke-miterlimit="10" cx="717" cy="477.3" r="60"/>
<circle fill="#C22B2E" stroke="#C22B2E" stroke-width="15" stroke-miterlimit="10" cx="605.1" cy="629.6" r="60"/>
<circle fill="#C22B2E" stroke="#C22B2E" stroke-width="15" stroke-miterlimit="10" cx="267.2" cy="141.3" r="60"/>
<circle fill="#C22B2E" stroke="#C22B2E" stroke-width="15" stroke-miterlimit="10" cx="152.8" cy="470.6" r="60"/>
<circle fill="#C22B2E" stroke="#C22B2E" stroke-width="15" stroke-miterlimit="10" cx="436.2" cy="88.3" r="60"/>
<circle fill="#C22B2E" stroke="#C22B2E" stroke-width="15" stroke-miterlimit="10" cx="436.2" cy="681.6" r="60"/>
<circle fill="#FFFFFF" cx="435.3" cy="379" r="109.8"/>
<g>
	<path fill="#22A0CC" d="M390.1,334.4l46.4,45.1l-0.9-64.7C417.4,315.2,402.9,321.4,390.1,334.4z"/>
	<path fill="#22A0CC" d="M434.1,380.8l-52.7-51.3c-14.2,14.7-21,31.9-20.8,52.3L434.1,380.8z"/>
	<path fill="#22A0CC" d="M436.5,414.8l-0.4-29.6l-20.6,21.2C421.3,412,428.4,414.8,436.5,414.8z"/>
	<path fill="#22A0CC" d="M487.5,432.2l-48.3-47l0.9,67.4C458.6,452.2,474.5,445.4,487.5,432.2z"/>
	<path fill="#22A0CC" d="M441.2,383.2l33.2,32.3c8.6-9.1,13.1-20.4,13.1-32.9L441.2,383.2z"/>
	<path fill="#22A0CC" d="M441.7,380.8l74.1-1c-0.4-20.6-7.7-37.7-22.4-52.1L441.7,380.8z"/>
	<path fill="#22A0CC" d="M497.9,319.1c-16.7-16-36-23.8-59-23.8c-0.3,0-0.6,0-0.9,0l1.2,84.2L497.9,319.1z"/>
	<path fill="#22A0CC" d="M434.1,383.2l-81.9,1.1c0.4,22.8,8.5,41.6,24.8,57.6L434.1,383.2z"/>
</g>
</svg>
