<?xml version="1.0" encoding="utf-8"?>
<!-- Generator: Adobe Illustrator 17.1.0, SVG Export Plug-In . SVG Version: 6.00 Build 0)  -->
<!DOCTYPE svg PUBLIC "-//W3C//DTD SVG 1.1//EN" "http://www.w3.org/Graphics/SVG/1.1/DTD/svg11.dtd">
<svg version="1.1" id="Layer_1" xmlns="http://www.w3.org/2000/svg" xmlns:xlink="http://www.w3.org/1999/xlink" x="0px" y="0px"
	 viewBox="0 0 640.5 587.6" enable-background="new 0 0 640.5 587.6" xml:space="preserve">
<g>
	<path fill="#C22B2E" d="M165.3,319.8v-37.2H75.7c-8.9,0-16.2,7.2-16.2,16.2v21H165.3z"/>
	<path fill="#C22B2E" d="M175.7,278.5v-37.2H71.2c-8.9,0-16.2,7.2-16.2,16.2v21H175.7z"/>
	<path fill="#C22B2E" d="M160.3,361v-37.2H78.7c-8.9,0-16.2,7.2-16.2,16.2v21H160.3z"/>
	<path fill="#C22B2E" d="M229.3,322.3l12.8-2.8v-26.3v-67.9H85.5L90,361h101.1C212.2,361,229.3,343.7,229.3,322.3z"/>
	<rect x="160.3" y="225.3" fill="#C22B2E" width="297.8" height="113.2"/>
	<path fill="#C22B2E" d="M228.9,225.1c0-14.7-11.9-26.7-26.7-26.7h-48.9v0.3H77.2c-8.9,0-16.2,7.2-16.2,16.2v21h92.4v23.3h0.4
		c16.8,0,31.4-9.4,38.9-23.3H242v-10.6h-13.2V225.1z"/>
	<rect x="245" y="220.4" fill="#591B16" width="56.4" height="122"/>
	<rect x="387.9" y="222.4" fill="#01405F" width="218" height="121.5"/>
	<rect x="329.9" y="215.6" fill="#22A0CC" width="69" height="135"/>
	<circle fill="#591B16" cx="381.4" cy="336.4" r="6.5"/>
	<g>
		<circle fill="#22A0CC" cx="273.2" cy="281.9" r="46.8"/>
		<circle fill="#E2E2E2" cx="273.2" cy="281.9" r="44.3"/>
		<line fill="none" stroke="#C22B2E" stroke-miterlimit="10" x1="273.2" y1="281.9" x2="306.4" y2="281.9"/>
		<circle fill="#591B16" cx="273.2" cy="281.9" r="4.7"/>
		<g>
			<polygon fill="#591B16" points="275.2,318.6 273.2,322.3 271.2,318.6 271.2,281.9 275.2,281.9 			"/>
		</g>
		<g>
			<polygon fill="#591B16" points="282.8,267.3 286.9,265.9 285.7,270.1 272.4,284.2 269.5,281.4 			"/>
		</g>
	</g>
</g>
</svg>
