<?xml version="1.0" encoding="utf-8"?>
<!-- Generator: Adobe Illustrator 17.1.0, SVG Export Plug-In . SVG Version: 6.00 Build 0)  -->
<!DOCTYPE svg PUBLIC "-//W3C//DTD SVG 1.1//EN" "http://www.w3.org/Graphics/SVG/1.1/DTD/svg11.dtd">
<svg version="1.1" id="Layer_1" xmlns="http://www.w3.org/2000/svg" xmlns:xlink="http://www.w3.org/1999/xlink" x="0px" y="0px"
	 viewBox="0 0 307.4 274.5" enable-background="new 0 0 307.4 274.5" xml:space="preserve">
<g>
	<polygon fill="#E2E2E2" points="103,242.6 110.2,250 117.4,242.6 124.6,250 131.7,242.6 138.9,250 146.1,242.6 153.3,250 
		160.5,242.6 167.7,250 174.9,242.6 182.1,250 189.3,242.6 196.5,250 203.7,242.6 211.7,250.9 211.7,23.6 95.7,23.6 95.7,250 	"/>
	<rect x="153.7" y="32.8" fill="#22A1CD" width="48.2" height="6.4"/>
	<rect x="105.4" y="32.8" fill="#C32B2E" width="48.2" height="6.4"/>
	<path fill="#C32B2E" d="M107.8,58.8l0.2,0c3.6-5.7,10.4-10.4,18.3-10.3c7.9,0.1,14.6,4.9,18.1,10.7l0.1,0c1.1,1.9,2.3,5.2,3,9.6
		c0.8,10,1.9,18.3,1.9,18.3l-4.4,0l-0.2,15.7c0,0-30.2,8-38.1-23.9c0,0-1.3-3.5-1.3-9.6C105.6,66,105.3,63.6,107.8,58.8z
		 M139.2,74.7c-1.5,0-2.6,1.2-2.6,2.6c0,1.5,1.2,2.6,2.6,2.6c1.5,0,2.6-1.2,2.6-2.6C141.9,75.9,140.7,74.7,139.2,74.7z"/>
	<path fill="#22A1CD" d="M200.9,69.2c0,6.1-1.3,9.6-1.3,9.6c-7.9,31.9-38.1,23.9-38.1,23.9L161.3,87l-4.4,0c0,0,1.1-8.2,1.9-18.3
		c0.6-4.4,1.8-7.7,3-9.6l0.1,0c3.5-5.8,10.2-10.6,18.1-10.7c7.9-0.1,14.7,4.6,18.3,10.3l0.2,0C201.1,63.6,200.7,66,200.9,69.2z
		 M164.4,77.4c0,1.5,1.2,2.6,2.6,2.6c1.5,0,2.6-1.2,2.6-2.6c0-1.5-1.2-2.6-2.6-2.6C165.6,74.7,164.4,75.9,164.4,77.4z"/>
	<rect x="105.4" y="114" fill="#591B16" width="95.5" height="25"/>
	<polygon fill="#22A1CD" points="162.7,171.1 156.3,176.6 167.3,189 167.9,187.5 161.4,177.2 164.3,175.2 	"/>
	<polygon fill="#01405F" points="168.5,165.8 161.8,171.4 164.3,175.2 169.2,172.2 	"/>
	<polygon fill="#22A1CD" points="184.4,171.1 190.8,176.6 179.8,189 179.2,187.5 185.6,177.2 182.8,175.2 	"/>
	<path fill="#22A1CD" d="M179.2,149.9L179.2,149.9c-1.1-1.7-3-3-5.3-3c-2.3,0-4.2,1.4-5.2,3h0c-0.3,0.6-0.7,1.5-0.9,2.8
		c-0.3,2.9-0.6,5.3-0.6,5.3h1.3v4.5c0,0,8.7,2.4,11.1-6.8c0,0,0.4-1,0.4-2.8C179.8,152,179.9,151.3,179.2,149.9z"/>
	<path fill="#01405F" d="M166.3,190c0,3.2,2.6,5.8,5.8,5.8h2.8c3.2,0,5.8-2.6,5.8-5.8v-19.7c0-3.2-2.6-5.8-5.8-5.8h-2.8
		c-3.2,0-5.8,2.6-5.8,5.8V190z"/>
	<polygon fill="#01405F" points="180.6,190 179.5,227.9 175.2,227.9 173.9,196.2 172.4,196.2 171.7,227.9 167.5,227.9 166.3,190.1 	
		"/>
	<path fill="#22A1CD" d="M175.9,162.5v2.1c0,0-1.9,0.7-4.8,0v-0.8C171.1,163.8,174,163.7,175.9,162.5z"/>
	<circle fill="#591B16" cx="170.3" cy="154.1" r="0.5"/>
	<polygon fill="#01405F" points="167.5,227.9 166.4,229.8 160.2,230 160.2,231.3 171.4,231.3 171.7,227.9 	"/>
	<polygon fill="#01405F" points="179.5,227.9 180.6,229.8 187,230 187,231.3 175.5,231.3 175.2,227.9 	"/>
	<polygon fill="#01405F" points="178.6,165.8 185.3,171.4 182.8,175.2 177.9,172.2 	"/>
	<g>
		<polygon fill="#C32B2E" points="144.8,171.1 151.1,176.6 140.2,189 139.5,187.5 146,177.2 143.1,175.2 		"/>
		<polygon fill="#591B16" points="138.9,165.8 145.7,171.4 143.1,175.2 138.3,172.2 		"/>
		<polygon fill="#C32B2E" points="123,171.1 116.7,176.6 127.6,189 128.3,187.5 121.8,177.2 124.7,175.2 		"/>
		<path fill="#C32B2E" d="M128.3,149.9L128.3,149.9c1.1-1.7,3-3,5.3-3c2.3,0,4.2,1.4,5.2,3h0c0.3,0.6,0.7,1.5,0.9,2.8
			c0.3,2.9,0.6,5.3,0.6,5.3h-1.3v4.5c0,0-8.7,2.4-11.1-6.8c0,0-0.4-1-0.4-2.8C127.7,152,127.6,151.3,128.3,149.9z"/>
		<path fill="#591B16" d="M141.2,190c0,3.2-2.6,5.8-5.8,5.8h-2.8c-3.2,0-5.8-2.6-5.8-5.8v-19.7c0-3.2,2.6-5.8,5.8-5.8h2.8
			c3.2,0,5.8,2.6,5.8,5.8V190z"/>
		<polygon fill="#591B16" points="126.8,190 128,227.9 132.2,227.9 133.5,196.2 135,196.2 135.8,227.9 140,227.9 141.2,190.1 		"/>
		<path fill="#C32B2E" d="M131.6,162.5v2.1c0,0,1.9,0.7,4.8,0v-0.8C136.4,163.8,133.5,163.7,131.6,162.5z"/>
		<circle fill="#591B16" cx="137.2" cy="154.1" r="0.5"/>
		<polygon fill="#591B16" points="140,227.9 141.1,229.8 147.3,230 147.3,231.3 136.1,231.3 135.8,227.9 		"/>
		<polygon fill="#591B16" points="128,227.9 126.9,229.8 120.5,230 120.5,231.3 132,231.3 132.2,227.9 		"/>
		<polygon fill="#591B16" points="128.9,165.8 122.2,171.4 124.7,175.2 129.6,172.2 		"/>
	</g>
	<polygon fill="#C32B2E" points="123.6,154.8 106.1,154.8 106.1,163.7 115.9,163.7 120.5,165.8 120.5,163.7 123.6,163.7 	"/>
	<polygon fill="#C32B2E" points="123.6,188.5 106.1,188.5 106.1,197.4 115.9,197.4 120.5,199.5 120.5,197.4 123.6,197.4 	"/>
	<polygon fill="#C32B2E" points="123.6,204.8 106.1,204.8 106.1,213.8 115.9,213.8 120.5,215.9 120.5,213.8 123.6,213.8 	"/>
	<polygon fill="#22A1CD" points="184.1,154.8 201.6,154.8 201.6,163.7 191.8,163.7 187.2,165.8 187.2,163.7 184.1,163.7 	"/>
	<polygon fill="#22A1CD" points="184.1,188.5 201.6,188.5 201.6,197.4 191.8,197.4 187.2,199.5 187.2,197.4 184.1,197.4 	"/>
	<polygon fill="#22A1CD" points="184.1,204.8 201.6,204.8 201.6,213.8 191.8,213.8 187.2,215.9 187.2,213.8 184.1,213.8 	"/>
</g>
</svg>
