<?xml version="1.0" encoding="utf-8"?>
<!-- Generator: Adobe Illustrator 17.1.0, SVG Export Plug-In . SVG Version: 6.00 Build 0)  -->
<!DOCTYPE svg PUBLIC "-//W3C//DTD SVG 1.1//EN" "http://www.w3.org/Graphics/SVG/1.1/DTD/svg11.dtd">
<svg version="1.1" id="Layer_1" xmlns="http://www.w3.org/2000/svg" xmlns:xlink="http://www.w3.org/1999/xlink" x="0px" y="0px"
	 viewBox="0 0 853.5 587.6" enable-background="new 0 0 853.5 587.6" xml:space="preserve">
<g>
	<rect x="91.5" y="11.5" fill="#01405F" width="690.4" height="503"/>
	<rect x="118.9" y="35" fill="#22A0CC" width="453.4" height="453.4"/>
	<path fill="#E2E2E2" d="M538.8,454.9c0,0-1.9,0.1-1.9,0.1c-127.4,7.9-255.1,7.9-382.4,0l-1.9-0.1c0,0-0.1-1.9-0.1-1.9
		c-7.9-127.4-7.9-255.1,0-382.4l0.1-1.9c0,0,1.9-0.1,1.9-0.1c127.4-7.9,255.1-7.9,382.4,0l1.9,0.1c0,0,0.1,1.9,0.1,1.9
		c7.9,127.4,7.9,255.1,0,382.4C538.9,452.9,538.8,454.9,538.8,454.9z"/>
	<rect x="596.8" y="35" fill="#22A0CC" width="157.4" height="453.4"/>
	<g>
		<circle fill="#C22B2E" cx="675.5" cy="116.7" r="50.2"/>
		<circle fill="#591B16" cx="675.5" cy="116.7" r="40.5"/>
		<path fill="#C22B2E" d="M680.8,165.4l-5.3,13l-5.3-13v-29.8v-19.8l0.1,0c3-2.8,7.6-2.8,10.6,0l0.1,0v19.8V165.4z"/>
	</g>
	<g>
		<circle fill="#C22B2E" cx="675.5" cy="246.2" r="50.2"/>
		<circle fill="#591B16" cx="675.5" cy="246.2" r="40.5"/>
		<path fill="#C22B2E" d="M725.3,255.4l10.3,9.5l-14,0.5l-27.9-10.3l-18.5-6.9l0-0.1c-1.6-3.8,0-8.1,3.7-9.9l0.1,0l18.5,6.9
			L725.3,255.4z"/>
	</g>
	<g>
		<circle fill="#C22B2E" cx="630.9" cy="334.9" r="19.2"/>
		<circle fill="#591B16" cx="630.9" cy="334.9" r="12"/>
	</g>
	<g>
		<circle fill="#C22B2E" cx="676.3" cy="334.9" r="19.2"/>
		<circle fill="#591B16" cx="676.3" cy="334.9" r="12"/>
	</g>
	<g>
		<circle fill="#C22B2E" cx="721.6" cy="334.9" r="19.2"/>
		<circle fill="#591B16" cx="721.6" cy="334.9" r="12"/>
	</g>
	<polygon fill="#01405F" points="220.9,546.4 187.6,546.4 179.6,513.3 228.9,513.3 	"/>
	<polygon fill="#01405F" points="692.9,546.4 659.6,546.4 651.6,513.3 700.9,513.3 	"/>
	<g>
		<line fill="none" stroke="#E2E2E2" stroke-width="2" stroke-miterlimit="10" x1="618.5" y1="383.8" x2="735.1" y2="383.8"/>
		<line fill="none" stroke="#E2E2E2" stroke-width="2" stroke-miterlimit="10" x1="618.5" y1="391" x2="735.1" y2="391"/>
		<line fill="none" stroke="#E2E2E2" stroke-width="2" stroke-miterlimit="10" x1="618.5" y1="398.2" x2="735.1" y2="398.2"/>
		<line fill="none" stroke="#E2E2E2" stroke-width="2" stroke-miterlimit="10" x1="618.5" y1="405.4" x2="735.1" y2="405.4"/>
		<line fill="none" stroke="#E2E2E2" stroke-width="2" stroke-miterlimit="10" x1="618.5" y1="412.6" x2="735.1" y2="412.6"/>
		<line fill="none" stroke="#E2E2E2" stroke-width="2" stroke-miterlimit="10" x1="618.5" y1="419.7" x2="735.1" y2="419.7"/>
		<line fill="none" stroke="#E2E2E2" stroke-width="2" stroke-miterlimit="10" x1="618.5" y1="426.9" x2="735.1" y2="426.9"/>
		<line fill="none" stroke="#E2E2E2" stroke-width="2" stroke-miterlimit="10" x1="618.5" y1="434.1" x2="735.1" y2="434.1"/>
		<line fill="none" stroke="#E2E2E2" stroke-width="2" stroke-miterlimit="10" x1="618.5" y1="441.3" x2="735.1" y2="441.3"/>
		<line fill="none" stroke="#E2E2E2" stroke-width="2" stroke-miterlimit="10" x1="618.5" y1="448.5" x2="735.1" y2="448.5"/>
		<line fill="none" stroke="#E2E2E2" stroke-width="2" stroke-miterlimit="10" x1="618.5" y1="455.7" x2="735.1" y2="455.7"/>
		<line fill="none" stroke="#E2E2E2" stroke-width="2" stroke-miterlimit="10" x1="618.5" y1="462.9" x2="735.1" y2="462.9"/>
	</g>
</g>
</svg>
