<?xml version="1.0" encoding="utf-8"?>
<!-- Generator: Adobe Illustrator 17.1.0, SVG Export Plug-In . SVG Version: 6.00 Build 0)  -->
<!DOCTYPE svg PUBLIC "-//W3C//DTD SVG 1.1//EN" "http://www.w3.org/Graphics/SVG/1.1/DTD/svg11.dtd">
<svg version="1.1" id="Layer_1" xmlns="http://www.w3.org/2000/svg" xmlns:xlink="http://www.w3.org/1999/xlink" x="0px" y="0px"
	 viewBox="0 0 307.4 457.5" enable-background="new 0 0 307.4 457.5" xml:space="preserve">
<g>
	<polygon fill="#C32B2E" points="187.7,132.6 207.2,154.9 229.3,101.1 238.8,105.1 216.2,183.4 172.1,143.5 	"/>
	<polygon fill="#591B16" points="163.8,109.1 187.7,132.6 169.1,145.6 154.7,130.2 	"/>
	<rect x="111.9" y="398.1" fill="#C32B2E" width="15.4" height="20.8"/>
	<rect x="148.4" y="398.1" fill="#C32B2E" width="15.4" height="20.8"/>
	<path fill="#591B16" d="M172.4,129.3c0-15.5-12.6-28.1-28.1-28.1h-13.6c-15.5,0-28.1,12.6-28.1,28.1v76.4h69.7V129.3z"/>
	<polygon fill="#C32B2E" points="133.9,295.5 133.3,277.9 129.9,277.9 129.9,299.1 	"/>
	<path fill="#C32B2E" d="M109.9,32.8h0.2c5-8.1,14.5-14.7,25.5-14.7c11,0,20.7,6.7,25.7,14.7l0,0c1.6,2.7,3.3,7.3,4.3,13.5
		c1.2,14,2.9,25.5,2.9,25.5h-6.1v22c0,0-42.2,11.7-53.7-32.9c0,0-1.9-4.8-2-13.4C106.9,43,106.3,39.5,109.9,32.8z"/>
	<polygon fill="#22A1CD" points="102.6,205.7 108.5,402.5 129,402.5 135.3,255.4 142.5,255.4 146.2,402.5 166.7,402.5 172.3,205.7 	
		"/>
	<path fill="#C32B2E" d="M126,91.4v10.4c0,0,9.2,3.6,23.2,0v-4C149.2,97.8,134.9,97.4,126,91.4z"/>
	<path fill="#591B16" d="M150.5,53c0-1.5,1.2-2.6,2.6-2.6c1.5,0,2.6,1.2,2.6,2.6c0,1.5-1.2,2.6-2.6,2.6
		C151.7,55.6,150.5,54.4,150.5,53z"/>
	
		<line fill="none" stroke="#FFFFFF" stroke-width="1.5035" stroke-miterlimit="10" stroke-dasharray="3.0069" x1="167.6" y1="221" x2="162.7" y2="402.5"/>
	
		<line fill="none" stroke="#FFFFFF" stroke-width="1.5035" stroke-miterlimit="10" stroke-dasharray="3.0069" x1="106.6" y1="221" x2="111.9" y2="402.5"/>
	<path fill="#591B16" d="M116.2,78.2c0,0-23.6-33.2,0-54.2l19.3,15c0,0-15,12.2-12.5,39.2H116.2z"/>
	<path fill="#591B16" d="M118.7,21.7l18.8,14.6c0,0,3.7-16.6,19.7-8.5c0,0,2.7,0.8,0-2.2C154.5,22.5,139.4,6,118.7,21.7z"/>
	<path fill="#01405F" d="M103,218.7c7-0.2,12.7-5.9,12.7-13h-13L103,218.7z"/>
	<rect x="148" y="116.7" fill="#FFFFFF" width="2.3" height="7.3"/>
	<rect x="152" y="116.7" fill="#FFFFFF" width="2.3" height="7.3"/>
	<path fill="#01405F" d="M172,218.7l0.3-13h-13C159.4,212.7,165,218.5,172,218.7z"/>
	<path fill="#C32B2E" d="M156.8,104.2v101.5h6.9V109C161.6,107.1,159.3,105.4,156.8,104.2z"/>
	<circle fill="#FFFFFF" cx="160.2" cy="205.7" r="5.4"/>
	<line fill="none" stroke="#C32B2E" stroke-width="1.5035" stroke-miterlimit="10" x1="138.9" y1="107.9" x2="138.9" y2="205.7"/>
	<circle fill="#22A1CD" cx="138.9" cy="103.4" r="4.9"/>
	<polygon fill="#22A1CD" points="123,94.3 138.9,103.4 123,112.6 	"/>
	<polygon fill="#22A1CD" points="154.8,94.3 138.9,103.4 154.8,112.6 	"/>
	<rect x="144.9" y="124" fill="none" stroke="#C32B2E" stroke-width="1.5035" stroke-miterlimit="10" width="16.5" height="17.1"/>
	<path fill="#591B16" d="M111.9,417c0,0-20.5,7-30.6,7.3c0,0-1.7,1.4,0,4.8h46v-13.3C127.3,415.8,121.1,420.7,111.9,417z"/>
	<path fill="#591B16" d="M163.9,417c0,0,20.5,7,30.6,7.3c0,0,1.7,1.4,0,4.8h-46v-13.3C148.4,415.8,154.6,420.7,163.9,417z"/>
	<rect x="141.7" y="44.9" fill="#591B16" width="20.5" height="4.2"/>
	<polyline fill="none" stroke="#591B16" stroke-width="1.5035" stroke-miterlimit="10" points="160.7,47.7 160.7,57.6 147.3,57.6 
		145.2,47.7 	"/>
	<rect x="162.2" y="47.7" fill="#FFFFFF" width="4.3" height="3.4"/>
	<path fill="#C32B2E" d="M90.2,130.8l-24.9,31.8l40.5,55.8c0,0,3.5-0.2,7.4-5.1l-28.7-47.9l18.2-22L90.2,130.8z"/>
	<polygon fill="#591B16" points="111.2,109.1 87.4,132.6 106,145.6 120.3,130.2 	"/>
	<path fill="#C32B2E" d="M113.7,107v98.7h6.9V103.1C118.1,104.1,115.8,105.4,113.7,107z"/>
	<circle fill="#FFFFFF" cx="117.2" cy="205.7" r="5.4"/>
	<rect x="233.3" y="67.7" fill="#22A1CD" width="31.4" height="46"/>
	<rect x="236.6" y="72.5" fill="#591B16" width="23.7" height="8.5"/>
	<circle fill="#FFFFFF" cx="239.7" cy="88.5" r="3"/>
	<circle fill="#FFFFFF" cx="248.5" cy="88.5" r="3"/>
	<circle fill="#FFFFFF" cx="257.3" cy="88.5" r="3"/>
	<circle fill="#FFFFFF" cx="239.7" cy="96.4" r="3"/>
	<circle fill="#FFFFFF" cx="248.5" cy="96.4" r="3"/>
	<circle fill="#FFFFFF" cx="257.3" cy="96.4" r="3"/>
	<circle fill="#FFFFFF" cx="239.7" cy="104.3" r="3"/>
	<circle fill="#FFFFFF" cx="248.5" cy="104.3" r="3"/>
	<circle fill="#FFFFFF" cx="257.3" cy="104.3" r="3"/>
	<polygon fill="#C32B2E" points="229.3,101.1 226.1,88.5 247.4,85.7 249,90 233.3,93.4 233.3,103.4 231.6,107.2 	"/>
	<g>
		<defs>
			<path id="SVGID_1_" d="M116.2,78.2c0,0-23.6-33.2,0-54.2l19.3,15c0,0-15,12.2-12.5,39.2H116.2z"/>
		</defs>
		<clipPath id="SVGID_2_">
			<use xlink:href="#SVGID_1_"  overflow="visible"/>
		</clipPath>
		<path clip-path="url(#SVGID_2_)" fill="none" stroke="#C32B2E" stroke-width="0.7517" stroke-miterlimit="10" d="M132,36.3
			c0,0-19.8,16.8-11.4,45.9"/>
		<path clip-path="url(#SVGID_2_)" fill="none" stroke="#C32B2E" stroke-width="0.7517" stroke-miterlimit="10" d="M128.9,32.8
			c0,0-19.2,10.4-16.4,43"/>
		<path clip-path="url(#SVGID_2_)" fill="none" stroke="#C32B2E" stroke-width="0.7517" stroke-miterlimit="10" d="M125.3,29.9
			c0,0-19.5,8.8-18.6,36"/>
		<path clip-path="url(#SVGID_2_)" fill="none" stroke="#C32B2E" stroke-width="0.7517" stroke-miterlimit="10" d="M122.4,27.5
			c0,0-14.8,3.8-20.7,22.8"/>
	</g>
	<g>
		<defs>
			<path id="SVGID_3_" d="M118.7,21.7l18.8,14.6c0,0,3.7-16.6,19.7-8.5c0,0,2.7,0.8,0-2.2C154.5,22.5,139.4,6,118.7,21.7z"/>
		</defs>
		<clipPath id="SVGID_4_">
			<use xlink:href="#SVGID_3_"  overflow="visible"/>
		</clipPath>
		<g clip-path="url(#SVGID_4_)">
			<path fill="none" stroke="#C32B2E" stroke-width="0.7517" stroke-miterlimit="10" d="M133,34.4c0,0,6.1-18.3,26.2-11.2"/>
			<path fill="none" stroke="#C32B2E" stroke-width="0.7517" stroke-miterlimit="10" d="M128.9,31.8c0,0,10.3-16.2,25.8-11.3"/>
			<path fill="none" stroke="#C32B2E" stroke-width="0.7517" stroke-miterlimit="10" d="M123.8,27c0,0,14.3-14.6,28.2-7.4"/>
			<path fill="none" stroke="#C32B2E" stroke-width="0.7517" stroke-miterlimit="10" d="M120.3,24.6c0,0,10.5-12.1,30.2-7"/>
		</g>
	</g>
</g>
</svg>
