<?xml version="1.0" encoding="utf-8"?>
<!-- Generator: Adobe Illustrator 17.1.0, SVG Export Plug-In . SVG Version: 6.00 Build 0)  -->
<!DOCTYPE svg PUBLIC "-//W3C//DTD SVG 1.1//EN" "http://www.w3.org/Graphics/SVG/1.1/DTD/svg11.dtd">
<svg version="1.1" id="Layer_1" xmlns="http://www.w3.org/2000/svg" xmlns:xlink="http://www.w3.org/1999/xlink" x="0px" y="0px"
	 viewBox="0 0 853.5 587.6" enable-background="new 0 0 853.5 587.6" xml:space="preserve">
<g>
	<line fill="none" stroke="#C22B2E" stroke-width="3" stroke-miterlimit="10" x1="56.1" y1="295.1" x2="839.4" y2="295.1"/>
	<g>
		<text transform="matrix(1 0 0 1 75.6859 254.0995)" fill="#666666" font-family="'DINNextLTPro-Regular'" font-size="16">0</text>
	</g>
	<g>
		<text transform="matrix(1 0 0 1 433.7753 237.049)" fill="#666666" font-family="'DINNextLTPro-Regular'" font-size="16">25</text>
	</g>
	<g>
		<text transform="matrix(1 0 0 1 796.2002 260.0316)" fill="#666666" font-family="'DINNextLTPro-Regular'" font-size="16">50</text>
	</g>
	<circle fill="#C22B2E" cx="51.3" cy="295.1" r="17.5"/>
	<circle fill="#C22B2E" cx="823.7" cy="295.1" r="17.5"/>
	<line fill="none" stroke="#C22B2E" stroke-width="3" stroke-miterlimit="10" x1="75.3" y1="275.5" x2="75.3" y2="314.6"/>
	<line fill="none" stroke="#C22B2E" stroke-width="3" stroke-miterlimit="10" x1="800.2" y1="275.5" x2="800.2" y2="314.6"/>
	<line fill="none" stroke="#C22B2E" stroke-width="3" stroke-miterlimit="10" x1="763.9" y1="275.5" x2="763.9" y2="314.6"/>
	<line fill="none" stroke="#C22B2E" stroke-width="3" stroke-miterlimit="10" x1="727.7" y1="275.5" x2="727.7" y2="314.6"/>
	<line fill="none" stroke="#C22B2E" stroke-width="3" stroke-miterlimit="10" x1="691.4" y1="275.5" x2="691.4" y2="314.6"/>
	<line fill="none" stroke="#C22B2E" stroke-width="3" stroke-miterlimit="10" x1="655.2" y1="275.5" x2="655.2" y2="314.6"/>
	<line fill="none" stroke="#C22B2E" stroke-width="3" stroke-miterlimit="10" x1="618.9" y1="275.5" x2="618.9" y2="314.6"/>
	<line fill="none" stroke="#C22B2E" stroke-width="3" stroke-miterlimit="10" x1="582.7" y1="275.5" x2="582.7" y2="314.6"/>
	<line fill="none" stroke="#C22B2E" stroke-width="3" stroke-miterlimit="10" x1="546.5" y1="275.5" x2="546.5" y2="314.6"/>
	<line fill="none" stroke="#C22B2E" stroke-width="3" stroke-miterlimit="10" x1="510.2" y1="275.5" x2="510.2" y2="314.6"/>
	<line fill="none" stroke="#C22B2E" stroke-width="3" stroke-miterlimit="10" x1="474" y1="275.5" x2="474" y2="314.6"/>
	<line fill="none" stroke="#C22B2E" stroke-width="3" stroke-miterlimit="10" x1="437.5" y1="275.5" x2="437.5" y2="314.6"/>
	<line fill="none" stroke="#C22B2E" stroke-width="3" stroke-miterlimit="10" x1="401.5" y1="275.5" x2="401.5" y2="314.6"/>
	<line fill="none" stroke="#C22B2E" stroke-width="3" stroke-miterlimit="10" x1="365.2" y1="275.5" x2="365.2" y2="314.6"/>
	<line fill="none" stroke="#C22B2E" stroke-width="3" stroke-miterlimit="10" x1="329" y1="275.5" x2="329" y2="314.6"/>
	<line fill="none" stroke="#C22B2E" stroke-width="3" stroke-miterlimit="10" x1="292.8" y1="275.5" x2="292.8" y2="314.6"/>
	<line fill="none" stroke="#C22B2E" stroke-width="3" stroke-miterlimit="10" x1="256.5" y1="275.5" x2="256.5" y2="314.6"/>
	<line fill="none" stroke="#C22B2E" stroke-width="3" stroke-miterlimit="10" x1="220.3" y1="275.5" x2="220.3" y2="314.6"/>
	<line fill="none" stroke="#C22B2E" stroke-width="3" stroke-miterlimit="10" x1="184" y1="275.5" x2="184" y2="314.6"/>
	<line fill="none" stroke="#C22B2E" stroke-width="3" stroke-miterlimit="10" x1="147.8" y1="275.5" x2="147.8" y2="314.6"/>
	<line fill="none" stroke="#C22B2E" stroke-width="3" stroke-miterlimit="10" x1="111.5" y1="275.5" x2="111.5" y2="314.6"/>
	<rect x="318" y="288.4" fill="#22A0CC" width="239" height="14.6"/>
	<g>
		<rect x="425.9" y="286" fill="#01405F" width="23.2" height="18.7"/>
		<polygon fill="#591B16" points="438.5,335.3 437.5,335.3 436.5,335.3 432,295.1 436.5,254.8 437.5,254.8 438.5,254.8 442.9,295.1 
					"/>
	</g>
</g>
</svg>
