<?xml version="1.0" encoding="UTF-8" standalone="no"?>
<!-- Created with Inkscape (http://www.inkscape.org/) -->

<svg
   xmlns:dc="http://purl.org/dc/elements/1.1/"
   xmlns:cc="http://creativecommons.org/ns#"
   xmlns:rdf="http://www.w3.org/1999/02/22-rdf-syntax-ns#"
   xmlns:svg="http://www.w3.org/2000/svg"
   xmlns="http://www.w3.org/2000/svg"
   xmlns:sodipodi="http://sodipodi.sourceforge.net/DTD/sodipodi-0.dtd"
   xmlns:inkscape="http://www.inkscape.org/namespaces/inkscape"
   width="43"
   height="105"
   id="svg3526"
   version="1.1"
   inkscape:version="0.48.4 r9939"
   sodipodi:docname="female-face-right.svg">
  <defs
     id="defs3528" />
  <sodipodi:namedview
     id="base"
     pagecolor="#ffffff"
     bordercolor="#666666"
     borderopacity="1.0"
     inkscape:pageopacity="0.0"
     inkscape:pageshadow="2"
     inkscape:zoom="1.2851562"
     inkscape:cx="375"
     inkscape:cy="302.12766"
     inkscape:document-units="px"
     inkscape:current-layer="layer1"
     showgrid="false"
     inkscape:showpageshadow="false"
     inkscape:window-width="1920"
     inkscape:window-height="1137"
     inkscape:window-x="-8"
     inkscape:window-y="-8"
     inkscape:window-maximized="1" />
  <metadata
     id="metadata3531">
    <rdf:RDF>
      <cc:Work
         rdf:about="">
        <dc:format>image/svg+xml</dc:format>
        <dc:type
           rdf:resource="http://purl.org/dc/dcmitype/StillImage" />
        <dc:title></dc:title>
      </cc:Work>
    </rdf:RDF>
  </metadata>
  <g
     inkscape:label="Layer 1"
     inkscape:groupmode="layer"
     id="layer1"
     transform="translate(0,-947.36218)">
    <g
       transform="translate(-438.96672,721.30047)"
       id="g27">
      <polygon
         style="fill:#c32b2e"
         points="477.3,267.7 465.4,277.8 464.8,277.1 472,267.7 466.7,260.3 470.6,258.9 "
         id="polygon29" />
      <polygon
         style="fill:#c32b2e"
         points="443.6,267.2 455.6,277.3 456.2,276.6 448.9,267.2 454.2,259.8 450.4,258.3 "
         id="polygon31" />
      <path
         style="fill:#591b16"
         inkscape:connector-curvature="0"
         d="m 452.7,281.6 c 0,3.9 2.7,7 6,7 h 2.9 c 3.3,0 6,-3.1 6,-7 l -0.9,-11.6 0.9,-12.2 c 0,-3.9 -2.7,-7 -6,-7 h -2.9 c -3.3,0 -6,3.1 -6,7 l 0.9,12.2 -0.9,11.6 z"
         id="path33" />
      <polygon
         style="fill:#22a1cd"
         points="465.7,329.7 462.3,329.7 460.6,289.2 459.1,289.2 457.9,329.7 454.5,329.7 452.7,281.7 467.6,281.7 "
         id="polygon35" />
      <path
         style="fill:#c32b2e"
         inkscape:connector-curvature="0"
         d="m 453.5,233 0,0 c 1.3,-1 3.6,-3.6 6.4,-3.6 2.8,0 5.1,2.6 6.3,3.6 h 0 c 0.4,1 0.8,2 1.1,3.5 0.3,3.5 0.7,6.5 0.7,6.5 h -3 v 5.5 c 0,0 -9.7,2.9 -12.6,-8.1 0,0 -0.1,-1.4 -0.1,-3.5 0.1,-1.2 0.3,-1.9 1.2,-3.9 z"
         id="path37" />
      <path
         style="fill:#c32b2e"
         inkscape:connector-curvature="0"
         d="m 457.9,248.7 v 2.3 c 0,0 2,1.7 5.1,0.9 v -1.8 c 0,0 -3.1,-0.1 -5.1,-1.4 z"
         id="path39" />
      <circle
         d="m 464.90001,238.39999 c 0,0.3866 -0.3134,0.7 -0.7,0.7 -0.3866,0 -0.7,-0.3134 -0.7,-0.7 0,-0.3866 0.3134,-0.7 0.7,-0.7 0.3866,0 0.7,0.3134 0.7,0.7 z"
         style="fill:#591b16"
         sodipodi:ry="0.69999999"
         sodipodi:rx="0.69999999"
         sodipodi:cy="238.39999"
         sodipodi:cx="464.20001"
         cx="464.20001"
         cy="238.39999"
         r="0.69999999"
         id="circle41" />
      <path
         style="fill:#591b16"
         inkscape:connector-curvature="0"
         d="m 462.2,329.3 h 6.8 c 1.2,0 2.2,1 2.2,2.2 h -9 v -2.2 z"
         id="path43" />
      <path
         style="fill:#591b16"
         inkscape:connector-curvature="0"
         d="M 457.9,329.3 H 451 c -1.2,0 -2.2,1 -2.2,2.2 h 9 v -2.2 z"
         id="path45" />
      <polygon
         style="fill:#591b16"
         points="448.9,258.1 453.6,261.4 457.1,257.5 455,252.3 "
         id="polygon47" />
      <polygon
         style="fill:#591b16"
         points="471.4,258.3 466.8,261.6 463.2,257.7 465.4,252.5 "
         id="polygon49" />
      <polygon
         style="fill:#c32b2e"
         points="460.5,255.2 457.9,251 460.6,251 463,251.9 "
         id="polygon51" />
      <path
         style="fill:#591b16"
         inkscape:connector-curvature="0"
         d="m 466.6,233.9 c 0,0 -5.8,-0.4 -5.8,6.2 0,6.6 0,12.2 0,12.2 h -9.9 v -18.5 c 0,0 0.5,-5.9 7.7,-5.9 7.5,0 8,6 8,6 z"
         id="path53" />
    </g>
  </g>
</svg>
