<?xml version="1.0" encoding="utf-8"?>
<!-- Generator: Adobe Illustrator 17.1.0, SVG Export Plug-In . SVG Version: 6.00 Build 0)  -->
<!DOCTYPE svg PUBLIC "-//W3C//DTD SVG 1.1//EN" "http://www.w3.org/Graphics/SVG/1.1/DTD/svg11.dtd">
<svg version="1.1" id="Layer_1" xmlns="http://www.w3.org/2000/svg" xmlns:xlink="http://www.w3.org/1999/xlink" x="0px" y="0px"
	 viewBox="0 0 960 560" enable-background="new 0 0 960 560" xml:space="preserve">
<g>
	<g>
		<ellipse fill="#581B16" cx="480.2" cy="290.3" rx="25.8" ry="26.1"/>
		<polygon fill="#581B16" points="502.8,317.3 457.6,317.3 454.4,291.3 506,291.3 		"/>
	</g>
	<g>
		<path fill="#581B16" d="M496.8,258l-6.1-16l-3.2,1.3c-8.1-3.5-14.9,0-14.9,0l-20.1-8.4l10.9,23.1c0,0-0.6,6-7.4,11.3
			c0,7.6,10.8,13.9,24.1,13.9c13.3,0,24.1-6.2,24.1-13.9h0C497.4,264.1,496.8,258,496.8,258z"/>
		<path fill="#581B16" d="M463.6,258l6.1-16l3.2,1.3c8.1-3.5,14.9,0,14.9,0l20.1-8.4L497,258c0,0,0.6,6,7.4,11.3
			c0,7.6-10.8,13.9-24.1,13.9c-13.3,0-24.1-6.2-24.1-13.9l0,0C463,264.1,463.6,258,463.6,258z"/>
		<circle fill="#E2E2E2" cx="472.6" cy="267.5" r="1.5"/>
		<circle fill="#E2E2E2" cx="489.8" cy="267.5" r="1.5"/>
		<path fill="#C12B2D" d="M476.7,284.9c0,2.5,2,4.5,4.5,4.5c2.5,0,4.5-2,4.5-4.5h0v-11.1h-9.1L476.7,284.9L476.7,284.9z"/>
		<path fill="#E2E2E2" d="M490.2,276.6L490.2,276.6C490.2,276.6,490.2,276.6,490.2,276.6c-0.2-0.1-0.4-0.3-0.6-0.4
			c-1.7-1.1-6.4-4.8-6.4-9h0v-8.9c0,0,0-0.1,0-0.1c0-1.1-0.9-2-2-2c-1.1,0-2,0.9-2,2c0,0,0,0.1,0,0.1v8.9c0,4.2-4.7,7.8-6.4,9
			c-0.2,0.1-0.4,0.2-0.6,0.4l0,0v0c-1.4,1-2.2,2.6-2.2,4.5c0,3.1,2.5,5.6,5.6,5.6c3,0,5.4-2.3,5.6-5.2l0,0l0,0
			c0.2,2.9,2.6,5.2,5.6,5.2c3.1,0,5.6-2.5,5.6-5.6C492.4,279.2,491.5,277.6,490.2,276.6z"/>
		<polygon fill="#581B16" points="484.7,275.2 481.2,279.4 477.8,275.2 		"/>
	</g>
	<circle fill="#581B16" cx="463.8" cy="319.6" r="5.8"/>
	<polygon fill="#581B16" points="456.4,307.2 457.9,319.6 469.6,319.6 469.6,311.8 	"/>
	<circle fill="#581B16" cx="496.6" cy="319.6" r="5.8"/>
	<polygon fill="#581B16" points="504,307.2 502.5,319.6 490.8,319.6 490.8,311.8 	"/>
	<rect x="469.6" y="307.3" fill="#E2E2E2" width="21.2" height="10.1"/>
	<path fill="#E2E2E2" d="M480.2,296.7c-5.8,0-10.6,4.7-10.6,10.6l10.6,5l10.5-5C490.8,301.4,486,296.7,480.2,296.7z"/>
	<path fill="#E2E2E2" d="M473.6,260.7c0.9,0.6,2.4,2.6,1.8,3.5c-0.6,0.9-3,0.4-3.9-0.2c-0.9-0.6-1.2-1.8-0.6-2.8
		C471.5,260.4,472.7,260.1,473.6,260.7z"/>
	<path fill="#E2E2E2" d="M487.7,260.7c-0.9,0.6-2.4,2.6-1.8,3.5c0.6,0.9,3,0.4,3.9-0.2c0.9-0.6,1.2-1.8,0.6-2.8
		C489.9,260.4,488.6,260.1,487.7,260.7z"/>
</g>
</svg>
