<?xml version="1.0" encoding="UTF-8" standalone="no"?>
<!-- Created with Inkscape (http://www.inkscape.org/) -->

<svg
   xmlns:dc="http://purl.org/dc/elements/1.1/"
   xmlns:cc="http://creativecommons.org/ns#"
   xmlns:rdf="http://www.w3.org/1999/02/22-rdf-syntax-ns#"
   xmlns:svg="http://www.w3.org/2000/svg"
   xmlns="http://www.w3.org/2000/svg"
   xmlns:sodipodi="http://sodipodi.sourceforge.net/DTD/sodipodi-0.dtd"
   xmlns:inkscape="http://www.inkscape.org/namespaces/inkscape"
   width="43"
   height="105"
   id="svg3526"
   version="1.1"
   inkscape:version="0.48.4 r9939"
   sodipodi:docname="male-face-right.svg">
  <defs
     id="defs3528" />
  <sodipodi:namedview
     id="base"
     pagecolor="#ffffff"
     bordercolor="#666666"
     borderopacity="1.0"
     inkscape:pageopacity="0.0"
     inkscape:pageshadow="2"
     inkscape:zoom="1.2851562"
     inkscape:cx="375"
     inkscape:cy="302.12766"
     inkscape:document-units="px"
     inkscape:current-layer="layer1"
     showgrid="false"
     inkscape:showpageshadow="false"
     inkscape:window-width="1920"
     inkscape:window-height="1137"
     inkscape:window-x="-8"
     inkscape:window-y="-8"
     inkscape:window-maximized="1" />
  <metadata
     id="metadata3531">
    <rdf:RDF>
      <cc:Work
         rdf:about="">
        <dc:format>image/svg+xml</dc:format>
        <dc:type
           rdf:resource="http://purl.org/dc/dcmitype/StillImage" />
        <dc:title></dc:title>
      </cc:Work>
    </rdf:RDF>
  </metadata>
  <g
     inkscape:label="Layer 1"
     inkscape:groupmode="layer"
     id="layer1"
     transform="translate(0,-947.36218)">
    <g
       transform="translate(-273.76276,720.52844)"
       id="g131">
      <polygon
         style="fill:#c32b2e"
         points="305.7,258.9 312.4,267.7 300.4,277.8 299.9,277.1 307.1,267.7 301.8,260.3 "
         id="polygon133" />
      <polygon
         style="fill:#c32b2e"
         points="285.4,258.3 278.7,267.2 290.6,277.3 291.2,276.6 284,267.2 289.3,259.8 "
         id="polygon135" />
      <path
         style="fill:#591b16"
         inkscape:connector-curvature="0"
         d="m 287.7,281.6 c 0,3.9 2.7,7 6,7 h 2.9 c 3.3,0 6,-3.1 6,-7 l -0.9,-11.6 0.9,-12.2 c 0,-3.9 -2.7,-7 -6,-7 h -2.9 c -3.3,0 -6,3.1 -6,7 l 0.9,12.2 -0.9,11.6 z"
         id="path137" />
      <polygon
         style="fill:#c32b2e"
         points="289.6,329.7 287.7,281.7 302.6,281.7 300.7,329.7 297.3,329.7 295.6,289.2 294.1,289.2 293,329.7 "
         id="polygon139" />
      <path
         style="fill:#c32b2e"
         inkscape:connector-curvature="0"
         d="m 288.5,233 0,0 c 1.3,-1 3.6,-3.6 6.4,-3.6 2.7,0 5.1,2.6 6.3,3.6 h 0 c 0.4,1 0.8,2 1.1,3.5 0.3,3.5 0.7,6.5 0.7,6.5 h -2 v 5.5 c 0,0 -10.2,2.9 -13,-8.1 0,0 -0.4,-1.4 -0.4,-3.5 0.1,-1.2 0,-1.9 0.9,-3.9 z"
         id="path141" />
      <path
         style="fill:#c32b2e"
         inkscape:connector-curvature="0"
         d="m 293,248.7 v 2.3 c 0,0 2,1.7 5.1,0.9 v -1.8 c 0,0 -3.1,-0.1 -5.1,-1.4 z"
         id="path143" />
      <circle
         d="m 299.90001,238.39999 c 0,0.3866 -0.3134,0.7 -0.7,0.7 -0.3866,0 -0.7,-0.3134 -0.7,-0.7 0,-0.3866 0.3134,-0.7 0.7,-0.7 0.3866,0 0.7,0.3134 0.7,0.7 z"
         style="fill:#591b16"
         sodipodi:ry="0.69999999"
         sodipodi:rx="0.69999999"
         sodipodi:cy="238.39999"
         sodipodi:cx="299.20001"
         cx="299.20001"
         cy="238.39999"
         r="0.69999999"
         id="circle145" />
      <path
         style="fill:#591b16"
         inkscape:connector-curvature="0"
         d="m 297.3,329.3 h 6.8 c 1.2,0 2.2,1 2.2,2.2 h -9 v -2.2 z"
         id="path147" />
      <path
         style="fill:#591b16"
         inkscape:connector-curvature="0"
         d="m 292.9,329.3 h -6.8 c -1.2,0 -2.2,1 -2.2,2.2 h 9 v -2.2 z"
         id="path149" />
      <polygon
         style="fill:#591b16"
         points="288.6,261.4 292.2,257.5 290.1,252.3 284,258.1 "
         id="polygon151" />
      <polygon
         style="fill:#591b16"
         points="301.8,261.6 298.2,257.7 300.5,252.5 306.4,258.3 "
         id="polygon153" />
      <polygon
         style="fill:#c32b2e"
         points="293,251 295.6,251 298.1,251.9 295.5,255.2 "
         id="polygon155" />
      <path
         style="fill:#591b16"
         inkscape:connector-curvature="0"
         d="m 301.7,233.9 c 0,0 -5.8,-0.4 -5.8,6.2 0,6.6 0,12.2 0,12.2 H 286 v -18.5 c 0,0 0.5,-5.9 7.7,-5.9 7.4,0 8,6 8,6 z"
         id="path157" />
    </g>
  </g>
</svg>
