<?xml version="1.0" encoding="UTF-8" standalone="no"?>
<!-- Created with Inkscape (http://www.inkscape.org/) -->

<svg
   xmlns:dc="http://purl.org/dc/elements/1.1/"
   xmlns:cc="http://creativecommons.org/ns#"
   xmlns:rdf="http://www.w3.org/1999/02/22-rdf-syntax-ns#"
   xmlns:svg="http://www.w3.org/2000/svg"
   xmlns="http://www.w3.org/2000/svg"
   xmlns:sodipodi="http://sodipodi.sourceforge.net/DTD/sodipodi-0.dtd"
   xmlns:inkscape="http://www.inkscape.org/namespaces/inkscape"
   width="43"
   height="105"
   id="svg3526"
   version="1.1"
   inkscape:version="0.48.4 r9939"
   sodipodi:docname="male-face-left.svg">
  <defs
     id="defs3528" />
  <sodipodi:namedview
     id="base"
     pagecolor="#ffffff"
     bordercolor="#666666"
     borderopacity="1.0"
     inkscape:pageopacity="0.0"
     inkscape:pageshadow="2"
     inkscape:zoom="1.2851562"
     inkscape:cx="375"
     inkscape:cy="302.12766"
     inkscape:document-units="px"
     inkscape:current-layer="layer1"
     showgrid="false"
     inkscape:showpageshadow="false"
     inkscape:window-width="1920"
     inkscape:window-height="1137"
     inkscape:window-x="-8"
     inkscape:window-y="-8"
     inkscape:window-maximized="1" />
  <metadata
     id="metadata3531">
    <rdf:RDF>
      <cc:Work
         rdf:about="">
        <dc:format>image/svg+xml</dc:format>
        <dc:type
           rdf:resource="http://purl.org/dc/dcmitype/StillImage" />
        <dc:title></dc:title>
      </cc:Work>
    </rdf:RDF>
  </metadata>
  <g
     inkscape:label="Layer 1"
     inkscape:groupmode="layer"
     id="layer1"
     transform="translate(0,-947.36218)">
    <g
       transform="translate(-603.66276,719.75032)"
       id="g363">
      <polygon
         style="fill:#c32b2e"
         points="620.6,277.8 621.1,277.1 613.9,267.7 619.2,260.3 615.3,258.9 608.6,267.7 "
         id="polygon365" />
      <polygon
         style="fill:#c32b2e"
         points="630.3,277.3 629.8,276.6 637,267.2 631.7,259.8 635.6,258.3 642.3,267.2 "
         id="polygon367" />
      <path
         style="fill:#591b16"
         inkscape:connector-curvature="0"
         d="m 633.3,281.6 c 0,3.9 -2.7,7 -6,7 h -2.9 c -3.3,0 -6,-3.1 -6,-7 l 0.9,-11.6 -0.9,-12.2 c 0,-3.9 2.7,-7 6,-7 h 2.9 c 3.3,0 6,3.1 6,7 l -0.9,12.2 0.9,11.6 z"
         id="path369" />
      <polygon
         style="fill:#c32b2e"
         points="618.3,281.7 620.3,329.7 623.6,329.7 625.3,289.2 626.9,289.2 628,329.7 631.4,329.7 633.3,281.7 "
         id="polygon371" />
      <path
         style="fill:#c32b2e"
         inkscape:connector-curvature="0"
         d="m 632.5,233 0,0 c -1.3,-1 -3.6,-3.6 -6.4,-3.6 -2.7,0 -5.1,2.6 -6.3,3.6 h 0 c -0.4,1 -0.8,2 -1.1,3.5 -0.3,3.5 -0.7,6.5 -0.7,6.5 h 2 v 5.5 c 0,0 10.2,2.9 13,-8.1 0,0 0.4,-1.4 0.4,-3.5 -0.1,-1.2 -0.1,-1.9 -0.9,-3.9 z"
         id="path373" />
      <path
         style="fill:#c32b2e"
         inkscape:connector-curvature="0"
         d="m 628,248.7 v 2.3 c 0,0 -2,1.7 -5.1,0.9 v -1.8 c 0,0 3.1,-0.1 5.1,-1.4 z"
         id="path375" />
      <circle
         d="m 622.49999,238.39999 c 0,0.3866 -0.3134,0.7 -0.7,0.7 -0.3866,0 -0.7,-0.3134 -0.7,-0.7 0,-0.3866 0.3134,-0.7 0.7,-0.7 0.3866,0 0.7,0.3134 0.7,0.7 z"
         style="fill:#591b16"
         sodipodi:ry="0.69999999"
         sodipodi:rx="0.69999999"
         sodipodi:cy="238.39999"
         sodipodi:cx="621.79999"
         cx="621.79999"
         cy="238.39999"
         r="0.69999999"
         id="circle377" />
      <path
         style="fill:#591b16"
         inkscape:connector-curvature="0"
         d="m 623.7,329.3 h -6.8 c -1.2,0 -2.2,1 -2.2,2.2 h 9 v -2.2 z"
         id="path379" />
      <path
         style="fill:#591b16"
         inkscape:connector-curvature="0"
         d="m 628.1,329.3 h 6.8 c 1.2,0 2.2,1 2.2,2.2 h -9 v -2.2 z"
         id="path381" />
      <polygon
         style="fill:#591b16"
         points="630.9,252.3 637,258.1 632.4,261.4 628.8,257.5 "
         id="polygon383" />
      <polygon
         style="fill:#591b16"
         points="620.5,252.5 614.6,258.3 619.2,261.6 622.7,257.7 "
         id="polygon385" />
      <polygon
         style="fill:#c32b2e"
         points="622.9,251.9 625.5,255.2 628,251 625.3,251 "
         id="polygon387" />
      <path
         style="fill:#591b16"
         inkscape:connector-curvature="0"
         d="m 619.3,233.9 c 0,0 5.8,-0.4 5.8,6.2 0,6.6 0,12.2 0,12.2 h 9.9 v -18.5 c 0,0 -0.5,-5.9 -7.7,-5.9 -7.4,0 -8,6 -8,6 z"
         id="path389" />
    </g>
  </g>
</svg>
