<?xml version="1.0" encoding="UTF-8" standalone="no"?>
<!-- Generator: Adobe Illustrator 17.1.0, SVG Export Plug-In . SVG Version: 6.00 Build 0)  -->

<svg
   xmlns:dc="http://purl.org/dc/elements/1.1/"
   xmlns:cc="http://creativecommons.org/ns#"
   xmlns:rdf="http://www.w3.org/1999/02/22-rdf-syntax-ns#"
   xmlns:svg="http://www.w3.org/2000/svg"
   xmlns="http://www.w3.org/2000/svg"
   xmlns:sodipodi="http://sodipodi.sourceforge.net/DTD/sodipodi-0.dtd"
   xmlns:inkscape="http://www.inkscape.org/namespaces/inkscape"
   version="1.1"
   id="Layer_1"
   x="0px"
   y="0px"
   viewBox="0 0 770 105"
   enable-background="new 0 0 960 560"
   xml:space="preserve"
   inkscape:version="0.48.4 r9939"
   width="100%"
   height="100%"
   sodipodi:docname="age-chart-01.svg"><metadata
   id="metadata141"><rdf:RDF><cc:Work
       rdf:about=""><dc:format>image/svg+xml</dc:format><dc:type
         rdf:resource="http://purl.org/dc/dcmitype/StillImage" /></cc:Work></rdf:RDF></metadata><defs
   id="defs139" /><sodipodi:namedview
   pagecolor="#ffffff"
   bordercolor="#666666"
   borderopacity="1"
   objecttolerance="10"
   gridtolerance="10"
   guidetolerance="10"
   inkscape:pageopacity="0"
   inkscape:pageshadow="2"
   inkscape:window-width="1536"
   inkscape:window-height="803"
   id="namedview137"
   showgrid="false"
   inkscape:showpageshadow="false"
   inkscape:zoom="0.84263558"
   inkscape:cx="430.23722"
   inkscape:cy="84.744022"
   inkscape:window-x="-8"
   inkscape:window-y="-8"
   inkscape:window-maximized="1"
   inkscape:current-layer="g3" />
<g
   id="g3"
   transform="translate(-103.24748,-212.90246)">
	
	
	
	
	
	
	
	
	
	
	
	
	
	
	
	
	
	
	
	
	
	
	
	
	
	
	
	
	<g
   id="g3118"
   transform="translate(-2,-2)"><g
     id="g5">
		<rect
   style="fill:#c22b2e"
   id="rect7"
   height="3"
   width="746.5"
   y="279.70001"
   x="126.8" />
	</g><g
     id="g9">
		<g
   id="g11"
   enable-background="new    ">
			<path
   style="fill:#666666"
   inkscape:connector-curvature="0"
   id="path13"
   d="M 146.5,237 C 146.5,234.6 146.6,234 146.7,233.6 147.1,232.3 148.1,231.6 149.5,231.6 150.9,231.6 151.9,232.3 152.3,233.6 152.4,234 152.5,234.5 152.5,237 152.5,239.5 152.4,240 152.3,240.4 151.9,241.7 150.9,242.4 149.5,242.4 148.1,242.4 147.1,241.7 146.7,240.4 146.6,240 146.5,239.4 146.5,237 z M 149.6,241.1 C 150.4,241.1 150.9,240.7 151.2,240.1 151.3,239.8 151.4,239.3 151.4,237 151.4,234.7 151.3,234.2 151.2,233.9 151,233.2 150.4,232.9 149.6,232.9 148.8,232.9 148.3,233.3 148,233.9 147.9,234.2 147.8,234.7 147.8,237 147.8,239.3 147.9,239.8 148,240.1 148.2,240.8 148.8,241.1 149.6,241.1 z" />
		</g>
	</g><g
     id="g15">
		<g
   id="g17"
   enable-background="new    ">
			<path
   style="fill:#666666"
   inkscape:connector-curvature="0"
   id="path19"
   d="M 487.9,225 C 487.9,224.9 487.9,224.9 488,224.8 L 491.7,220 C 492.2,219.4 492.4,218.9 492.4,218.2 492.4,217.3 491.8,216.6 490.8,216.6 489.8,216.6 489.3,217.2 489.1,218.1 489.1,218.2 489,218.2 488.9,218.2 L 488,218 C 487.9,218 487.9,217.9 487.9,217.8 488,216.6 489,215.3 490.8,215.3 492.6,215.3 493.7,216.5 493.7,218.1 493.7,219 493.3,219.8 492.7,220.6 L 489.5,224.6 V 224.6 H 493.6 C 493.7,224.6 493.8,224.7 493.8,224.8 V 225.7 C 493.8,225.8 493.7,225.9 493.6,225.9 H 488.1 C 488,225.9 487.9,225.8 487.9,225.7 V 225 z" />
			<path
   style="fill:#666666"
   inkscape:connector-curvature="0"
   id="path21"
   d="M 496.4,223.7 497.3,223.5 C 497.4,223.5 497.5,223.5 497.5,223.6 497.7,224.3 498.2,224.9 499.2,224.9 499.9,224.9 500.5,224.5 500.7,223.9 500.8,223.6 500.8,223.2 500.8,222.6 500.8,222 500.8,221.6 500.6,221.3 500.4,220.6 499.8,220.3 499.1,220.3 498.3,220.3 497.7,220.8 497.6,221.3 497.6,221.4 497.5,221.5 497.4,221.5 H 496.5 C 496.4,221.5 496.3,221.4 496.3,221.3 V 215.8 C 496.3,215.7 496.4,215.6 496.5,215.6 H 501.7 C 501.8,215.6 501.9,215.7 501.9,215.8 V 216.7 C 501.9,216.8 501.8,216.9 501.7,216.9 H 497.6 C 497.5,216.9 497.5,216.9 497.5,217 V 219.9 H 497.5 C 497.7,219.6 498.4,219.2 499.2,219.2 500.5,219.2 501.4,219.8 501.8,220.9 501.9,221.3 502,221.9 502,222.7 502,223.4 501.9,224 501.8,224.4 501.4,225.6 500.4,226.2 499,226.2 497.4,226.2 496.3,225.3 496.1,224 496.3,223.8 496.3,223.8 496.4,223.7 z" />
		</g>
	</g><g
     id="g23">
		<g
   id="g25"
   enable-background="new    ">
			<path
   style="fill:#666666"
   inkscape:connector-curvature="0"
   id="path27"
   d="M 833.5,245.6 834.4,245.4 C 834.5,245.4 834.6,245.4 834.6,245.5 834.8,246.2 835.3,246.8 836.3,246.8 837,246.8 837.6,246.4 837.8,245.8 837.9,245.5 837.9,245.1 837.9,244.5 837.9,243.9 837.9,243.5 837.7,243.2 837.5,242.5 836.9,242.2 836.2,242.2 835.4,242.2 834.8,242.7 834.7,243.2 834.7,243.3 834.6,243.4 834.5,243.4 H 833.6 C 833.5,243.4 833.4,243.3 833.4,243.2 V 237.7 C 833.4,237.6 833.5,237.5 833.6,237.5 H 838.8 C 838.9,237.5 839,237.6 839,237.7 V 238.6 C 839,238.7 838.9,238.8 838.8,238.8 H 834.7 C 834.6,238.8 834.6,238.8 834.6,238.9 V 241.8 H 834.6 C 834.8,241.5 835.5,241.1 836.3,241.1 837.6,241.1 838.5,241.7 838.9,242.8 839,243.2 839.1,243.8 839.1,244.6 839.1,245.3 839,245.9 838.9,246.3 838.5,247.5 837.5,248.1 836.1,248.1 834.5,248.1 833.4,247.2 833.2,245.9 833.4,245.7 833.4,245.7 833.5,245.6 z" />
			<path
   style="fill:#666666"
   inkscape:connector-curvature="0"
   id="path29"
   d="M 841.4,242.6 C 841.4,240.2 841.5,239.6 841.6,239.2 842,237.9 843,237.2 844.4,237.2 845.8,237.2 846.8,237.9 847.2,239.2 847.3,239.6 847.4,240.1 847.4,242.6 847.4,245.1 847.3,245.6 847.2,246 846.8,247.3 845.8,248 844.4,248 843,248 842,247.3 841.6,246 841.5,245.6 841.4,245.1 841.4,242.6 z M 844.5,246.8 C 845.3,246.8 845.8,246.4 846.1,245.8 846.2,245.5 846.3,245 846.3,242.7 846.3,240.4 846.2,239.9 846.1,239.6 845.9,238.9 845.3,238.6 844.5,238.6 843.7,238.6 843.2,239 842.9,239.6 842.8,239.9 842.7,240.4 842.7,242.7 842.7,245 842.8,245.5 842.9,245.8 843.2,246.4 843.7,246.8 844.5,246.8 z" />
		</g>
	</g><g
     id="g31">
		<circle
   style="fill:#c22b2e"
   sodipodi:ry="16.700001"
   sodipodi:rx="16.700001"
   sodipodi:cy="281.20001"
   sodipodi:cx="122.2"
   d="M 138.9,281.20001 C 138.9,290.42317 131.42315,297.90001 122.2,297.90001 112.97684,297.90001 105.5,290.42317 105.5,281.20001 105.5,271.97686 112.97684,264.50001 122.2,264.50001 131.42315,264.50001 138.9,271.97686 138.9,281.20001 z"
   id="circle33"
   r="16.700001"
   cy="281.20001"
   cx="122.2" />
	</g><g
     id="g35">
		<circle
   style="fill:#c22b2e"
   sodipodi:ry="16.700001"
   sodipodi:rx="16.700001"
   sodipodi:cy="281.20001"
   sodipodi:cx="858.29999"
   d="M 874.99999,281.20001 C 874.99999,290.42317 867.52314,297.90001 858.29999,297.90001 849.07683,297.90001 841.59999,290.42317 841.59999,281.20001 841.59999,271.97686 849.07683,264.50001 858.29999,264.50001 867.52314,264.50001 874.99999,271.97686 874.99999,281.20001 z"
   id="circle37"
   r="16.700001"
   cy="281.20001"
   cx="858.29999" />
	</g><g
     id="g39">
		<rect
   style="fill:#c22b2e"
   id="rect41"
   height="37.299999"
   width="3"
   y="262.60001"
   x="143.60001" />
	</g><g
     id="g43">
		<rect
   style="fill:#c22b2e"
   id="rect45"
   height="37.299999"
   width="3"
   y="262.60001"
   x="834.40002" />
	</g><g
     id="g47">
		<rect
   style="fill:#c22b2e"
   id="rect49"
   height="37.299999"
   width="3"
   y="262.60001"
   x="799.79999" />
	</g><g
     id="g51">
		<rect
   style="fill:#c22b2e"
   id="rect53"
   height="37.299999"
   width="3"
   y="262.60001"
   x="765.29999" />
	</g><g
     id="g55">
		<rect
   style="fill:#c22b2e"
   id="rect57"
   height="37.299999"
   width="3"
   y="262.60001"
   x="730.70001" />
	</g><g
     id="g59">
		<rect
   style="fill:#c22b2e"
   id="rect61"
   height="37.299999"
   width="3"
   y="262.60001"
   x="696.20001" />
	</g><g
     id="g63">
		<rect
   style="fill:#c22b2e"
   id="rect65"
   height="37.299999"
   width="3"
   y="262.60001"
   x="661.59998" />
	</g><g
     id="g67">
		<rect
   style="fill:#c22b2e"
   id="rect69"
   height="37.299999"
   width="3"
   y="262.60001"
   x="627.09998" />
	</g><g
     id="g71">
		<rect
   style="fill:#c22b2e"
   id="rect73"
   height="37.299999"
   width="3"
   y="262.60001"
   x="592.59998" />
	</g><g
     id="g75">
		<rect
   style="fill:#c22b2e"
   id="rect77"
   height="37.299999"
   width="3"
   y="262.60001"
   x="558" />
	</g><g
     id="g79">
		<rect
   style="fill:#c22b2e"
   id="rect81"
   height="37.299999"
   width="3"
   y="262.60001"
   x="523.5" />
	</g><g
     id="g83">
		<rect
   style="fill:#c22b2e"
   id="rect85"
   height="37.299999"
   width="3"
   y="262.60001"
   x="488.70001" />
	</g><g
     id="g87">
		<rect
   style="fill:#c22b2e"
   id="rect89"
   height="37.299999"
   width="3"
   y="262.60001"
   x="454.39999" />
	</g><g
     id="g91">
		<rect
   style="fill:#c22b2e"
   id="rect93"
   height="37.299999"
   width="3"
   y="262.60001"
   x="419.79999" />
	</g><g
     id="g95">
		<rect
   style="fill:#c22b2e"
   id="rect97"
   height="37.299999"
   width="3"
   y="262.60001"
   x="385.29999" />
	</g><g
     id="g99">
		<rect
   style="fill:#c22b2e"
   id="rect101"
   height="37.299999"
   width="3"
   y="262.60001"
   x="350.79999" />
	</g><g
     id="g103">
		<rect
   style="fill:#c22b2e"
   id="rect105"
   height="37.299999"
   width="3"
   y="262.60001"
   x="316.20001" />
	</g><g
     id="g107">
		<rect
   style="fill:#c22b2e"
   id="rect109"
   height="37.299999"
   width="3"
   y="262.60001"
   x="281.70001" />
	</g><g
     id="g111">
		<rect
   style="fill:#c22b2e"
   id="rect113"
   height="37.299999"
   width="3"
   y="262.60001"
   x="247.2" />
	</g><g
     id="g115">
		<rect
   style="fill:#c22b2e"
   id="rect117"
   height="37.299999"
   width="3"
   y="262.60001"
   x="212.7" />
	</g><g
     id="g119">
		<rect
   style="fill:#c22b2e"
   id="rect121"
   height="37.299999"
   width="3"
   y="262.60001"
   x="178.10001" />
	</g><g
     id="g123">
		<rect
   style="fill:#22a0cc"
   id="rect125"
   height="13.9"
   width="227.8"
   y="274.89999"
   x="376.39999" />
	</g><g
     id="g127">
		<g
   id="g129">
			<rect
   style="fill:#01405f"
   id="rect131"
   height="17.799999"
   width="22.1"
   y="272.60001"
   x="479.20001" />
		</g>
		<g
   id="g133">
			<polygon
   style="fill:#591b16"
   id="polygon135"
   points="489.3,319.6 485,281.2 489.3,242.8 490.2,242.8 491.2,242.8 495.4,281.2 491.2,319.6 490.2,319.6 " />
		</g>
	</g></g>
</g>
</svg>