<?xml version="1.0" encoding="UTF-8" standalone="no"?>
<!-- Generator: Adobe Illustrator 17.1.0, SVG Export Plug-In . SVG Version: 6.00 Build 0)  -->

<svg
   xmlns:dc="http://purl.org/dc/elements/1.1/"
   xmlns:cc="http://creativecommons.org/ns#"
   xmlns:rdf="http://www.w3.org/1999/02/22-rdf-syntax-ns#"
   xmlns:svg="http://www.w3.org/2000/svg"
   xmlns="http://www.w3.org/2000/svg"
   xmlns:sodipodi="http://sodipodi.sourceforge.net/DTD/sodipodi-0.dtd"
   xmlns:inkscape="http://www.inkscape.org/namespaces/inkscape"
   version="1.1"
   id="Layer_1"
   x="0px"
   y="0px"
   viewBox="0 0 520 540"
   enable-background="new 0 0 960 560"
   xml:space="preserve"
   inkscape:version="0.48.4 r9939"
   width="100%"
   height="100%"
   sodipodi:docname="charity-chart.svg"><metadata
   id="metadata125"><rdf:RDF><cc:Work
       rdf:about=""><dc:format>image/svg+xml</dc:format><dc:type
         rdf:resource="http://purl.org/dc/dcmitype/StillImage" /></cc:Work></rdf:RDF></metadata><defs
   id="defs123" /><sodipodi:namedview
   pagecolor="#ffffff"
   bordercolor="#666666"
   borderopacity="1"
   objecttolerance="10"
   gridtolerance="10"
   guidetolerance="10"
   inkscape:pageopacity="0"
   inkscape:pageshadow="2"
   inkscape:window-width="1536"
   inkscape:window-height="803"
   id="namedview121"
   showgrid="false"
   inkscape:showpageshadow="false"
   inkscape:zoom="0.59583333"
   inkscape:cx="773.90101"
   inkscape:cy="150.42775"
   inkscape:window-x="-8"
   inkscape:window-y="-8"
   inkscape:window-maximized="1"
   inkscape:current-layer="Layer_1" />
















<g
   id="g3102"
   transform="translate(-227.53846,-12.643357)"><g
     id="g3">
	<rect
   id="rect5"
   height="436"
   width="4"
   y="64.900002"
   x="484.89999"
   style="fill:#591b16" />
</g><g
     id="g7">
	
		<rect
   id="rect9"
   height="4"
   width="436"
   transform="matrix(0.567,0.8237,-0.8237,0.567,443.8737,-278.608)"
   y="280.89999"
   x="268.89999"
   style="fill:#591b16" />
</g><g
     id="g11">
	
		<rect
   id="rect13"
   height="436.10001"
   width="4"
   transform="matrix(0.7984,0.6021,-0.6021,0.7984,268.4986,-236.1644)"
   y="64.900002"
   x="484.89999"
   style="fill:#591b16" />
</g><g
     id="g15">
	
		<rect
   id="rect17"
   height="4"
   width="436.10001"
   transform="matrix(0.9509,0.3096,-0.3096,0.9509,111.5101,-136.8568)"
   y="280.89999"
   x="268.89999"
   style="fill:#591b16" />
</g><g
     id="g19">
	<rect
   id="rect21"
   height="436"
   width="4"
   transform="matrix(0.29,0.957,-0.957,0.29,616.4567,-265.1628)"
   y="64.900002"
   x="484.89999"
   style="fill:#591b16" />
</g><g
     id="g23">
	<circle
   id="circle25"
   r="44.099998"
   cy="215.3"
   cx="279.39999"
   d="M 323.49999,215.3 C 323.49999,239.65576 303.75575,259.4 279.39999,259.4 255.04424,259.4 235.3,239.65576 235.3,215.3 235.3,190.94425 255.04424,171.2 279.39999,171.2 303.75575,171.2 323.49999,190.94425 323.49999,215.3 z"
   sodipodi:cx="279.39999"
   sodipodi:cy="215.3"
   sodipodi:rx="44.099998"
   sodipodi:ry="44.099998"
   style="fill:#c22b2e" />
	<path
   id="path27"
   d="M 279.4,266.8 C 251,266.8 227.8,243.7 227.8,215.2 227.8,186.7 250.9,163.6 279.4,163.6 307.9,163.6 331,186.7 331,215.2 331,243.7 307.9,266.8 279.4,266.8 z M 279.4,178.7 C 259.2,178.7 242.8,195.1 242.8,215.3 242.8,235.5 259.2,251.9 279.4,251.9 299.6,251.9 316,235.5 316,215.3 316,195.1 299.6,178.7 279.4,178.7 z"
   inkscape:connector-curvature="0"
   style="fill:#c22b2e" />
</g><g
     id="g29">
	<circle
   id="circle31"
   r="44.099998"
   cy="456.79999"
   cx="355.5"
   d="M 399.6,456.79999 C 399.6,481.15574 379.85576,500.89999 355.5,500.89999 331.14424,500.89999 311.4,481.15574 311.4,456.79999 311.4,432.44423 331.14424,412.69999 355.5,412.69999 379.85576,412.69999 399.6,432.44423 399.6,456.79999 z"
   sodipodi:cx="355.5"
   sodipodi:cy="456.79999"
   sodipodi:rx="44.099998"
   sodipodi:ry="44.099998"
   style="fill:#c22b2e" />
	<path
   id="path33"
   d="M 355.5,508.4 C 327.1,508.4 303.9,485.3 303.9,456.8 303.9,428.3 327,405.2 355.5,405.2 384,405.2 407.1,428.3 407.1,456.8 407.1,485.3 384,508.4 355.5,508.4 z M 355.5,420.2 C 335.3,420.2 318.9,436.6 318.9,456.8 318.9,477 335.3,493.4 355.5,493.4 375.7,493.4 392.1,477 392.1,456.8 392.1,436.6 375.7,420.2 355.5,420.2 z"
   inkscape:connector-curvature="0"
   style="fill:#c22b2e" />
</g><g
     id="g35">
	<circle
   id="circle37"
   r="44.099998"
   cy="109"
   cx="617.79999"
   d="M 661.89999,109 C 661.89999,133.35576 642.15574,153.1 617.79999,153.1 593.44423,153.1 573.69999,133.35576 573.69999,109 573.69999,84.644243 593.44423,64.900002 617.79999,64.900002 642.15574,64.900002 661.89999,84.644243 661.89999,109 z"
   sodipodi:cx="617.79999"
   sodipodi:cy="109"
   sodipodi:rx="44.099998"
   sodipodi:ry="44.099998"
   style="fill:#c22b2e" />
	<path
   id="path39"
   d="M 617.8,160.6 C 589.4,160.6 566.2,137.5 566.2,109 566.2,80.5 589.3,57.4 617.8,57.4 646.3,57.4 669.4,80.5 669.4,109 669.4,137.5 646.3,160.6 617.8,160.6 z M 617.8,72.4 C 597.6,72.4 581.2,88.8 581.2,109 581.2,129.2 597.6,145.6 617.8,145.6 638,145.6 654.4,129.2 654.4,109 654.4,88.8 638,72.4 617.8,72.4 z"
   inkscape:connector-curvature="0"
   style="fill:#c22b2e" />
</g><g
     id="g41">
	<circle
   id="circle43"
   r="44.099998"
   cy="219.2"
   cx="695.5"
   d="M 739.6,219.2 C 739.6,243.55575 719.85576,263.3 695.5,263.3 671.14424,263.3 651.4,243.55575 651.4,219.2 651.4,194.84424 671.14424,175.1 695.5,175.1 719.85576,175.1 739.6,194.84424 739.6,219.2 z"
   sodipodi:cx="695.5"
   sodipodi:cy="219.2"
   sodipodi:rx="44.099998"
   sodipodi:ry="44.099998"
   style="fill:#c22b2e" />
	<path
   id="path45"
   d="M 695.5,270.8 C 667.1,270.8 643.9,247.7 643.9,219.2 643.9,190.7 667,167.6 695.5,167.6 724,167.6 747.1,190.7 747.1,219.2 747.1,247.7 724,270.8 695.5,270.8 z M 695.5,182.6 C 675.3,182.6 658.9,199 658.9,219.2 658.9,239.4 675.3,255.8 695.5,255.8 715.7,255.8 732.1,239.4 732.1,219.2 732.1,199 715.7,182.6 695.5,182.6 z"
   inkscape:connector-curvature="0"
   style="fill:#c22b2e" />
</g><g
     id="g47">
	<circle
   id="circle49"
   r="44.099998"
   cy="350.79999"
   cx="693.29999"
   d="M 737.39999,350.79999 C 737.39999,375.15574 717.65574,394.89999 693.29999,394.89999 668.94423,394.89999 649.19999,375.15574 649.19999,350.79999 649.19999,326.44423 668.94423,306.69999 693.29999,306.69999 717.65574,306.69999 737.39999,326.44423 737.39999,350.79999 z"
   sodipodi:cx="693.29999"
   sodipodi:cy="350.79999"
   sodipodi:rx="44.099998"
   sodipodi:ry="44.099998"
   style="fill:#c22b2e" />
	<path
   id="path51"
   d="M 693.3,402.4 C 664.9,402.4 641.7,379.3 641.7,350.8 641.7,322.3 664.8,299.2 693.3,299.2 721.8,299.2 744.9,322.3 744.9,350.8 744.9,379.3 721.8,402.4 693.3,402.4 z M 693.3,314.2 C 673.1,314.2 656.7,330.6 656.7,350.8 656.7,371 673.1,387.4 693.3,387.4 713.5,387.4 729.9,371 729.9,350.8 729.9,330.6 713.5,314.2 693.3,314.2 z"
   inkscape:connector-curvature="0"
   style="fill:#c22b2e" />
</g><g
     id="g53">
	<circle
   id="circle55"
   r="44.099998"
   cy="462.70001"
   cx="611.09998"
   d="M 655.19997,462.70001 C 655.19997,487.05577 635.45573,506.80001 611.09998,506.80001 586.74422,506.80001 566.99998,487.05577 566.99998,462.70001 566.99998,438.34426 586.74422,418.60001 611.09998,418.60001 635.45573,418.60001 655.19997,438.34426 655.19997,462.70001 z"
   sodipodi:cx="611.09998"
   sodipodi:cy="462.70001"
   sodipodi:rx="44.099998"
   sodipodi:ry="44.099998"
   style="fill:#c22b2e" />
	<path
   id="path57"
   d="M 611.1,514.3 C 582.7,514.3 559.5,491.2 559.5,462.7 559.5,434.2 582.6,411.1 611.1,411.1 639.6,411.1 662.7,434.2 662.7,462.7 662.7,491.2 639.5,514.3 611.1,514.3 z M 611.1,426.1 C 590.9,426.1 574.5,442.5 574.5,462.7 574.5,482.9 590.9,499.3 611.1,499.3 631.3,499.3 647.7,482.9 647.7,462.7 647.7,442.5 631.2,426.1 611.1,426.1 z"
   inkscape:connector-curvature="0"
   style="fill:#c22b2e" />
</g><g
     id="g59">
	<circle
   id="circle61"
   r="44.099998"
   cy="103.8"
   cx="362.70001"
   d="M 406.80001,103.8 C 406.80001,128.15576 387.05577,147.9 362.70001,147.9 338.34426,147.9 318.60001,128.15576 318.60001,103.8 318.60001,79.444246 338.34426,59.700005 362.70001,59.700005 387.05577,59.700005 406.80001,79.444246 406.80001,103.8 z"
   sodipodi:cx="362.70001"
   sodipodi:cy="103.8"
   sodipodi:rx="44.099998"
   sodipodi:ry="44.099998"
   style="fill:#c22b2e" />
	<path
   id="path63"
   d="M 362.7,155.4 C 334.3,155.4 311.1,132.3 311.1,103.8 311.1,75.3 334.2,52.2 362.7,52.2 391.2,52.2 414.3,75.3 414.3,103.8 414.3,132.3 391.2,155.4 362.7,155.4 z M 362.7,67.2 C 342.5,67.2 326.1,83.6 326.1,103.8 326.1,124 342.5,140.4 362.7,140.4 382.9,140.4 399.3,124 399.3,103.8 399.3,83.6 382.9,67.2 362.7,67.2 z"
   inkscape:connector-curvature="0"
   style="fill:#c22b2e" />
</g><g
     id="g65">
	<circle
   id="circle67"
   r="44.099998"
   cy="345.79999"
   cx="278.70001"
   d="M 322.80001,345.79999 C 322.80001,370.15574 303.05577,389.89999 278.70001,389.89999 254.34426,389.89999 234.60001,370.15574 234.60001,345.79999 234.60001,321.44423 254.34426,301.69999 278.70001,301.69999 303.05577,301.69999 322.80001,321.44423 322.80001,345.79999 z"
   sodipodi:cx="278.70001"
   sodipodi:cy="345.79999"
   sodipodi:rx="44.099998"
   sodipodi:ry="44.099998"
   style="fill:#c22b2e" />
	<path
   id="path69"
   d="M 278.7,397.4 C 250.3,397.4 227.1,374.3 227.1,345.8 227.1,317.3 250.2,294.2 278.7,294.2 307.2,294.2 330.3,317.3 330.3,345.8 330.3,374.3 307.1,397.4 278.7,397.4 z M 278.7,309.3 C 258.5,309.3 242.1,325.7 242.1,345.9 242.1,366.1 258.5,382.5 278.7,382.5 298.9,382.5 315.3,366.1 315.3,345.9 315.3,325.7 298.9,309.3 278.7,309.3 z"
   inkscape:connector-curvature="0"
   style="fill:#c22b2e" />
</g><g
     id="g71">
	<circle
   id="circle73"
   r="44.099998"
   cy="64.900002"
   cx="486.89999"
   d="M 530.99999,64.900002 C 530.99999,89.255758 511.25575,109 486.89999,109 462.54424,109 442.8,89.255758 442.8,64.900002 442.8,40.544245 462.54424,20.800003 486.89999,20.800003 511.25575,20.800003 530.99999,40.544245 530.99999,64.900002 z"
   sodipodi:cx="486.89999"
   sodipodi:cy="64.900002"
   sodipodi:rx="44.099998"
   sodipodi:ry="44.099998"
   style="fill:#c22b2e" />
	<path
   id="path75"
   d="M 486.9,116.5 C 458.5,116.5 435.3,93.4 435.3,64.9 435.3,36.4 458.4,13.3 486.9,13.3 515.4,13.3 538.5,36.4 538.5,64.9 538.5,93.4 515.4,116.5 486.9,116.5 z M 486.9,28.3 C 466.7,28.3 450.3,44.7 450.3,64.9 450.3,85.1 466.7,101.5 486.9,101.5 507.1,101.5 523.5,85.1 523.5,64.9 523.5,44.7 507.1,28.3 486.9,28.3 z"
   inkscape:connector-curvature="0"
   style="fill:#c22b2e" />
</g><g
     id="g77">
	<circle
   id="circle79"
   r="44.099998"
   cy="500.89999"
   cx="486.89999"
   d="M 530.99999,500.89999 C 530.99999,525.25575 511.25575,544.99999 486.89999,544.99999 462.54424,544.99999 442.8,525.25575 442.8,500.89999 442.8,476.54424 462.54424,456.8 486.89999,456.8 511.25575,456.8 530.99999,476.54424 530.99999,500.89999 z"
   sodipodi:cx="486.89999"
   sodipodi:cy="500.89999"
   sodipodi:rx="44.099998"
   sodipodi:ry="44.099998"
   style="fill:#c22b2e" />
	<path
   id="path81"
   d="M 486.9,552.5 C 458.5,552.5 435.3,529.4 435.3,500.9 435.3,472.4 458.4,449.3 486.9,449.3 515.4,449.3 538.5,472.4 538.5,500.9 538.5,529.4 515.4,552.5 486.9,552.5 z M 486.9,464.3 C 466.7,464.3 450.3,480.7 450.3,500.9 450.3,521.1 466.7,537.5 486.9,537.5 507.1,537.5 523.5,521.1 523.5,500.9 523.5,480.7 507.1,464.3 486.9,464.3 z"
   inkscape:connector-curvature="0"
   style="fill:#c22b2e" />
</g><g
     id="g83">
	<circle
   id="circle85"
   r="80.699997"
   cy="278.5"
   cx="486.29999"
   d="M 566.99998,278.5 C 566.99998,323.06938 530.86937,359.2 486.29999,359.2 441.73061,359.2 405.59999,323.06938 405.59999,278.5 405.59999,233.93062 441.73061,197.8 486.29999,197.8 530.86937,197.8 566.99998,233.93062 566.99998,278.5 z"
   sodipodi:cx="486.29999"
   sodipodi:cy="278.5"
   sodipodi:rx="80.699997"
   sodipodi:ry="80.699997"
   style="fill:#ffffff" />
</g><g
     id="g87">
	<g
   id="g89">
		<path
   id="path91"
   d="M 453.1,245.8 487.2,278.9 486.5,231.4 C 473.1,231.6 462.5,236.2 453.1,245.8 z"
   inkscape:connector-curvature="0"
   style="fill:#22a0cc" />
	</g>
	<g
   id="g93">
		<path
   id="path95"
   d="M 485.4,279.9 446.7,242.2 C 436.3,253 431.3,265.6 431.4,280.6 L 485.4,279.9 z"
   inkscape:connector-curvature="0"
   style="fill:#22a0cc" />
	</g>
	<g
   id="g97">
		<path
   id="path99"
   d="M 487.2,304.8 486.9,283 471.8,298.6 C 476,302.8 481.2,304.8 487.2,304.8 z"
   inkscape:connector-curvature="0"
   style="fill:#22a0cc" />
	</g>
	<g
   id="g101">
		<path
   id="path103"
   d="M 524.6,317.6 489.1,283.1 489.8,332.6 C 503.4,332.3 515.1,327.3 524.6,317.6 z"
   inkscape:connector-curvature="0"
   style="fill:#22a0cc" />
	</g>
	<g
   id="g105">
		<path
   id="path107"
   d="M 490.6,281.6 515,305.3 C 521.3,298.6 524.6,290.3 524.6,281.1 L 490.6,281.6 z"
   inkscape:connector-curvature="0"
   style="fill:#22a0cc" />
	</g>
	<g
   id="g109">
		<path
   id="path111"
   d="M 491,279.9 545.5,279.2 C 545.2,264.1 539.8,251.5 529,240.9 L 491,279.9 z"
   inkscape:connector-curvature="0"
   style="fill:#22a0cc" />
	</g>
	<g
   id="g113">
		<path
   id="path115"
   d="M 532.3,234.5 C 520,222.8 505.8,217 488.9,217 488.7,217 488.5,217 488.2,217 L 489.1,278.9 532.3,234.5 z"
   inkscape:connector-curvature="0"
   style="fill:#22a0cc" />
	</g>
	<g
   id="g117">
		<path
   id="path119"
   d="M 485.4,281.6 425.2,282.4 C 425.5,299.2 431.4,313 443.4,324.7 L 485.4,281.6 z"
   inkscape:connector-curvature="0"
   style="fill:#22a0cc" />
	</g>
</g></g>
</svg>