<?xml version="1.0" encoding="UTF-8" standalone="no"?>
<!-- Generator: Adobe Illustrator 17.1.0, SVG Export Plug-In . SVG Version: 6.00 Build 0)  -->

<svg
   xmlns:dc="http://purl.org/dc/elements/1.1/"
   xmlns:cc="http://creativecommons.org/ns#"
   xmlns:rdf="http://www.w3.org/1999/02/22-rdf-syntax-ns#"
   xmlns:svg="http://www.w3.org/2000/svg"
   xmlns="http://www.w3.org/2000/svg"
   xmlns:xlink="http://www.w3.org/1999/xlink"
   xmlns:sodipodi="http://sodipodi.sourceforge.net/DTD/sodipodi-0.dtd"
   xmlns:inkscape="http://www.inkscape.org/namespaces/inkscape"
   version="1.1"
   id="Layer_1"
   x="0px"
   y="0px"
   viewBox="0 0 170 510"
   enable-background="new 0 0 960 560"
   xml:space="preserve"
   inkscape:version="0.48.4 r9939"
   width="100%"
   height="100%"
   sodipodi:docname="geek.svg"><metadata
   id="metadata283"><rdf:RDF><cc:Work
       rdf:about=""><dc:format>image/svg+xml</dc:format><dc:type
         rdf:resource="http://purl.org/dc/dcmitype/StillImage" /></cc:Work></rdf:RDF></metadata><defs
   id="defs281" /><sodipodi:namedview
   pagecolor="#ffffff"
   bordercolor="#666666"
   borderopacity="1"
   objecttolerance="10"
   gridtolerance="10"
   guidetolerance="10"
   inkscape:pageopacity="0"
   inkscape:pageshadow="2"
   inkscape:window-width="640"
   inkscape:window-height="480"
   id="namedview279"
   showgrid="false"
   inkscape:showpageshadow="false"
   inkscape:zoom="0.29791667"
   inkscape:cx="480"
   inkscape:cy="280"
   inkscape:window-x="0"
   inkscape:window-y="0"
   inkscape:window-maximized="0"
   inkscape:current-layer="Layer_1" />
<g
   id="g3"
   transform="translate(-394.72727,-19.146853)">
	<g
   id="g5">
		<path
   d="M 552.2,263.4 C 552.2,263.4 515.5,220.7 503,172.7 L 493.6,175.8 C 493.6,175.8 515,236.3 545.1,268.1 L 552.2,263.4 z"
   id="path7"
   inkscape:connector-curvature="0"
   style="fill:#22a1cd" />
	</g>
	<g
   id="g9">
		<polygon
   points="556.3,313.1 556.3,269.7 546.7,260.1 541.1,261.9 522.2,273.6 537.2,326.6 "
   id="polygon11"
   style="fill:#01405f" />
	</g>
	<g
   id="g13">
		<circle
   cx="527.70001"
   cy="283.10001"
   r="9.5"
   id="circle15"
   d="M 537.20001,283.10001 C 537.20001,288.34671 532.94672,292.60001 527.70001,292.60001 522.45331,292.60001 518.20001,288.34671 518.20001,283.10001 518.20001,277.8533 522.45331,273.60001 527.70001,273.60001 532.94672,273.60001 537.20001,277.8533 537.20001,283.10001 z"
   sodipodi:cx="527.70001"
   sodipodi:cy="283.10001"
   sodipodi:rx="9.5"
   sodipodi:ry="9.5"
   style="fill:#22a1cd" />
	</g>
	<g
   id="g17">
		<rect
   x="518.20001"
   y="283.10001"
   width="19"
   height="43.5"
   id="rect19"
   style="fill:#22a1cd" />
	</g>
	<g
   id="g21">
		<circle
   cx="546.70001"
   cy="269.70001"
   r="9.5"
   id="circle23"
   d="M 556.20001,269.70001 C 556.20001,274.94672 551.94672,279.20001 546.70001,279.20001 541.45331,279.20001 537.20001,274.94672 537.20001,269.70001 537.20001,264.45331 541.45331,260.20001 546.70001,260.20001 551.94672,260.20001 556.20001,264.45331 556.20001,269.70001 z"
   sodipodi:cx="546.70001"
   sodipodi:cy="269.70001"
   sodipodi:rx="9.5"
   sodipodi:ry="9.5"
   style="fill:#01405f" />
	</g>
	<g
   id="g25">
		<rect
   x="537.20001"
   y="269.70001"
   width="19"
   height="43.5"
   id="rect27"
   style="fill:#01405f" />
	</g>
	<g
   id="g29">
		<path
   d="M 518.1,283.1 C 518.1,302.1 504.9,317.5 488.5,317.5 H 474.2 C 457.8,317.5 444.6,302.1 444.6,283.1 L 448.9,225.8 444.6,165.9 C 444.6,146.9 457.8,131.5 474.2,131.5 H 488.5 C 504.9,131.5 518.1,146.9 518.1,165.9 L 513.8,225.8 518.1,283.1 z"
   id="path31"
   inkscape:connector-curvature="0"
   style="fill:#591b16" />
	</g>
	<g
   id="g33">
		<polygon
   points="479,320.2 486.6,320.2 492.1,519.5 508.8,519.5 518.1,283.6 444.6,280.9 454.1,519.5 470.7,519.5 "
   id="polygon35"
   style="fill:#22a1cd" />
	</g>
	<g
   id="g37">
		<path
   d="M 518.1,283.6 517.7,299.3 C 517.7,299.3 505.2,299.9 503.1,283 L 518.1,283.6 z"
   id="path39"
   inkscape:connector-curvature="0"
   style="fill:#01405f" />
	</g>
	<g
   id="g41">
		<path
   d="M 444.6,280.9 445,297.4 C 445,297.4 461.3,301.6 463.9,281.6 L 444.6,280.9 z"
   id="path43"
   inkscape:connector-curvature="0"
   style="fill:#01405f" />
	</g>
	<g
   id="g45">
		<path
   d="M 505.4,518.8 503.9,518.7 504,515.7 505.5,515.8 505.4,518.8 z M 505.6,512.8 504.1,512.7 504.2,509.7 505.7,509.8 505.6,512.8 z M 505.8,506.8 504.3,506.8 504.4,503.8 505.9,503.8 505.8,506.8 z M 506,500.8 504.5,500.7 504.6,497.7 506.1,497.8 506,500.8 z M 506.2,494.8 504.7,494.7 504.8,491.7 506.3,491.8 506.2,494.8 z M 506.4,488.8 504.9,488.7 505,485.7 506.5,485.8 506.4,488.8 z M 506.6,482.7 505.1,482.6 505.2,479.6 506.7,479.7 506.6,482.7 z M 506.8,476.7 505.3,476.7 505.4,473.7 506.9,473.7 506.8,476.7 z M 507,470.7 505.5,470.6 505.6,467.6 507.1,467.7 507,470.7 z M 507.2,464.7 505.7,464.6 505.8,461.6 507.3,461.7 507.2,464.7 z M 507.4,458.7 505.9,458.7 506,455.7 507.5,455.7 507.4,458.7 z M 507.6,452.7 506.1,452.6 506.2,449.6 507.7,449.7 507.6,452.7 z M 507.8,446.7 506.3,446.6 506.4,443.6 507.9,443.7 507.8,446.7 z M 508,440.7 506.5,440.7 506.6,437.7 508.1,437.7 508,440.7 z M 508.2,434.7 506.7,434.6 506.8,431.6 508.3,431.7 508.2,434.7 z M 508.4,428.7 506.9,428.6 507,425.6 508.5,425.7 508.4,428.7 z M 508.6,422.6 507.1,422.5 507.2,419.5 508.7,419.6 508.6,422.6 z M 508.8,416.6 507.3,416.5 507.4,413.5 508.9,413.6 508.8,416.6 z M 509,410.6 507.5,410.6 507.6,407.6 509.1,407.6 509,410.6 z M 509.2,404.6 507.7,404.5 507.8,401.5 509.3,401.6 509.2,404.6 z M 509.4,398.6 507.9,398.5 508,395.5 509.5,395.6 509.4,398.6 z M 509.6,392.6 508.1,392.5 508.2,389.5 509.7,389.6 509.6,392.6 z M 509.8,386.6 508.3,386.5 508.4,383.5 509.9,383.6 509.8,386.6 z M 510,380.6 508.5,380.5 508.6,377.5 510.1,377.6 510,380.6 z M 510.2,374.6 508.7,374.5 508.8,371.5 510.3,371.6 510.2,374.6 z M 510.4,368.5 508.9,368.4 509,365.4 510.5,365.5 510.4,368.5 z M 510.6,362.5 509.1,362.4 509.2,359.4 510.7,359.5 510.6,362.5 z M 510.8,356.5 509.3,356.4 509.4,353.4 510.9,353.5 510.8,356.5 z M 511,350.5 509.5,350.4 509.6,347.4 511.1,347.5 511,350.5 z M 511.2,344.5 509.7,344.5 509.8,341.5 511.3,341.5 511.2,344.5 z M 511.4,338.5 509.9,338.4 510,335.4 511.5,335.5 511.4,338.5 z M 511.6,332.5 510.1,332.4 510.2,329.4 511.7,329.5 511.6,332.5 z M 511.8,326.5 510.3,326.4 510.4,323.4 511.9,323.5 511.8,326.5 z M 512,320.5 510.5,320.4 510.6,317.4 512.1,317.5 512,320.5 z M 512.2,314.5 510.7,314.5 510.8,311.5 512.3,311.5 512.2,314.5 z M 512.4,308.4 510.9,308.3 511,305.3 512.5,305.4 512.4,308.4 z M 512.6,302.4 511.1,302.3 511.2,299.3 512.7,299.4 512.6,302.4 z"
   id="path47"
   inkscape:connector-curvature="0"
   style="fill:#ffffff" />
	</g>
	<g
   id="g49">
		<path
   d="M 456.8,517.2 456.7,514.2 458.2,514.1 458.3,517.1 456.8,517.2 z M 456.5,511.2 456.4,508.2 457.9,508.1 458,511.1 456.5,511.2 z M 456.3,505.2 456.2,502.2 457.7,502.1 457.8,505.1 456.3,505.2 z M 456,499.1 455.9,496.1 457.4,496 457.5,499 456,499.1 z M 455.8,493.1 455.7,490.1 457.2,490 457.3,493 455.8,493.1 z M 455.6,487.1 455.5,484.1 457,484 457.1,487 455.6,487.1 z M 455.3,481.1 455.2,478.1 456.7,478 456.8,481 455.3,481.1 z M 455.1,475.1 455,472.1 456.5,472 456.6,475 455.1,475.1 z M 454.8,469.1 454.7,466.1 456.2,466 456.3,469 454.8,469.1 z M 454.6,463.1 454.5,460.1 456,460 456.1,463 454.6,463.1 z M 454.4,457.1 454.3,454.1 455.8,454 455.9,457 454.4,457.1 z M 454.1,451.1 454,448.1 455.5,448 455.6,451 454.1,451.1 z M 453.9,445.1 453.8,442.1 455.3,442 455.4,445 453.9,445.1 z M 453.7,439.1 453.6,436.1 455.1,436 455.2,439 453.7,439.1 z M 453.4,433 453.3,430 454.8,429.9 454.9,432.9 453.4,433 z M 453.2,427 453.1,424 454.6,423.9 454.7,426.9 453.2,427 z M 452.9,421 452.8,418 454.3,417.9 454.4,420.9 452.9,421 z M 452.7,415 452.6,412 454.1,411.9 454.2,414.9 452.7,415 z M 452.5,409 452.4,406 453.9,405.9 454,408.9 452.5,409 z M 452.2,403 452.1,400 453.6,399.9 453.7,402.9 452.2,403 z M 452,397 451.9,394 453.4,393.9 453.5,396.9 452,397 z M 451.7,391 451.6,388 453.1,387.9 453.2,390.9 451.7,391 z M 451.5,385 451.4,382 452.9,381.9 453,384.9 451.5,385 z M 451.3,379 451.2,376 452.7,375.9 452.8,378.9 451.3,379 z M 451,373 450.9,370 452.4,369.9 452.5,372.9 451,373 z M 450.8,366.9 450.7,363.9 452.2,363.8 452.3,366.8 450.8,366.9 z M 450.5,360.9 450.4,357.9 451.9,357.8 452,360.8 450.5,360.9 z M 450.3,354.9 450.2,351.9 451.7,351.8 451.8,354.8 450.3,354.9 z M 450.1,348.9 450,345.9 451.5,345.8 451.6,348.8 450.1,348.9 z M 449.8,342.9 449.7,339.9 451.2,339.8 451.3,342.8 449.8,342.9 z M 449.6,336.9 449.5,333.9 451,333.8 451.1,336.8 449.6,336.9 z M 449.4,330.9 449.3,327.9 450.8,327.8 450.9,330.8 449.4,330.9 z M 449.1,324.9 449,321.9 450.5,321.8 450.6,324.8 449.1,324.9 z M 448.9,318.9 448.8,315.9 450.3,315.8 450.4,318.8 448.9,318.9 z M 448.6,312.9 448.5,309.9 450,309.8 450.1,312.8 448.6,312.9 z M 448.4,306.9 448.3,303.9 449.8,303.8 449.9,306.8 448.4,306.9 z M 448.2,300.8 448.1,297.8 449.6,297.7 449.7,300.7 448.2,300.8 z"
   id="path51"
   inkscape:connector-curvature="0"
   style="fill:#ffffff" />
	</g>
	<g
   id="g53">
		<path
   d="M 514,49.3 H 513.8 C 507.7,36.4 496.2,31.3 482.8,31.3 469.3,31.3 457.8,36.3 451.8,49.3 H 451.6 C 449.6,53 447.6,58.4 446.3,65.8 444.8,82.8 442.8,97 442.8,97 H 451.4 V 122.8 C 451.4,122.8 502.1,137.1 516.2,82.8 516.2,82.8 518.3,77.2 518.3,66.6 517.9,61.4 518.3,54.8 514,49.3 z"
   id="path55"
   inkscape:connector-curvature="0"
   style="fill:#c32b2e" />
	</g>
	<g
   id="g57">
		<path
   d="M 492.1,120.9 V 132.2 C 492.1,132.2 482.2,140.6 467,136.9 V 128 C 467,127.9 482.4,127.4 492.1,120.9 z"
   id="path59"
   inkscape:connector-curvature="0"
   style="fill:#c32b2e" />
	</g>
	<g
   id="g61">
		<path
   d="M 464.6,73.4 C 464.6,71.7 463.1,70.2 461.4,70.2 459.7,70.2 458.2,71.7 458.2,73.4 458.2,75.1 459.7,76.6 461.4,76.6 463.2,76.6 464.6,75.2 464.6,73.4 z"
   id="path63"
   inkscape:connector-curvature="0"
   style="fill:#591b16" />
	</g>
	<g
   id="g65">
		<path
   d="M 482.6,26.7 C 482.6,26.7 454,15.7 444.5,52 444.5,52 463.6,68.2 485.3,61.2 485.3,61.2 498.4,105.3 474.4,125.1 474.4,125.1 526.9,138.8 544,95.4 561.4,51.5 531.2,2.2 482.6,26.7 z"
   id="path67"
   inkscape:connector-curvature="0"
   style="fill:#591b16" />
	</g>
	<g
   id="g69">
		<g
   id="g71">
			<defs
   id="defs73">
				<path
   id="SVGID_1_"
   d="M 482.6,26.7 C 482.6,26.7 454,15.7 444.5,52 444.5,52 463.6,68.2 485.3,61.2 485.3,61.2 498.4,105.3 474.4,125.1 474.4,125.1 526.9,138.8 544,95.4 561.4,51.5 531.2,2.2 482.6,26.7 z"
   inkscape:connector-curvature="0" />
			</defs>
			<clipPath
   id="SVGID_2_">
				<use
   xlink:href="#SVGID_1_"
   overflow="visible"
   id="use77"
   style="overflow:visible"
   x="0"
   y="0"
   width="960"
   height="560" />
			</clipPath>
			<g
   clip-path="url(#SVGID_2_)"
   id="g79">
				<path
   d="M 481,132.9 480.5,132.3 C 494,121.8 508.2,101.7 499.3,65.9 495.2,49.6 487.6,35.7 484.2,30 488.5,42.8 502.8,90.3 488.8,115.9 484.2,124.3 476.9,129.7 467.1,131.8 L 466.9,131.1 C 476.5,129 483.6,123.8 488.1,115.6 504.1,86.3 482.5,27.7 482.3,27.1 L 481.2,24.1 483,26.8 C 483.1,27 494.5,44.2 500,65.8 505,85.6 505.8,113.5 481,132.9 z"
   id="path81"
   inkscape:connector-curvature="0"
   style="fill:#c32b2e" />
			</g>
		</g>
		<g
   id="g83">
			<defs
   id="defs85">
				<path
   id="SVGID_3_"
   d="M 482.6,26.7 C 482.6,26.7 454,15.7 444.5,52 444.5,52 463.6,68.2 485.3,61.2 485.3,61.2 498.4,105.3 474.4,125.1 474.4,125.1 526.9,138.8 544,95.4 561.4,51.5 531.2,2.2 482.6,26.7 z"
   inkscape:connector-curvature="0" />
			</defs>
			<clipPath
   id="SVGID_4_">
				<use
   xlink:href="#SVGID_3_"
   overflow="visible"
   id="use89"
   style="overflow:visible"
   x="0"
   y="0"
   width="960"
   height="560" />
			</clipPath>
			<g
   clip-path="url(#SVGID_4_)"
   id="g91">
				<path
   d="M 496,131 495.4,130.5 C 495.5,130.4 504.9,118.6 507.9,100 513,69 496.8,43.2 482.3,27.1 L 480.6,25.3 482.7,26.6 C 482.8,26.7 496.9,35.2 506.6,52.3 522.8,80.8 514.5,110.9 504.6,131 L 503.9,130.7 C 513.7,110.7 521.9,81 505.9,52.7 498.7,40 489.1,32.1 484.7,28.9 498.8,45.2 513.5,70.3 508.5,100.3 505.5,118.9 496.1,130.8 496,131 z"
   id="path93"
   inkscape:connector-curvature="0"
   style="fill:#c32b2e" />
			</g>
		</g>
		<g
   id="g95">
			<defs
   id="defs97">
				<path
   id="SVGID_5_"
   d="M 482.6,26.7 C 482.6,26.7 454,15.7 444.5,52 444.5,52 463.6,68.2 485.3,61.2 485.3,61.2 498.4,105.3 474.4,125.1 474.4,125.1 526.9,138.8 544,95.4 561.4,51.5 531.2,2.2 482.6,26.7 z"
   inkscape:connector-curvature="0" />
			</defs>
			<clipPath
   id="SVGID_6_">
				<use
   xlink:href="#SVGID_5_"
   overflow="visible"
   id="use101"
   style="overflow:visible"
   x="0"
   y="0"
   width="960"
   height="560" />
			</clipPath>
			<g
   clip-path="url(#SVGID_6_)"
   id="g103">
				<path
   d="M 517.3,127.7 516.6,127.5 C 516.7,127.3 523,107.1 522,84.7 521,64.1 513.4,37.4 482.6,27.1 L 480.4,26.4 482.8,26.4 C 483,26.4 503,26.7 517.2,43.9 531.4,61 535.1,88.3 528.3,124.9 L 527.6,124.8 C 534.3,88.4 530.7,61.4 516.7,44.5 505.9,31.4 491.6,28.2 485.7,27.5 514.7,38.6 522,64.6 522.9,84.8 523.8,107.1 517.4,127.5 517.3,127.7 z"
   id="path105"
   inkscape:connector-curvature="0"
   style="fill:#c32b2e" />
			</g>
		</g>
		<g
   id="g107">
			<defs
   id="defs109">
				<path
   id="SVGID_7_"
   d="M 482.6,26.7 C 482.6,26.7 454,15.7 444.5,52 444.5,52 463.6,68.2 485.3,61.2 485.3,61.2 498.4,105.3 474.4,125.1 474.4,125.1 526.9,138.8 544,95.4 561.4,51.5 531.2,2.2 482.6,26.7 z"
   inkscape:connector-curvature="0" />
			</defs>
			<clipPath
   id="SVGID_8_">
				<use
   xlink:href="#SVGID_7_"
   overflow="visible"
   id="use113"
   style="overflow:visible"
   x="0"
   y="0"
   width="960"
   height="560" />
			</clipPath>
			<g
   clip-path="url(#SVGID_8_)"
   id="g115">
				<path
   d="M 540,111.3 539.3,111.2 C 539.4,110.7 545.6,64.8 523.6,41 513.9,30.6 500.1,25.9 482.7,27 L 479.4,27.2 482.5,26.2 C 482.7,26.1 506.3,19.2 525.7,33.4 542.5,45.7 551.3,69.6 551.8,104.6 L 551,104.6 C 550.5,69.9 541.9,46.2 525.2,34 510.9,23.6 494.4,24.7 486.8,26 487.1,26 487.4,26 487.7,26 503,26 515.2,30.8 524.1,40.4 546.4,64.5 540,110.9 540,111.3 z"
   id="path117"
   inkscape:connector-curvature="0"
   style="fill:#c32b2e" />
			</g>
		</g>
		<g
   id="g119">
			<defs
   id="defs121">
				<path
   id="SVGID_9_"
   d="M 482.6,26.7 C 482.6,26.7 454,15.7 444.5,52 444.5,52 463.6,68.2 485.3,61.2 485.3,61.2 498.4,105.3 474.4,125.1 474.4,125.1 526.9,138.8 544,95.4 561.4,51.5 531.2,2.2 482.6,26.7 z"
   inkscape:connector-curvature="0" />
			</defs>
			<clipPath
   id="SVGID_10_">
				<use
   xlink:href="#SVGID_9_"
   overflow="visible"
   id="use125"
   style="overflow:visible"
   x="0"
   y="0"
   width="960"
   height="560" />
			</clipPath>
			<g
   clip-path="url(#SVGID_10_)"
   id="g127">
				<path
   d="M 453.7,63.4 453,63.2 C 456.6,47 464.5,37.8 470.4,33 474.3,29.9 477.8,28.1 480.1,27.2 454.8,29 448.6,57.2 448.5,57.5 L 447.8,57.3 C 447.9,57 454.7,26.3 482.7,26.3 H 485.9 L 482.8,27 C 482.4,27.2 460.5,32.8 453.7,63.4 z"
   id="path129"
   inkscape:connector-curvature="0"
   style="fill:#c32b2e" />
			</g>
		</g>
		<g
   id="g131">
			<defs
   id="defs133">
				<path
   id="SVGID_11_"
   d="M 482.6,26.7 C 482.6,26.7 454,15.7 444.5,52 444.5,52 463.6,68.2 485.3,61.2 485.3,61.2 498.4,105.3 474.4,125.1 474.4,125.1 526.9,138.8 544,95.4 561.4,51.5 531.2,2.2 482.6,26.7 z"
   inkscape:connector-curvature="0" />
			</defs>
			<clipPath
   id="SVGID_12_">
				<use
   xlink:href="#SVGID_11_"
   overflow="visible"
   id="use137"
   style="overflow:visible"
   x="0"
   y="0"
   width="960"
   height="560" />
			</clipPath>
			<g
   clip-path="url(#SVGID_12_)"
   id="g139">
				<path
   d="M 470.1,68.1 C 468.3,50.5 477.4,34.2 480.9,28.5 464.1,42.9 461.8,64.9 461.8,65.1 L 461.1,65 C 461.1,64.8 463.7,40.8 482.4,26.3 L 484.5,24.7 482.9,26.8 C 482.8,27 468.7,46.5 470.9,67.9 L 470.1,68.1 z"
   id="path141"
   inkscape:connector-curvature="0"
   style="fill:#c32b2e" />
			</g>
		</g>
		<g
   id="g143">
			<defs
   id="defs145">
				<path
   id="SVGID_13_"
   d="M 482.6,26.7 C 482.6,26.7 454,15.7 444.5,52 444.5,52 463.6,68.2 485.3,61.2 485.3,61.2 498.4,105.3 474.4,125.1 474.4,125.1 526.9,138.8 544,95.4 561.4,51.5 531.2,2.2 482.6,26.7 z"
   inkscape:connector-curvature="0" />
			</defs>
			<clipPath
   id="SVGID_14_">
				<use
   xlink:href="#SVGID_13_"
   overflow="visible"
   id="use149"
   style="overflow:visible"
   x="0"
   y="0"
   width="960"
   height="560" />
			</clipPath>
			<g
   clip-path="url(#SVGID_14_)"
   id="g151">
				<path
   d="M 476,66.2 475.3,66.1 C 475.3,65.9 477.2,42 482.3,26.5 L 482.7,25.2 483,26.5 C 483,26.7 486.7,43.6 485.1,66.1 L 484.3,66 C 485.6,47.3 483.3,32.5 482.5,28 477.7,43.6 476,66 476,66.2 z"
   id="path153"
   inkscape:connector-curvature="0"
   style="fill:#c32b2e" />
			</g>
		</g>
	</g>
	<g
   id="g155">
		<path
   d="M 471.1,517.6 H 437.4 C 431.4,517.6 426.6,522.4 426.6,528.4 H 471 V 517.6 z"
   id="path157"
   inkscape:connector-curvature="0"
   style="fill:#591b16" />
	</g>
	<g
   id="g159">
		<rect
   x="442.70001"
   y="517.59998"
   width="28.4"
   height="5.4000001"
   id="rect161"
   style="fill:#c32b2e" />
	</g>
	<g
   id="g163">
		<path
   d="M 492.5,517.6 H 526.2 C 532.2,517.6 537,522.4 537,528.4 H 492.6 V 517.6 z"
   id="path165"
   inkscape:connector-curvature="0"
   style="fill:#591b16" />
	</g>
	<g
   id="g167">
		<rect
   x="492.5"
   y="517.59998"
   width="28.4"
   height="5.4000001"
   id="rect169"
   style="fill:#c32b2e" />
	</g>
	<g
   id="g171">
		<path
   d="M 428.7,169.4 395.5,215.1 449.4,298.1 C 449.4,298.1 459.2,295.3 461.3,289.7 L 418.5,213.7 446.2,183 441.3,168.3 428.7,169.4 z"
   id="path173"
   inkscape:connector-curvature="0"
   style="fill:#c32b2e" />
	</g>
	<g
   id="g175">
		<polygon
   points="466.3,164.6 456,138.6 426,167.6 448.8,183.5 "
   id="polygon177"
   style="fill:#591b16" />
	</g>
	<g
   id="g179">
		<polygon
   points="479,132.2 467,136.8 479.5,152.9 492.1,132.2 "
   id="polygon181"
   style="fill:#c32b2e" />
	</g>
	<g
   id="g183">
		<path
   d="M 506.9,208 C 505.2,204.9 503.8,199.4 502.9,194.9 501.8,190.1 501.2,187.3 499.7,184.9 498.2,182.5 496.3,183.4 496.3,183.4 494.1,177.2 488.2,172.8 481.2,172.8 474.2,172.8 468.3,177.2 466.1,183.4 L 466.1,183.4 C 466.1,183.4 464.1,182.4 462.7,184.9 461.2,187.3 460.6,190.3 459.5,194.9 458.5,199.4 457.2,204.8 455.5,208 455,208.6 454.8,209.5 454.8,210.3 454.8,212.6 456.6,214.5 459,214.5 459.9,214.5 460.7,214.3 461.4,213.8 461.4,213.8 463.8,212.6 465.2,210.9 465.2,210.9 465.2,212.5 467.8,211.8 467.8,211.8 468.2,214.5 470.7,214.6 472.4,214.7 475.8,211.7 481.6,211.7 H 481.7 C 487,212.1 490,214.6 491.6,214.6 494.2,214.5 494.5,211.8 494.5,211.8 497.1,212.5 497.1,210.9 497.1,210.9 498.4,212.6 500.9,213.8 500.9,213.8 501.6,214.3 502.4,214.5 503.3,214.5 505.6,214.5 507.5,212.7 507.5,210.3 507.7,209.4 507.4,208.6 506.9,208 z"
   id="path185"
   inkscape:connector-curvature="0"
   style="fill:#ffffff" />
	</g>
	<g
   id="g187">
		<path
   d="M 485.4,196.1 C 485,195.4 481.2,193.4 481.2,193.4 481.2,193.4 477.5,195.5 477,196.1 476.6,196.8 476.8,197.7 477.5,198.2 478.2,198.6 479.1,198.4 479.6,197.7 479.7,197.5 480,196.8 480.2,196.2 L 480.2,196.2 C 480.4,196 480.7,195.7 481.2,195.7 481.6,195.7 481.9,195.9 482.2,196.3 L 482.2,196.3 C 482.4,196.9 482.7,197.4 482.8,197.6 483.2,198.3 484.1,198.5 484.9,198.1 485.6,197.7 485.9,196.8 485.4,196.1 z"
   id="path189"
   inkscape:connector-curvature="0"
   style="fill:#591b16" />
	</g>
	<g
   id="g191">
		<path
   d="M 503.5,223.5 C 503,216.6 497.7,216 497.7,216 V 226.3 C 496.4,225.7 493.2,224.1 493.2,224.1 493.2,224.1 493.3,222.1 493.3,219.8 493.3,217.5 492.6,217.4 492.6,217.4 487.3,213.9 481.5,213.7 481.5,213.7 481.5,213.7 475.6,213.8 470.4,217.4 470.4,217.4 469.7,217.5 469.7,219.8 469.7,222.1 469.8,224.1 469.8,224.1 469.8,224.1 466.5,225.7 465.3,226.3 V 216 C 465.3,216 460,216.6 459.5,223.5 459,230.4 460.5,235.3 462.3,237.8 464.3,240.5 466.5,238.9 468.2,236.9 469.9,234.9 476.4,230.5 481.5,230.4 486.6,230.5 493.1,234.9 494.8,236.9 496.5,238.9 498.8,240.4 500.7,237.8 502.5,235.1 503.9,230.4 503.5,223.5 z"
   id="path193"
   inkscape:connector-curvature="0"
   style="fill:#ffffff" />
	</g>
	<g
   id="g195">
		<g
   id="g197">
			<path
   d="M 472.8,221.8 C 472.8,221.8 473.7,221.1 475.2,220.5 475.9,220.1 476.9,219.9 478,219.6 478.5,219.5 479.1,219.4 479.6,219.4 480.2,219.3 480.7,219.3 481.3,219.3 481.9,219.3 482.4,219.3 483,219.4 483.6,219.4 484.1,219.6 484.6,219.6 485.1,219.7 485.6,219.8 486.1,220 486.6,220.1 487,220.4 487.3,220.5 487.6,220.6 488,220.9 488.3,221 488.6,221.1 488.8,221.4 489,221.5 489.4,221.7 489.6,221.9 489.6,221.9 489.7,222 489.7,222.1 489.7,222.3 489.6,222.4 489.5,222.4 489.3,222.4 L 489.3,222.4 C 489.3,222.4 489.1,222.3 488.6,222.2 488.4,222.1 488.1,222.1 487.7,222 487.5,221.9 487.1,221.9 486.6,221.8 486.2,221.7 485.9,221.6 485.4,221.6 484.9,221.5 484.5,221.4 484.1,221.4 483.6,221.4 483.1,221.3 482.6,221.3 482.1,221.3 481.6,221.2 481,221.3 480,221.3 478.9,221.4 477.9,221.5 476.9,221.6 476.1,221.9 475.3,222 473.7,222.4 472.7,222.7 472.7,222.7 472.5,222.8 472.2,222.7 472.2,222.5 472.5,222.2 472.7,221.9 472.8,221.8 z"
   id="path199"
   inkscape:connector-curvature="0"
   style="fill:#591b16" />
		</g>
	</g>
	<g
   id="g201">
		<path
   d="M 476.2,193.4 C 476.2,193.4 470.7,191.4 467.4,189.6 464.1,187.8 463.9,189.4 463.4,197.4 463.4,197.4 472.2,196 476.2,193.4 z"
   id="path203"
   inkscape:connector-curvature="0"
   style="fill:#591b16" />
	</g>
	<g
   id="g205">
		<path
   d="M 486.4,193.4 C 486.4,193.4 491.9,191.4 495.2,189.6 498.5,187.8 498.7,189.4 499.2,197.4 499.3,197.4 490.5,196 486.4,193.4 z"
   id="path207"
   inkscape:connector-curvature="0"
   style="fill:#591b16" />
	</g>
	<g
   id="g209">
		<g
   id="g211">
			<path
   d="M 469.1,208.7 C 469.1,208.7 469.2,208.6 469.3,208.5 469.4,208.4 469.7,208.1 469.9,208 470.1,207.8 470.5,207.5 470.9,207.3 471.3,207.1 471.8,206.7 472.2,206.4 472.6,206.1 473.3,205.8 473.9,205.5 474.5,205.3 475.1,205 475.9,204.8 476.6,204.6 477.4,204.3 478.1,204.2 478.8,204.1 479.7,204 480.4,204 481.1,203.9 482,204 482.7,204 483.4,204 484.3,204.2 485,204.4 485.7,204.5 486.5,204.8 487.1,205 487.7,205.2 488.3,205.5 488.8,205.7 489.3,205.9 489.8,206.2 490.3,206.4 490.7,206.6 491,206.9 491.3,207.1 491.8,207.5 492.2,207.7 492.2,207.7 492.3,207.8 492.3,207.9 492.2,208.2 492.1,208.3 492,208.3 491.8,208.3 L 491.8,208.3 C 491.8,208.3 491.4,208.2 490.8,207.9 490.6,207.8 490.2,207.7 489.7,207.4 489.3,207.2 488.8,207.2 488.2,206.9 487.7,206.8 487.1,206.5 486.5,206.4 485.9,206.3 485.3,206 484.5,206 483.9,206 483.2,205.8 482.4,205.8 482,205.8 481.7,205.8 481.3,205.8 480.9,205.8 480.6,205.8 480.2,205.8 479.5,205.8 478.7,205.9 478.1,206 477.4,206.1 476.8,206.2 476,206.4 475.4,206.6 474.7,206.8 474.2,206.9 473.6,207.1 473.1,207.3 472.5,207.5 471.5,207.9 470.7,208.2 470.1,208.6 469.5,208.8 469.2,209.1 469.2,209.1 L 469.2,209.1 C 469.1,209.2 468.8,209.1 468.7,209 469,208.9 469,208.8 469.1,208.7 z"
   id="path213"
   inkscape:connector-curvature="0"
   style="fill:#591b16" />
		</g>
	</g>
	<g
   id="g215">
		<g
   id="g217">
			<path
   d="M 472.8,187.6 C 472.8,187.6 472.2,187.4 471.3,187 470.4,186.6 469.3,186 468.2,185.4 467.7,185 467.1,184.7 466.6,184.4 466.1,184 465.6,183.7 465.3,183.4 464.6,182.7 464.1,182.3 464.1,182.3 463.5,181.8 463.5,181 464,180.3 464.5,179.7 465.3,179.7 466,180.2 466.1,180.3 466.1,180.3 466.1,180.4 L 466.2,180.5 C 466.2,180.5 466.6,181 467.1,181.6 467.3,182 467.7,182.3 468.1,182.7 468.5,183.1 469,183.6 469.3,183.9 470.2,184.8 471.1,185.5 471.9,186 472.6,186.6 473.1,186.9 473.1,186.9 473.2,187 473.3,187.3 473.2,187.4 473.1,187.6 472.9,187.6 472.8,187.6 L 472.8,187.6 z"
   id="path219"
   inkscape:connector-curvature="0"
   style="fill:#591b16" />
		</g>
	</g>
	<g
   id="g221">
		<g
   id="g223">
			<path
   d="M 489.5,186.9 C 489.5,186.9 490,186.5 490.7,186 491.4,185.4 492.4,184.7 493.3,183.8 493.7,183.3 494.2,182.9 494.5,182.6 494.8,182.3 495.2,181.7 495.5,181.5 496,180.8 496.4,180.4 496.4,180.4 L 496.5,180.3 C 497,179.6 498,179.4 498.7,179.9 499.4,180.4 499.6,181.4 499.1,182.1 499,182.2 499,182.3 498.9,182.3 498.9,182.3 498.4,182.8 497.7,183.4 497.3,183.8 496.8,184 496.4,184.4 495.9,184.8 495.3,185 494.8,185.4 493.7,186 492.6,186.6 491.6,187 490.7,187.4 490.1,187.6 490.1,187.6 L 490.1,187.6 C 489.9,187.7 489.7,187.6 489.6,187.4 489.4,187.2 489.4,187 489.5,186.9 z"
   id="path225"
   inkscape:connector-curvature="0"
   style="fill:#591b16" />
		</g>
	</g>
	<g
   id="g227">
		<g
   id="g229">
			<path
   d="M 481.7,207.4 482.2,211.6 C 482.2,212.1 482,212.6 481.3,212.6 480.8,212.7 480.3,212.4 480.3,211.7 480.3,211.6 480.3,211.6 480.3,211.5 L 480.8,207.3 C 480.8,207.1 481,206.9 481.3,206.9 481.6,207 481.7,207.1 481.7,207.4 z"
   id="path231"
   inkscape:connector-curvature="0"
   style="fill:#591b16" />
		</g>
	</g>
	<g
   id="g233">
		<g
   id="g235">
			<path
   d="M 488.6,210.3 489.2,213.2 C 489.3,213.7 489,214.2 488.5,214.3 488,214.4 487.5,214.1 487.4,213.6 487.4,213.5 487.4,213.4 487.4,213.2 L 488,210.3 C 488,210.2 488.2,210.1 488.4,210.1 488.4,210 488.6,210.2 488.6,210.3 z"
   id="path237"
   inkscape:connector-curvature="0"
   style="fill:#591b16" />
		</g>
	</g>
	<g
   id="g239">
		<g
   id="g241">
			<path
   d="M 475,210.3 475.4,213.2 C 475.5,213.7 475.2,214.2 474.5,214.3 474,214.4 473.5,214.1 473.4,213.4 473.4,213.3 473.4,213.3 473.4,213.2 L 473.8,210.3 C 473.8,210.1 474,209.8 474.4,209.8 474.7,209.8 475,210 475,210.3 z"
   id="path243"
   inkscape:connector-curvature="0"
   style="fill:#591b16" />
		</g>
	</g>
	<g
   id="g245">
		<g
   id="g247">
			<path
   d="M 482.2,213.8 481.8,217.5 C 481.8,217.7 481.6,218 481.2,218 481,218 480.7,217.8 480.7,217.5 L 480.3,213.8 C 480.3,213.3 480.7,212.8 481.2,212.8 481.7,212.8 482.2,213.2 482.2,213.7 482.3,213.7 482.3,213.7 482.2,213.8 z"
   id="path249"
   inkscape:connector-curvature="0"
   style="fill:#591b16" />
		</g>
	</g>
	<g
   id="g251">
		<g
   id="g253">
			<path
   d="M 489.2,215.3 488.6,218.2 C 488.6,218.3 488.4,218.4 488.2,218.4 488,218.4 488,218.3 488,218.2 L 487.4,215.3 C 487.3,214.8 487.6,214.3 488.1,214.2 488.6,214.1 489.1,214.4 489.2,214.9 489.2,215.1 489.2,215.2 489.2,215.3 z"
   id="path255"
   inkscape:connector-curvature="0"
   style="fill:#591b16" />
		</g>
	</g>
	<g
   id="g257">
		<g
   id="g259">
			<path
   d="M 475.3,215.3 474.8,218.2 C 474.8,218.4 474.6,218.6 474.3,218.6 474.2,218.6 473.9,218.5 473.9,218.2 L 473.4,215.3 C 473.3,214.8 473.6,214.3 474.1,214.2 474.6,214.1 475.1,214.4 475.2,214.9 475.3,215.1 475.3,215.2 475.3,215.3 z"
   id="path261"
   inkscape:connector-curvature="0"
   style="fill:#591b16" />
		</g>
	</g>
	<g
   id="g263">
		<path
   d="M 456,138.6 C 456,138.6 478.6,214 523,265 L 523.7,280.8 C 523.7,280.8 475.1,227.4 446.2,148 L 456,138.6 z"
   id="path265"
   inkscape:connector-curvature="0"
   style="fill:#22a1cd" />
	</g>
	<g
   id="g267">
		<path
   d="M 533.7,169.4 566.9,215.1 513,298.1 C 513,298.1 503.1,295.3 501.1,289.7 L 543.9,213.7 516.2,183 521.1,168.3 533.7,169.4 z"
   id="path269"
   inkscape:connector-curvature="0"
   style="fill:#c32b2e" />
	</g>
	<g
   id="g271">
		<polygon
   points="496,164.6 506.4,138.6 536.4,167.6 513.7,183.5 "
   id="polygon273"
   style="fill:#591b16" />
	</g>
	<g
   id="g275">
		<path
   d="M 450.9,0"
   id="path277"
   inkscape:connector-curvature="0"
   style="fill:#22a1cd" />
	</g>
</g>
</svg>