<?xml version="1.0" encoding="UTF-8" standalone="no"?>
<!-- Generator: Adobe Illustrator 17.1.0, SVG Export Plug-In . SVG Version: 6.00 Build 0)  -->

<svg
   xmlns:dc="http://purl.org/dc/elements/1.1/"
   xmlns:cc="http://creativecommons.org/ns#"
   xmlns:rdf="http://www.w3.org/1999/02/22-rdf-syntax-ns#"
   xmlns:svg="http://www.w3.org/2000/svg"
   xmlns="http://www.w3.org/2000/svg"
   xmlns:xlink="http://www.w3.org/1999/xlink"
   xmlns:sodipodi="http://sodipodi.sourceforge.net/DTD/sodipodi-0.dtd"
   xmlns:inkscape="http://www.inkscape.org/namespaces/inkscape"
   version="1.1"
   id="Layer_1"
   x="0px"
   y="0px"
   viewBox="0 0 190 510"
   enable-background="new 0 0 960 560"
   xml:space="preserve"
   inkscape:version="0.48.4 r9939"
   width="100%"
   height="100%"
   sodipodi:docname="hipser.svg"><metadata
   id="metadata215"><rdf:RDF><cc:Work
       rdf:about=""><dc:format>image/svg+xml</dc:format><dc:type
         rdf:resource="http://purl.org/dc/dcmitype/StillImage" /></cc:Work></rdf:RDF></metadata><defs
   id="defs213" /><sodipodi:namedview
   pagecolor="#ffffff"
   bordercolor="#666666"
   borderopacity="1"
   objecttolerance="10"
   gridtolerance="10"
   guidetolerance="10"
   inkscape:pageopacity="0"
   inkscape:pageshadow="2"
   inkscape:window-width="640"
   inkscape:window-height="480"
   id="namedview211"
   showgrid="false"
   inkscape:showpageshadow="false"
   inkscape:zoom="0.42131779"
   inkscape:cx="367.96815"
   inkscape:cy="246.01194"
   inkscape:window-x="0"
   inkscape:window-y="0"
   inkscape:window-maximized="0"
   inkscape:current-layer="Layer_1" />
<g
   id="g3"
   transform="translate(-394.72727,-27.146853)">
	<g
   id="g5">
		<polygon
   points="491.3,400.8 489.7,328.3 480.7,328.3 477.9,400.8 "
   id="polygon7"
   style="fill:none" />
	</g>
	<g
   id="g9">
		<polygon
   points="449.2,400.8 477.9,400.8 480.7,328.3 489.7,328.3 491.3,400.8 518.6,400.8 526.1,297.2 440.8,297.2 "
   id="polygon11"
   style="fill:#22a1cd" />
	</g>
	<g
   id="g13">
		<polygon
   points="477.9,400.8 449.2,400.8 459.1,524.7 473,524.7 "
   id="polygon15"
   style="fill:#c32b2e" />
	</g>
	<g
   id="g17">
		<polygon
   points="509.5,524.7 518.6,400.8 491.3,400.8 494.2,524.7 "
   id="polygon19"
   style="fill:#c32b2e" />
	</g>
	<g
   id="g21">
		<polygon
   points="522.1,194 504.6,175 515.7,149.2 545,178.1 "
   id="polygon23"
   style="fill:#591b16" />
	</g>
	<g
   id="g25">
		<path
   d="M 526.1,174.1 C 526.1,155.1 510.7,139.7 491.7,139.7 H 475.1 C 456.1,139.7 440.7,155.1 440.7,174.1 V 297.2 H 526 V 174.1 H 526.1 z"
   id="path27"
   inkscape:connector-curvature="0"
   style="fill:#591b16" />
	</g>
	<g
   id="g29">
		<path
   d="M 449.6,55.9 H 449.8 C 455.9,46 467.5,37.9 481,37.9 494.5,37.9 506.3,46.1 512.5,55.9 L 512.5,55.9 C 514.5,59.2 516.5,64.8 517.8,72.4 519.3,89.5 521.3,103.6 521.3,103.6 H 513.8 V 130.5 C 513.8,130.5 462.1,144.8 448.1,90.2 448.1,90.2 445.8,84.3 445.7,73.8 446.1,68.4 445.4,64.1 449.6,55.9 z"
   id="path31"
   inkscape:connector-curvature="0"
   style="fill:#c32b2e" />
	</g>
	<g
   id="g33">
		<path
   d="M 469.4,127.7 V 140.4 C 469.4,140.4 480.7,144.8 497.8,140.4 V 135.5 C 497.7,135.5 480.4,135 469.4,127.7 z"
   id="path35"
   inkscape:connector-curvature="0"
   style="fill:#c32b2e" />
	</g>
	<g
   id="g37">
		<path
   d="M 499.5,80.7 C 499.5,78.9 501,77.5 502.7,77.5 504.5,77.5 505.9,79 505.9,80.7 505.9,82.5 504.4,83.9 502.7,83.9 500.9,83.8 499.5,82.4 499.5,80.7 z"
   id="path39"
   inkscape:connector-curvature="0"
   style="fill:#591b16" />
	</g>
	<g
   id="g41">
		<path
   d="M 514.7,400.8 513.2,400.7 513.3,399.8 514.8,399.9 514.7,400.8 z M 515,396.9 513.5,396.8 513.7,393.8 515.2,393.9 515,396.9 z M 515.4,390.9 513.9,390.8 514.1,387.8 515.6,387.9 515.4,390.9 z M 515.9,384.9 514.4,384.8 514.6,381.8 516.1,381.9 515.9,384.9 z M 516.3,378.9 514.8,378.8 515,375.8 516.5,375.9 516.3,378.9 z M 516.8,372.9 515.3,372.8 515.5,369.8 517,369.9 516.8,372.9 z M 517.2,367 515.7,366.9 515.9,363.9 517.4,364 517.2,367 z M 517.7,361 516.2,360.9 516.4,357.9 517.9,358 517.7,361 z M 518.2,355 516.7,354.9 516.9,351.9 518.4,352 518.2,355 z M 518.6,349 517.1,348.9 517.3,345.9 518.8,346 518.6,349 z M 519.1,343 517.6,342.9 517.8,339.9 519.3,340 519.1,343 z M 519.5,337 518,336.9 518.2,333.9 519.7,334 519.5,337 z M 520,331 518.5,330.9 518.7,327.9 520.2,328 520,331 z M 520.5,325 519,324.9 519.2,321.9 520.7,322 520.5,325 z M 520.9,319 519.4,318.9 519.6,315.9 521.1,316 520.9,319 z"
   id="path43"
   inkscape:connector-curvature="0"
   style="fill:#ffffff" />
	</g>
	<g
   id="g45">
		<path
   d="M 452.1,400.8 452,399.9 453.5,399.8 453.6,400.7 452.1,400.8 z M 451.7,396.9 451.4,393.9 452.9,393.8 453.2,396.8 451.7,396.9 z M 451.2,390.9 450.9,387.9 452.4,387.8 452.7,390.8 451.2,390.9 z M 450.7,384.9 450.4,381.9 451.9,381.8 452.2,384.8 450.7,384.9 z M 450.2,378.9 449.9,375.9 451.4,375.8 451.7,378.8 450.2,378.9 z M 449.7,372.9 449.4,369.9 450.9,369.8 451.2,372.8 449.7,372.9 z M 449.2,366.9 448.9,363.9 450.4,363.8 450.7,366.8 449.2,366.9 z M 448.7,360.9 448.4,357.9 449.9,357.8 450.2,360.8 448.7,360.9 z M 448.2,354.9 447.9,351.9 449.4,351.8 449.7,354.8 448.2,354.9 z M 447.7,348.9 447.4,345.9 448.9,345.8 449.2,348.8 447.7,348.9 z M 447.2,343 446.9,340 448.4,339.9 448.7,342.9 447.2,343 z M 446.7,337 446.4,334 447.9,333.9 448.2,336.9 446.7,337 z M 446.2,331 445.9,328 447.4,327.9 447.7,330.9 446.2,331 z M 445.7,325 445.4,322 446.9,321.9 447.2,324.9 445.7,325 z M 445.2,319 444.9,316 446.4,315.9 446.7,318.9 445.2,319 z"
   id="path47"
   inkscape:connector-curvature="0"
   style="fill:#ffffff" />
	</g>
	<g
   id="g49">
		<path
   d="M 507.1,47.6 C 507.1,47.6 529.9,53.6 534.2,33.4 534.2,33.4 556,82.1 460.5,77.3 L 497.8,45.5 507.1,47.6 z"
   id="path51"
   inkscape:connector-curvature="0"
   style="fill:#591b16" />
	</g>
	<g
   id="g53">
		<path
   d="M 441.3,313.1 C 449.9,312.9 456.8,305.9 456.8,297.2 H 441 L 441.3,313.1 z"
   id="path55"
   inkscape:connector-curvature="0"
   style="fill:#01405f" />
	</g>
	<g
   id="g57">
		<g
   id="g59">
			<defs
   id="defs61">
				<path
   id="SVGID_1_"
   d="M 507.1,47.6 C 507.1,47.6 529.9,53.6 534.2,33.4 534.2,33.4 556,82.1 460.5,77.3 L 497.8,45.5 507.1,47.6 z"
   inkscape:connector-curvature="0" />
			</defs>
			<clipPath
   id="SVGID_2_">
				<use
   xlink:href="#SVGID_1_"
   overflow="visible"
   id="use65"
   style="overflow:visible"
   x="0"
   y="0"
   width="960"
   height="560" />
			</clipPath>
			<g
   clip-path="url(#SVGID_2_)"
   id="g67">
				<g
   id="g69">
					<path
   d="M 472.3,73 C 468.1,73 463.7,72.9 459,72.6 L 459,71.8 C 493.8,73.7 517,68.1 526.3,55.4 533.8,45.1 529.6,33.6 529.5,33.5 L 530.2,33.2 C 530.2,33.3 534.7,45.2 526.9,55.8 518.7,67.2 500.3,73 472.3,73 z"
   id="path71"
   inkscape:connector-curvature="0"
   style="fill:#c32b2e" />
				</g>
				<g
   id="g73">
					<path
   d="M 468.3,68.1 C 464.1,68.1 459.7,68 455,67.7 L 455,66.9 C 489.8,68.8 513,63.2 522.3,50.5 529.8,40.2 525.6,28.7 525.5,28.6 L 526.2,28.3 C 526.2,28.4 530.7,40.3 522.9,50.9 514.7,62.3 496.3,68.1 468.3,68.1 z"
   id="path75"
   inkscape:connector-curvature="0"
   style="fill:#c32b2e" />
				</g>
				<g
   id="g77">
					<path
   d="M 463.3,64.7 C 459.1,64.7 454.7,64.6 450,64.3 L 450,63.5 C 484.8,65.4 508,59.8 517.3,47.1 524.8,36.8 520.6,25.3 520.5,25.2 L 521.2,24.9 C 521.2,25 525.7,36.9 517.9,47.5 509.6,58.9 491.3,64.7 463.3,64.7 z"
   id="path79"
   inkscape:connector-curvature="0"
   style="fill:#c32b2e" />
				</g>
				<g
   id="g81">
					<path
   d="M 459,61.4 C 454.8,61.4 450.4,61.3 445.7,61 L 445.7,60.2 C 480.5,62.1 503.7,56.5 513,43.8 520.5,33.5 516.3,22 516.2,21.9 L 516.9,21.6 C 516.9,21.7 521.4,33.6 513.6,44.2 505.3,55.6 487,61.4 459,61.4 z"
   id="path83"
   inkscape:connector-curvature="0"
   style="fill:#c32b2e" />
				</g>
			</g>
		</g>
	</g>
	<g
   id="g85">
		<path
   d="M 525.7,313.1 526.1,297.2 H 510.2 C 510.2,305.8 517.1,312.9 525.7,313.1 z"
   id="path87"
   inkscape:connector-curvature="0"
   style="fill:#01405f" />
	</g>
	<g
   id="g89">
		<path
   d="M 426.6,175.8 396.1,227 448.2,310.8 C 448.2,310.8 452.5,310.6 457.3,304.6 L 419.5,230.4 441.8,191.1 426.6,175.8 z"
   id="path91"
   inkscape:connector-curvature="0"
   style="fill:#c32b2e" />
	</g>
	<g
   id="g93">
		<polygon
   points="446,194 463.5,175 452.5,149.2 423.2,178.1 "
   id="polygon95"
   style="fill:#591b16" />
	</g>
	<g
   id="g97">
		<path
   d="M 507.1,47.6 C 507.1,47.6 466,65.6 450.1,101 450.1,101 441.4,95.6 439.6,85 439.6,85 453.1,53.2 493.1,35.7 492.9,35.7 499.6,38.4 507.1,47.6 z"
   id="path99"
   inkscape:connector-curvature="0"
   style="fill:#22a1cd" />
	</g>
	<g
   id="g101">
		<path
   d="M 492.1,37.8 C 492.1,37.8 462.7,13.7 435.5,35.7 409.6,56.8 444.1,86.3 444.1,86.3 L 492.1,37.8 z"
   id="path103"
   inkscape:connector-curvature="0"
   style="fill:#22a1cd" />
	</g>
	<g
   id="g105">
		<g
   id="g107">
			<defs
   id="defs109">
				<path
   id="SVGID_3_"
   d="M 507.1,47.6 C 507.1,47.6 466,65.6 450.1,101 450.1,101 441.4,95.6 439.6,85 439.6,85 453.1,53.2 493.1,35.7 492.9,35.7 499.6,38.4 507.1,47.6 z"
   inkscape:connector-curvature="0" />
			</defs>
			<clipPath
   id="SVGID_4_">
				<use
   xlink:href="#SVGID_3_"
   overflow="visible"
   id="use113"
   style="overflow:visible"
   x="0"
   y="0"
   width="960"
   height="560" />
			</clipPath>
			<g
   clip-path="url(#SVGID_4_)"
   id="g115">
				<g
   id="g117">
					<path
   d="M 455.3,99.4 C 446.6,92.6 440.4,78.3 440.1,77.7 L 441.5,77.1 C 441.6,77.2 447.8,91.7 456.2,98.2 L 455.3,99.4 z"
   id="path119"
   inkscape:connector-curvature="0"
   style="fill:#01405f" />
				</g>
				<g
   id="g121">
					<path
   d="M 503,54.1 C 497.4,43.3 485.1,36.5 484.9,36.4 L 485.6,35.1 C 486.1,35.4 498.5,42.2 504.3,53.4 L 503,54.1 z"
   id="path123"
   inkscape:connector-curvature="0"
   style="fill:#01405f" />
				</g>
				<g
   id="g125">
					
						<rect
   x="455.79999"
   y="62.700001"
   transform="matrix(0.6959,0.7182,-0.7182,0.6959,188.3602,-317.8581)"
   width="27.4"
   height="1.5"
   id="rect127"
   style="fill:#01405f" />
				</g>
				<g
   id="g129">
					<path
   d="M 459.6,93.5 C 449.9,85.9 443.9,71.8 443.7,71.2 L 445.1,70.6 C 445.2,70.7 451.1,85 460.5,92.3 L 459.6,93.5 z"
   id="path131"
   inkscape:connector-curvature="0"
   style="fill:#01405f" />
				</g>
				<g
   id="g133">
					<path
   d="M 463.1,87.5 C 453.4,79.9 447.5,65.8 447.2,65.2 L 448.6,64.6 C 448.7,64.7 454.6,79 464,86.3 L 463.1,87.5 z"
   id="path135"
   inkscape:connector-curvature="0"
   style="fill:#01405f" />
				</g>
				<g
   id="g137">
					<path
   d="M 467.3,82.5 C 457.6,74.9 451.7,60.8 451.4,60.2 L 452.8,59.6 C 452.9,59.7 458.8,74 468.2,81.3 L 467.3,82.5 z"
   id="path139"
   inkscape:connector-curvature="0"
   style="fill:#01405f" />
				</g>
				<g
   id="g141">
					<path
   d="M 496.8,56.8 C 490.3,43.6 479.5,39.1 479.4,39 L 480,37.6 C 480.5,37.8 491.4,42.4 498.1,56.1 L 496.8,56.8 z"
   id="path143"
   inkscape:connector-curvature="0"
   style="fill:#01405f" />
				</g>
				<g
   id="g145">
					<path
   d="M 491.7,61.2 C 485.2,48 474.4,43.5 474.3,43.4 L 474.9,42 C 475.4,42.2 486.3,46.8 493,60.5 L 491.7,61.2 z"
   id="path147"
   inkscape:connector-curvature="0"
   style="fill:#01405f" />
				</g>
				<g
   id="g149">
					<path
   d="M 486.4,65.7 C 479.9,52.5 469.1,48 469,47.9 L 469.6,46.5 C 470.1,46.7 481,51.3 487.7,65 L 486.4,65.7 z"
   id="path151"
   inkscape:connector-curvature="0"
   style="fill:#01405f" />
				</g>
				<g
   id="g153">
					
						<rect
   x="451"
   y="66.599998"
   transform="matrix(0.6327,0.7744,-0.7744,0.6327,222.5394,-334.5602)"
   width="25.9"
   height="1.5"
   id="rect155"
   style="fill:#01405f" />
				</g>
				<g
   id="g157">
					
						<rect
   x="461.39999"
   y="57.799999"
   transform="matrix(0.726,0.6877,-0.6877,0.726,170.1981,-310.1205)"
   width="25.6"
   height="1.5"
   id="rect159"
   style="fill:#01405f" />
				</g>
			</g>
		</g>
	</g>
	<g
   id="g161">
		<path
   d="M 463.1,122.4 C 463.1,122.4 474.5,136.6 505.8,135 505.8,135 511.6,136.6 512.4,147 512.4,147 521.7,145.5 522.1,155.6 522.1,155.6 504.5,177.6 448.2,152.8 448.2,152.8 444.8,142.8 454.4,139.7 454.4,139.8 451.2,124.2 463.1,122.4 z"
   id="path163"
   inkscape:connector-curvature="0"
   style="fill:#22a1cd" />
	</g>
	<g
   id="g165">
		<path
   d="M 492.9,142.4 C 492.9,142.4 502.8,184.4 483.5,232.9 L 456.8,225.9 C 456.8,225.9 476.5,168.5 467.3,142.4 L 492.9,142.4 492.9,142.4 z"
   id="path167"
   inkscape:connector-curvature="0"
   style="fill:#22a1cd" />
	</g>
	<g
   id="g169">
		<path
   d="M 502.6,97.1 C 496.1,97.1 490.9,91.8 490.9,85.4 V 74.4 H 492.6 V 85.3 C 492.6,90.8 497.1,95.3 502.6,95.3 508.1,95.3 512.7,90.8 512.7,85.3 V 74.4 H 514.4 V 85.3 C 514.4,91.8 509.1,97.1 502.6,97.1 z"
   id="path171"
   inkscape:connector-curvature="0"
   style="fill:#591b16" />
	</g>
	<g
   id="g173">
		<path
   d="M 516.6,78.9 C 516.2,78.9 515.7,78.7 515.4,78.4 512,75 507.5,73.1 502.7,73.1 497.9,73.1 493.4,75 490,78.4 489.3,79.1 488.2,79.1 487.6,78.4 486.9,77.7 486.9,76.7 487.6,76 491.7,71.9 497,69.7 502.8,69.7 508.5,69.7 513.9,71.9 518,76 518.7,76.7 518.7,77.7 518,78.4 517.5,78.8 517,78.9 516.6,78.9 z"
   id="path175"
   inkscape:connector-curvature="0"
   style="fill:#591b16" />
	</g>
	<g
   id="g177">
		<polygon
   points="459.1,524.7 422.2,528.4 422.2,537.5 473,537.5 473,524.7 "
   id="polygon179"
   style="fill:#591b16" />
	</g>
	<g
   id="g181">
		<polygon
   points="508,524.7 544.9,528.4 544.9,537.5 494,537.5 494,524.7 "
   id="polygon183"
   style="fill:#591b16" />
	</g>
	<g
   id="g185">
		<polygon
   points="545,178.1 581.8,234.9 504.6,267.9 499.5,257.7 557.1,229.5 524.1,192.7 "
   id="polygon187"
   style="fill:#c32b2e" />
	</g>
	<g
   id="g189">
		<g
   id="g191">
			
				<rect
   x="480.5"
   y="244.5"
   transform="matrix(-0.9694,0.2455,-0.2455,-0.9694,1032.3209,401.4677)"
   width="21.299999"
   height="41.299999"
   id="rect193"
   style="fill:#22a1cd" />
		</g>
		<g
   id="g195">
			
				<rect
   x="480.5"
   y="251.89999"
   transform="matrix(-0.9694,0.2455,-0.2455,-0.9694,1032.2893,401.3339)"
   width="21.299999"
   height="26.200001"
   id="rect197"
   style="fill:#01405f" />
		</g>
		<g
   id="g199">
			<path
   d="M 498.2,242 C 498.6,243.3 497.7,244.6 496.5,244.9 L 476.9,249.9 C 475.6,250.3 474.3,249.4 474,248.2 L 474,248.2 C 473.6,246.9 474.5,245.6 475.7,245.3 L 495.3,240.3 C 496.5,239.8 497.9,240.6 498.2,242 L 498.2,242 z"
   id="path201"
   inkscape:connector-curvature="0"
   style="fill:#22a1cd" />
		</g>
		<g
   id="g203">
			<path
   d="M 508.4,282 C 508.8,283.3 507.9,284.6 506.7,284.9 L 487.1,289.9 C 485.8,290.3 484.5,289.4 484.2,288.2 L 484.2,288.2 C 483.8,286.9 484.7,285.6 485.9,285.3 L 505.5,280.3 C 506.7,279.9 508,280.7 508.4,282 L 508.4,282 z"
   id="path205"
   inkscape:connector-curvature="0"
   style="fill:#22a1cd" />
		</g>
	</g>
	<g
   id="g207">
		<polygon
   points="479.5,274.2 476.1,264.1 504.6,250.6 513.5,270.5 "
   id="polygon209"
   style="fill:#c32b2e" />
	</g>
</g>
</svg>