<?xml version="1.0" encoding="UTF-8" standalone="no"?>
<!-- Generator: Adobe Illustrator 17.1.0, SVG Export Plug-In . SVG Version: 6.00 Build 0)  -->

<svg
   xmlns:dc="http://purl.org/dc/elements/1.1/"
   xmlns:cc="http://creativecommons.org/ns#"
   xmlns:rdf="http://www.w3.org/1999/02/22-rdf-syntax-ns#"
   xmlns:svg="http://www.w3.org/2000/svg"
   xmlns="http://www.w3.org/2000/svg"
   xmlns:sodipodi="http://sodipodi.sourceforge.net/DTD/sodipodi-0.dtd"
   xmlns:inkscape="http://www.inkscape.org/namespaces/inkscape"
   version="1.1"
   id="Layer_1"
   x="0px"
   y="0px"
   viewBox="0 0 220 383"
   enable-background="new 0 0 960 560"
   xml:space="preserve"
   inkscape:version="0.48.4 r9939"
   width="100%"
   height="100%"
   sodipodi:docname="interactive-icon-01.svg"><metadata
   id="metadata21"><rdf:RDF><cc:Work
       rdf:about=""><dc:format>image/svg+xml</dc:format><dc:type
         rdf:resource="http://purl.org/dc/dcmitype/StillImage" /></cc:Work></rdf:RDF></metadata><defs
   id="defs19" /><sodipodi:namedview
   pagecolor="#ffffff"
   bordercolor="#666666"
   borderopacity="1"
   objecttolerance="10"
   gridtolerance="10"
   guidetolerance="10"
   inkscape:pageopacity="0"
   inkscape:pageshadow="2"
   inkscape:window-width="1536"
   inkscape:window-height="803"
   id="namedview17"
   showgrid="false"
   inkscape:showpageshadow="false"
   inkscape:zoom="0.59583333"
   inkscape:cx="417.967"
   inkscape:cy="277.64635"
   inkscape:window-x="-8"
   inkscape:window-y="-8"
   inkscape:window-maximized="1"
   inkscape:current-layer="Layer_1" />
<g
   id="g3"
   transform="translate(-394.01399,-87.08392)">
	<g
   id="g5">
		<path
   d="M 588.8,276.1 H 584.1 V 315.1 H 576.3 L 576.3,315.1 H 575.5 V 290.9 C 575.5,277.6 564.6,267.1 551.7,267.1 H 547 V 315.1 H 539.2 L 539.2,315.1 H 538.4 V 277.7 C 538.4,264.4 527.5,253.9 514.6,253.9 H 510 V 315.1 H 502.2 L 502.2,315.1 H 501.4 V 192.6 C 501.4,174.3 486.6,159.5 468.3,159.5 H 467.9 V 347.1 C 467.9,325.3 450,307.3 428.1,307.3 H 428.1 V 397.8 C 428.1,434.5 455.4,464.9 490.9,469.9 V 470.7 H 501 501.8 613 V 390.4 315.1 299.9 C 613,287 602.1,276.1 588.8,276.1 z"
   id="path7"
   inkscape:connector-curvature="0"
   style="fill:#c22b2e" />
	</g>
	<g
   id="g9">
		<path
   d="M 443.4,216.4 C 432.9,205.9 427.1,191.9 427.1,177.1 427.1,162.3 432.9,148.3 443.4,137.8 453.9,127.3 467.9,121.5 482.7,121.5 497.6,121.5 511.5,127.3 522,137.8 532.5,148.3 538.3,162.3 538.3,177.1 538.3,191.9 532.5,205.9 522,216.4 L 520.6,215 C 530.7,204.9 536.3,191.4 536.3,177.1 536.3,162.8 530.7,149.3 520.6,139.2 510.5,129.1 497,123.5 482.7,123.5 468.4,123.5 454.9,129.1 444.8,139.2 434.7,149.3 429.1,162.8 429.1,177.1 429.1,191.4 434.7,204.9 444.8,215 L 443.4,216.4 z"
   id="path11"
   inkscape:connector-curvature="0"
   style="fill:#c22b2e" />
	</g>
	<g
   id="g13">
		<path
   d="M 545.4,239.8 544,238.4 C 560.4,222 569.4,200.2 569.4,177.1 569.4,154 560.4,132.2 544,115.8 527.6,99.4 505.8,90.4 482.7,90.4 459.6,90.4 437.8,99.4 421.4,115.8 405,132.2 396,153.9 396,177 396,200.1 405,221.9 421.4,238.3 L 420,239.7 C 403.2,222.9 394,200.6 394,177 394,153.4 403.2,131.1 420,114.3 436.8,97.5 459.1,88.3 482.7,88.3 506.4,88.3 528.6,97.5 545.4,114.3 562.2,131.1 571.4,153.4 571.4,177 571.4,200.6 562.2,223 545.4,239.8 z"
   id="path15"
   inkscape:connector-curvature="0"
   style="fill:#c22b2e" />
	</g>
</g>
</svg>