<?xml version="1.0" encoding="UTF-8" standalone="no"?>
<!-- Generator: Adobe Illustrator 17.1.0, SVG Export Plug-In . SVG Version: 6.00 Build 0)  -->

<svg
   xmlns:dc="http://purl.org/dc/elements/1.1/"
   xmlns:cc="http://creativecommons.org/ns#"
   xmlns:rdf="http://www.w3.org/1999/02/22-rdf-syntax-ns#"
   xmlns:svg="http://www.w3.org/2000/svg"
   xmlns="http://www.w3.org/2000/svg"
   xmlns:sodipodi="http://sodipodi.sourceforge.net/DTD/sodipodi-0.dtd"
   xmlns:inkscape="http://www.inkscape.org/namespaces/inkscape"
   version="1.1"
   id="Layer_1"
   x="0px"
   y="0px"
   viewBox="0 0 117 228"
   enable-background="new 0 0 307.4 274.5"
   xml:space="preserve"
   inkscape:version="0.48.4 r9939"
   width="100%"
   height="100%"
   sodipodi:docname="infographic-icon.svg"><metadata
   id="metadata79"><rdf:RDF><cc:Work
       rdf:about=""><dc:format>image/svg+xml</dc:format><dc:type
         rdf:resource="http://purl.org/dc/dcmitype/StillImage" /></cc:Work></rdf:RDF></metadata><defs
   id="defs77" /><sodipodi:namedview
   pagecolor="#ffffff"
   bordercolor="#666666"
   borderopacity="1"
   objecttolerance="10"
   gridtolerance="10"
   guidetolerance="10"
   inkscape:pageopacity="0"
   inkscape:pageshadow="2"
   inkscape:window-width="1536"
   inkscape:window-height="803"
   id="namedview75"
   showgrid="false"
   inkscape:showpageshadow="false"
   inkscape:zoom="1.71949"
   inkscape:cx="130.32831"
   inkscape:cy="134.87065"
   inkscape:window-x="-8"
   inkscape:window-y="-8"
   inkscape:window-maximized="1"
   inkscape:current-layer="Layer_1" />
<g
   id="g3"
   transform="translate(-95.703392,-23.56356)">
	<polygon
   points="124.6,250 131.7,242.6 138.9,250 146.1,242.6 153.3,250 160.5,242.6 167.7,250 174.9,242.6 182.1,250 189.3,242.6 196.5,250 203.7,242.6 211.7,250.9 211.7,23.6 95.7,23.6 95.7,250 103,242.6 110.2,250 117.4,242.6 "
   id="polygon5"
   style="fill:#e2e2e2" />
	<rect
   x="153.7"
   y="32.799999"
   width="48.200001"
   height="6.4000001"
   id="rect7"
   style="fill:#22a1cd" />
	<rect
   x="105.4"
   y="32.799999"
   width="48.200001"
   height="6.4000001"
   id="rect9"
   style="fill:#c32b2e" />
	<path
   d="M 107.8,58.8 108,58.8 C 111.6,53.1 118.4,48.4 126.3,48.5 134.2,48.6 140.9,53.4 144.4,59.2 L 144.5,59.2 C 145.6,61.1 146.8,64.4 147.5,68.8 148.3,78.8 149.4,87.1 149.4,87.1 L 145,87.1 144.8,102.8 C 144.8,102.8 114.6,110.8 106.7,78.9 106.7,78.9 105.4,75.4 105.4,69.3 105.6,66 105.3,63.6 107.8,58.8 z M 139.2,74.7 C 137.7,74.7 136.6,75.9 136.6,77.3 136.6,78.8 137.8,79.9 139.2,79.9 140.7,79.9 141.8,78.7 141.8,77.3 141.9,75.9 140.7,74.7 139.2,74.7 z"
   id="path11"
   inkscape:connector-curvature="0"
   style="fill:#c32b2e" />
	<path
   d="M 200.9,69.2 C 200.9,75.3 199.6,78.8 199.6,78.8 191.7,110.7 161.5,102.7 161.5,102.7 L 161.3,87 156.9,87 C 156.9,87 158,78.8 158.8,68.7 159.4,64.3 160.6,61 161.8,59.1 L 161.9,59.1 C 165.4,53.3 172.1,48.5 180,48.4 187.9,48.3 194.7,53 198.3,58.7 L 198.5,58.7 C 201.1,63.6 200.7,66 200.9,69.2 z M 164.4,77.4 C 164.4,78.9 165.6,80 167,80 168.5,80 169.6,78.8 169.6,77.4 169.6,75.9 168.4,74.8 167,74.8 165.6,74.7 164.4,75.9 164.4,77.4 z"
   id="path13"
   inkscape:connector-curvature="0"
   style="fill:#22a1cd" />
	<rect
   x="105.4"
   y="114"
   width="95.5"
   height="25"
   id="rect15"
   style="fill:#591b16" />
	<polygon
   points="164.3,175.2 162.7,171.1 156.3,176.6 167.3,189 167.9,187.5 161.4,177.2 "
   id="polygon17"
   style="fill:#22a1cd" />
	<polygon
   points="161.8,171.4 164.3,175.2 169.2,172.2 168.5,165.8 "
   id="polygon19"
   style="fill:#01405f" />
	<polygon
   points="182.8,175.2 184.4,171.1 190.8,176.6 179.8,189 179.2,187.5 185.6,177.2 "
   id="polygon21"
   style="fill:#22a1cd" />
	<path
   d="M 179.2,149.9 179.2,149.9 C 178.1,148.2 176.2,146.9 173.9,146.9 171.6,146.9 169.7,148.3 168.7,149.9 H 168.7 C 168.4,150.5 168,151.4 167.8,152.7 167.5,155.6 167.2,158 167.2,158 H 168.5 V 162.5 C 168.5,162.5 177.2,164.9 179.6,155.7 179.6,155.7 180,154.7 180,152.9 179.8,152 179.9,151.3 179.2,149.9 z"
   id="path23"
   inkscape:connector-curvature="0"
   style="fill:#22a1cd" />
	<path
   d="M 166.3,190 C 166.3,193.2 168.9,195.8 172.1,195.8 H 174.9 C 178.1,195.8 180.7,193.2 180.7,190 V 170.3 C 180.7,167.1 178.1,164.5 174.9,164.5 H 172.1 C 168.9,164.5 166.3,167.1 166.3,170.3 V 190 z"
   id="path25"
   inkscape:connector-curvature="0"
   style="fill:#01405f" />
	<polygon
   points="179.5,227.9 175.2,227.9 173.9,196.2 172.4,196.2 171.7,227.9 167.5,227.9 166.3,190.1 180.6,190 "
   id="polygon27"
   style="fill:#01405f" />
	<path
   d="M 175.9,162.5 V 164.6 C 175.9,164.6 174,165.3 171.1,164.6 V 163.8 C 171.1,163.8 174,163.7 175.9,162.5 z"
   id="path29"
   inkscape:connector-curvature="0"
   style="fill:#22a1cd" />
	<circle
   cx="170.3"
   cy="154.10001"
   r="0.5"
   id="circle31"
   d="M 170.8,154.10001 C 170.8,154.37615 170.57615,154.60001 170.3,154.60001 170.02386,154.60001 169.8,154.37615 169.8,154.10001 169.8,153.82386 170.02386,153.60001 170.3,153.60001 170.57615,153.60001 170.8,153.82386 170.8,154.10001 z"
   sodipodi:cx="170.3"
   sodipodi:cy="154.10001"
   sodipodi:rx="0.5"
   sodipodi:ry="0.5"
   style="fill:#591b16" />
	<polygon
   points="171.7,227.9 167.5,227.9 166.4,229.8 160.2,230 160.2,231.3 171.4,231.3 "
   id="polygon33"
   style="fill:#01405f" />
	<polygon
   points="175.2,227.9 179.5,227.9 180.6,229.8 187,230 187,231.3 175.5,231.3 "
   id="polygon35"
   style="fill:#01405f" />
	<polygon
   points="185.3,171.4 182.8,175.2 177.9,172.2 178.6,165.8 "
   id="polygon37"
   style="fill:#01405f" />
	<g
   id="g39">
		<polygon
   points="143.1,175.2 144.8,171.1 151.1,176.6 140.2,189 139.5,187.5 146,177.2 "
   id="polygon41"
   style="fill:#c32b2e" />
		<polygon
   points="145.7,171.4 143.1,175.2 138.3,172.2 138.9,165.8 "
   id="polygon43"
   style="fill:#591b16" />
		<polygon
   points="124.7,175.2 123,171.1 116.7,176.6 127.6,189 128.3,187.5 121.8,177.2 "
   id="polygon45"
   style="fill:#c32b2e" />
		<path
   d="M 128.3,149.9 128.3,149.9 C 129.4,148.2 131.3,146.9 133.6,146.9 135.9,146.9 137.8,148.3 138.8,149.9 H 138.8 C 139.1,150.5 139.5,151.4 139.7,152.7 140,155.6 140.3,158 140.3,158 H 139 V 162.5 C 139,162.5 130.3,164.9 127.9,155.7 127.9,155.7 127.5,154.7 127.5,152.9 127.7,152 127.6,151.3 128.3,149.9 z"
   id="path47"
   inkscape:connector-curvature="0"
   style="fill:#c32b2e" />
		<path
   d="M 141.2,190 C 141.2,193.2 138.6,195.8 135.4,195.8 H 132.6 C 129.4,195.8 126.8,193.2 126.8,190 V 170.3 C 126.8,167.1 129.4,164.5 132.6,164.5 H 135.4 C 138.6,164.5 141.2,167.1 141.2,170.3 V 190 z"
   id="path49"
   inkscape:connector-curvature="0"
   style="fill:#591b16" />
		<polygon
   points="128,227.9 132.2,227.9 133.5,196.2 135,196.2 135.8,227.9 140,227.9 141.2,190.1 126.8,190 "
   id="polygon51"
   style="fill:#591b16" />
		<path
   d="M 131.6,162.5 V 164.6 C 131.6,164.6 133.5,165.3 136.4,164.6 V 163.8 C 136.4,163.8 133.5,163.7 131.6,162.5 z"
   id="path53"
   inkscape:connector-curvature="0"
   style="fill:#c32b2e" />
		<circle
   cx="137.2"
   cy="154.10001"
   r="0.5"
   id="circle55"
   d="M 137.7,154.10001 C 137.7,154.37615 137.47614,154.60001 137.2,154.60001 136.92385,154.60001 136.7,154.37615 136.7,154.10001 136.7,153.82386 136.92385,153.60001 137.2,153.60001 137.47614,153.60001 137.7,153.82386 137.7,154.10001 z"
   sodipodi:cx="137.2"
   sodipodi:cy="154.10001"
   sodipodi:rx="0.5"
   sodipodi:ry="0.5"
   style="fill:#591b16" />
		<polygon
   points="135.8,227.9 140,227.9 141.1,229.8 147.3,230 147.3,231.3 136.1,231.3 "
   id="polygon57"
   style="fill:#591b16" />
		<polygon
   points="132.2,227.9 128,227.9 126.9,229.8 120.5,230 120.5,231.3 132,231.3 "
   id="polygon59"
   style="fill:#591b16" />
		<polygon
   points="122.2,171.4 124.7,175.2 129.6,172.2 128.9,165.8 "
   id="polygon61"
   style="fill:#591b16" />
	</g>
	<polygon
   points="123.6,163.7 123.6,154.8 106.1,154.8 106.1,163.7 115.9,163.7 120.5,165.8 120.5,163.7 "
   id="polygon63"
   style="fill:#c32b2e" />
	<polygon
   points="123.6,197.4 123.6,188.5 106.1,188.5 106.1,197.4 115.9,197.4 120.5,199.5 120.5,197.4 "
   id="polygon65"
   style="fill:#c32b2e" />
	<polygon
   points="123.6,213.8 123.6,204.8 106.1,204.8 106.1,213.8 115.9,213.8 120.5,215.9 120.5,213.8 "
   id="polygon67"
   style="fill:#c32b2e" />
	<polygon
   points="184.1,163.7 184.1,154.8 201.6,154.8 201.6,163.7 191.8,163.7 187.2,165.8 187.2,163.7 "
   id="polygon69"
   style="fill:#22a1cd" />
	<polygon
   points="184.1,197.4 184.1,188.5 201.6,188.5 201.6,197.4 191.8,197.4 187.2,199.5 187.2,197.4 "
   id="polygon71"
   style="fill:#22a1cd" />
	<polygon
   points="184.1,213.8 184.1,204.8 201.6,204.8 201.6,213.8 191.8,213.8 187.2,215.9 187.2,213.8 "
   id="polygon73"
   style="fill:#22a1cd" />
</g>
</svg>