<?xml version="1.0" encoding="UTF-8" standalone="no"?>
<!-- Generator: Adobe Illustrator 17.1.0, SVG Export Plug-In . SVG Version: 6.00 Build 0)  -->

<svg
   xmlns:dc="http://purl.org/dc/elements/1.1/"
   xmlns:cc="http://creativecommons.org/ns#"
   xmlns:rdf="http://www.w3.org/1999/02/22-rdf-syntax-ns#"
   xmlns:svg="http://www.w3.org/2000/svg"
   xmlns="http://www.w3.org/2000/svg"
   xmlns:sodipodi="http://sodipodi.sourceforge.net/DTD/sodipodi-0.dtd"
   xmlns:inkscape="http://www.inkscape.org/namespaces/inkscape"
   version="1.1"
   id="Layer_1"
   x="0px"
   y="0px"
   viewBox="0 0 480 280"
   enable-background="new 0 0 640.5 587.6"
   xml:space="preserve"
   inkscape:version="0.48.4 r9939"
   width="100%"
   height="100%"
   sodipodi:docname="thumbs-up-01.svg"><metadata
   id="metadata17"><rdf:RDF><cc:Work
       rdf:about=""><dc:format>image/svg+xml</dc:format><dc:type
         rdf:resource="http://purl.org/dc/dcmitype/StillImage" /></cc:Work></rdf:RDF></metadata><defs
   id="defs15" /><sodipodi:namedview
   pagecolor="#ffffff"
   bordercolor="#666666"
   borderopacity="1"
   objecttolerance="10"
   gridtolerance="10"
   guidetolerance="10"
   inkscape:pageopacity="0"
   inkscape:pageshadow="2"
   inkscape:window-width="1536"
   inkscape:window-height="803"
   id="namedview13"
   showgrid="false"
   inkscape:showpageshadow="false"
   inkscape:zoom="0.40163376"
   inkscape:cx="320.25"
   inkscape:cy="293.8"
   inkscape:window-x="-8"
   inkscape:window-y="-8"
   inkscape:window-maximized="1"
   inkscape:current-layer="Layer_1" />
<g
   id="g3"
   transform="translate(-90.654241,-136.29153)">
	<path
   d="M 549.3,331.3 C 558.8,331.3 566.4,323.6 566.4,314.2 V 293.5 H 534.8 L 535,287.9 H 543.2 C 552.7,287.9 560.3,280.2 560.3,270.8 V 250 H 466.2 V 188.3 C 466.2,163.5 446.1,143.3 421.2,143.3 H 420.7 V 232.6 C 420.7,257.2 400.8,277.1 376.2,277.1 H 375.8 155.8 V 380.1 H 389.2 C 391.3,399.9 407.8,415.4 427.8,415.4 H 459.2 530.9 541.8 C 551.3,415.4 558.9,407.7 558.9,398.3 V 377.6 H 532.1 L 532.2,373.4 H 544.7 C 554.2,373.4 561.8,365.7 561.8,356.3 V 335.6 H 533.4 L 533.5,331.4 H 549.3 z"
   id="path5"
   inkscape:connector-curvature="0"
   style="fill:#c22b2e" />
	<rect
   x="95.5"
   y="274.79999"
   width="218"
   height="120.1"
   id="rect7"
   style="fill:#01405f" />
	<rect
   x="302.5"
   y="266.70001"
   width="69"
   height="135"
   id="rect9"
   style="fill:#22a0cc" />
	<circle
   cx="320"
   cy="389.60001"
   r="6.5"
   id="circle11"
   d="M 326.5,389.60001 C 326.5,393.18986 323.58985,396.10001 320,396.10001 316.41015,396.10001 313.5,393.18986 313.5,389.60001 313.5,386.01016 316.41015,383.10001 320,383.10001 323.58985,383.10001 326.5,386.01016 326.5,389.60001 z"
   sodipodi:cx="320"
   sodipodi:cy="389.60001"
   sodipodi:rx="6.5"
   sodipodi:ry="6.5"
   style="fill:#591b16" />
</g>
</svg>