<?xml version="1.0" encoding="UTF-8" standalone="no"?>
<!-- Generator: Adobe Illustrator 17.1.0, SVG Export Plug-In . SVG Version: 6.00 Build 0)  -->

<svg
   xmlns:dc="http://purl.org/dc/elements/1.1/"
   xmlns:cc="http://creativecommons.org/ns#"
   xmlns:rdf="http://www.w3.org/1999/02/22-rdf-syntax-ns#"
   xmlns:svg="http://www.w3.org/2000/svg"
   xmlns="http://www.w3.org/2000/svg"
   xmlns:sodipodi="http://sodipodi.sourceforge.net/DTD/sodipodi-0.dtd"
   xmlns:inkscape="http://www.inkscape.org/namespaces/inkscape"
   version="1.1"
   id="Layer_1"
   x="0px"
   y="0px"
   viewBox="0 0 36 72"
   enable-background="new 0 0 853.5 587.6"
   xml:space="preserve"
   inkscape:version="0.48.4 r9939"
   width="100%"
   height="100%"
   sodipodi:docname="microphine-icon.svg"><metadata
   id="metadata25"><rdf:RDF><cc:Work
       rdf:about=""><dc:format>image/svg+xml</dc:format><dc:type
         rdf:resource="http://purl.org/dc/dcmitype/StillImage" /></cc:Work></rdf:RDF></metadata><defs
   id="defs23" /><sodipodi:namedview
   pagecolor="#ffffff"
   bordercolor="#666666"
   borderopacity="1"
   objecttolerance="10"
   gridtolerance="10"
   guidetolerance="10"
   inkscape:pageopacity="0"
   inkscape:pageshadow="2"
   inkscape:window-width="1536"
   inkscape:window-height="803"
   id="namedview21"
   showgrid="false"
   inkscape:showpageshadow="false"
   inkscape:zoom="2.6807264"
   inkscape:cx="233.66324"
   inkscape:cy="52.949119"
   inkscape:window-x="-8"
   inkscape:window-y="-8"
   inkscape:window-maximized="1"
   inkscape:current-layer="Layer_1" />
<g
   id="g3"
   transform="translate(-418.91632,-242.91273)">
	<g
   id="g5">
		<path
   d="M 449.5,314.9 H 423.9 C 422,314.9 420.5,313.4 420.5,311.5 V 311.4 C 420.5,309.5 422,308 423.9,308 H 449.5 C 451.4,308 452.9,309.5 452.9,311.4 V 311.5 C 452.9,313.4 451.4,314.9 449.5,314.9 z"
   id="path7"
   inkscape:connector-curvature="0"
   style="fill:#c22b2e" />
	</g>
	<g
   id="g9">
		<rect
   x="433.10001"
   y="296"
   width="7.1999998"
   height="15.5"
   id="rect11"
   style="fill:#c22b2e" />
	</g>
	<g
   id="g13">
		<path
   d="M 436.9,298 H 436.6 C 426.9,298 418.9,290.1 418.9,280.3 V 270.3 H 422.2 V 280.3 C 422.2,288.2 428.6,294.7 436.6,294.7 H 436.9 C 444.8,294.7 451.3,288.3 451.3,280.3 V 270.3 H 454.6 V 280.3 C 454.5,290 446.6,298 436.9,298 z"
   id="path15"
   inkscape:connector-curvature="0"
   style="fill:#c22b2e" />
	</g>
	<g
   id="g17">
		<path
   d="M 442.2,245.5 V 264.5 C 442.2,265.2 441.6,265.7 441,265.7 H 441 C 440.3,265.7 439.8,265.1 439.8,264.5 V 244.6 C 438.9,244.4 437.9,244.2 436.9,244.2 H 436.7 C 435.7,244.2 434.8,244.3 433.8,244.6 V 264.5 C 433.8,265.2 433.2,265.7 432.6,265.7 H 432.6 C 431.9,265.7 431.4,265.1 431.4,264.5 V 245.5 C 427.3,247.5 424.5,251.7 424.5,256.5 V 279.7 C 424.5,286.5 430,291.9 436.7,291.9 H 436.9 C 443.7,291.9 449.1,286.4 449.1,279.7 V 256.5 C 449.1,251.6 446.2,247.5 442.2,245.5 z"
   id="path19"
   inkscape:connector-curvature="0"
   style="fill:#c22b2e" />
	</g>
</g>
</svg>