<?xml version="1.0" encoding="UTF-8" standalone="no"?>
<!-- Generator: Adobe Illustrator 17.1.0, SVG Export Plug-In . SVG Version: 6.00 Build 0)  -->

<svg
   xmlns:dc="http://purl.org/dc/elements/1.1/"
   xmlns:cc="http://creativecommons.org/ns#"
   xmlns:rdf="http://www.w3.org/1999/02/22-rdf-syntax-ns#"
   xmlns:svg="http://www.w3.org/2000/svg"
   xmlns="http://www.w3.org/2000/svg"
   xmlns:xlink="http://www.w3.org/1999/xlink"
   xmlns:sodipodi="http://sodipodi.sourceforge.net/DTD/sodipodi-0.dtd"
   xmlns:inkscape="http://www.inkscape.org/namespaces/inkscape"
   version="1.1"
   id="Layer_1"
   x="0px"
   y="0px"
   viewBox="0 0 203 406"
   enable-background="new 0 0 960 560"
   xml:space="preserve"
   inkscape:version="0.48.4 r9939"
   width="100%"
   height="100%"
   sodipodi:docname="other.svg"><metadata
   id="metadata157"><rdf:RDF><cc:Work
       rdf:about=""><dc:format>image/svg+xml</dc:format><dc:type
         rdf:resource="http://purl.org/dc/dcmitype/StillImage" /></cc:Work></rdf:RDF></metadata><defs
   id="defs155" /><sodipodi:namedview
   pagecolor="#ffffff"
   bordercolor="#666666"
   borderopacity="1"
   objecttolerance="10"
   gridtolerance="10"
   guidetolerance="10"
   inkscape:pageopacity="0"
   inkscape:pageshadow="2"
   inkscape:window-width="1536"
   inkscape:window-height="803"
   id="namedview153"
   showgrid="false"
   inkscape:showpageshadow="false"
   inkscape:zoom="0.84263558"
   inkscape:cx="247.8651"
   inkscape:cy="249.41508"
   inkscape:window-x="-8"
   inkscape:window-y="-8"
   inkscape:window-maximized="1"
   inkscape:current-layer="Layer_1" />
<g
   id="g3"
   transform="translate(-388.32362,-64.150153)">
	<g
   id="g5">
		<path
   d="M 574.4,63.7 C 574.5,64.8 574.5,66 574.5,67.1 574.5,100.3 547.7,127.1 514.5,127.1 493.6,127.1 475.1,116.3 464.4,100 466.2,131.6 492.3,156.6 524.3,156.6 557.5,156.6 584.3,129.8 584.3,96.6 584.2,84.5 580.6,73.1 574.4,63.7 z"
   id="path7"
   inkscape:connector-curvature="0"
   style="fill:#22a1cd" />
	</g>
	<g
   id="g9">
		<path
   d="M 398.2,63.7 C 398.1,64.8 398.1,66 398.1,67.1 398.1,100.3 424.9,127.1 458.1,127.1 479,127.1 497.5,116.3 508.2,100 506.4,131.6 480.3,156.6 448.3,156.6 415.1,156.6 388.3,129.8 388.3,96.6 388.3,84.5 392,73.1 398.2,63.7 z"
   id="path11"
   inkscape:connector-curvature="0"
   style="fill:#22a1cd" />
	</g>
	<g
   id="g13">
		<circle
   cx="486.20001"
   cy="149"
   r="70.599998"
   id="circle15"
   d="M 556.80001,149 C 556.80001,187.9913 525.19131,219.6 486.20001,219.6 447.20871,219.6 415.60001,187.9913 415.60001,149 415.60001,110.0087 447.20871,78.400002 486.20001,78.400002 525.19131,78.400002 556.80001,110.0087 556.80001,149 z"
   sodipodi:cx="486.20001"
   sodipodi:cy="149"
   sodipodi:rx="70.599998"
   sodipodi:ry="70.599998"
   style="fill:#c32b2e" />
	</g>
	<g
   id="g17">
		<rect
   x="415.70001"
   y="149"
   width="141.10001"
   height="114.2"
   id="rect19"
   style="fill:#c32b2e" />
	</g>
	<g
   id="g21">
		<circle
   cx="463.10001"
   cy="192.89999"
   r="8.1000004"
   id="circle23"
   d="M 471.20001,192.89999 C 471.20001,197.3735 467.57351,200.99999 463.10001,200.99999 458.6265,200.99999 455.00001,197.3735 455.00001,192.89999 455.00001,188.42649 458.6265,184.79999 463.10001,184.79999 467.57351,184.79999 471.20001,188.42649 471.20001,192.89999 z"
   sodipodi:cx="463.10001"
   sodipodi:cy="192.89999"
   sodipodi:rx="8.1000004"
   sodipodi:ry="8.1000004"
   style="fill:#ffffff" />
	</g>
	<g
   id="g25">
		<rect
   x="454.89999"
   y="192.89999"
   width="16.299999"
   height="13.1"
   id="rect27"
   style="fill:#ffffff" />
	</g>
	<g
   id="g29">
		<circle
   cx="536.59998"
   cy="192.89999"
   r="8.1000004"
   id="circle31"
   d="M 544.69998,192.89999 C 544.69998,197.3735 541.07348,200.99999 536.59998,200.99999 532.12647,200.99999 528.49998,197.3735 528.49998,192.89999 528.49998,188.42649 532.12647,184.79999 536.59998,184.79999 541.07348,184.79999 544.69998,188.42649 544.69998,192.89999 z"
   sodipodi:cx="536.59998"
   sodipodi:cy="192.89999"
   sodipodi:rx="8.1000004"
   sodipodi:ry="8.1000004"
   style="fill:#ffffff" />
	</g>
	<g
   id="g33">
		<rect
   x="528.29999"
   y="192.89999"
   width="16.299999"
   height="13.1"
   id="rect35"
   style="fill:#ffffff" />
	</g>
	<g
   id="g37">
		<rect
   x="415.70001"
   y="206"
   width="175.89999"
   height="117.5"
   id="rect39"
   style="fill:#c32b2e" />
	</g>
	<g
   id="g41">
		<path
   d="M 415.7,206 V 323.5 C 415.7,372.1 455.1,411.5 503.7,411.5 552.3,411.5 591.7,372.1 591.7,323.5 V 206 L 415.7,206 415.7,206 z"
   id="path43"
   inkscape:connector-curvature="0"
   style="fill:#c32b2e" />
	</g>
	<g
   id="g45">
		<circle
   cx="486.20001"
   cy="149"
   r="26.700001"
   id="circle47"
   d="M 512.90001,149 C 512.90001,163.746 500.94602,175.7 486.20001,175.7 471.45401,175.7 459.50001,163.746 459.50001,149 459.50001,134.254 471.45401,122.3 486.20001,122.3 500.94602,122.3 512.90001,134.254 512.90001,149 z"
   sodipodi:cx="486.20001"
   sodipodi:cy="149"
   sodipodi:rx="26.700001"
   sodipodi:ry="26.700001"
   style="fill:#ffffff" />
	</g>
	<g
   id="g49">
		<circle
   cx="486.20001"
   cy="149"
   r="7.6999998"
   id="circle51"
   d="M 493.90001,149 C 493.90001,153.25259 490.4526,156.7 486.20001,156.7 481.94742,156.7 478.50001,153.25259 478.50001,149 478.50001,144.74741 481.94742,141.3 486.20001,141.3 490.4526,141.3 493.90001,144.74741 493.90001,149 z"
   sodipodi:cx="486.20001"
   sodipodi:cy="149"
   sodipodi:rx="7.6999998"
   sodipodi:ry="7.6999998"
   style="fill:#591b16" />
	</g>
	<g
   id="g53">
		<g
   id="g55">
			<path
   d="M 444.6,131.8 C 444.6,131.8 444.8,131.7 445.5,131.3 446,130.9 446.8,130.6 447.8,130.1 448.8,129.6 450,129 451.5,128.4 452.2,128.2 453,127.8 453.8,127.4 454.7,127 455.5,126.8 456.4,126.4 458.2,125.7 460.3,125.2 462.4,124.6 463.5,124.4 464.6,124.1 465.7,123.9 466.3,123.8 466.8,123.7 467.4,123.5 468,123.4 468.6,123.3 469.2,123.3 470.4,123.1 471.6,122.9 472.9,122.7 474.1,122.6 475.3,122.5 476.7,122.2 479.3,122 481.8,121.8 484.4,121.7 485,121.7 485.7,121.7 486.4,121.7 L 488.4,121.8 C 489.7,121.8 491,121.9 492.3,121.9 494.9,122 497.3,122.4 499.8,122.8 502.2,123 504.5,123.7 506.7,124.1 508.9,124.5 510.9,125.2 512.7,125.8 514.5,126.4 516.2,126.8 517.7,127.5 519.2,128.1 520.4,128.6 521.5,129.1 523.6,130 524.7,130.6 524.7,130.6 525.3,130.8 525.6,131.6 525.3,132.2 525.1,132.7 524.4,132.9 524,132.9 H 523.9 C 523.9,132.9 522.7,132.7 520.5,132.2 519.4,132 518.2,131.7 516.7,131.3 516.3,131.2 516,131.2 515.6,131.1 515.2,131 514.7,131 514.4,130.9 513.5,130.8 512.7,130.5 511.7,130.4 509.9,130.2 507.9,129.5 505.8,129.4 504.7,129.3 503.7,129.2 502.5,129 501.4,128.9 500.3,128.6 499.1,128.6 498,128.5 496.8,128.5 495.6,128.4 494.4,128.3 493.3,128.2 492.1,128.2 490.9,128.2 489.7,128.1 488.4,128.1 487.2,128.1 486,128 484.7,128.1 482.3,128.1 479.8,128.1 477.4,128.5 476.2,128.6 475,128.6 473.9,128.7 472.7,128.8 471.6,128.9 470.4,129.1 468.1,129.3 465.9,129.7 463.8,130.1 461.7,130.6 459.8,130.8 457.9,131.3 457,131.5 456.1,131.7 455.3,131.9 454.4,132.1 453.7,132.3 453,132.5 451.5,132.9 450.3,133.2 449.2,133.6 448.2,134 447.4,134.2 446.9,134.3 446.4,134.4 446,134.5 446,134.5 445.4,134.7 444.7,134.5 444.4,133.8 443.9,132.8 444,132.2 444.6,131.8 L 444.6,131.8 z"
   id="path57"
   inkscape:connector-curvature="0"
   style="fill:#591b16" />
		</g>
	</g>
	<g
   id="g59">
		<path
   d="M 471.7,462.9 C 457.4,429.4 471,388.8 471.6,387.1 L 476.3,388.7 C 476.2,389.1 462.7,429.2 476.2,461 L 471.7,462.9 z"
   id="path61"
   inkscape:connector-curvature="0"
   style="fill:#c32b2e" />
	</g>
	<g
   id="g63">
		<polygon
   points="470.1,460.7 476.8,460.7 476.8,470.3 439.9,470.3 "
   id="polygon65"
   style="fill:#c32b2e" />
	</g>
	<g
   id="g67">
		<path
   d="M 532.6,462.9 528,460.9 C 541.5,429.1 528.1,389 527.9,388.6 L 532.6,387 C 533.3,388.8 546.9,429.4 532.6,462.9 z"
   id="path69"
   inkscape:connector-curvature="0"
   style="fill:#c32b2e" />
	</g>
	<g
   id="g71">
		<polygon
   points="534.2,460.7 527.5,460.7 527.5,470.3 564.6,470.3 "
   id="polygon73"
   style="fill:#c32b2e" />
	</g>
	<g
   id="g75">
		<circle
   cx="471.20001"
   cy="103.6"
   r="6.9000001"
   id="circle77"
   d="M 478.10001,103.6 C 478.10001,107.41076 475.01078,110.5 471.20001,110.5 467.38925,110.5 464.30001,107.41076 464.30001,103.6 464.30001,99.789234 467.38925,96.699998 471.20001,96.699998 475.01078,96.699998 478.10001,99.789234 478.10001,103.6 z"
   sodipodi:cx="471.20001"
   sodipodi:cy="103.6"
   sodipodi:rx="6.9000001"
   sodipodi:ry="6.9000001"
   style="fill:#591b16" />
	</g>
	<g
   id="g79">
		<circle
   cx="484.70001"
   cy="90"
   r="3.7"
   id="circle81"
   d="M 488.40001,90 C 488.40001,92.043454 486.74347,93.7 484.70001,93.7 482.65656,93.7 481.00001,92.043454 481.00001,90 481.00001,87.956546 482.65656,86.3 484.70001,86.3 486.74347,86.3 488.40001,87.956546 488.40001,90 z"
   sodipodi:cx="484.70001"
   sodipodi:cy="90"
   sodipodi:rx="3.7"
   sodipodi:ry="3.7"
   style="fill:#591b16" />
	</g>
	<g
   id="g83">
		<circle
   cx="553.09998"
   cy="257.79999"
   r="3.7"
   id="circle85"
   d="M 556.79998,257.79999 C 556.79998,259.84344 555.14343,261.49999 553.09998,261.49999 551.05652,261.49999 549.39998,259.84344 549.39998,257.79999 549.39998,255.75653 551.05652,254.09999 553.09998,254.09999 555.14343,254.09999 556.79998,255.75653 556.79998,257.79999 z"
   sodipodi:cx="553.09998"
   sodipodi:cy="257.79999"
   sodipodi:rx="3.7"
   sodipodi:ry="3.7"
   style="fill:#591b16" />
	</g>
	<g
   id="g87">
		<circle
   cx="503.60001"
   cy="345.79999"
   r="3.7"
   id="circle89"
   d="M 507.30001,345.79999 C 507.30001,347.84344 505.64346,349.49999 503.60001,349.49999 501.55655,349.49999 499.90001,347.84344 499.90001,345.79999 499.90001,343.75653 501.55655,342.09999 503.60001,342.09999 505.64346,342.09999 507.30001,343.75653 507.30001,345.79999 z"
   sodipodi:cx="503.60001"
   sodipodi:cy="345.79999"
   sodipodi:rx="3.7"
   sodipodi:ry="3.7"
   style="fill:#591b16" />
	</g>
	<g
   id="g91">
		<circle
   cx="492.60001"
   cy="107.5"
   r="8"
   id="circle93"
   d="M 500.60001,107.5 C 500.60001,111.91828 497.01828,115.5 492.60001,115.5 488.18173,115.5 484.60001,111.91828 484.60001,107.5 484.60001,103.08172 488.18173,99.5 492.60001,99.5 497.01828,99.5 500.60001,103.08172 500.60001,107.5 z"
   sodipodi:cx="492.60001"
   sodipodi:cy="107.5"
   sodipodi:rx="8"
   sodipodi:ry="8"
   style="fill:#591b16" />
	</g>
	<g
   id="g95">
		<circle
   cx="564.59998"
   cy="238.39999"
   r="8"
   id="circle97"
   d="M 572.59998,238.39999 C 572.59998,242.81827 569.01825,246.39999 564.59998,246.39999 560.1817,246.39999 556.59998,242.81827 556.59998,238.39999 556.59998,233.98172 560.1817,230.39999 564.59998,230.39999 569.01825,230.39999 572.59998,233.98172 572.59998,238.39999 z"
   sodipodi:cx="564.59998"
   sodipodi:cy="238.39999"
   sodipodi:rx="8"
   sodipodi:ry="8"
   style="fill:#591b16" />
	</g>
	<g
   id="g99">
		<circle
   cx="536.59998"
   cy="238.39999"
   r="8"
   id="circle101"
   d="M 544.59998,238.39999 C 544.59998,242.81827 541.01825,246.39999 536.59998,246.39999 532.1817,246.39999 528.59998,242.81827 528.59998,238.39999 528.59998,233.98172 532.1817,230.39999 536.59998,230.39999 541.01825,230.39999 544.59998,233.98172 544.59998,238.39999 z"
   sodipodi:cx="536.59998"
   sodipodi:cy="238.39999"
   sodipodi:rx="8"
   sodipodi:ry="8"
   style="fill:#591b16" />
	</g>
	<g
   id="g103">
		<circle
   cx="475.5"
   cy="214.10001"
   r="5"
   id="circle105"
   d="M 480.5,214.10001 C 480.5,216.86143 478.26142,219.10001 475.5,219.10001 472.73858,219.10001 470.5,216.86143 470.5,214.10001 470.5,211.33858 472.73858,209.10001 475.5,209.10001 478.26142,209.10001 480.5,211.33858 480.5,214.10001 z"
   sodipodi:cx="475.5"
   sodipodi:cy="214.10001"
   sodipodi:rx="5"
   sodipodi:ry="5"
   style="fill:#22a1cd" />
	</g>
	<g
   id="g107">
		<rect
   x="470.5"
   y="206"
   width="9.8999996"
   height="8.1000004"
   id="rect109"
   style="fill:#22a1cd" />
	</g>
	<g
   id="g111">
		<circle
   cx="487.5"
   cy="221.7"
   r="5"
   id="circle113"
   d="M 492.5,221.7 C 492.5,224.46142 490.26142,226.7 487.5,226.7 484.73858,226.7 482.5,224.46142 482.5,221.7 482.5,218.93857 484.73858,216.7 487.5,216.7 490.26142,216.7 492.5,218.93857 492.5,221.7 z"
   sodipodi:cx="487.5"
   sodipodi:cy="221.7"
   sodipodi:rx="5"
   sodipodi:ry="5"
   style="fill:#22a1cd" />
	</g>
	<g
   id="g115">
		<rect
   x="482.39999"
   y="206"
   width="9.8999996"
   height="15.5"
   id="rect117"
   style="fill:#22a1cd" />
	</g>
	<g
   id="g119">
		<circle
   cx="450"
   cy="239.3"
   r="5"
   id="circle121"
   d="M 455,239.3 C 455,242.06143 452.76142,244.3 450,244.3 447.23858,244.3 445,242.06143 445,239.3 445,236.53858 447.23858,234.3 450,234.3 452.76142,234.3 455,236.53858 455,239.3 z"
   sodipodi:cx="450"
   sodipodi:cy="239.3"
   sodipodi:rx="5"
   sodipodi:ry="5"
   style="fill:#22a1cd" />
	</g>
	<g
   id="g123">
		<rect
   x="445"
   y="206.10001"
   width="9.8999996"
   height="33.200001"
   id="rect125"
   style="fill:#22a1cd" />
	</g>
	<g
   id="g127">
		<path
   d="M 480.5,206 V 208.9 C 480.5,208.3 481,207.9 481.5,207.9 482.1,207.9 482.5,208.4 482.5,208.9 L 482.5,208.9 V 206 H 480.5 z"
   id="path129"
   inkscape:connector-curvature="0"
   style="fill:#22a1cd" />
	</g>
	<g
   id="g131">
		<path
   d="M 424.7,362.3 C 429.6,372.3 436.5,381.4 444.7,388.7 447.1,388.1 449.8,387.7 452.5,387.7 466.6,387.7 478.6,396.5 483.2,409 489.8,410.6 496.5,411.4 503.6,411.4 510.6,411.4 517.4,410.5 524,409 528.7,396.6 540.6,387.7 554.7,387.7 557.4,387.7 560,388.1 562.5,388.7 570.7,381.2 577.6,372.3 582.5,362.3 H 424.7 z"
   id="path133"
   inkscape:connector-curvature="0"
   style="fill:#591b16" />
	</g>
	<g
   id="g135">
		<path
   d="M 510,339.5 C 509.6,339.5 509.2,339.4 508.9,339.1 506.1,336.3 501.3,336.3 498.4,339.1 497.8,339.7 496.9,339.7 496.3,339.1 495.7,338.5 495.7,337.6 496.3,337 500.4,333 507,333 511,337 511.6,337.6 511.6,338.5 511,339.1 510.8,339.3 510.4,339.5 510,339.5 z"
   id="path137"
   inkscape:connector-curvature="0"
   style="fill:#591b16" />
	</g>
	<g
   id="g139">
		<g
   id="g141">
			<defs
   id="defs143">
				<path
   id="SVGID_1_"
   d="M 424.7,362.3 C 429.6,372.3 436.5,381.4 444.7,388.7 447.1,388.1 449.8,387.7 452.5,387.7 466.6,387.7 478.6,396.5 483.2,409 489.8,410.6 496.5,411.4 503.6,411.4 510.6,411.4 517.4,410.5 524,409 528.7,396.6 540.6,387.7 554.7,387.7 557.4,387.7 560,388.1 562.5,388.7 570.7,381.2 577.6,372.3 582.5,362.3 H 424.7 z"
   inkscape:connector-curvature="0" />
			</defs>
			<clipPath
   id="SVGID_2_">
				<use
   xlink:href="#SVGID_1_"
   overflow="visible"
   id="use147"
   style="overflow:visible"
   x="0"
   y="0"
   width="960"
   height="560" />
			</clipPath>
			<g
   clip-path="url(#SVGID_2_)"
   id="g149">
				<rect
   x="415.70001"
   y="370.60001"
   width="185.8"
   height="3"
   id="rect151"
   style="fill:#c32b2e" />
			</g>
		</g>
	</g>
</g>
</svg>