<?xml version="1.0" encoding="UTF-8" standalone="no"?>
<!-- Generator: Adobe Illustrator 17.1.0, SVG Export Plug-In . SVG Version: 6.00 Build 0)  -->

<svg
   xmlns:dc="http://purl.org/dc/elements/1.1/"
   xmlns:cc="http://creativecommons.org/ns#"
   xmlns:rdf="http://www.w3.org/1999/02/22-rdf-syntax-ns#"
   xmlns:svg="http://www.w3.org/2000/svg"
   xmlns="http://www.w3.org/2000/svg"
   xmlns:xlink="http://www.w3.org/1999/xlink"
   xmlns:sodipodi="http://sodipodi.sourceforge.net/DTD/sodipodi-0.dtd"
   xmlns:inkscape="http://www.inkscape.org/namespaces/inkscape"
   version="1.1"
   id="Layer_1"
   x="0px"
   y="0px"
   viewBox="0 0 245 507"
   enable-background="new 0 0 960 560"
   xml:space="preserve"
   inkscape:version="0.48.4 r9939"
   width="100%"
   height="100%"
   sodipodi:docname="nerd.svg"><metadata
   id="metadata271"><rdf:RDF><cc:Work
       rdf:about=""><dc:format>image/svg+xml</dc:format><dc:type
         rdf:resource="http://purl.org/dc/dcmitype/StillImage" /></cc:Work></rdf:RDF></metadata><defs
   id="defs269" /><sodipodi:namedview
   pagecolor="#ffffff"
   bordercolor="#666666"
   borderopacity="1"
   objecttolerance="10"
   gridtolerance="10"
   guidetolerance="10"
   inkscape:pageopacity="0"
   inkscape:pageshadow="2"
   inkscape:window-width="1536"
   inkscape:window-height="803"
   id="namedview267"
   showgrid="false"
   inkscape:showpageshadow="false"
   inkscape:zoom="0.84263558"
   inkscape:cx="302.45881"
   inkscape:cy="267.08612"
   inkscape:window-x="-8"
   inkscape:window-y="-8"
   inkscape:window-maximized="1"
   inkscape:current-layer="Layer_1" />
<g
   id="g3"
   transform="translate(-371.26692,-17.839585)">
	<g
   id="g5">
		<polygon
   points="572.5,123.8 584.2,128.6 556.5,224.5 502.5,175.7 521.6,162.3 545.5,189.6 "
   id="polygon7"
   style="fill:#c32b2e" />
	</g>
	<g
   id="g9">
		<polygon
   points="498.9,178.2 481.2,159.4 492.4,133.5 521.6,162.3 "
   id="polygon11"
   style="fill:#591b16" />
	</g>
	<g
   id="g13">
		<rect
   x="428.79999"
   y="487.29999"
   width="18.9"
   height="25.5"
   id="rect15"
   style="fill:#c32b2e" />
	</g>
	<g
   id="g17">
		<rect
   x="473.5"
   y="487.29999"
   width="18.9"
   height="25.5"
   id="rect19"
   style="fill:#c32b2e" />
	</g>
	<g
   id="g21">
		<path
   d="M 502.9,158.3 C 502.9,139.3 487.5,123.9 468.5,123.9 H 451.9 C 432.9,123.9 417.5,139.3 417.5,158.3 V 251.8 H 502.8 V 158.3 H 502.9 z"
   id="path23"
   inkscape:connector-curvature="0"
   style="fill:#591b16" />
	</g>
	<g
   id="g25">
		<polygon
   points="450.9,340.2 450.9,366.1 455.8,361.7 455,340.2 "
   id="polygon27"
   style="fill:#c32b2e" />
	</g>
	<g
   id="g29">
		<path
   d="M 426.4,40.1 H 426.6 C 432.7,30.2 444.3,22.1 457.8,22.1 471.3,22.1 483.1,30.3 489.3,40.1 L 489.3,40.1 C 491.3,43.4 493.3,49 494.6,56.6 496.1,73.7 498.1,87.8 498.1,87.8 H 490.6 V 114.7 C 490.6,114.7 438.9,129 424.9,74.4 424.9,74.4 422.6,68.5 422.5,58 422.7,52.6 422,48.3 426.4,40.1 z"
   id="path31"
   inkscape:connector-curvature="0"
   style="fill:#c32b2e" />
	</g>
	<g
   id="g33">
		<polygon
   points="449.8,492.7 457.5,312.6 466.3,312.6 470.8,492.7 495.9,492.7 502.8,251.8 417.5,251.8 424.7,492.7 "
   id="polygon35"
   style="fill:#22a1cd" />
	</g>
	<g
   id="g37">
		<path
   d="M 446.1,111.9 V 124.6 C 446.1,124.6 457.4,129 474.5,124.6 V 119.7 C 474.5,119.7 457,119.2 446.1,111.9 z"
   id="path39"
   inkscape:connector-curvature="0"
   style="fill:#c32b2e" />
	</g>
	<g
   id="g41">
		<path
   d="M 476.1,64.9 C 476.1,63.1 477.6,61.7 479.3,61.7 481.1,61.7 482.5,63.2 482.5,64.9 482.5,66.7 481,68.1 479.3,68.1 477.6,68.1 476.1,66.6 476.1,64.9 z"
   id="path43"
   inkscape:connector-curvature="0"
   style="fill:#591b16" />
	</g>
	<g
   id="g45">
		<path
   d="M 491.8,490 490.3,490 490.4,487 491.9,487 491.8,490 z M 492,483.9 490.5,483.9 490.6,480.9 492.1,480.9 492,483.9 z M 492.2,477.9 490.7,477.9 490.8,474.9 492.3,474.9 492.2,477.9 z M 492.3,471.9 490.8,471.9 490.9,468.9 492.4,468.9 492.3,471.9 z M 492.5,465.9 491,465.9 491.1,462.9 492.6,462.9 492.5,465.9 z M 492.7,459.9 491.2,459.9 491.3,456.9 492.8,456.9 492.7,459.9 z M 492.8,453.9 491.3,453.9 491.4,450.9 492.9,450.9 492.8,453.9 z M 493,447.9 491.5,447.9 491.6,444.9 493.1,444.9 493,447.9 z M 493.1,441.9 491.6,441.9 491.7,438.9 493.2,438.9 493.1,441.9 z M 493.3,435.9 491.8,435.9 491.9,432.9 493.4,432.9 493.3,435.9 z M 493.5,429.8 492,429.8 492.1,426.8 493.6,426.8 493.5,429.8 z M 493.6,423.8 492.1,423.8 492.2,420.8 493.7,420.8 493.6,423.8 z M 493.8,417.8 492.3,417.8 492.4,414.8 493.9,414.8 493.8,417.8 z M 494,411.8 492.5,411.8 492.6,408.8 494.1,408.8 494,411.8 z M 494.1,405.8 492.6,405.8 492.7,402.8 494.2,402.8 494.1,405.8 z M 494.3,399.8 492.8,399.8 492.9,396.8 494.4,396.8 494.3,399.8 z M 494.4,393.8 492.9,393.8 493,390.8 494.5,390.8 494.4,393.8 z M 494.6,387.8 493.1,387.8 493.2,384.8 494.7,384.8 494.6,387.8 z M 494.8,381.7 493.3,381.7 493.4,378.7 494.9,378.7 494.8,381.7 z M 494.9,375.7 493.4,375.7 493.5,372.7 495,372.7 494.9,375.7 z M 495.1,369.7 493.6,369.7 493.7,366.7 495.2,366.7 495.1,369.7 z M 495.3,363.7 493.8,363.7 493.9,360.7 495.4,360.7 495.3,363.7 z M 495.4,357.7 493.9,357.7 494,354.7 495.5,354.7 495.4,357.7 z M 495.6,351.7 494.1,351.7 494.2,348.7 495.7,348.7 495.6,351.7 z M 495.7,345.7 494.2,345.7 494.3,342.7 495.8,342.7 495.7,345.7 z M 495.9,339.7 494.4,339.7 494.5,336.7 496,336.7 495.9,339.7 z M 496.1,333.7 494.6,333.7 494.7,330.7 496.2,330.7 496.1,333.7 z M 496.2,327.6 494.7,327.6 494.8,324.6 496.3,324.6 496.2,327.6 z M 496.4,321.6 494.9,321.6 495,318.6 496.5,318.6 496.4,321.6 z M 496.5,315.6 495,315.6 495.1,312.6 496.6,312.6 496.5,315.6 z M 496.7,309.6 495.2,309.6 495.3,306.6 496.8,306.6 496.7,309.6 z M 496.9,303.6 495.4,303.6 495.5,300.6 497,300.6 496.9,303.6 z M 497,297.6 495.5,297.6 495.6,294.6 497.1,294.6 497,297.6 z M 497.2,291.6 495.7,291.6 495.8,288.6 497.3,288.6 497.2,291.6 z M 497.4,285.6 495.9,285.6 496,282.6 497.5,282.6 497.4,285.6 z M 497.5,279.6 496,279.6 496.1,276.6 497.6,276.6 497.5,279.6 z M 497.7,273.5 496.2,273.5 496.3,270.5 497.8,270.5 497.7,273.5 z"
   id="path47"
   inkscape:connector-curvature="0"
   style="fill:#ffffff" />
	</g>
	<g
   id="g49">
		<path
   d="M 428,489.9 427.9,486.9 429.4,486.9 429.5,489.9 428,489.9 z M 427.8,483.9 427.7,480.9 429.2,480.9 429.3,483.9 427.8,483.9 z M 427.7,477.9 427.6,474.9 429.1,474.9 429.2,477.9 427.7,477.9 z M 427.5,471.9 427.4,468.9 428.9,468.9 429,471.9 427.5,471.9 z M 427.3,465.9 427.2,462.9 428.7,462.9 428.8,465.9 427.3,465.9 z M 427.1,459.9 427,456.9 428.5,456.9 428.6,459.9 427.1,459.9 z M 426.9,453.9 426.8,450.9 428.3,450.9 428.4,453.9 426.9,453.9 z M 426.8,447.9 426.7,444.9 428.2,444.9 428.3,447.9 426.8,447.9 z M 426.6,441.9 426.5,438.9 428,438.9 428.1,441.9 426.6,441.9 z M 426.4,435.8 426.3,432.8 427.8,432.8 427.9,435.8 426.4,435.8 z M 426.2,429.8 426.1,426.8 427.6,426.8 427.7,429.8 426.2,429.8 z M 426.1,423.8 426,420.8 427.5,420.8 427.6,423.8 426.1,423.8 z M 425.9,417.8 425.8,414.8 427.3,414.8 427.4,417.8 425.9,417.8 z M 425.7,411.8 425.6,408.8 427.1,408.8 427.2,411.8 425.7,411.8 z M 425.5,405.8 425.4,402.8 426.9,402.8 427,405.8 425.5,405.8 z M 425.4,399.8 425.3,396.8 426.8,396.8 426.9,399.8 425.4,399.8 z M 425.2,393.8 425.1,390.8 426.6,390.8 426.7,393.8 425.2,393.8 z M 425,387.8 424.9,384.8 426.4,384.8 426.5,387.8 425,387.8 z M 424.8,381.7 424.7,378.7 426.2,378.7 426.3,381.7 424.8,381.7 z M 424.7,375.7 424.6,372.7 426.1,372.7 426.2,375.7 424.7,375.7 z M 424.5,369.7 424.4,366.7 425.9,366.7 426,369.7 424.5,369.7 z M 424.3,363.7 424.2,360.7 425.7,360.7 425.8,363.7 424.3,363.7 z M 424.1,357.7 424,354.7 425.5,354.7 425.6,357.7 424.1,357.7 z M 424,351.7 423.9,348.7 425.4,348.7 425.5,351.7 424,351.7 z M 423.8,345.7 423.7,342.7 425.2,342.7 425.3,345.7 423.8,345.7 z M 423.6,339.7 423.5,336.7 425,336.7 425.1,339.7 423.6,339.7 z M 423.4,333.7 423.3,330.7 424.8,330.7 424.9,333.7 423.4,333.7 z M 423.3,327.6 423.2,324.6 424.7,324.6 424.8,327.6 423.3,327.6 z M 423.1,321.6 423,318.6 424.5,318.6 424.6,321.6 423.1,321.6 z M 422.9,315.6 422.8,312.6 424.3,312.6 424.4,315.6 422.9,315.6 z M 422.7,309.6 422.6,306.6 424.1,306.6 424.2,309.6 422.7,309.6 z M 422.6,303.6 422.5,300.6 424,300.6 424.1,303.6 422.6,303.6 z M 422.4,297.6 422.3,294.6 423.8,294.6 423.9,297.6 422.4,297.6 z M 422.2,291.6 422.1,288.6 423.6,288.6 423.7,291.6 422.2,291.6 z M 422,285.6 421.9,282.6 423.4,282.6 423.5,285.6 422,285.6 z M 421.9,279.6 421.8,276.6 423.3,276.6 423.4,279.6 421.9,279.6 z M 421.7,273.5 421.6,270.5 423.1,270.5 423.2,273.5 421.7,273.5 z"
   id="path51"
   inkscape:connector-curvature="0"
   style="fill:#ffffff" />
	</g>
	<g
   id="g53">
		<path
   d="M 434.1,95.7 C 434.1,95.7 405.2,55.1 434.1,29.4 L 457.7,47.8 C 457.7,47.8 439.3,62.7 442.4,95.8 H 434.1 z"
   id="path55"
   inkscape:connector-curvature="0"
   style="fill:#591b16" />
	</g>
	<g
   id="g57">
		<path
   d="M 437.2,26.6 460.2,44.5 C 460.2,44.5 464.7,24.2 484.3,34.1 484.3,34.1 487.6,35.1 484.3,31.4 481,27.5 462.5,7.3 437.2,26.6 z"
   id="path59"
   inkscape:connector-curvature="0"
   style="fill:#591b16" />
	</g>
	<g
   id="g61">
		<path
   d="M 417.9,267.7 C 426.5,267.5 433.4,260.5 433.4,251.8 H 417.5 L 417.9,267.7 z"
   id="path63"
   inkscape:connector-curvature="0"
   style="fill:#01405f" />
	</g>
	<g
   id="g65">
		<rect
   x="473"
   y="142.8"
   width="2.8"
   height="8.8999996"
   id="rect67"
   style="fill:#ffffff" />
	</g>
	<g
   id="g69">
		<rect
   x="477.89999"
   y="142.8"
   width="2.8"
   height="8.8999996"
   id="rect71"
   style="fill:#ffffff" />
	</g>
	<g
   id="g73">
		<path
   d="M 502.4,267.7 502.8,251.8 H 486.9 C 487,260.4 493.8,267.5 502.4,267.7 z"
   id="path75"
   inkscape:connector-curvature="0"
   style="fill:#01405f" />
	</g>
	<g
   id="g77">
		<path
   d="M 483.8,127.5 V 251.7 H 492.2 V 133.4 C 489.7,131.1 486.9,129 483.8,127.5 z"
   id="path79"
   inkscape:connector-curvature="0"
   style="fill:#c32b2e" />
	</g>
	<g
   id="g81">
		<circle
   cx="488"
   cy="251.8"
   r="6.5999999"
   id="circle83"
   d="M 494.6,251.8 C 494.6,255.44508 491.64508,258.4 488,258.4 484.35492,258.4 481.4,255.44508 481.4,251.8 481.4,248.15492 484.35492,245.2 488,245.2 491.64508,245.2 494.6,248.15492 494.6,251.8 z"
   sodipodi:cx="488"
   sodipodi:cy="251.8"
   sodipodi:rx="6.5999999"
   sodipodi:ry="6.5999999"
   style="fill:#ffffff" />
	</g>
	<g
   id="g85">
		<rect
   x="461.10001"
   y="132.10001"
   width="1.5"
   height="119.7"
   id="rect87"
   style="fill:#c32b2e" />
	</g>
	<g
   id="g89">
		<circle
   cx="461.89999"
   cy="126.6"
   r="6"
   id="circle91"
   d="M 467.89999,126.6 C 467.89999,129.91371 465.2137,132.6 461.89999,132.6 458.58629,132.6 455.89999,129.91371 455.89999,126.6 455.89999,123.28629 458.58629,120.6 461.89999,120.6 465.2137,120.6 467.89999,123.28629 467.89999,126.6 z"
   sodipodi:cx="461.89999"
   sodipodi:cy="126.6"
   sodipodi:rx="6"
   sodipodi:ry="6"
   style="fill:#22a1cd" />
	</g>
	<g
   id="g93">
		<polygon
   points="442.4,137.8 442.4,115.4 461.9,126.6 "
   id="polygon95"
   style="fill:#22a1cd" />
	</g>
	<g
   id="g97">
		<polygon
   points="481.3,137.8 481.3,115.4 461.9,126.6 "
   id="polygon99"
   style="fill:#22a1cd" />
	</g>
	<g
   id="g101">
		<path
   d="M 490.2,173.5 H 468.5 V 151 H 490.2 V 173.5 z M 470,172 H 488.7 V 152.6 H 470 V 172 z"
   id="path103"
   inkscape:connector-curvature="0"
   style="fill:#c32b2e" />
	</g>
	<g
   id="g105">
		<path
   d="M 428.8,510.4 C 428.8,510.4 403.7,519 391.3,519.3 391.3,519.3 389.2,521 391.3,525.2 H 447.6 V 509 C 447.7,509 440.1,515 428.8,510.4 z"
   id="path107"
   inkscape:connector-curvature="0"
   style="fill:#591b16" />
	</g>
	<g
   id="g109">
		<path
   d="M 492.5,510.4 C 492.5,510.4 517.6,519 530,519.3 530,519.3 532.1,521 530,525.2 H 473.7 V 509 C 473.5,509 481.1,515 492.5,510.4 z"
   id="path111"
   inkscape:connector-curvature="0"
   style="fill:#591b16" />
	</g>
	<g
   id="g113">
		<rect
   x="465.29999"
   y="55"
   width="25.1"
   height="5.0999999"
   id="rect115"
   style="fill:#591b16" />
	</g>
	<g
   id="g117">
		<polygon
   points="468.9,58.5 470.3,58.2 472.8,69.8 487.8,69.8 487.8,58.4 489.3,58.4 489.3,71.3 471.6,71.3 "
   id="polygon119"
   style="fill:#591b16" />
	</g>
	<g
   id="g121">
		<rect
   x="490.39999"
   y="58.400002"
   width="5.3000002"
   height="4.1999998"
   id="rect123"
   style="fill:#ffffff" />
	</g>
	<g
   id="g125">
		<path
   d="M 402.3,160.1 371.8,199 421.4,267.3 C 421.4,267.3 425.7,267.1 430.5,261.1 L 395.4,202.5 417.7,175.6 402.3,160.1 z"
   id="path127"
   inkscape:connector-curvature="0"
   style="fill:#c32b2e" />
	</g>
	<g
   id="g129">
		<polygon
   points="421.6,178.2 439.1,159.4 428,133.5 398.8,162.3 "
   id="polygon131"
   style="fill:#591b16" />
	</g>
	<g
   id="g133">
		<path
   d="M 431,131 V 251.8 H 439.4 V 126.2 C 436.4,127.4 433.6,129 431,131 z"
   id="path135"
   inkscape:connector-curvature="0"
   style="fill:#c32b2e" />
	</g>
	<g
   id="g137">
		<circle
   cx="435.29999"
   cy="251.8"
   r="6.5999999"
   id="circle139"
   d="M 441.89999,251.8 C 441.89999,255.44508 438.94507,258.4 435.29999,258.4 431.65491,258.4 428.69999,255.44508 428.69999,251.8 428.69999,248.15492 431.65491,245.2 435.29999,245.2 438.94507,245.2 441.89999,248.15492 441.89999,251.8 z"
   sodipodi:cx="435.29999"
   sodipodi:cy="251.8"
   sodipodi:rx="6.5999999"
   sodipodi:ry="6.5999999"
   style="fill:#ffffff" />
	</g>
	<g
   id="g141">
		<rect
   x="577.40002"
   y="82.900002"
   width="38.400002"
   height="56.299999"
   id="rect143"
   style="fill:#22a1cd" />
	</g>
	<g
   id="g145">
		<rect
   x="581.5"
   y="88.699997"
   width="29"
   height="10.4"
   id="rect147"
   style="fill:#591b16" />
	</g>
	<g
   id="g149">
		<circle
   cx="585.29999"
   cy="108.3"
   r="3.7"
   id="circle151"
   d="M 588.99999,108.3 C 588.99999,110.34346 587.34344,112 585.29999,112 583.25653,112 581.59999,110.34346 581.59999,108.3 581.59999,106.25655 583.25653,104.6 585.29999,104.6 587.34344,104.6 588.99999,106.25655 588.99999,108.3 z"
   sodipodi:cx="585.29999"
   sodipodi:cy="108.3"
   sodipodi:rx="3.7"
   sodipodi:ry="3.7"
   style="fill:#ffffff" />
	</g>
	<g
   id="g153">
		<circle
   cx="596"
   cy="108.3"
   r="3.7"
   id="circle155"
   d="M 599.7,108.3 C 599.7,110.34346 598.04345,112 596,112 593.95655,112 592.3,110.34346 592.3,108.3 592.3,106.25655 593.95655,104.6 596,104.6 598.04345,104.6 599.7,106.25655 599.7,108.3 z"
   sodipodi:cx="596"
   sodipodi:cy="108.3"
   sodipodi:rx="3.7"
   sodipodi:ry="3.7"
   style="fill:#ffffff" />
	</g>
	<g
   id="g157">
		<circle
   cx="606.79999"
   cy="108.3"
   r="3.7"
   id="circle159"
   d="M 610.49999,108.3 C 610.49999,110.34346 608.84344,112 606.79999,112 604.75653,112 603.09999,110.34346 603.09999,108.3 603.09999,106.25655 604.75653,104.6 606.79999,104.6 608.84344,104.6 610.49999,106.25655 610.49999,108.3 z"
   sodipodi:cx="606.79999"
   sodipodi:cy="108.3"
   sodipodi:rx="3.7"
   sodipodi:ry="3.7"
   style="fill:#ffffff" />
	</g>
	<g
   id="g161">
		<circle
   cx="585.29999"
   cy="118"
   r="3.7"
   id="circle163"
   d="M 588.99999,118 C 588.99999,120.04345 587.34344,121.7 585.29999,121.7 583.25653,121.7 581.59999,120.04345 581.59999,118 581.59999,115.95655 583.25653,114.3 585.29999,114.3 587.34344,114.3 588.99999,115.95655 588.99999,118 z"
   sodipodi:cx="585.29999"
   sodipodi:cy="118"
   sodipodi:rx="3.7"
   sodipodi:ry="3.7"
   style="fill:#ffffff" />
	</g>
	<g
   id="g165">
		<circle
   cx="596"
   cy="118"
   r="3.7"
   id="circle167"
   d="M 599.7,118 C 599.7,120.04345 598.04345,121.7 596,121.7 593.95655,121.7 592.3,120.04345 592.3,118 592.3,115.95655 593.95655,114.3 596,114.3 598.04345,114.3 599.7,115.95655 599.7,118 z"
   sodipodi:cx="596"
   sodipodi:cy="118"
   sodipodi:rx="3.7"
   sodipodi:ry="3.7"
   style="fill:#ffffff" />
	</g>
	<g
   id="g169">
		<circle
   cx="606.79999"
   cy="118"
   r="3.7"
   id="circle171"
   d="M 610.49999,118 C 610.49999,120.04345 608.84344,121.7 606.79999,121.7 604.75653,121.7 603.09999,120.04345 603.09999,118 603.09999,115.95655 604.75653,114.3 606.79999,114.3 608.84344,114.3 610.49999,115.95655 610.49999,118 z"
   sodipodi:cx="606.79999"
   sodipodi:cy="118"
   sodipodi:rx="3.7"
   sodipodi:ry="3.7"
   style="fill:#ffffff" />
	</g>
	<g
   id="g173">
		<circle
   cx="585.29999"
   cy="127.7"
   r="3.7"
   id="circle175"
   d="M 588.99999,127.7 C 588.99999,129.74345 587.34344,131.4 585.29999,131.4 583.25653,131.4 581.59999,129.74345 581.59999,127.7 581.59999,125.65654 583.25653,124 585.29999,124 587.34344,124 588.99999,125.65654 588.99999,127.7 z"
   sodipodi:cx="585.29999"
   sodipodi:cy="127.7"
   sodipodi:rx="3.7"
   sodipodi:ry="3.7"
   style="fill:#ffffff" />
	</g>
	<g
   id="g177">
		<circle
   cx="596"
   cy="127.7"
   r="3.7"
   id="circle179"
   d="M 599.7,127.7 C 599.7,129.74345 598.04345,131.4 596,131.4 593.95655,131.4 592.3,129.74345 592.3,127.7 592.3,125.65654 593.95655,124 596,124 598.04345,124 599.7,125.65654 599.7,127.7 z"
   sodipodi:cx="596"
   sodipodi:cy="127.7"
   sodipodi:rx="3.7"
   sodipodi:ry="3.7"
   style="fill:#ffffff" />
	</g>
	<g
   id="g181">
		<circle
   cx="606.79999"
   cy="127.7"
   r="3.7"
   id="circle183"
   d="M 610.49999,127.7 C 610.49999,129.74345 608.84344,131.4 606.79999,131.4 604.75653,131.4 603.09999,129.74345 603.09999,127.7 603.09999,125.65654 604.75653,124 606.79999,124 608.84344,124 610.49999,125.65654 610.49999,127.7 z"
   sodipodi:cx="606.79999"
   sodipodi:cy="127.7"
   sodipodi:rx="3.7"
   sodipodi:ry="3.7"
   style="fill:#ffffff" />
	</g>
	<g
   id="g185">
		<polygon
   points="594.7,104.9 596.7,110.2 577.4,114.3 577.4,126.6 575.4,131.2 572.5,123.8 568.6,108.3 "
   id="polygon187"
   style="fill:#c32b2e" />
	</g>
	<g
   id="g189">
		<g
   id="g191">
			<defs
   id="defs193">
				<path
   id="SVGID_1_"
   d="M 434.1,95.7 C 434.1,95.7 405.2,55.1 434.1,29.4 L 457.7,47.8 C 457.7,47.8 439.3,62.7 442.4,95.8 H 434.1 z"
   inkscape:connector-curvature="0" />
			</defs>
			<clipPath
   id="SVGID_2_">
				<use
   xlink:href="#SVGID_1_"
   overflow="visible"
   id="use197"
   style="overflow:visible"
   x="0"
   y="0"
   width="960"
   height="560" />
			</clipPath>
			<g
   clip-path="url(#SVGID_2_)"
   id="g199">
				<path
   d="M 439.1,100.7 C 433.8,82.2 437.9,67.8 442.2,59 447,49.4 453.1,44.2 453.1,44.1 L 453.6,44.7 C 453.4,44.9 429.7,65.5 439.8,100.5 L 439.1,100.7 z"
   id="path201"
   inkscape:connector-curvature="0"
   style="fill:#c32b2e" />
			</g>
		</g>
		<g
   id="g203">
			<defs
   id="defs205">
				<path
   id="SVGID_3_"
   d="M 434.1,95.7 C 434.1,95.7 405.2,55.1 434.1,29.4 L 457.7,47.8 C 457.7,47.8 439.3,62.7 442.4,95.8 H 434.1 z"
   inkscape:connector-curvature="0" />
			</defs>
			<clipPath
   id="SVGID_4_">
				<use
   xlink:href="#SVGID_3_"
   overflow="visible"
   id="use209"
   style="overflow:visible"
   x="0"
   y="0"
   width="960"
   height="560" />
			</clipPath>
			<g
   clip-path="url(#SVGID_4_)"
   id="g211">
				<path
   d="M 429.2,92.8 C 427.4,72.1 433,58.8 438,51.3 443.4,43.1 449.2,40 449.5,39.8 L 449.9,40.5 C 449.7,40.6 426.7,53.6 430,92.8 L 429.2,92.8 z"
   id="path213"
   inkscape:connector-curvature="0"
   style="fill:#c32b2e" />
			</g>
		</g>
		<g
   id="g215">
			<defs
   id="defs217">
				<path
   id="SVGID_5_"
   d="M 434.1,95.7 C 434.1,95.7 405.2,55.1 434.1,29.4 L 457.7,47.8 C 457.7,47.8 439.3,62.7 442.4,95.8 H 434.1 z"
   inkscape:connector-curvature="0" />
			</defs>
			<clipPath
   id="SVGID_6_">
				<use
   xlink:href="#SVGID_5_"
   overflow="visible"
   id="use221"
   style="overflow:visible"
   x="0"
   y="0"
   width="960"
   height="560" />
			</clipPath>
			<g
   clip-path="url(#SVGID_6_)"
   id="g223">
				<path
   d="M 422.1,80.7 C 421,47.5 444.8,36.4 445.1,36.3 L 445.4,37 C 445.2,37.1 421.8,48.1 422.9,80.7 L 422.1,80.7 z"
   id="path225"
   inkscape:connector-curvature="0"
   style="fill:#c32b2e" />
			</g>
		</g>
		<g
   id="g227">
			<defs
   id="defs229">
				<path
   id="SVGID_7_"
   d="M 434.1,95.7 C 434.1,95.7 405.2,55.1 434.1,29.4 L 457.7,47.8 C 457.7,47.8 439.3,62.7 442.4,95.8 H 434.1 z"
   inkscape:connector-curvature="0" />
			</defs>
			<clipPath
   id="SVGID_8_">
				<use
   xlink:href="#SVGID_7_"
   overflow="visible"
   id="use233"
   style="overflow:visible"
   x="0"
   y="0"
   width="960"
   height="560" />
			</clipPath>
			<g
   clip-path="url(#SVGID_8_)"
   id="g235">
				<path
   d="M 416.7,61.7 416,61.5 C 423.2,38.3 441.4,33.4 441.6,33.3 L 441.8,34 C 441.6,34.1 423.8,38.9 416.7,61.7 z"
   id="path237"
   inkscape:connector-curvature="0"
   style="fill:#c32b2e" />
			</g>
		</g>
	</g>
	<g
   id="g239">
		<g
   id="g241">
			<defs
   id="defs243">
				<path
   id="SVGID_9_"
   d="M 437.2,26.6 460.2,44.5 C 460.2,44.5 464.7,24.2 484.3,34.1 484.3,34.1 487.6,35.1 484.3,31.4 481,27.5 462.5,7.3 437.2,26.6 z"
   inkscape:connector-curvature="0" />
			</defs>
			<clipPath
   id="SVGID_10_">
				<use
   xlink:href="#SVGID_9_"
   overflow="visible"
   id="use247"
   style="overflow:visible"
   x="0"
   y="0"
   width="960"
   height="560" />
			</clipPath>
			<g
   clip-path="url(#SVGID_10_)"
   id="g249">
				<g
   id="g251">
					<path
   d="M 455,42.2 454.3,42 C 454.3,41.9 457.5,32.5 466.4,28.2 472.2,25.4 479.1,25.3 486.9,28.1 L 486.7,28.8 C 479.1,26.1 472.4,26.2 466.8,28.9 458.2,33 455,42.1 455,42.2 z"
   id="path253"
   inkscape:connector-curvature="0"
   style="fill:#c32b2e" />
				</g>
				<g
   id="g255">
					<path
   d="M 450,39.1 449.4,38.7 C 449.5,38.5 462.4,18.7 481.4,24.7 L 481.2,25.4 C 462.6,19.6 450.1,38.9 450,39.1 z"
   id="path257"
   inkscape:connector-curvature="0"
   style="fill:#c32b2e" />
				</g>
				<g
   id="g259">
					<path
   d="M 443.7,33.3 443.2,32.8 C 443.4,32.6 461.1,14.8 478.2,23.7 L 477.9,24.4 C 461.2,15.7 443.8,33.1 443.7,33.3 z"
   id="path261"
   inkscape:connector-curvature="0"
   style="fill:#c32b2e" />
				</g>
				<g
   id="g263">
					<path
   d="M 439.4,30.4 438.8,29.9 C 438.9,29.8 452.1,15 476.1,21.2 L 475.9,21.9 C 463.6,18.7 454.3,21.2 448.7,23.8 442.7,26.7 439.4,30.3 439.4,30.4 z"
   id="path265"
   inkscape:connector-curvature="0"
   style="fill:#c32b2e" />
				</g>
			</g>
		</g>
	</g>
</g>
</svg>