<?xml version="1.0" encoding="UTF-8" standalone="no"?>
<!-- Generator: Adobe Illustrator 17.1.0, SVG Export Plug-In . SVG Version: 6.00 Build 0)  -->

<svg
   xmlns:dc="http://purl.org/dc/elements/1.1/"
   xmlns:cc="http://creativecommons.org/ns#"
   xmlns:rdf="http://www.w3.org/1999/02/22-rdf-syntax-ns#"
   xmlns:svg="http://www.w3.org/2000/svg"
   xmlns="http://www.w3.org/2000/svg"
   xmlns:sodipodi="http://sodipodi.sourceforge.net/DTD/sodipodi-0.dtd"
   xmlns:inkscape="http://www.inkscape.org/namespaces/inkscape"
   version="1.1"
   id="Layer_1"
   x="0px"
   y="0px"
   viewBox="0 0 42 102"
   enable-background="new 0 0 307.4 274.5"
   xml:space="preserve"
   inkscape:version="0.48.4 r9939"
   width="100%"
   height="100%"
   sodipodi:docname="fn-red-man.svg"><metadata
   id="metadata31"><rdf:RDF><cc:Work
       rdf:about=""><dc:format>image/svg+xml</dc:format><dc:type
         rdf:resource="http://purl.org/dc/dcmitype/StillImage" /></cc:Work></rdf:RDF></metadata><defs
   id="defs29" /><sodipodi:namedview
   pagecolor="#ffffff"
   bordercolor="#666666"
   borderopacity="1"
   objecttolerance="10"
   gridtolerance="10"
   guidetolerance="10"
   inkscape:pageopacity="0"
   inkscape:pageshadow="2"
   inkscape:window-width="1536"
   inkscape:window-height="803"
   id="namedview27"
   showgrid="false"
   inkscape:showpageshadow="false"
   inkscape:zoom="3.43898"
   inkscape:cx="70.704698"
   inkscape:cy="61.996281"
   inkscape:window-x="-8"
   inkscape:window-y="-8"
   inkscape:window-maximized="1"
   inkscape:current-layer="Layer_1" />
<g
   id="g3"
   transform="translate(-131.46982,-86.13718)">
	<polygon
   points="166.9,122.9 163.4,120.5 165.4,115.5 173.1,122.1 159.9,137.1 159,135.4 "
   id="polygon5"
   style="fill:#c32b2e" />
	<polygon
   points="158.3,109.1 166.5,115.8 163.4,120.5 157.5,116.8 "
   id="polygon7"
   style="fill:#591b16" />
	<polygon
   points="137.6,122.9 141.1,120.5 139.1,115.5 131.4,122.1 144.7,137.1 145.5,135.4 "
   id="polygon9"
   style="fill:#c32b2e" />
	<path
   d="M 145.5,89.9 145.5,89.9 C 146.8,87.9 149.2,86.2 151.9,86.2 154.6,86.2 157,87.9 158.2,89.9 H 158.2 C 158.6,90.6 159,91.7 159.3,93.2 159.6,96.7 160,99.6 160,99.6 H 158.5 V 105.1 C 158.5,105.1 148,108 145.1,96.9 145.1,96.9 144.6,95.7 144.6,93.6 144.7,92.4 144.6,91.5 145.5,89.9 z"
   id="path11"
   inkscape:connector-curvature="0"
   style="fill:#c32b2e" />
	<path
   d="M 161,138.3 C 161,142.2 157.9,145.3 154,145.3 H 150.6 C 146.7,145.3 143.6,142.2 143.6,138.3 V 114.5 C 143.6,110.6 146.7,107.5 150.6,107.5 H 154 C 157.9,107.5 161,110.6 161,114.5 V 138.3 z"
   id="path13"
   inkscape:connector-curvature="0"
   style="fill:#591b16" />
	<polygon
   points="143.7,138.3 145.1,184.2 150.2,184.2 151.8,145.9 153.6,145.9 154.5,184.2 159.6,184.2 161,138.4 "
   id="polygon15"
   style="fill:#c32b2e" />
	<path
   d="M 149.5,105.1 V 107.7 C 149.5,107.7 151.8,108.6 155.3,107.7 V 106.7 C 155.2,106.7 151.7,106.6 149.5,105.1 z"
   id="path17"
   inkscape:connector-curvature="0"
   style="fill:#c32b2e" />
	<circle
   cx="156.2"
   cy="94.900002"
   r="0.69999999"
   id="circle19"
   d="M 156.9,94.900002 C 156.9,95.286601 156.5866,95.600002 156.2,95.600002 155.8134,95.600002 155.5,95.286601 155.5,94.900002 155.5,94.513402 155.8134,94.200002 156.2,94.200002 156.5866,94.200002 156.9,94.513402 156.9,94.900002 z"
   sodipodi:cx="156.2"
   sodipodi:cy="94.900002"
   sodipodi:rx="0.69999999"
   sodipodi:ry="0.69999999"
   style="fill:#591b16" />
	<polygon
   points="154.8,188.3 154.5,184.2 159.6,184.2 160.9,186.5 168.4,186.7 168.4,188.3 "
   id="polygon21"
   style="fill:#591b16" />
	<polygon
   points="149.9,188.3 150.2,184.2 145.1,184.2 143.8,186.5 136,186.7 136,188.3 "
   id="polygon23"
   style="fill:#591b16" />
	<polygon
   points="146.2,109.1 138.1,115.8 141.1,120.5 147,116.8 "
   id="polygon25"
   style="fill:#591b16" />
</g>
</svg>