<?xml version="1.0" encoding="UTF-8" standalone="no"?>
<!-- Generator: Adobe Illustrator 17.1.0, SVG Export Plug-In . SVG Version: 6.00 Build 0)  -->

<svg
   xmlns:dc="http://purl.org/dc/elements/1.1/"
   xmlns:cc="http://creativecommons.org/ns#"
   xmlns:rdf="http://www.w3.org/1999/02/22-rdf-syntax-ns#"
   xmlns:svg="http://www.w3.org/2000/svg"
   xmlns="http://www.w3.org/2000/svg"
   xmlns:sodipodi="http://sodipodi.sourceforge.net/DTD/sodipodi-0.dtd"
   xmlns:inkscape="http://www.inkscape.org/namespaces/inkscape"
   version="1.1"
   id="Layer_1"
   x="0px"
   y="0px"
   viewBox="0 0 525 280"
   enable-background="new 0 0 960 560"
   xml:space="preserve"
   inkscape:version="0.48.4 r9939"
   width="100%"
   height="100%"
   sodipodi:docname="fn-right-fist.svg"><metadata
   id="metadata49"><rdf:RDF><cc:Work
       rdf:about=""><dc:format>image/svg+xml</dc:format><dc:type
         rdf:resource="http://purl.org/dc/dcmitype/StillImage" /></cc:Work></rdf:RDF></metadata><defs
   id="defs47" /><sodipodi:namedview
   pagecolor="#ffffff"
   bordercolor="#666666"
   borderopacity="1"
   objecttolerance="10"
   gridtolerance="10"
   guidetolerance="10"
   inkscape:pageopacity="0"
   inkscape:pageshadow="2"
   inkscape:window-width="1536"
   inkscape:window-height="803"
   id="namedview45"
   showgrid="false"
   inkscape:showpageshadow="false"
   inkscape:zoom="0.29791667"
   inkscape:cx="480"
   inkscape:cy="280"
   inkscape:window-x="-8"
   inkscape:window-y="-8"
   inkscape:window-maximized="1"
   inkscape:current-layer="Layer_1" />
<g
   id="g3"
   transform="translate(-225.53846,-64.46154)">
	<path
   d="M 332.3,304.8 V 269.3 H 246.9 C 238.4,269.3 231.5,276.2 231.5,284.7 V 304.7 H 332.3 z"
   id="path5"
   inkscape:connector-curvature="0"
   style="fill:#c22b2e" />
	<path
   d="M 342.2,265.4 V 230 H 242.6 C 234.1,230 227.2,236.9 227.2,245.4 V 265.4 H 342.2 z"
   id="path7"
   inkscape:connector-curvature="0"
   style="fill:#c22b2e" />
	<path
   d="M 327.6,344 V 308.5 H 249.8 C 241.3,308.5 234.4,315.4 234.4,323.9 V 343.9 H 327.6 z"
   id="path9"
   inkscape:connector-curvature="0"
   style="fill:#c22b2e" />
	<path
   d="M 393.3,307.2 405.5,304.5 V 279.4 214.7 H 256.3 L 260.6,344 H 357 C 377,344 393.3,327.6 393.3,307.2 z"
   id="path11"
   inkscape:connector-curvature="0"
   style="fill:#c22b2e" />
	<rect
   x="327.60001"
   y="214.7"
   width="283.79999"
   height="107.9"
   id="rect13"
   style="fill:#c22b2e" />
	<path
   d="M 392.9,214.5 C 392.9,200.5 381.6,189.1 367.5,189.1 H 320.9 V 189.4 H 248.4 C 239.9,189.4 233,196.3 233,204.8 V 224.8 H 321 V 247 H 321.4 C 337.4,247 351.3,238 358.5,224.8 H 405.5 V 214.7 H 392.9 L 392.9,214.5 392.9,214.5 z"
   id="path15"
   inkscape:connector-curvature="0"
   style="fill:#c22b2e" />
	<rect
   x="408.29999"
   y="210"
   width="53.799999"
   height="116.3"
   id="rect17"
   style="fill:#591b16" />
	<rect
   x="544.5"
   y="212"
   width="207.8"
   height="115.8"
   id="rect19"
   style="fill:#01405f" />
	<rect
   x="489.20001"
   y="205.5"
   width="65.800003"
   height="128.7"
   id="rect21"
   style="fill:#22a0cc" />
	<circle
   cx="538.29999"
   cy="320.60001"
   r="6.1999998"
   id="circle23"
   d="M 544.49999,320.60001 C 544.49999,324.02417 541.72415,326.80001 538.29999,326.80001 534.87582,326.80001 532.09999,324.02417 532.09999,320.60001 532.09999,317.17584 534.87582,314.40001 538.29999,314.40001 541.72415,314.40001 544.49999,317.17584 544.49999,320.60001 z"
   sodipodi:cx="538.29999"
   sodipodi:cy="320.60001"
   sodipodi:rx="6.1999998"
   sodipodi:ry="6.1999998"
   style="fill:#591b16" />
	<g
   id="g25">
		<circle
   cx="435.20001"
   cy="268.70001"
   r="44.599998"
   id="circle27"
   d="M 479.80001,268.70001 C 479.80001,293.33191 459.83191,313.30001 435.20001,313.30001 410.56811,313.30001 390.60001,293.33191 390.60001,268.70001 390.60001,244.06811 410.56811,224.10001 435.20001,224.10001 459.83191,224.10001 479.80001,244.06811 479.80001,268.70001 z"
   sodipodi:cx="435.20001"
   sodipodi:cy="268.70001"
   sodipodi:rx="44.599998"
   sodipodi:ry="44.599998"
   style="fill:#22a0cc" />
		<circle
   cx="435.20001"
   cy="268.70001"
   r="42.200001"
   id="circle29"
   d="M 477.40001,268.70001 C 477.40001,292.00643 458.50643,310.90001 435.20001,310.90001 411.8936,310.90001 393.00001,292.00643 393.00001,268.70001 393.00001,245.3936 411.8936,226.50001 435.20001,226.50001 458.50643,226.50001 477.40001,245.3936 477.40001,268.70001 z"
   sodipodi:cx="435.20001"
   sodipodi:cy="268.70001"
   sodipodi:rx="42.200001"
   sodipodi:ry="42.200001"
   style="fill:#e2e2e2" />
		<g
   id="g31">
			<rect
   x="435.20001"
   y="268.20001"
   width="31.6"
   height="1"
   id="rect33"
   style="fill:#c22b2e" />
		</g>
		<circle
   cx="435.20001"
   cy="268.70001"
   r="4.5"
   id="circle35"
   d="M 439.70001,268.70001 C 439.70001,271.18529 437.68529,273.20001 435.20001,273.20001 432.71473,273.20001 430.70001,271.18529 430.70001,268.70001 430.70001,266.21473 432.71473,264.20001 435.20001,264.20001 437.68529,264.20001 439.70001,266.21473 439.70001,268.70001 z"
   sodipodi:cx="435.20001"
   sodipodi:cy="268.70001"
   sodipodi:rx="4.5"
   sodipodi:ry="4.5"
   style="fill:#591b16" />
		<g
   id="g37">
			<polygon
   points="433.3,303.6 433.3,268.7 437.1,268.7 437.1,303.6 435.2,307.2 "
   id="polygon39"
   style="fill:#591b16" />
		</g>
		<g
   id="g41">
			<polygon
   points="447.1,257.4 434.4,270.9 431.6,268.2 444.3,254.7 448.2,253.4 "
   id="polygon43"
   style="fill:#591b16" />
		</g>
	</g>
</g>
</svg>