<?xml version="1.0" encoding="UTF-8" standalone="no"?>
<!-- Generator: Adobe Illustrator 17.1.0, SVG Export Plug-In . SVG Version: 6.00 Build 0)  -->

<svg
   xmlns:dc="http://purl.org/dc/elements/1.1/"
   xmlns:cc="http://creativecommons.org/ns#"
   xmlns:rdf="http://www.w3.org/1999/02/22-rdf-syntax-ns#"
   xmlns:svg="http://www.w3.org/2000/svg"
   xmlns="http://www.w3.org/2000/svg"
   xmlns:sodipodi="http://sodipodi.sourceforge.net/DTD/sodipodi-0.dtd"
   xmlns:inkscape="http://www.inkscape.org/namespaces/inkscape"
   version="1.1"
   id="Layer_1"
   x="0px"
   y="0px"
   viewBox="0 0 42 102"
   enable-background="new 0 0 307.4 274.5"
   xml:space="preserve"
   inkscape:version="0.48.4 r9939"
   width="100%"
   height="100%"
   sodipodi:docname="fn-red-woman.svg"><metadata
   id="metadata35"><rdf:RDF><cc:Work
       rdf:about=""><dc:format>image/svg+xml</dc:format><dc:type
         rdf:resource="http://purl.org/dc/dcmitype/StillImage" /></cc:Work></rdf:RDF></metadata><defs
   id="defs33" /><sodipodi:namedview
   pagecolor="#ffffff"
   bordercolor="#666666"
   borderopacity="1"
   objecttolerance="10"
   gridtolerance="10"
   guidetolerance="10"
   inkscape:pageopacity="0"
   inkscape:pageshadow="2"
   inkscape:window-width="1536"
   inkscape:window-height="803"
   id="namedview31"
   showgrid="false"
   inkscape:showpageshadow="false"
   inkscape:zoom="3.43898"
   inkscape:cx="-66.243125"
   inkscape:cy="78.757308"
   inkscape:window-x="-8"
   inkscape:window-y="-8"
   inkscape:window-maximized="1"
   inkscape:current-layer="Layer_1" />
<g
   id="g3"
   transform="translate(-136.95922,-104.56303)">
	<polygon
   points="157.9,152.1 165.1,142.7 159.8,135.3 163.7,133.9 170.4,142.7 158.5,152.8 "
   id="polygon5"
   style="fill:#c32b2e" />
	<polygon
   points="149.2,151.6 142,142.2 147.3,134.8 143.4,133.3 136.7,142.2 148.7,152.3 "
   id="polygon7"
   style="fill:#c32b2e" />
	<path
   d="M 145.7,156.6 C 145.7,160.5 148.4,163.6 151.7,163.6 H 154.6 C 157.9,163.6 160.6,160.5 160.6,156.6 L 159.7,145 160.6,132.8 C 160.6,128.9 157.9,125.8 154.6,125.8 H 151.7 C 148.4,125.8 145.7,128.9 145.7,132.8 L 146.6,145 145.7,156.6 z"
   id="path9"
   inkscape:connector-curvature="0"
   style="fill:#591b16" />
	<polygon
   points="153.7,164.2 152.1,164.2 151,204.7 147.6,204.7 145.8,156.7 160.7,156.7 158.8,204.7 155.4,204.7 "
   id="polygon11"
   style="fill:#c32b2e" />
	<path
   d="M 146.6,107.9 146.6,107.9 C 147.9,106.9 150.2,104.3 153,104.3 155.7,104.3 158.1,106.9 159.3,107.9 H 159.3 C 159.7,108.9 160.1,109.9 160.4,111.4 160.7,114.9 161.1,117.9 161.1,117.9 H 159.9 V 123.5 C 159.9,123.5 149.3,126.4 146.4,115.4 146.4,115.4 145.8,114 145.8,111.8 145.9,110.7 145.7,109.9 146.6,107.9 z"
   id="path13"
   inkscape:connector-curvature="0"
   style="fill:#c32b2e" />
	<path
   d="M 151,123.7 V 126 C 151,126 153,127.7 156.1,126.9 V 125.1 C 156.1,125.1 153,125 151,123.7 z"
   id="path15"
   inkscape:connector-curvature="0"
   style="fill:#c32b2e" />
	<circle
   cx="157.3"
   cy="113.4"
   r="0.69999999"
   id="circle17"
   d="M 158,113.4 C 158,113.7866 157.6866,114.1 157.3,114.1 156.9134,114.1 156.6,113.7866 156.6,113.4 156.6,113.0134 156.9134,112.7 157.3,112.7 157.6866,112.7 158,113.0134 158,113.4 z"
   sodipodi:cx="157.3"
   sodipodi:cy="113.4"
   sodipodi:rx="0.69999999"
   sodipodi:ry="0.69999999"
   style="fill:#591b16" />
	<path
   d="M 155.3,204.3 H 162.1 C 163.3,204.3 164.3,205.3 164.3,206.5 H 155.3 V 204.3 z"
   id="path19"
   inkscape:connector-curvature="0"
   style="fill:#591b16" />
	<path
   d="M 151,204.3 H 144.2 C 143,204.3 142,205.3 142,206.5 H 151 V 204.3 z"
   id="path21"
   inkscape:connector-curvature="0"
   style="fill:#591b16" />
	<polygon
   points="150.2,132.5 148.1,127.3 142,133.1 146.6,136.4 "
   id="polygon23"
   style="fill:#591b16" />
	<polygon
   points="156.3,132.7 158.5,127.5 164.5,133.3 159.8,136.6 "
   id="polygon25"
   style="fill:#591b16" />
	<polygon
   points="153.7,126 156.1,126.9 153.6,130.2 151,126 "
   id="polygon27"
   style="fill:#c32b2e" />
	<path
   d="M 159.7,108.9 C 159.7,108.9 153.9,108.5 153.9,115.1 153.9,121.7 153.9,127.3 153.9,127.3 H 144 V 108.8 C 144,108.8 144.5,102.9 151.7,102.9 159.2,102.9 159.7,108.9 159.7,108.9 z"
   id="path29"
   inkscape:connector-curvature="0"
   style="fill:#591b16" />
</g>
</svg>