<?xml version="1.0" encoding="UTF-8" standalone="no"?>
<!-- Generator: Adobe Illustrator 17.1.0, SVG Export Plug-In . SVG Version: 6.00 Build 0)  -->

<svg
   xmlns:dc="http://purl.org/dc/elements/1.1/"
   xmlns:cc="http://creativecommons.org/ns#"
   xmlns:rdf="http://www.w3.org/1999/02/22-rdf-syntax-ns#"
   xmlns:svg="http://www.w3.org/2000/svg"
   xmlns="http://www.w3.org/2000/svg"
   xmlns:sodipodi="http://sodipodi.sourceforge.net/DTD/sodipodi-0.dtd"
   xmlns:inkscape="http://www.inkscape.org/namespaces/inkscape"
   version="1.1"
   id="Layer_1"
   x="0px"
   y="0px"
   viewBox="0 0 670 520"
   enable-background="new 0 0 960 560"
   xml:space="preserve"
   inkscape:version="0.48.4 r9939"
   width="100%"
   height="100%"
   sodipodi:docname="tv.svg"><metadata
   id="metadata141"><rdf:RDF><cc:Work
       rdf:about=""><dc:format>image/svg+xml</dc:format><dc:type
         rdf:resource="http://purl.org/dc/dcmitype/StillImage" /></cc:Work></rdf:RDF></metadata><defs
   id="defs139" /><sodipodi:namedview
   pagecolor="#ffffff"
   bordercolor="#666666"
   borderopacity="1"
   objecttolerance="10"
   gridtolerance="10"
   guidetolerance="10"
   inkscape:pageopacity="0"
   inkscape:pageshadow="2"
   inkscape:window-width="1536"
   inkscape:window-height="803"
   id="namedview137"
   showgrid="false"
   inkscape:showpageshadow="false"
   inkscape:zoom="0.29791667"
   inkscape:cx="480"
   inkscape:cy="280"
   inkscape:window-x="-8"
   inkscape:window-y="-8"
   inkscape:window-maximized="1"
   inkscape:current-layer="Layer_1" />
<g
   id="g3"
   transform="translate(-154.40559,-3.076923)">
	<g
   id="g5">
		<rect
   x="160.5"
   y="11"
   width="658"
   height="479.39999"
   id="rect7"
   style="fill:#01405f" />
	</g>
	<g
   id="g9">
		<rect
   x="186.60001"
   y="33.400002"
   width="432.10001"
   height="432.10001"
   id="rect11"
   style="fill:#22a0cc" />
	</g>
	<g
   id="g13">
		<path
   d="M 586.8,433.5 585,433.6 C 463.6,441.1 341.9,441.1 220.6,433.6 L 218.8,433.5 218.7,431.7 C 211.2,310.3 211.2,188.6 218.7,67.3 L 218.8,65.5 220.6,65.4 C 342,57.9 463.7,57.9 585,65.4 L 586.8,65.5 586.9,67.3 C 594.4,188.7 594.4,310.4 586.9,431.7 586.9,431.6 586.8,433.5 586.8,433.5 z"
   id="path15"
   inkscape:connector-curvature="0"
   style="fill:#e2e2e2" />
	</g>
	<g
   id="g17">
		<rect
   x="642.09998"
   y="33.400002"
   width="150"
   height="432.10001"
   id="rect19"
   style="fill:#22a0cc" />
	</g>
	<g
   id="g21">
		<g
   id="g23">
			<circle
   cx="717.09998"
   cy="111.2"
   r="47.799999"
   id="circle25"
   d="M 764.89997,111.2 C 764.89997,137.59921 743.49919,159 717.09998,159 690.70076,159 669.29998,137.59921 669.29998,111.2 669.29998,84.800786 690.70076,63.399998 717.09998,63.399998 743.49919,63.399998 764.89997,84.800786 764.89997,111.2 z"
   sodipodi:cx="717.09998"
   sodipodi:cy="111.2"
   sodipodi:rx="47.799999"
   sodipodi:ry="47.799999"
   style="fill:#c22b2e" />
		</g>
		<g
   id="g27">
			<circle
   cx="717.09998"
   cy="111.2"
   r="38.599998"
   id="circle29"
   d="M 755.69997,111.2 C 755.69997,132.51819 738.41817,149.8 717.09998,149.8 695.78179,149.8 678.49998,132.51819 678.49998,111.2 678.49998,89.881806 695.78179,72.599998 717.09998,72.599998 738.41817,72.599998 755.69997,89.881806 755.69997,111.2 z"
   sodipodi:cx="717.09998"
   sodipodi:cy="111.2"
   sodipodi:rx="38.599998"
   sodipodi:ry="38.599998"
   style="fill:#591b16" />
		</g>
		<g
   id="g31">
			<path
   d="M 722.1,157.6 717,170 711.9,157.6 V 129.2 110.3 H 712 C 714.9,107.6 719.2,107.6 722.1,110.3 H 722.2 V 129.2 157.6 H 722.1 z"
   id="path33"
   inkscape:connector-curvature="0"
   style="fill:#c22b2e" />
		</g>
	</g>
	<g
   id="g35">
		<g
   id="g37">
			<circle
   cx="717.09998"
   cy="234.60001"
   r="47.799999"
   id="circle39"
   d="M 764.89997,234.60001 C 764.89997,260.99922 743.49919,282.40001 717.09998,282.40001 690.70076,282.40001 669.29998,260.99922 669.29998,234.60001 669.29998,208.2008 690.70076,186.80001 717.09998,186.80001 743.49919,186.80001 764.89997,208.2008 764.89997,234.60001 z"
   sodipodi:cx="717.09998"
   sodipodi:cy="234.60001"
   sodipodi:rx="47.799999"
   sodipodi:ry="47.799999"
   style="fill:#c22b2e" />
		</g>
		<g
   id="g41">
			<circle
   cx="717.09998"
   cy="234.60001"
   r="38.599998"
   id="circle43"
   d="M 755.69997,234.60001 C 755.69997,255.9182 738.41817,273.2 717.09998,273.2 695.78179,273.2 678.49998,255.9182 678.49998,234.60001 678.49998,213.28182 695.78179,196.00001 717.09998,196.00001 738.41817,196.00001 755.69997,213.28182 755.69997,234.60001 z"
   sodipodi:cx="717.09998"
   sodipodi:cy="234.60001"
   sodipodi:rx="38.599998"
   sodipodi:ry="38.599998"
   style="fill:#591b16" />
		</g>
		<g
   id="g45">
			<path
   d="M 764.5,243.4 774.3,252.5 761,253 734.4,243.2 716.8,236.6 V 236.5 C 715.3,232.9 716.8,228.8 720.3,227.1 H 720.4 L 738,233.7 764.5,243.4 z"
   id="path47"
   inkscape:connector-curvature="0"
   style="fill:#c22b2e" />
		</g>
	</g>
	<g
   id="g49">
		<g
   id="g51">
			<circle
   cx="674.59998"
   cy="319.20001"
   r="18.299999"
   id="circle53"
   d="M 692.89997,319.20001 C 692.89997,329.30682 684.70679,337.50001 674.59998,337.50001 664.49317,337.50001 656.29998,329.30682 656.29998,319.20001 656.29998,309.0932 664.49317,300.90001 674.59998,300.90001 684.70679,300.90001 692.89997,309.0932 692.89997,319.20001 z"
   sodipodi:cx="674.59998"
   sodipodi:cy="319.20001"
   sodipodi:rx="18.299999"
   sodipodi:ry="18.299999"
   style="fill:#c22b2e" />
		</g>
		<g
   id="g55">
			<circle
   cx="674.59998"
   cy="319.20001"
   r="11.4"
   id="circle57"
   d="M 685.99998,319.20001 C 685.99998,325.49606 680.89602,330.60001 674.59998,330.60001 668.30393,330.60001 663.19998,325.49606 663.19998,319.20001 663.19998,312.90397 668.30393,307.80001 674.59998,307.80001 680.89602,307.80001 685.99998,312.90397 685.99998,319.20001 z"
   sodipodi:cx="674.59998"
   sodipodi:cy="319.20001"
   sodipodi:rx="11.4"
   sodipodi:ry="11.4"
   style="fill:#591b16" />
		</g>
	</g>
	<g
   id="g59">
		<g
   id="g61">
			<circle
   cx="717.79999"
   cy="319.20001"
   r="18.299999"
   id="circle63"
   d="M 736.09999,319.20001 C 736.09999,329.30682 727.9068,337.50001 717.79999,337.50001 707.69318,337.50001 699.49999,329.30682 699.49999,319.20001 699.49999,309.0932 707.69318,300.90001 717.79999,300.90001 727.9068,300.90001 736.09999,309.0932 736.09999,319.20001 z"
   sodipodi:cx="717.79999"
   sodipodi:cy="319.20001"
   sodipodi:rx="18.299999"
   sodipodi:ry="18.299999"
   style="fill:#c22b2e" />
		</g>
		<g
   id="g65">
			<circle
   cx="717.79999"
   cy="319.20001"
   r="11.4"
   id="circle67"
   d="M 729.19999,319.20001 C 729.19999,325.49606 724.09603,330.60001 717.79999,330.60001 711.50394,330.60001 706.39999,325.49606 706.39999,319.20001 706.39999,312.90397 711.50394,307.80001 717.79999,307.80001 724.09603,307.80001 729.19999,312.90397 729.19999,319.20001 z"
   sodipodi:cx="717.79999"
   sodipodi:cy="319.20001"
   sodipodi:rx="11.4"
   sodipodi:ry="11.4"
   style="fill:#591b16" />
		</g>
	</g>
	<g
   id="g69">
		<g
   id="g71">
			<circle
   cx="761"
   cy="319.20001"
   r="18.299999"
   id="circle73"
   d="M 779.3,319.20001 C 779.3,329.30682 771.10681,337.50001 761,337.50001 750.89319,337.50001 742.7,329.30682 742.7,319.20001 742.7,309.0932 750.89319,300.90001 761,300.90001 771.10681,300.90001 779.3,309.0932 779.3,319.20001 z"
   sodipodi:cx="761"
   sodipodi:cy="319.20001"
   sodipodi:rx="18.299999"
   sodipodi:ry="18.299999"
   style="fill:#c22b2e" />
		</g>
		<g
   id="g75">
			<circle
   cx="761"
   cy="319.20001"
   r="11.4"
   id="circle77"
   d="M 772.4,319.20001 C 772.4,325.49606 767.29605,330.60001 761,330.60001 754.70395,330.60001 749.6,325.49606 749.6,319.20001 749.6,312.90397 754.70395,307.80001 761,307.80001 767.29605,307.80001 772.4,312.90397 772.4,319.20001 z"
   sodipodi:cx="761"
   sodipodi:cy="319.20001"
   sodipodi:rx="11.4"
   sodipodi:ry="11.4"
   style="fill:#591b16" />
		</g>
	</g>
	<g
   id="g79">
		<polygon
   points="244.5,489.2 291.4,489.2 283.8,520.7 252.1,520.7 "
   id="polygon81"
   style="fill:#01405f" />
	</g>
	<g
   id="g83">
		<polygon
   points="694.3,489.2 741.3,489.2 733.6,520.7 701.9,520.7 "
   id="polygon85"
   style="fill:#01405f" />
	</g>
	<g
   id="g87">
		<g
   id="g89">
			<rect
   x="662.70001"
   y="364.79999"
   width="111.1"
   height="2"
   id="rect91"
   style="fill:#e2e2e2" />
		</g>
		<g
   id="g93">
			<rect
   x="662.70001"
   y="371.60001"
   width="111.1"
   height="2"
   id="rect95"
   style="fill:#e2e2e2" />
		</g>
		<g
   id="g97">
			<rect
   x="662.70001"
   y="378.5"
   width="111.1"
   height="2"
   id="rect99"
   style="fill:#e2e2e2" />
		</g>
		<g
   id="g101">
			<rect
   x="662.70001"
   y="385.39999"
   width="111.1"
   height="2"
   id="rect103"
   style="fill:#e2e2e2" />
		</g>
		<g
   id="g105">
			<rect
   x="662.70001"
   y="392.20001"
   width="111.1"
   height="2"
   id="rect107"
   style="fill:#e2e2e2" />
		</g>
		<g
   id="g109">
			<rect
   x="662.70001"
   y="399"
   width="111.1"
   height="2"
   id="rect111"
   style="fill:#e2e2e2" />
		</g>
		<g
   id="g113">
			<rect
   x="662.70001"
   y="405.79999"
   width="111.1"
   height="2"
   id="rect115"
   style="fill:#e2e2e2" />
		</g>
		<g
   id="g117">
			<rect
   x="662.70001"
   y="412.70001"
   width="111.1"
   height="2"
   id="rect119"
   style="fill:#e2e2e2" />
		</g>
		<g
   id="g121">
			<rect
   x="662.70001"
   y="419.60001"
   width="111.1"
   height="2"
   id="rect123"
   style="fill:#e2e2e2" />
		</g>
		<g
   id="g125">
			<rect
   x="662.70001"
   y="426.39999"
   width="111.1"
   height="2"
   id="rect127"
   style="fill:#e2e2e2" />
		</g>
		<g
   id="g129">
			<rect
   x="662.70001"
   y="433.29999"
   width="111.1"
   height="2"
   id="rect131"
   style="fill:#e2e2e2" />
		</g>
		<g
   id="g133">
			<rect
   x="662.70001"
   y="440.20001"
   width="111.1"
   height="2"
   id="rect135"
   style="fill:#e2e2e2" />
		</g>
	</g>
</g>
</svg>