<?xml version="1.0" encoding="UTF-8" standalone="no"?>
<!-- Generator: Adobe Illustrator 17.1.0, SVG Export Plug-In . SVG Version: 6.00 Build 0)  -->

<svg
   xmlns:dc="http://purl.org/dc/elements/1.1/"
   xmlns:cc="http://creativecommons.org/ns#"
   xmlns:rdf="http://www.w3.org/1999/02/22-rdf-syntax-ns#"
   xmlns:svg="http://www.w3.org/2000/svg"
   xmlns="http://www.w3.org/2000/svg"
   xmlns:sodipodi="http://sodipodi.sourceforge.net/DTD/sodipodi-0.dtd"
   xmlns:inkscape="http://www.inkscape.org/namespaces/inkscape"
   version="1.1"
   id="Layer_1"
   x="0px"
   y="0px"
   viewBox="0 0 290 290"
   enable-background="new 0 0 960 560"
   xml:space="preserve"
   inkscape:version="0.48.4 r9939"
   width="100%"
   height="100%"
   sodipodi:docname="viral-icon-01.svg"><metadata
   id="metadata39"><rdf:RDF><cc:Work
       rdf:about=""><dc:format>image/svg+xml</dc:format><dc:type
         rdf:resource="http://purl.org/dc/dcmitype/StillImage" /></cc:Work></rdf:RDF></metadata><defs
   id="defs37" /><sodipodi:namedview
   pagecolor="#ffffff"
   bordercolor="#666666"
   borderopacity="1"
   objecttolerance="10"
   gridtolerance="10"
   guidetolerance="10"
   inkscape:pageopacity="0"
   inkscape:pageshadow="2"
   inkscape:window-width="1536"
   inkscape:window-height="803"
   id="namedview35"
   showgrid="false"
   inkscape:showpageshadow="false"
   inkscape:zoom="0.59583333"
   inkscape:cx="495.13238"
   inkscape:cy="345.07916"
   inkscape:window-x="-8"
   inkscape:window-y="-8"
   inkscape:window-maximized="1"
   inkscape:current-layer="Layer_1" />
<g
   id="g3"
   transform="translate(-308.81119,-133.73427)">
	<g
   id="g5">
		<g
   id="g7">
			<g
   id="g9">
				<path
   d="M 455.4,280 406.7,414.2 C 332.6,387.3 294.4,305.4 321.3,230.9 342,173.6 394.2,136.9 455.5,136.9 V 280 z"
   id="path11"
   inkscape:connector-curvature="0"
   style="fill:#c22b2e" />
				<path
   d="M 407.3,415.4 406.4,415.1 C 370.3,402 341.5,375.6 325.3,340.8 309.1,306 307.3,266.8 320.4,230.6 330.6,202.3 348.7,178.4 372.6,161.6 396.6,144.8 425.2,135.9 455.5,135.9 H 456.5 V 280.2 L 456.4,280.4 407.3,415.4 z M 454.4,137.9 C 424.9,138.1 397.1,146.8 373.7,163.2 350.1,179.8 332.3,203.3 322.2,231.2 309.3,267 311,305.6 327,339.9 342.9,373.9 370.9,399.8 406.1,412.8 L 454.4,279.8 V 137.9 z"
   id="path13"
   inkscape:connector-curvature="0"
   style="fill:#ffffff" />
			</g>
		</g>
	</g>
	<g
   id="g15">
		<g
   id="g17">
			<g
   id="g19">
				<path
   d="M 455.4,280 596.2,255 C 609.8,332.6 558,406.7 480.4,420.3 454.7,425 431.3,423 406.7,413.7 L 455.4,280 z"
   id="path21"
   inkscape:connector-curvature="0"
   style="fill:#c22b2e" />
				<path
   d="M 454.4,423.8 C 438.2,423.8 422.5,420.8 406.4,414.7 L 405.5,414.3 454.8,279.1 455.4,279 597,253.9 597.2,254.9 C 603.8,292.7 595.4,330.8 573.3,362.3 551.3,393.8 518.3,414.8 480.5,421.4 471.5,423 462.9,423.8 454.4,423.8 z M 408,413.2 C 423.6,419 438.8,421.9 454.4,421.9 462.8,421.9 471.3,421.1 480.2,419.5 517.5,412.9 550,392.2 571.7,361.2 593.2,330.5 601.6,293.2 595.4,256.3 L 456.2,281 408,413.2 z"
   id="path23"
   inkscape:connector-curvature="0"
   style="fill:#ffffff" />
			</g>
		</g>
	</g>
	<g
   id="g25">
		<g
   id="g27">
			<g
   id="g29">
				<path
   d="M 455.4,280 V 136.9 C 525.6,136.9 584.1,186 596.2,255.1 L 455.4,280 z"
   id="path31"
   inkscape:connector-curvature="0"
   style="fill:#c22b2e" />
				<path
   d="M 454.4,281.2 V 135.9 H 455.4 C 489.6,135.9 522.5,147.8 548.2,169.3 573.9,190.9 591.3,221.2 597.1,254.9 L 597.3,255.9 454.4,281.2 z M 456.4,137.9 V 278.8 L 595,254.2 C 589,221.4 572,191.9 546.9,170.8 521.9,149.8 489.8,138.1 456.4,137.9 z"
   id="path33"
   inkscape:connector-curvature="0"
   style="fill:#ffffff" />
			</g>
		</g>
	</g>
</g>
</svg>