<?xml version="1.0" encoding="utf-8"?>
<!-- Generator: Adobe Illustrator 17.1.0, SVG Export Plug-In . SVG Version: 6.00 Build 0)  -->
<!DOCTYPE svg PUBLIC "-//W3C//DTD SVG 1.1//EN" "http://www.w3.org/Graphics/SVG/1.1/DTD/svg11.dtd">
<svg version="1.1" id="Layer_1" xmlns="http://www.w3.org/2000/svg" xmlns:xlink="http://www.w3.org/1999/xlink" x="0px" y="0px"
	 viewBox="0 0 307.4 457.5" enable-background="new 0 0 307.4 457.5" xml:space="preserve">
<g>
	<path fill="#22A1CD" d="M212.7,215.2c0,0-30-34.9-40.2-74.1l-7.7,2.5c0,0,17.5,49.4,42.1,75.4L212.7,215.2z"/>
	<polygon fill="#01405F" points="200.4,266.8 216,255.8 216,220.3 208.2,212.5 203.6,214 188.2,223.5 	"/>
	<circle fill="#22A1CD" cx="192.7" cy="231.3" r="7.8"/>
	<rect x="184.9" y="231.3" fill="#22A1CD" width="15.5" height="35.5"/>
	<circle fill="#01405F" cx="208.2" cy="220.3" r="7.8"/>
	<rect x="200.4" y="220.3" fill="#01405F" width="15.5" height="35.5"/>
	<path fill="#591B16" d="M184.8,231.3c0,15.5-10.8,28.1-24.2,28.1h-11.7c-13.4,0-24.2-12.6-24.2-28.1l3.5-46.8l-3.5-48.9
		c0-15.5,10.8-28.1,24.2-28.1h11.7c13.4,0,24.2,12.6,24.2,28.1l-3.5,48.9L184.8,231.3z"/>
	<polygon fill="#22A1CD" points="124.8,229.5 132.5,424.4 146.1,424.4 152.9,261.6 159.1,261.6 163.6,424.4 177.2,424.4 
		184.8,231.7 	"/>
	<path fill="#01405F" d="M184.8,231.7l-0.3,12.8c0,0-10.2,0.5-11.9-13.3L184.8,231.7z"/>
	<path fill="#01405F" d="M124.8,229.5l0.3,13.5c0,0,13.3,3.4,15.4-12.9L124.8,229.5z"/>
	
		<line fill="none" stroke="#FFFFFF" stroke-width="1.5035" stroke-miterlimit="10" stroke-dasharray="3.0069" x1="179.8" y1="244.6" x2="173.8" y2="424.4"/>
	
		<line fill="none" stroke="#FFFFFF" stroke-width="1.5035" stroke-miterlimit="10" stroke-dasharray="3.0069" x1="128.2" y1="243.3" x2="135.4" y2="424.4"/>
	<path fill="#C32B2E" d="M181.5,40.3h-0.2c-5-10.5-14.4-14.7-25.3-14.7c-11,0-20.4,4.1-25.3,14.7h-0.2c-1.6,3-3.3,7.4-4.3,13.5
		c-1.2,13.9-2.9,25.5-2.9,25.5h7v21.1c0,0,41.4,11.7,52.9-32.7c0,0,1.7-4.6,1.7-13.2C184.7,50.2,185,44.8,181.5,40.3z"/>
	<path fill="#C32B2E" d="M163.6,98.8v9.2c0,0-8.1,6.9-20.5,3.8v-7.3C143.1,104.5,155.7,104.1,163.6,98.8z"/>
	<path fill="#591B16" d="M141.1,60c0-1.4-1.2-2.6-2.6-2.6c-1.4,0-2.6,1.2-2.6,2.6c0,1.4,1.2,2.6,2.6,2.6
		C140,62.6,141.1,61.4,141.1,60z"/>
	<path fill="#591B16" d="M155.8,21.8c0,0-23.4-9-31.1,20.7c0,0,15.6,13.2,33.3,7.5c0,0,10.7,36-8.9,52.2c0,0,42.9,11.2,56.9-24.3
		C220.2,42.1,195.5,1.8,155.8,21.8z"/>
	<g>
		<defs>
			<path id="SVGID_1_" d="M155.8,21.8c0,0-23.4-9-31.1,20.7c0,0,15.6,13.2,33.3,7.5c0,0,10.7,36-8.9,52.2c0,0,42.9,11.2,56.9-24.3
				C220.2,42.1,195.5,1.8,155.8,21.8z"/>
		</defs>
		<clipPath id="SVGID_2_">
			<use xlink:href="#SVGID_1_"  overflow="visible"/>
		</clipPath>
		<path clip-path="url(#SVGID_2_)" fill="none" stroke="#C32B2E" stroke-width="0.7517" stroke-miterlimit="10" d="M143.1,107.3
			c41.4-8.9,12.8-85.4,12.8-85.4s37.4,56-1.6,86.4"/>
		<path clip-path="url(#SVGID_2_)" fill="none" stroke="#C32B2E" stroke-width="0.7517" stroke-miterlimit="10" d="M166.5,106.8
			c0,0,31-38.5-10.7-84.9c0,0,45.9,27.4,17.8,84.9"/>
		<path clip-path="url(#SVGID_2_)" fill="none" stroke="#C32B2E" stroke-width="0.7517" stroke-miterlimit="10" d="M183.9,104.2
			c0,0,21.1-66-28-82.4c0,0,51.7,0.3,36.9,80.1"/>
		<path clip-path="url(#SVGID_2_)" fill="none" stroke="#C32B2E" stroke-width="0.7517" stroke-miterlimit="10" d="M202.4,90.9
			c0,0,10.4-72.9-46.6-69.1c0,0,55.1-16.8,56.2,63.7"/>
		<path clip-path="url(#SVGID_2_)" fill="none" stroke="#C32B2E" stroke-width="0.7517" stroke-miterlimit="10" d="M127.6,47
			c0,0,5.3-25.1,28.2-25.1c0,0-18.2,4.3-23.9,29.8"/>
		<path clip-path="url(#SVGID_2_)" fill="none" stroke="#C32B2E" stroke-width="0.7517" stroke-miterlimit="10" d="M138.5,53.2
			c0,0,1.9-19.5,17.3-31.4c0,0-11.7,16-9.9,33.8"/>
		<path clip-path="url(#SVGID_2_)" fill="none" stroke="#C32B2E" stroke-width="0.7517" stroke-miterlimit="10" d="M150.1,54.1
			c0,0,1.5-19.5,5.7-32.3c0,0,3,13.7,1.7,32.3"/>
	</g>
	<path fill="#591B16" d="M146.4,422.9h-27.5c-4.9,0-8.8,3.9-8.8,8.8h36.3V422.9z"/>
	<rect x="123.2" y="422.9" fill="#C32B2E" width="23.2" height="4.4"/>
	<path fill="#591B16" d="M163.9,422.9h27.5c4.9,0,8.8,3.9,8.8,8.8h-36.3V422.9z"/>
	<rect x="163.9" y="422.9" fill="#C32B2E" width="23.2" height="4.4"/>
	<path fill="#C32B2E" d="M111.8,138.4l-27.1,37.3l44,67.8c0,0,8-2.3,9.7-6.9l-35-62.1l22.6-25.1l-4-12L111.8,138.4z"/>
	<polygon fill="#591B16" points="134.1,113.2 109.6,136.9 128.2,149.9 142.5,134.5 	"/>
	<polygon fill="#C32B2E" points="143.1,111.8 153.3,124.9 163.6,108 152.9,108 	"/>
	<path fill="#FFFFFF" d="M175.7,169.9c-1.4-2.5-2.5-7-3.3-10.7c-0.9-3.9-1.4-6.2-2.6-8.2c-1.2-2-2.8-1.2-2.8-1.2
		c-1.8-5.1-6.6-8.7-12.3-8.7c-5.7,0-10.5,3.6-12.3,8.7h0c0,0-1.6-0.8-2.8,1.2c-1.2,2-1.7,4.4-2.6,8.2c-0.8,3.7-1.9,8.1-3.3,10.7
		c-0.4,0.5-0.6,1.2-0.6,1.9c0,1.9,1.5,3.4,3.4,3.4c0.7,0,1.4-0.2,2-0.6c0,0,2-1,3.1-2.4c0,0,0,1.3,2.1,0.7c0,0,0.3,2.2,2.4,2.3
		c1.4,0.1,4.2-2.4,8.9-2.4l0.1,0c4.3,0.3,6.8,2.4,8.1,2.4c2.1-0.1,2.4-2.3,2.4-2.3c2.1,0.6,2.1-0.7,2.1-0.7c1.1,1.4,3.1,2.4,3.1,2.4
		c0.6,0.4,1.2,0.6,2,0.6c1.9,0,3.4-1.5,3.4-3.4C176.3,171.1,176.1,170.4,175.7,169.9z"/>
	<path fill="#591B16" d="M158.1,160.2c-0.3-0.6-3.4-2.2-3.4-2.2s-3,1.7-3.4,2.2c-0.3,0.6-0.2,1.3,0.4,1.7c0.6,0.3,1.3,0.2,1.7-0.4
		c0.1-0.2,0.3-0.7,0.5-1.2l0,0c0.2-0.2,0.4-0.4,0.8-0.4c0.3,0,0.6,0.2,0.8,0.5l0,0c0.2,0.5,0.4,0.9,0.5,1.1c0.3,0.6,1.1,0.7,1.7,0.4
		C158.3,161.5,158.5,160.8,158.1,160.2z"/>
	<path fill="#FFFFFF" d="M172.9,182.6c-0.4-5.6-4.7-6.1-4.7-6.1l0,8.4c-1.1-0.5-3.7-1.8-3.7-1.8s0.1-1.6,0.1-3.5c0-1.9-0.6-2-0.6-2
		c-4.3-2.9-9.1-3-9.1-3s-4.8,0.1-9.1,3c0,0-0.6,0.1-0.6,2c0,1.9,0.1,3.5,0.1,3.5s-2.7,1.3-3.7,1.8l0-8.4c0,0-4.3,0.5-4.7,6.1
		c-0.4,5.6,0.8,9.6,2.3,11.7c1.6,2.2,3.4,0.9,4.8-0.7c1.4-1.6,6.7-5.2,10.9-5.3c4.2,0.1,9.5,3.7,10.9,5.3c1.4,1.6,3.3,2.9,4.8,0.7
		C172.1,192.1,173.2,188.2,172.9,182.6z"/>
	<g>
		<path fill="#591B16" d="M147.8,181.2c0,0,0.7-0.6,2-1.1c0.6-0.3,1.4-0.5,2.3-0.7c0.4-0.1,0.9-0.2,1.3-0.2c0.5-0.1,0.9-0.1,1.4-0.1
			c0.5,0,0.9,0,1.4,0.1c0.5,0,0.9,0.2,1.3,0.2c0.4,0.1,0.8,0.2,1.2,0.3c0.4,0.1,0.7,0.3,1,0.4c0.3,0.1,0.6,0.3,0.8,0.4
			c0.2,0.1,0.4,0.3,0.6,0.4c0.3,0.2,0.5,0.3,0.5,0.3c0.1,0.1,0.1,0.2,0.1,0.3c-0.1,0.1-0.2,0.1-0.3,0.1l0,0c0,0-0.2-0.1-0.6-0.2
			c-0.2-0.1-0.4-0.1-0.7-0.2c-0.2-0.1-0.5-0.1-0.9-0.2c-0.3-0.1-0.6-0.2-1-0.2c-0.4-0.1-0.7-0.2-1.1-0.2c-0.4,0-0.8-0.1-1.2-0.1
			c-0.4,0-0.8-0.1-1.3,0c-0.8,0-1.7,0.1-2.5,0.2c-0.8,0.1-1.5,0.3-2.1,0.4c-1.3,0.3-2.1,0.6-2.1,0.6c-0.2,0.1-0.4,0-0.4-0.2
			C147.6,181.5,147.7,181.3,147.8,181.2z"/>
	</g>
	<path fill="#591B16" d="M150.6,158c0,0-4.5-1.6-7.2-3.1c-2.7-1.5-2.9-0.2-3.3,6.4C140.1,161.3,147.3,160.1,150.6,158z"/>
	<path fill="#591B16" d="M158.9,158c0,0,4.5-1.6,7.2-3.1c2.7-1.5,2.9-0.2,3.3,6.4C169.5,161.3,162.3,160.1,158.9,158z"/>
	<g>
		<path fill="#591B16" d="M144.8,170.5c0,0,0.1-0.1,0.2-0.2c0.1-0.1,0.3-0.3,0.5-0.4c0.2-0.2,0.5-0.4,0.8-0.6
			c0.3-0.2,0.7-0.5,1.1-0.7c0.4-0.2,0.9-0.5,1.4-0.7c0.5-0.2,1-0.4,1.6-0.6c0.6-0.2,1.2-0.4,1.8-0.5c0.6-0.1,1.3-0.2,1.9-0.2
			c0.6-0.1,1.3,0,1.9,0c0.6,0,1.3,0.2,1.9,0.3c0.6,0.1,1.2,0.3,1.7,0.5c0.5,0.2,1,0.4,1.4,0.6c0.4,0.2,0.8,0.4,1.2,0.6
			c0.3,0.2,0.6,0.4,0.8,0.6c0.4,0.3,0.7,0.5,0.7,0.5c0.1,0.1,0.1,0.2,0,0.4c-0.1,0.1-0.2,0.1-0.3,0.1l0,0c0,0-0.3-0.1-0.8-0.3
			c-0.2-0.1-0.5-0.2-0.9-0.4c-0.3-0.2-0.7-0.2-1.2-0.4c-0.4-0.1-0.9-0.3-1.4-0.4c-0.5-0.1-1-0.3-1.6-0.3c-0.5,0-1.1-0.2-1.7-0.2
			c-0.3,0-0.6,0-0.9,0c-0.3,0-0.6,0-0.9,0c-0.6,0-1.2,0.1-1.7,0.2c-0.6,0.1-1.1,0.2-1.7,0.3c-0.5,0.2-1.1,0.3-1.5,0.4
			c-0.5,0.2-0.9,0.3-1.4,0.5c-0.8,0.3-1.5,0.6-2,0.9c-0.5,0.2-0.7,0.4-0.7,0.4l0,0c-0.1,0.1-0.3,0-0.4-0.1
			C144.7,170.7,144.7,170.6,144.8,170.5z"/>
	</g>
	<g>
		<path fill="#591B16" d="M147.8,153.3c0,0-0.5-0.2-1.2-0.5c-0.7-0.3-1.6-0.8-2.5-1.3c-0.4-0.3-0.9-0.6-1.3-0.8
			c-0.4-0.3-0.8-0.6-1.1-0.8c-0.6-0.6-1-0.9-1-0.9c-0.5-0.4-0.5-1.1-0.1-1.6c0.4-0.5,1.1-0.5,1.6-0.1c0.1,0.1,0.1,0.1,0.1,0.2
			l0.1,0.1c0,0,0.3,0.4,0.7,0.9c0.2,0.3,0.5,0.6,0.8,0.9c0.3,0.3,0.7,0.7,1,1c0.7,0.7,1.5,1.3,2.1,1.7c0.6,0.5,1,0.7,1,0.7
			c0.1,0.1,0.2,0.3,0.1,0.4C148.1,153.3,147.9,153.3,147.8,153.3L147.8,153.3z"/>
	</g>
	<g>
		<path fill="#591B16" d="M161.5,152.7c0,0,0.4-0.3,1-0.7c0.6-0.5,1.4-1.1,2.1-1.8c0.3-0.4,0.7-0.7,1-1c0.3-0.3,0.6-0.7,0.8-0.9
			c0.4-0.6,0.7-0.9,0.7-0.9l0.1-0.1c0.4-0.6,1.2-0.7,1.8-0.3c0.6,0.4,0.7,1.2,0.3,1.8c-0.1,0.1-0.1,0.2-0.2,0.2c0,0-0.4,0.4-1,0.9
			c-0.3,0.3-0.7,0.5-1.1,0.8c-0.4,0.3-0.9,0.5-1.3,0.8c-0.9,0.5-1.8,1-2.6,1.3c-0.7,0.3-1.2,0.5-1.2,0.5l0,0c-0.2,0.1-0.3,0-0.4-0.2
			C161.4,152.9,161.4,152.8,161.5,152.7z"/>
	</g>
	<g>
		<path fill="#591B16" d="M155.1,169.4l0.4,3.4c0,0.4-0.2,0.8-0.7,0.8c-0.4,0.1-0.8-0.2-0.8-0.7c0-0.1,0-0.1,0-0.2l0.4-3.4
			c0-0.2,0.2-0.3,0.4-0.3C155,169.1,155.1,169.2,155.1,169.4z"/>
	</g>
	<g>
		<path fill="#591B16" d="M160.7,171.8l0.5,2.4c0.1,0.4-0.2,0.8-0.6,0.9c-0.4,0.1-0.8-0.2-0.9-0.6c0-0.1,0-0.2,0-0.3l0.5-2.4
			c0-0.1,0.2-0.2,0.3-0.2C160.6,171.6,160.7,171.7,160.7,171.8z"/>
	</g>
	<g>
		<path fill="#591B16" d="M149.6,171.8l0.3,2.4c0.1,0.4-0.2,0.8-0.7,0.9c-0.4,0.1-0.8-0.2-0.9-0.7c0-0.1,0-0.1,0-0.2l0.3-2.4
			c0-0.2,0.2-0.4,0.5-0.4C149.4,171.4,149.6,171.6,149.6,171.8z"/>
	</g>
	<g>
		<path fill="#591B16" d="M155.5,174.7l-0.3,3c0,0.2-0.2,0.4-0.5,0.4c-0.2,0-0.4-0.2-0.4-0.4l-0.3-3c0-0.4,0.3-0.8,0.7-0.8
			c0.4,0,0.8,0.3,0.8,0.7C155.6,174.6,155.6,174.6,155.5,174.7z"/>
	</g>
	<g>
		<path fill="#591B16" d="M161.2,175.9l-0.5,2.4c0,0.1-0.2,0.2-0.3,0.2c-0.1,0-0.2-0.1-0.2-0.2l-0.5-2.4c-0.1-0.4,0.2-0.8,0.6-0.9
			c0.4-0.1,0.8,0.2,0.9,0.6C161.2,175.7,161.2,175.8,161.2,175.9z"/>
	</g>
	<g>
		<path fill="#591B16" d="M149.9,175.9l-0.4,2.4c0,0.2-0.2,0.3-0.4,0.3c-0.1,0-0.3-0.1-0.3-0.3l-0.4-2.4c-0.1-0.4,0.2-0.8,0.6-0.9
			c0.4-0.1,0.8,0.2,0.9,0.6C149.9,175.7,149.9,175.8,149.9,175.9z"/>
	</g>
	<path fill="#22A1CD" d="M134.1,113.2c0,0,18.5,61.6,54.7,103.3l0.6,12.9c0,0-39.7-43.6-63.3-108.5L134.1,113.2z"/>
	<path fill="#C32B2E" d="M197.6,138.4l27.1,37.3l-44,67.8c0,0-8.1-2.3-9.7-6.9l35-62.1l-22.6-25.1l4-12L197.6,138.4z"/>
	<polygon fill="#591B16" points="175.3,113.2 199.8,136.9 181.2,149.9 166.8,134.5 	"/>
	<path fill="#22A1CD" d="M129.9,0"/>
</g>
</svg>
