<?xml version="1.0" encoding="utf-8"?>
<!-- Generator: Adobe Illustrator 17.1.0, SVG Export Plug-In . SVG Version: 6.00 Build 0)  -->
<!DOCTYPE svg PUBLIC "-//W3C//DTD SVG 1.1//EN" "http://www.w3.org/Graphics/SVG/1.1/DTD/svg11.dtd">
<svg version="1.1" id="Layer_1" xmlns="http://www.w3.org/2000/svg" xmlns:xlink="http://www.w3.org/1999/xlink" x="0px" y="0px"
	 viewBox="0 0 307.4 457.5" enable-background="new 0 0 307.4 457.5" xml:space="preserve">
<g>
	<polygon fill="none" points="154.3,268.2 152,327.4 162.9,327.4 161.6,268.2 	"/>
	<polygon fill="#22A1CD" points="191.4,242.8 121.7,242.8 128.5,327.4 152,327.4 154.3,268.2 161.6,268.2 162.9,327.4 185.2,327.4 	
		"/>
	<polygon fill="#C32B2E" points="136.6,428.7 148,428.7 152,327.4 128.5,327.4 	"/>
	<polygon fill="#C32B2E" points="162.9,327.4 165.3,428.7 177.8,428.7 185.2,327.4 	"/>
	<polygon fill="#591B16" points="182.9,121.9 206.8,145.5 188.1,158.5 173.8,143 	"/>
	<path fill="#591B16" d="M191.4,142.2c0-15.5-12.6-28.1-28.1-28.1h-13.6c-15.5,0-28.1,12.6-28.1,28.1v100.6h69.7V142.2z"/>
	<path fill="#C32B2E" d="M128.9,45.7h0.2c5-8.1,14.5-14.7,25.5-14.7c11,0,20.7,6.7,25.7,14.7l0,0c1.6,2.7,3.3,7.3,4.3,13.5
		c1.2,14,2.9,25.5,2.9,25.5h-6.1v22c0,0-42.2,11.7-53.7-32.9c0,0-1.9-4.8-2-13.4C126,55.9,125.4,52.4,128.9,45.7z"/>
	<path fill="#C32B2E" d="M145,104.3v10.4c0,0,9.2,3.6,23.2,0v-4C168.2,110.7,154,110.3,145,104.3z"/>
	<path fill="#591B16" d="M169.6,65.9c0-1.5,1.2-2.6,2.6-2.6c1.5,0,2.6,1.2,2.6,2.6c0,1.5-1.2,2.6-2.6,2.6
		C170.8,68.5,169.6,67.3,169.6,65.9z"/>
	
		<line fill="none" stroke="#FFFFFF" stroke-width="1.5035" stroke-miterlimit="10" stroke-dasharray="3.0069" x1="186.7" y1="258.1" x2="181.4" y2="327.4"/>
	
		<line fill="none" stroke="#FFFFFF" stroke-width="1.5035" stroke-miterlimit="10" stroke-dasharray="3.0069" x1="125.7" y1="258.1" x2="131.5" y2="327.4"/>
	<path fill="#591B16" d="M175.8,38.9c0,0,18.6,4.9,22.1-11.6c0,0,17.8,39.8-60.2,35.9l30.5-26L175.8,38.9z"/>
	<path fill="#01405F" d="M122.1,255.8c7-0.2,12.7-5.9,12.7-13h-13L122.1,255.8z"/>
	<g>
		<defs>
			<path id="SVGID_1_" d="M175.8,38.9c0,0,18.6,4.9,22.1-11.6c0,0,17.8,39.8-60.2,35.9l30.5-26L175.8,38.9z"/>
		</defs>
		<clipPath id="SVGID_2_">
			<use xlink:href="#SVGID_1_"  overflow="visible"/>
		</clipPath>
		<g clip-path="url(#SVGID_2_)">
			<path fill="none" stroke="#C32B2E" stroke-width="0.7517" stroke-miterlimit="10" d="M194.5,27.3c0,0,13.7,35.7-57.9,31.7"/>
			<path fill="none" stroke="#C32B2E" stroke-width="0.7517" stroke-miterlimit="10" d="M191.2,23.3c0,0,13.7,35.7-57.9,31.7"/>
			<path fill="none" stroke="#C32B2E" stroke-width="0.7517" stroke-miterlimit="10" d="M187.1,20.5c0,0,13.7,35.7-57.9,31.7"/>
			<path fill="none" stroke="#C32B2E" stroke-width="0.7517" stroke-miterlimit="10" d="M183.6,17.8c0,0,13.7,35.7-57.9,31.7"/>
		</g>
	</g>
	<path fill="#01405F" d="M191,255.8l0.3-13h-13C178.4,249.8,184,255.6,191,255.8z"/>
	<path fill="#C32B2E" d="M110.1,143.6l-24.9,41.8l42.6,68.5c0,0,3.5-0.2,7.4-5.1l-30.9-60.6l18.2-32.1L110.1,143.6z"/>
	<polygon fill="#591B16" points="131.2,121.9 107.3,145.5 125.9,158.5 140.2,143 	"/>
	<path fill="#22A1CD" d="M175.8,38.9c0,0-33.6,14.7-46.6,43.6c0,0-7.1-4.4-8.6-13.1c0,0,11-26,43.7-40.3
		C164.2,29.2,169.7,31.4,175.8,38.9z"/>
	<path fill="#22A1CD" d="M163.6,30.9c0,0-24-19.7-46.2-1.7c-21.2,17.2,7,41.3,7,41.3L163.6,30.9z"/>
	<g>
		<defs>
			<path id="SVGID_3_" d="M175.8,38.9c0,0-33.6,14.7-46.6,43.6c0,0-7.1-4.4-8.6-13.1c0,0,11-26,43.7-40.3
				C164.2,29.2,169.7,31.4,175.8,38.9z"/>
		</defs>
		<clipPath id="SVGID_4_">
			<use xlink:href="#SVGID_3_"  overflow="visible"/>
		</clipPath>
		<g clip-path="url(#SVGID_4_)">
			<path fill="none" stroke="#01405F" stroke-width="1.5035" stroke-miterlimit="10" d="M121.7,63.2c0,0,5.1,12,12.2,17.5"/>
			<path fill="none" stroke="#01405F" stroke-width="1.5035" stroke-miterlimit="10" d="M158,29.2c0,0,10.3,5.6,15,14.7"/>
			<line fill="none" stroke="#01405F" stroke-width="1.5035" stroke-miterlimit="10" x1="137.3" y1="43.8" x2="152.9" y2="59.9"/>
			<path fill="none" stroke="#01405F" stroke-width="1.5035" stroke-miterlimit="10" d="M124.6,57.9c0,0,4.9,11.8,12.8,18"/>
			<path fill="none" stroke="#01405F" stroke-width="1.5035" stroke-miterlimit="10" d="M127.5,53c0,0,4.9,11.8,12.8,18"/>
			<path fill="none" stroke="#01405F" stroke-width="1.5035" stroke-miterlimit="10" d="M130.9,48.9c0,0,4.9,11.8,12.8,18"/>
			<path fill="none" stroke="#01405F" stroke-width="1.5035" stroke-miterlimit="10" d="M153.5,31.3c0,0,9,3.7,14.5,14.8"/>
			<path fill="none" stroke="#01405F" stroke-width="1.5035" stroke-miterlimit="10" d="M149.3,34.9c0,0,9,3.7,14.5,14.8"/>
			<path fill="none" stroke="#01405F" stroke-width="1.5035" stroke-miterlimit="10" d="M145,38.6c0,0,9,3.7,14.5,14.8"/>
			<line fill="none" stroke="#01405F" stroke-width="1.5035" stroke-miterlimit="10" x1="133.9" y1="46.8" x2="147.3" y2="63.2"/>
			<line fill="none" stroke="#01405F" stroke-width="1.5035" stroke-miterlimit="10" x1="141.4" y1="40.6" x2="156.6" y2="55"/>
		</g>
	</g>
	<path fill="#22A1CD" d="M139.9,100c0,0,9.3,11.6,34.9,10.3c0,0,4.7,1.3,5.4,9.8c0,0,7.6-1.2,7.9,7c0,0-14.4,18-60.4-2.3
		c0,0-2.8-8.2,5.1-10.7C132.8,114.2,130.2,101.5,139.9,100z"/>
	<path fill="#22A1CD" d="M164.2,116.3c0,0,8.1,34.3-7.7,73.9l-21.8-5.7c0,0,16.1-46.9,8.6-68.2H164.2z"/>
	<path fill="none" stroke="#591B16" stroke-width="1.6882" stroke-miterlimit="10" d="M163.3,60.8v8.9c0,4.9,4,8.9,8.9,8.9
		s8.9-4,8.9-8.9v-8.9"/>
	<path fill="none" stroke="#591B16" stroke-width="3.4189" stroke-linecap="round" stroke-miterlimit="10" d="M183.6,63.1
		c-6.3-6.3-16.5-6.3-22.8,0"/>
	<polygon fill="#591B16" points="106.5,439.1 148,439.1 148,428.7 136.6,428.7 106.5,431.7 	"/>
	<polygon fill="#591B16" points="206.7,439.1 165.1,439.1 165.1,428.7 176.6,428.7 206.7,431.7 	"/>
	<polygon fill="#C32B2E" points="206.8,145.5 236.9,191.9 173.8,218.9 169.6,210.5 216.7,187.5 189.7,157.4 	"/>
	<g>
		
			<rect x="154.1" y="199.7" transform="matrix(0.9694 -0.2455 0.2455 0.9694 -48.1824 46.6022)" fill="#22A1CD" width="17.4" height="33.7"/>
		
			<rect x="154.1" y="205.8" transform="matrix(0.9694 -0.2455 0.2455 0.9694 -48.1762 46.5944)" fill="#01405F" width="17.4" height="21.4"/>
		<path fill="#22A1CD" d="M168.6,197.7c0.3,1.1-0.4,2.1-1.4,2.4l-16,4.1c-1.1,0.3-2.1-0.4-2.4-1.4l0,0c-0.3-1.1,0.4-2.1,1.4-2.4
			l16-4.1C167.2,195.9,168.3,196.6,168.6,197.7L168.6,197.7z"/>
		<path fill="#22A1CD" d="M176.9,230.4c0.3,1.1-0.4,2.1-1.4,2.4l-16,4.1c-1.1,0.3-2.1-0.4-2.4-1.4l0,0c-0.3-1.1,0.4-2.1,1.4-2.4
			l16-4.1C175.5,228.7,176.6,229.3,176.9,230.4L176.9,230.4z"/>
	</g>
	<polygon fill="#C32B2E" points="173.8,204.7 181.1,221 153.3,224 150.5,215.8 	"/>
</g>
</svg>
