<?xml version="1.0" encoding="utf-8"?>
<!-- Generator: Adobe Illustrator 17.1.0, SVG Export Plug-In . SVG Version: 6.00 Build 0)  -->
<!DOCTYPE svg PUBLIC "-//W3C//DTD SVG 1.1//EN" "http://www.w3.org/Graphics/SVG/1.1/DTD/svg11.dtd">
<svg version="1.1" id="Layer_1" xmlns="http://www.w3.org/2000/svg" xmlns:xlink="http://www.w3.org/1999/xlink" x="0px" y="0px"
	 viewBox="0 0 536 120" enable-background="new 0 0 536 120" xml:space="preserve">
<g>
	<polygon fill="#C22B2E" points="240.8,65.7 240.8,35 267.4,50.3 293.9,65.7 267.4,81 240.8,96.3 	"/>
	<g>
		<g>
			<g>
				<path fill="#C22B2E" stroke="#FFFFFF" stroke-width="2" stroke-miterlimit="10" d="M52.3,65.7l-12.5,34.4
					c-19-6.9-28.8-27.9-21.9-47C23.3,38.3,36.6,29,52.3,29V65.7z"/>
			</g>
		</g>
		<g>
			<g>
				<path fill="#C22B2E" stroke="#FFFFFF" stroke-width="2" stroke-miterlimit="10" d="M52.3,65.7l36.1-6.4
					c3.5,19.9-9.8,38.9-29.7,42.4c-6.6,1.2-12.6,0.7-18.9-1.7L52.3,65.7z"/>
			</g>
		</g>
		<g>
			<g>
				<path fill="#C22B2E" stroke="#FFFFFF" stroke-width="2" stroke-miterlimit="10" d="M52.3,65.7V29c18,0,33,12.6,36.1,30.3
					L52.3,65.7z"/>
			</g>
		</g>
	</g>
	<g>
		<path fill="#C22B2E" d="M504.2,58.4H503v10h-2v0h-0.2v-6.2c0-3.4-2.8-6.1-6.1-6.1h-1.2v12.3h-2v0h-0.2v-9.6c0-3.4-2.8-6.1-6.1-6.1
			H484v15.7h-2v0h-0.2V37c0-4.7-3.8-8.5-8.5-8.5h-0.1v48.1c0-5.6-4.6-10.2-10.2-10.2H463v23.2c0,9.4,7,17.2,16.1,18.5v0.2h2.6h0.2
			h28.5V87.7V68.4v-3.9C510.3,61.1,507.6,58.4,504.2,58.4z"/>
		<path fill="none" stroke="#C22B2E" stroke-width="2" stroke-miterlimit="10" d="M467.1,42.8c-2.5-2.5-4.1-6-4.1-9.9
			s1.6-7.4,4.1-9.9c2.5-2.5,6-4.1,9.9-4.1s7.4,1.6,9.9,4.1s4.1,6,4.1,9.9s-1.6,7.4-4.1,9.9"/>
		<path fill="none" stroke="#C22B2E" stroke-width="2" stroke-miterlimit="10" d="M461.1,48.9c-4.1-4.1-6.6-9.7-6.6-15.9
			s2.5-11.8,6.6-15.9c4.1-4.1,9.7-6.6,15.9-6.6s11.8,2.5,15.9,6.6c4.1,4.1,6.6,9.7,6.6,15.9s-2.5,11.8-6.6,15.9"/>
	</g>
</g>
</svg>
