<?xml version="1.0" encoding="utf-8"?>
<!-- Generator: Adobe Illustrator 17.1.0, SVG Export Plug-In . SVG Version: 6.00 Build 0)  -->
<!DOCTYPE svg PUBLIC "-//W3C//DTD SVG 1.1//EN" "http://www.w3.org/Graphics/SVG/1.1/DTD/svg11.dtd">
<svg version="1.1" id="Layer_1" xmlns="http://www.w3.org/2000/svg" xmlns:xlink="http://www.w3.org/1999/xlink" x="0px" y="0px"
	 viewBox="0 0 960 560" enable-background="new 0 0 960 560" xml:space="preserve">
<g>
	<g>
		<path fill="#C22B2E" d="M787.8,188.9h-25.6c-1.9,0-3.4-1.5-3.4-3.4v-0.1c0-1.9,1.5-3.4,3.4-3.4h25.6c1.9,0,3.4,1.5,3.4,3.4v0.1
			C791.2,187.4,789.7,188.9,787.8,188.9z"/>
	</g>
	<g>
		<rect x="771.4" y="170" fill="#C22B2E" width="7.2" height="15.5"/>
	</g>
	<g>
		<path fill="#C22B2E" d="M775.2,172h-0.3c-9.7,0-17.7-7.9-17.7-17.7v-10h3.3v10c0,7.9,6.4,14.4,14.4,14.4h0.3
			c7.9,0,14.4-6.4,14.4-14.4v-10h3.3v10C792.9,164,784.9,172,775.2,172z"/>
	</g>
	<g>
		<path fill="#C22B2E" d="M780.5,119.5v19c0,0.7-0.6,1.2-1.2,1.2h0c-0.7,0-1.2-0.6-1.2-1.2v-19.9c-0.9-0.2-1.9-0.4-2.9-0.4h-0.2
			c-1,0-1.9,0.1-2.9,0.4v19.9c0,0.7-0.6,1.2-1.2,1.2h0c-0.7,0-1.2-0.6-1.2-1.2v-19c-4.1,2-6.9,6.2-6.9,11v23.2
			c0,6.8,5.5,12.2,12.2,12.2h0.2c6.8,0,12.2-5.5,12.2-12.2v-23.2C787.4,125.6,784.6,121.5,780.5,119.5z"/>
	</g>
</g>
<g>
	<g>
		<path fill="#C22B2E" d="M590.7,188.9h-25.6c-1.9,0-3.4-1.5-3.4-3.4v-0.1c0-1.9,1.5-3.4,3.4-3.4h25.6c1.9,0,3.4,1.5,3.4,3.4v0.1
			C594.1,187.4,592.6,188.9,590.7,188.9z"/>
	</g>
	<g>
		<rect x="574.3" y="170" fill="#C22B2E" width="7.2" height="15.5"/>
	</g>
	<g>
		<path fill="#C22B2E" d="M578.1,172h-0.3c-9.7,0-17.7-7.9-17.7-17.7v-10h3.3v10c0,7.9,6.4,14.4,14.4,14.4h0.3
			c7.9,0,14.4-6.4,14.4-14.4v-10h3.3v10C595.7,164,587.8,172,578.1,172z"/>
	</g>
	<g>
		<path fill="#C22B2E" d="M583.4,119.5v19c0,0.7-0.6,1.2-1.2,1.2h0c-0.7,0-1.2-0.6-1.2-1.2v-19.9c-0.9-0.2-1.9-0.4-2.9-0.4h-0.2
			c-1,0-1.9,0.1-2.9,0.4v19.9c0,0.7-0.6,1.2-1.2,1.2h0c-0.7,0-1.2-0.6-1.2-1.2v-19c-4.1,2-6.9,6.2-6.9,11v23.2
			c0,6.8,5.5,12.2,12.2,12.2h0.2c6.8,0,12.2-5.5,12.2-12.2v-23.2C590.3,125.6,587.5,121.5,583.4,119.5z"/>
	</g>
</g>
<g>
	<g>
		<path fill="#C22B2E" d="M393.6,188.9H368c-1.9,0-3.4-1.5-3.4-3.4v-0.1c0-1.9,1.5-3.4,3.4-3.4h25.6c1.9,0,3.4,1.5,3.4,3.4v0.1
			C397,187.4,395.5,188.9,393.6,188.9z"/>
	</g>
	<g>
		<rect x="377.2" y="170" fill="#C22B2E" width="7.2" height="15.5"/>
	</g>
	<g>
		<path fill="#C22B2E" d="M381,172h-0.3c-9.7,0-17.7-7.9-17.7-17.7v-10h3.3v10c0,7.9,6.4,14.4,14.4,14.4h0.3
			c7.9,0,14.4-6.4,14.4-14.4v-10h3.3v10C398.6,164,390.7,172,381,172z"/>
	</g>
	<g>
		<path fill="#C22B2E" d="M386.3,119.5v19c0,0.7-0.6,1.2-1.2,1.2h0c-0.7,0-1.2-0.6-1.2-1.2v-19.9c-0.9-0.2-1.9-0.4-2.9-0.4h-0.2
			c-1,0-1.9,0.1-2.9,0.4v19.9c0,0.7-0.6,1.2-1.2,1.2h0c-0.7,0-1.2-0.6-1.2-1.2v-19c-4.1,2-6.9,6.2-6.9,11v23.2
			c0,6.8,5.5,12.2,12.2,12.2h0.2c6.8,0,12.2-5.5,12.2-12.2v-23.2C393.2,125.6,390.4,121.5,386.3,119.5z"/>
	</g>
</g>
<g>
	<g>
		<path fill="#C22B2E" d="M196.5,188.9h-25.6c-1.9,0-3.4-1.5-3.4-3.4v-0.1c0-1.9,1.5-3.4,3.4-3.4h25.6c1.9,0,3.4,1.5,3.4,3.4v0.1
			C199.9,187.4,198.4,188.9,196.5,188.9z"/>
	</g>
	<g>
		<rect x="180.1" y="170" fill="#C22B2E" width="7.2" height="15.5"/>
	</g>
	<g>
		<path fill="#C22B2E" d="M183.9,172h-0.3c-9.7,0-17.7-7.9-17.7-17.7v-10h3.3v10c0,7.9,6.4,14.4,14.4,14.4h0.3
			c7.9,0,14.4-6.4,14.4-14.4v-10h3.3v10C201.5,164,193.6,172,183.9,172z"/>
	</g>
	<g>
		<path fill="#C22B2E" d="M189.2,119.5v19c0,0.7-0.6,1.2-1.2,1.2h0c-0.7,0-1.2-0.6-1.2-1.2v-19.9c-0.9-0.2-1.9-0.4-2.9-0.4h-0.2
			c-1,0-1.9,0.1-2.9,0.4v19.9c0,0.7-0.6,1.2-1.2,1.2h0c-0.7,0-1.2-0.6-1.2-1.2v-19c-4.1,2-6.9,6.2-6.9,11v23.2
			c0,6.8,5.5,12.2,12.2,12.2h0.2c6.8,0,12.2-5.5,12.2-12.2v-23.2C196.1,125.6,193.2,121.5,189.2,119.5z"/>
	</g>
</g>
<g>
	<rect x="498" y="204.9" fill="none" width="159.9" height="36"/>
	<text transform="matrix(1 0 0 1 499.2759 215.5836)"><tspan x="0" y="0" fill="#666666" font-family="'ProximaNova-Regular'" font-size="16">The Seattle Interactive </tspan><tspan x="37.4" y="19.2" fill="#666666" font-family="'ProximaNova-Regular'" font-size="16">Conference</tspan></text>
</g>
<g>
	<rect x="298.5" y="204.9" fill="none" width="164.6" height="36"/>
	<text transform="matrix(1 0 0 1 329.8113 215.5836)"><tspan x="0" y="0" fill="#666666" font-family="'ProximaNova-Regular'" font-size="16">The Prudential </tspan><tspan x="-15.7" y="19.2" fill="#666666" font-family="'ProximaNova-Regular'" font-size="16">Retirement Summit</tspan></text>
</g>
<g>
	<rect x="101.4" y="204.9" fill="none" width="164.6" height="36"/>
	<text transform="matrix(1 0 0 1 143.4835 215.5836)" fill="#666666" font-family="'ProximaNova-Regular'" font-size="16">Adobe Max</text>
</g>
<g>
	<rect x="692.7" y="204.9" fill="none" width="164.6" height="36"/>
	<text transform="matrix(1 0 0 1 702.195 215.5836)" fill="#666666" font-family="'ProximaNova-Regular'" font-size="16">Seattle Tech Meetup</text>
</g>
<g>
	<g>
		<path fill="#C22B2E" d="M787.8,385.8h-25.6c-1.9,0-3.4-1.5-3.4-3.4v-0.1c0-1.9,1.5-3.4,3.4-3.4h25.6c1.9,0,3.4,1.5,3.4,3.4v0.1
			C791.2,384.3,789.7,385.8,787.8,385.8z"/>
	</g>
	<g>
		<rect x="771.4" y="366.9" fill="#C22B2E" width="7.2" height="15.5"/>
	</g>
	<g>
		<path fill="#C22B2E" d="M775.2,368.9h-0.3c-9.7,0-17.7-7.9-17.7-17.7v-10h3.3v10c0,7.9,6.4,14.4,14.4,14.4h0.3
			c7.9,0,14.4-6.4,14.4-14.4v-10h3.3v10C792.9,361,784.9,368.9,775.2,368.9z"/>
	</g>
	<g>
		<path fill="#C22B2E" d="M780.5,316.4v19c0,0.7-0.6,1.2-1.2,1.2h0c-0.7,0-1.2-0.6-1.2-1.2v-19.9c-0.9-0.2-1.9-0.4-2.9-0.4h-0.2
			c-1,0-1.9,0.1-2.9,0.4v19.9c0,0.7-0.6,1.2-1.2,1.2h0c-0.7,0-1.2-0.6-1.2-1.2v-19c-4.1,2-6.9,6.2-6.9,11v23.2
			c0,6.8,5.5,12.2,12.2,12.2h0.2c6.8,0,12.2-5.5,12.2-12.2v-23.2C787.4,322.6,784.6,318.4,780.5,316.4z"/>
	</g>
</g>
<g>
	<g>
		<path fill="#C22B2E" d="M590.7,385.8h-25.6c-1.9,0-3.4-1.5-3.4-3.4v-0.1c0-1.9,1.5-3.4,3.4-3.4h25.6c1.9,0,3.4,1.5,3.4,3.4v0.1
			C594.1,384.3,592.6,385.8,590.7,385.8z"/>
	</g>
	<g>
		<rect x="574.3" y="366.9" fill="#C22B2E" width="7.2" height="15.5"/>
	</g>
	<g>
		<path fill="#C22B2E" d="M578.1,368.9h-0.3c-9.7,0-17.7-7.9-17.7-17.7v-10h3.3v10c0,7.9,6.4,14.4,14.4,14.4h0.3
			c7.9,0,14.4-6.4,14.4-14.4v-10h3.3v10C595.7,361,587.8,368.9,578.1,368.9z"/>
	</g>
	<g>
		<path fill="#C22B2E" d="M583.4,316.4v19c0,0.7-0.6,1.2-1.2,1.2h0c-0.7,0-1.2-0.6-1.2-1.2v-19.9c-0.9-0.2-1.9-0.4-2.9-0.4h-0.2
			c-1,0-1.9,0.1-2.9,0.4v19.9c0,0.7-0.6,1.2-1.2,1.2h0c-0.7,0-1.2-0.6-1.2-1.2v-19c-4.1,2-6.9,6.2-6.9,11v23.2
			c0,6.8,5.5,12.2,12.2,12.2h0.2c6.8,0,12.2-5.5,12.2-12.2v-23.2C590.3,322.6,587.5,318.4,583.4,316.4z"/>
	</g>
</g>
<g>
	<g>
		<path fill="#C22B2E" d="M393.6,385.8H368c-1.9,0-3.4-1.5-3.4-3.4v-0.1c0-1.9,1.5-3.4,3.4-3.4h25.6c1.9,0,3.4,1.5,3.4,3.4v0.1
			C397,384.3,395.5,385.8,393.6,385.8z"/>
	</g>
	<g>
		<rect x="377.2" y="366.9" fill="#C22B2E" width="7.2" height="15.5"/>
	</g>
	<g>
		<path fill="#C22B2E" d="M381,368.9h-0.3c-9.7,0-17.7-7.9-17.7-17.7v-10h3.3v10c0,7.9,6.4,14.4,14.4,14.4h0.3
			c7.9,0,14.4-6.4,14.4-14.4v-10h3.3v10C398.6,361,390.7,368.9,381,368.9z"/>
	</g>
	<g>
		<path fill="#C22B2E" d="M386.3,316.4v19c0,0.7-0.6,1.2-1.2,1.2h0c-0.7,0-1.2-0.6-1.2-1.2v-19.9c-0.9-0.2-1.9-0.4-2.9-0.4h-0.2
			c-1,0-1.9,0.1-2.9,0.4v19.9c0,0.7-0.6,1.2-1.2,1.2h0c-0.7,0-1.2-0.6-1.2-1.2v-19c-4.1,2-6.9,6.2-6.9,11v23.2
			c0,6.8,5.5,12.2,12.2,12.2h0.2c6.8,0,12.2-5.5,12.2-12.2v-23.2C393.2,322.6,390.4,318.4,386.3,316.4z"/>
	</g>
</g>
<g>
	<g>
		<path fill="#C22B2E" d="M196.5,385.8h-25.6c-1.9,0-3.4-1.5-3.4-3.4v-0.1c0-1.9,1.5-3.4,3.4-3.4h25.6c1.9,0,3.4,1.5,3.4,3.4v0.1
			C199.9,384.3,198.4,385.8,196.5,385.8z"/>
	</g>
	<g>
		<rect x="180.1" y="366.9" fill="#C22B2E" width="7.2" height="15.5"/>
	</g>
	<g>
		<path fill="#C22B2E" d="M183.9,368.9h-0.3c-9.7,0-17.7-7.9-17.7-17.7v-10h3.3v10c0,7.9,6.4,14.4,14.4,14.4h0.3
			c7.9,0,14.4-6.4,14.4-14.4v-10h3.3v10C201.5,361,193.6,368.9,183.9,368.9z"/>
	</g>
	<g>
		<path fill="#C22B2E" d="M189.2,316.4v19c0,0.7-0.6,1.2-1.2,1.2h0c-0.7,0-1.2-0.6-1.2-1.2v-19.9c-0.9-0.2-1.9-0.4-2.9-0.4h-0.2
			c-1,0-1.9,0.1-2.9,0.4v19.9c0,0.7-0.6,1.2-1.2,1.2h0c-0.7,0-1.2-0.6-1.2-1.2v-19c-4.1,2-6.9,6.2-6.9,11v23.2
			c0,6.8,5.5,12.2,12.2,12.2h0.2c6.8,0,12.2-5.5,12.2-12.2v-23.2C196.1,322.6,193.2,318.4,189.2,316.4z"/>
	</g>
</g>
<g>
	<rect x="498" y="401.8" fill="none" width="159.9" height="36"/>
	<text transform="matrix(1 0 0 1 518.7632 412.5193)"><tspan x="0" y="0" fill="#666666" font-family="'ProximaNova-Regular'" font-size="16">The University of </tspan><tspan x="17.6" y="19.2" fill="#666666" font-family="'ProximaNova-Regular'" font-size="16">Washington</tspan></text>
</g>
<g>
	<rect x="298.5" y="401.8" fill="none" width="164.6" height="36"/>
	<text transform="matrix(1 0 0 1 307.6121 412.5193)" fill="#666666" font-family="'ProximaNova-Regular'" font-size="16">A College in Phoenix</text>
</g>
<g>
	<rect x="101.4" y="401.8" fill="none" width="164.6" height="36"/>
	<text transform="matrix(1 0 0 1 105.6446 412.5193)" fill="#666666" font-family="'ProximaNova-Regular'" font-size="16">A College in California</text>
</g>
<g>
	<rect x="692.7" y="401.8" fill="none" width="164.6" height="36"/>
	<text transform="matrix(1 0 0 1 703.2429 412.5193)"><tspan x="0" y="0" fill="#666666" font-family="'ProximaNova-Regular'" font-size="16">The School of Visual </tspan><tspan x="38.3" y="19.2" fill="#666666" font-family="'ProximaNova-Regular'" font-size="16">Concepts</tspan></text>
</g>
</svg>
