<?xml version="1.0" encoding="utf-8"?>
<!-- Generator: Adobe Illustrator 17.1.0, SVG Export Plug-In . SVG Version: 6.00 Build 0)  -->
<!DOCTYPE svg PUBLIC "-//W3C//DTD SVG 1.1//EN" "http://www.w3.org/Graphics/SVG/1.1/DTD/svg11.dtd">
<svg version="1.1" id="Layer_1" xmlns="http://www.w3.org/2000/svg" xmlns:xlink="http://www.w3.org/1999/xlink" x="0px" y="0px"
	 viewBox="0 0 960 560" enable-background="new 0 0 960 560" xml:space="preserve">
<g>
	<path fill="#E2E2E2" d="M533.6,310.9c0-6.5-1-12.7-2.9-18.6c0.3,2.4,0.4,4.7,0.4,7.2c0,32.1-25.3,58.3-57.1,59.8v11.5
		C507,370.6,533.6,343.9,533.6,310.9z"/>
	<path fill="#591B16" d="M511.5,272.5l-24.9-24.9h-12.9l-24.9,24.9c-2.2,2.2-3.7,6.4-3.4,9.5l10.4,98c0.3,3,3.1,5.5,6.1,5.5h36.3
		c3.1,0,5.8-2.5,6.1-5.5l10.4-98C515.2,278.9,513.7,274.7,511.5,272.5z"/>
	<circle fill="#591B16" cx="449.4" cy="338.1" r="8.5"/>
	<polygon fill="#591B16" points="457.9,385.5 445.8,385.5 441,338.1 457.9,338.1 	"/>
	<rect x="434" y="377.4" fill="#591B16" width="19.4" height="8.1"/>
	<path fill="#591B16" d="M434,377.4c-4.5,0-8.2,3.6-8.2,8.1h16.3C442.1,381,438.5,377.4,434,377.4z"/>
	<circle fill="#591B16" cx="510.8" cy="338.1" r="8.5"/>
	<polygon fill="#591B16" points="502.4,385.5 514.5,385.5 519.3,338.1 502.4,338.1 	"/>
	<rect x="506.8" y="377.4" fill="#591B16" width="19.4" height="8.1"/>
	<path fill="#591B16" d="M526.3,377.4c4.5,0,8.2,3.6,8.2,8.1h-16.3C518.1,381,521.8,377.4,526.3,377.4z"/>
	<polygon fill="#E2E2E2" points="466.9,385.5 459.5,385.5 455.1,314.2 471.4,314.2 	"/>
	<path fill="#E2E2E2" d="M474.7,380c0,3.1-2.5,5.6-5.6,5.6h-11.9c-3.1,0-5.6-2.5-5.6-5.6v-1.5c0-3.1,2.5-5.6,5.6-5.6h11.9
		c3.1,0,5.6,2.5,5.6,5.6V380z"/>
	<circle fill="#E2E2E2" cx="463.2" cy="314.2" r="8.2"/>
	<polygon fill="#E2E2E2" points="493.3,385.5 500.7,385.5 505.2,314.2 488.9,314.2 	"/>
	<path fill="#E2E2E2" d="M485.5,380c0,3.1,2.5,5.6,5.6,5.6h11.9c3.1,0,5.6-2.5,5.6-5.6v-1.5c0-3.1-2.5-5.6-5.6-5.6h-11.9
		c-3.1,0-5.6,2.5-5.6,5.6V380z"/>
	<circle fill="#E2E2E2" cx="497" cy="314.2" r="8.2"/>
	<polygon fill="#E2E2E2" points="511.8,191.2 448.4,191.2 451.7,238.2 508.6,238.2 	"/>
	<polygon fill="#E2E2E2" points="451.7,238.2 460,244.8 466.9,262.1 480.1,260.6 480.1,238.2 	"/>
	<circle fill="#C12B2D" cx="480.1" cy="263.9" r="6.6"/>
	<circle fill="#E2E2E2" cx="473.5" cy="260.6" r="6.6"/>
	<polygon fill="#E2E2E2" points="508.6,238.2 500.2,244.8 493.4,262.1 480.1,260.6 480.1,238.2 	"/>
	<circle fill="#E2E2E2" cx="486.8" cy="260.6" r="6.6"/>
	<polygon fill="#581B16" points="467.6,191.2 435,174.9 449.7,209.2 	"/>
	<path fill="#581B16" d="M474.8,191.2h-26.4l1.7,24.8C462.8,213.9,472.8,203.9,474.8,191.2z"/>
	<polygon fill="#581B16" points="492.6,191.2 525.2,174.9 510.6,209.2 	"/>
	<path fill="#581B16" d="M485.5,191.2h26.4l-1.7,24.8C497.4,213.9,487.4,203.9,485.5,191.2z"/>
	<polygon fill="#581B16" points="487.9,252.7 480.1,260.6 472.4,252.7 	"/>
	<circle fill="#581B16" cx="464.8" cy="232.7" r="2.1"/>
	<circle fill="#581B16" cx="495.5" cy="232.7" r="2.1"/>
	<path fill="#E2E2E2" d="M480.1,276.6c-10.3,0-18.7,8.4-18.7,18.7h37.3C498.8,284.9,490.4,276.6,480.1,276.6z"/>
	<path fill="#E2E2E2" d="M480.1,335.5c10.3,0,18.7-8.4,18.7-18.7h-37.3C461.5,327.2,469.8,335.5,480.1,335.5z"/>
	<rect x="461.5" y="295.2" fill="#E2E2E2" width="37.3" height="21.7"/>
	<path fill="#591B16" d="M531.1,299.5c0,5.1-0.6,10-1.8,14.7c0.4,0,0.7,0,1.1,0c1,0,2.1-0.1,3.1-0.1c0.1-1,0.1-2.1,0.1-3.2
		c0-6.5-1-12.7-2.9-18.6C531,294.7,531.1,297.1,531.1,299.5z"/>
</g>
</svg>
