<?xml version="1.0" encoding="UTF-8" standalone="no"?>
<!-- Created with Inkscape (http://www.inkscape.org/) -->

<svg
   xmlns:dc="http://purl.org/dc/elements/1.1/"
   xmlns:cc="http://creativecommons.org/ns#"
   xmlns:rdf="http://www.w3.org/1999/02/22-rdf-syntax-ns#"
   xmlns:svg="http://www.w3.org/2000/svg"
   xmlns="http://www.w3.org/2000/svg"
   xmlns:sodipodi="http://sodipodi.sourceforge.net/DTD/sodipodi-0.dtd"
   xmlns:inkscape="http://www.inkscape.org/namespaces/inkscape"
   width="43"
   height="105"
   id="svg3526"
   version="1.1"
   inkscape:version="0.48.4 r9939"
   sodipodi:docname="person-left.svg">
  <defs
     id="defs3528" />
  <sodipodi:namedview
     id="base"
     pagecolor="#ffffff"
     bordercolor="#666666"
     borderopacity="1.0"
     inkscape:pageopacity="0.0"
     inkscape:pageshadow="2"
     inkscape:zoom="1.2851562"
     inkscape:cx="375"
     inkscape:cy="302.12766"
     inkscape:document-units="px"
     inkscape:current-layer="layer1"
     showgrid="false"
     inkscape:showpageshadow="false"
     inkscape:window-width="1920"
     inkscape:window-height="1137"
     inkscape:window-x="-8"
     inkscape:window-y="-8"
     inkscape:window-maximized="1" />
  <metadata
     id="metadata3531">
    <rdf:RDF>
      <cc:Work
         rdf:about="">
        <dc:format>image/svg+xml</dc:format>
        <dc:type
           rdf:resource="http://purl.org/dc/dcmitype/StillImage" />
        <dc:title></dc:title>
      </cc:Work>
    </rdf:RDF>
  </metadata>
  <g
     inkscape:label="Layer 1"
     inkscape:groupmode="layer"
     id="layer1"
     transform="translate(0,-947.36218)">
    <g
       transform="translate(-562.41277,721.45656)"
       id="g443">
      <polygon
         style="fill:#c32b2e"
         points="571,257.8 563.4,264.4 576.6,279.5 577.4,277.7 569.6,265.2 573.1,262.8 "
         id="polygon445" />
      <polygon
         style="fill:#591b16"
         points="573.1,262.8 578.9,259.1 578.1,251.4 570,258.1 "
         id="polygon447" />
      <polygon
         style="fill:#c32b2e"
         points="597.4,257.8 605,264.4 591.8,279.5 591,277.7 598.8,265.2 595.3,262.8 "
         id="polygon449" />
      <path
         style="fill:#c32b2e"
         inkscape:connector-curvature="0"
         d="m 591,232.2 0,0 c -1.3,-2 -3.7,-3.7 -6.4,-3.7 -2.7,0 -5.1,1.7 -6.3,3.7 h 0 c -0.4,0.7 -0.8,1.8 -1.1,3.3 -0.3,3.5 -0.7,6.4 -0.7,6.4 h 1.5 v 5.5 c 0,0 10.5,2.9 13.4,-8.2 0,0 0.5,-1.2 0.5,-3.3 -0.2,-1.2 0,-2 -0.9,-3.7 z"
         id="path451" />
      <path
         style="fill:#591b16"
         inkscape:connector-curvature="0"
         d="m 575.4,280.6 c 0,3.9 3.1,7 7,7 h 3.4 c 3.9,0 7,-3.1 7,-7 v -23.8 c 0,-3.9 -3.1,-7 -7,-7 h -3.4 c -3.9,0 -7,3.1 -7,7 v 23.8 z"
         id="path453" />
      <polygon
         style="fill:#c32b2e"
         points="576.8,326.5 575.5,280.7 592.8,280.6 591.3,326.5 586.2,326.5 584.7,288.2 582.9,288.2 581.9,326.5 "
         id="polygon455" />
      <path
         style="fill:#c32b2e"
         inkscape:connector-curvature="0"
         d="m 587,247.4 v 2.6 c 0,0 -2.3,0.9 -5.8,0 v -1 c 0,0 3.6,-0.1 5.8,-1.6 z"
         id="path457" />
      <circle
         d="m 580.90001,237.2 c 0,0.3866 -0.3134,0.7 -0.7,0.7 -0.3866,0 -0.7,-0.3134 -0.7,-0.7 0,-0.3866 0.3134,-0.7 0.7,-0.7 0.3866,0 0.7,0.3134 0.7,0.7 z"
         style="fill:#591b16"
         sodipodi:ry="0.69999999"
         sodipodi:rx="0.69999999"
         sodipodi:cy="237.2"
         sodipodi:cx="580.20001"
         cx="580.20001"
         cy="237.2"
         r="0.69999999"
         id="circle459" />
      <polygon
         style="fill:#591b16"
         points="576.8,326.5 575.5,328.8 568.1,329.1 568.1,330.6 581.6,330.6 581.9,326.5 "
         id="polygon461" />
      <polygon
         style="fill:#591b16"
         points="591.3,326.5 592.7,328.8 600.5,329.1 600.5,330.6 586.6,330.6 586.2,326.5 "
         id="polygon463" />
      <polygon
         style="fill:#591b16"
         points="595.3,262.8 589.5,259.1 590.3,251.4 598.4,258.1 "
         id="polygon465" />
    </g>
  </g>
</svg>
