<?xml version="1.0" encoding="utf-8"?>
<!-- Generator: Adobe Illustrator 17.1.0, SVG Export Plug-In . SVG Version: 6.00 Build 0)  -->
<!DOCTYPE svg PUBLIC "-//W3C//DTD SVG 1.1//EN" "http://www.w3.org/Graphics/SVG/1.1/DTD/svg11.dtd">
<svg version="1.1" id="Layer_1" xmlns="http://www.w3.org/2000/svg" xmlns:xlink="http://www.w3.org/1999/xlink" x="0px" y="0px"
	 viewBox="0 0 960 645.7" enable-background="new 0 0 960 645.7" xml:space="preserve">
<circle fill="#22A0CC" cx="350.3" cy="377.2" r="26.4"/>
<circle fill="#01405F" cx="500.5" cy="346.8" r="26.4"/>
<circle fill="#22A0CC" cx="419.6" cy="299.5" r="26.4"/>
<circle fill="#22A0CC" cx="323.9" cy="256.7" r="26.4"/>
<circle fill="#01405F" cx="610.4" cy="337.6" r="26.4"/>
<circle fill="#01405F" cx="432.6" cy="208.9" r="26.4"/>
<circle fill="#22A0CC" cx="557.3" cy="263.8" r="26.4"/>
<circle fill="#22A0CC" cx="771.2" cy="244.2" r="26.4"/>
<circle fill="#01405F" cx="277.8" cy="311.3" r="26.4"/>
<circle fill="#01405F" cx="190.3" cy="244.2" r="26.4"/>
<circle fill="#22A0CC" cx="726.9" cy="311.7" r="26.4"/>
<circle fill="#01405F" cx="658.3" cy="204" r="26.4"/>
<circle fill="#22A0CC" cx="350.3" cy="168.1" r="26.4"/>
<circle fill="#01405F" cx="500.5" cy="137.7" r="26.4"/>
<circle fill="#22A0CC" cx="419.6" cy="90.3" r="26.4"/>
<circle fill="#22A0CC" cx="251.4" cy="90.3" r="26.4"/>
<circle fill="#01405F" cx="583.7" cy="164" r="26.4"/>
<circle fill="#01405F" cx="345.1" cy="54.6" r="26.4"/>
<circle fill="#01405F" cx="485.4" cy="49.4" r="26.4"/>
<circle fill="#22A0CC" cx="577.9" cy="75.7" r="26.4"/>
<circle fill="#22A0CC" cx="771.2" cy="75.7" r="26.4"/>
<circle fill="#01405F" cx="260.2" cy="168.1" r="26.4"/>
<circle fill="#01405F" cx="175.9" cy="154.8" r="26.4"/>
<circle fill="#01405F" cx="797.6" cy="154.8" r="26.4"/>
<circle fill="#22A0CC" cx="726.9" cy="164" r="26.4"/>
<circle fill="#01405F" cx="673" cy="90.3" r="26.4"/>
<circle fill="#22A0CC" cx="583.7" cy="472" r="26.4"/>
<circle fill="#22A0CC" cx="551.5" cy="403.6" r="26.4"/>
<circle fill="#01405F" cx="646.6" cy="403.6" r="26.4"/>
<circle fill="#01405F" cx="500.5" cy="482.7" r="26.4"/>
<circle fill="#01405F" cx="449.4" cy="417.4" r="26.4"/>
</svg>
