<?xml version="1.0" encoding="utf-8"?>
<!-- Generator: Adobe Illustrator 17.1.0, SVG Export Plug-In . SVG Version: 6.00 Build 0)  -->
<!DOCTYPE svg PUBLIC "-//W3C//DTD SVG 1.1//EN" "http://www.w3.org/Graphics/SVG/1.1/DTD/svg11.dtd">
<svg version="1.1" id="Layer_1" xmlns="http://www.w3.org/2000/svg" xmlns:xlink="http://www.w3.org/1999/xlink" x="0px" y="0px"
	 viewBox="0 0 853.5 587.6" enable-background="new 0 0 853.5 587.6" xml:space="preserve">
<g>
	<g>
		<path fill="#C22B2E" d="M449.5,314.9h-25.6c-1.9,0-3.4-1.5-3.4-3.4v-0.1c0-1.9,1.5-3.4,3.4-3.4h25.6c1.9,0,3.4,1.5,3.4,3.4v0.1
			C452.9,313.4,451.4,314.9,449.5,314.9z"/>
	</g>
	<g>
		<rect x="433.1" y="296" fill="#C22B2E" width="7.2" height="15.5"/>
	</g>
	<g>
		<path fill="#C22B2E" d="M436.9,298h-0.3c-9.7,0-17.7-7.9-17.7-17.7v-10h3.3v10c0,7.9,6.4,14.4,14.4,14.4h0.3
			c7.9,0,14.4-6.4,14.4-14.4v-10h3.3v10C454.5,290,446.6,298,436.9,298z"/>
	</g>
	<g>
		<path fill="#C22B2E" d="M442.2,245.5v19c0,0.7-0.6,1.2-1.2,1.2h0c-0.7,0-1.2-0.6-1.2-1.2v-19.9c-0.9-0.2-1.9-0.4-2.9-0.4h-0.2
			c-1,0-1.9,0.1-2.9,0.4v19.9c0,0.7-0.6,1.2-1.2,1.2h0c-0.7,0-1.2-0.6-1.2-1.2v-19c-4.1,2-6.9,6.2-6.9,11v23.2
			c0,6.8,5.5,12.2,12.2,12.2h0.2c6.8,0,12.2-5.5,12.2-12.2v-23.2C449.1,251.6,446.2,247.5,442.2,245.5z"/>
	</g>
</g>
</svg>
