<?xml version="1.0" encoding="utf-8"?>
<!-- Generator: Adobe Illustrator 17.1.0, SVG Export Plug-In . SVG Version: 6.00 Build 0)  -->
<!DOCTYPE svg PUBLIC "-//W3C//DTD SVG 1.1//EN" "http://www.w3.org/Graphics/SVG/1.1/DTD/svg11.dtd">
<svg version="1.1" id="Layer_1" xmlns="http://www.w3.org/2000/svg" xmlns:xlink="http://www.w3.org/1999/xlink" x="0px" y="0px"
	 viewBox="0 0 847.5 804" enable-background="new 0 0 847.5 804" xml:space="preserve">
<g>
	<g>
		<polygon fill="#C22B2E" points="35.7,567.4 806,567.4 795.4,393.8 46.3,393.8 		"/>
		<polygon fill="#C22B2E" points="24.1,758 817.7,758 807.1,584.4 34.7,584.4 		"/>
		<polygon fill="#C22B2E" points="772.8,22 69,22 59,186.2 782.8,186.2 		"/>
		<polygon fill="#C22B2E" points="57.9,203.2 47.3,376.8 794.4,376.8 783.8,203.2 		"/>
		<polygon fill="#591B16" points="782.8,186.2 59,186.2 57.9,203.2 783.8,203.2 		"/>
		<polygon fill="#591B16" points="46.3,393.8 795.4,393.8 794.4,376.8 47.3,376.8 		"/>
		<polygon fill="#591B16" points="34.7,584.4 807.1,584.4 806,567.4 35.7,567.4 		"/>
		<polygon fill="#591B16" points="23.1,775 818.7,775 817.7,758 24.1,758 		"/>
	</g>
	<g>
		<g>
			<path fill="#E2E2E2" d="M73.7,96.3v76.6c0,6.3,5.1,11.4,11.4,11.4H195c6.3,0,11.4-5.1,11.4-11.4V96.3H73.7z"/>
		</g>
		<g>
			<path fill="#591B16" d="M100.8,123v-16h11.8v3.6h-7.6v2.5h7.5v3.6h-7.5v2.7h7.6v3.6H100.8z"/>
			<path fill="#591B16" d="M126.3,123l-3.5-5.4l-3.5,5.4h-4.9l5.6-8.2l-5.2-7.8h4.9l3.1,5l3.1-5h4.9l-5.2,7.8l5.6,8.2H126.3z"/>
			<path fill="#591B16" d="M137.2,123v-12.4h-4.5V107h13.1v3.6h-4.5V123H137.2z"/>
			<path fill="#591B16" d="M157.9,123l-2.7-5.4h-2.1v5.4H149v-16h8c3.6,0,5.6,2.4,5.6,5.3c0,2.8-1.7,4.3-3.2,4.8l3.3,5.9H157.9z
				 M158.4,112.3c0-1.1-0.9-1.7-2-1.7h-3.3v3.4h3.3C157.5,114,158.4,113.4,158.4,112.3z"/>
			<path fill="#591B16" d="M176.9,123l-0.8-2.3h-6.3L169,123h-4.7l6-16h5.2l6,16H176.9z M173,111.1l-2,6h4.1L173,111.1z"/>
		</g>
		<g>
			<rect x="80.5" y="128.6" fill="#FFFFFF" width="122.8" height="1.7"/>
		</g>
		<g>
			<rect x="80.5" y="154.9" fill="#FFFFFF" width="122.8" height="1.7"/>
		</g>
		<g>
			<rect x="118" y="134.4" fill="#591B16" width="47.7" height="16.8"/>
		</g>
		<g>
			<rect x="168.5" y="134.7" fill="#FFFFFF" width="34.8" height="1.7"/>
		</g>
		<g>
			<rect x="168.5" y="139.2" fill="#FFFFFF" width="34.8" height="1.7"/>
		</g>
		<g>
			<rect x="168.5" y="143.8" fill="#FFFFFF" width="34.8" height="1.7"/>
		</g>
		<g>
			<rect x="168.5" y="148.4" fill="#FFFFFF" width="34.8" height="1.7"/>
		</g>
		<g>
			<rect x="79.6" y="134.7" fill="#FFFFFF" width="34.8" height="1.7"/>
		</g>
		<g>
			<rect x="79.6" y="139.2" fill="#FFFFFF" width="34.8" height="1.7"/>
		</g>
		<g>
			<rect x="79.6" y="143.8" fill="#FFFFFF" width="34.8" height="1.7"/>
		</g>
		<g>
			<rect x="79.6" y="148.4" fill="#FFFFFF" width="34.8" height="1.7"/>
		</g>
		<g>
			<g>
				<rect x="80.5" y="161" fill="#FFFFFF" width="34.8" height="1.7"/>
			</g>
			<g>
				<rect x="80.5" y="165.6" fill="#FFFFFF" width="34.8" height="1.7"/>
			</g>
			<g>
				<rect x="80.5" y="170.1" fill="#FFFFFF" width="34.8" height="1.7"/>
			</g>
			<g>
				<rect x="80.5" y="174.7" fill="#FFFFFF" width="34.8" height="1.7"/>
			</g>
		</g>
		<g>
			<g>
				<rect x="122.7" y="161" fill="#FFFFFF" width="34.8" height="1.7"/>
			</g>
			<g>
				<rect x="122.7" y="165.6" fill="#FFFFFF" width="34.8" height="1.7"/>
			</g>
			<g>
				<rect x="122.7" y="170.1" fill="#FFFFFF" width="34.8" height="1.7"/>
			</g>
			<g>
				<rect x="122.7" y="174.7" fill="#FFFFFF" width="34.8" height="1.7"/>
			</g>
		</g>
		<g>
			<g>
				<rect x="168.5" y="161" fill="#FFFFFF" width="34.8" height="1.7"/>
			</g>
			<g>
				<rect x="168.5" y="165.6" fill="#FFFFFF" width="34.8" height="1.7"/>
			</g>
			<g>
				<rect x="168.5" y="170.1" fill="#FFFFFF" width="34.8" height="1.7"/>
			</g>
			<g>
				<rect x="168.5" y="174.7" fill="#FFFFFF" width="34.8" height="1.7"/>
			</g>
		</g>
	</g>
	<g>
		<g>
			<path fill="#E2E2E2" d="M214.3,96.3v76.6c0,6.3,5.1,11.4,11.4,11.4h109.9c6.3,0,11.4-5.1,11.4-11.4V96.3H214.3z"/>
		</g>
		<g>
			<path fill="#591B16" d="M257,123l-6.8-9.3v9.3h-4.1v-16h4.3l6.5,8.8V107h4.2v16H257z"/>
			<path fill="#591B16" d="M265.1,123v-16h11.8v3.6h-7.6v2.5h7.5v3.6h-7.5v2.7h7.6v3.6H265.1z"/>
			<path fill="#591B16" d="M292.6,123l-2.4-10l-2.4,10h-4.4l-4.6-16h4.6l2.4,10.7l2.7-10.7h3.2l2.7,10.7l2.4-10.7h4.7l-4.6,16H292.6
				z"/>
			<path fill="#591B16" d="M303,120.8l2.2-3.2c1.2,1.2,2.9,2.1,5.1,2.1c1.4,0,2.3-0.5,2.3-1.3c0-2.1-9.1-0.4-9.1-6.5
				c0-2.7,2.3-5.1,6.4-5.1c2.6,0,4.8,0.8,6.5,2.2l-2.3,3.1c-1.3-1.1-3.1-1.7-4.7-1.7c-1.2,0-1.7,0.4-1.7,1.1c0,2,9.1,0.5,9.1,6.4
				c0,3.2-2.4,5.4-6.7,5.4C306.8,123.3,304.6,122.3,303,120.8z"/>
		</g>
		<g>
			<rect x="221.1" y="128.6" fill="#FFFFFF" width="122.8" height="1.7"/>
		</g>
		<g>
			<rect x="221.1" y="149.5" fill="#591B16" width="34" height="24.6"/>
		</g>
		<g>
			<rect x="309" y="149.5" fill="#591B16" width="34" height="24.6"/>
		</g>
		<g>
			<rect x="309" y="134.7" fill="#FFFFFF" width="34.8" height="1.7"/>
		</g>
		<g>
			<rect x="309" y="139.2" fill="#FFFFFF" width="34.8" height="1.7"/>
		</g>
		<g>
			<rect x="309" y="143.8" fill="#FFFFFF" width="34.8" height="1.7"/>
		</g>
		<g>
			<rect x="220.2" y="134.7" fill="#FFFFFF" width="34.8" height="1.7"/>
		</g>
		<g>
			<rect x="220.2" y="139.2" fill="#FFFFFF" width="34.8" height="1.7"/>
		</g>
		<g>
			<rect x="220.2" y="143.8" fill="#FFFFFF" width="34.8" height="1.7"/>
		</g>
		<g>
			<g>
				<rect x="265" y="135" fill="#FFFFFF" width="34.8" height="1.7"/>
			</g>
			<g>
				<rect x="265" y="139.6" fill="#FFFFFF" width="34.8" height="1.7"/>
			</g>
			<g>
				<rect x="265" y="144.2" fill="#FFFFFF" width="34.8" height="1.7"/>
			</g>
			<g>
				<rect x="265" y="148.8" fill="#FFFFFF" width="34.8" height="1.7"/>
			</g>
		</g>
		<g>
			<g>
				<rect x="265" y="154.1" fill="#FFFFFF" width="34.8" height="1.7"/>
			</g>
			<g>
				<rect x="265" y="158.7" fill="#FFFFFF" width="34.8" height="1.7"/>
			</g>
			<g>
				<rect x="265" y="163.3" fill="#FFFFFF" width="34.8" height="1.7"/>
			</g>
			<g>
				<rect x="265" y="167.8" fill="#FFFFFF" width="34.8" height="1.7"/>
			</g>
			<g>
				<rect x="265" y="172.8" fill="#FFFFFF" width="34.8" height="1.7"/>
			</g>
		</g>
		<g>
			<rect x="221.1" y="117.4" fill="#FFFFFF" width="24" height="5.7"/>
		</g>
		<g>
			<rect x="319.1" y="117.4" fill="#FFFFFF" width="24" height="5.7"/>
		</g>
	</g>
	<g>
		<g>
			<path fill="#E2E2E2" d="M354.8,96.3v76.6c0,6.3,5.1,11.4,11.4,11.4h109.9c6.3,0,11.4-5.1,11.4-11.4V96.3H354.8z"/>
		</g>
		<g>
			<path fill="#591B16" d="M362.3,121.9l1.7-3.1c0.6,0.5,1.3,0.9,2.3,0.9c1.3,0,2.1-0.8,2.1-2.2V107h4.1v10.5c0,4-2.4,5.8-5.9,5.8
				C365.1,123.3,363.5,122.9,362.3,121.9z"/>
			<path fill="#591B16" d="M375.9,115c0-4.9,3.7-8.3,8.6-8.3c4.9,0,8.6,3.4,8.6,8.3s-3.7,8.3-8.6,8.3
				C379.6,123.3,375.9,119.9,375.9,115z M388.8,115c0-2.6-1.7-4.6-4.3-4.6s-4.4,2-4.4,4.6c0,2.6,1.7,4.6,4.4,4.6
				S388.8,117.6,388.8,115z"/>
			<path fill="#591B16" d="M396.3,116.5V107h4.2v9.4c0,1.9,1.2,3.3,3.4,3.3c2.2,0,3.4-1.4,3.4-3.3V107h4.2v9.5c0,4-2.4,6.8-7.5,6.8
				S396.3,120.5,396.3,116.5z"/>
			<path fill="#591B16" d="M424.5,123l-2.7-5.4h-2.1v5.4h-4.1v-16h8c3.6,0,5.6,2.4,5.6,5.3c0,2.8-1.7,4.3-3.2,4.8l3.3,5.9H424.5z
				 M424.9,112.3c0-1.1-0.9-1.7-2-1.7h-3.3v3.4h3.3C424,114,424.9,113.4,424.9,112.3z"/>
			<path fill="#591B16" d="M443.5,123l-6.8-9.3v9.3h-4.1v-16h4.3l6.5,8.8V107h4.2v16H443.5z"/>
			<path fill="#591B16" d="M462.5,123l-0.8-2.3h-6.3l-0.8,2.3h-4.7l6-16h5.2l6,16H462.5z M458.6,111.1l-2,6h4.1L458.6,111.1z"/>
			<path fill="#591B16" d="M469.5,123v-16h4.1v12.4h6.4v3.6H469.5z"/>
		</g>
		<g>
			<rect x="361.6" y="128.6" fill="#FFFFFF" width="122.8" height="1.7"/>
		</g>
		<g>
			<rect x="449.6" y="133.4" fill="#591B16" width="34" height="18"/>
		</g>
		<g>
			<rect x="406" y="149.3" fill="#591B16" width="9.7" height="8.4"/>
		</g>
		<g>
			<rect x="418.5" y="149.3" fill="#591B16" width="9.7" height="8.4"/>
		</g>
		<g>
			<rect x="431" y="149.3" fill="#591B16" width="9.7" height="8.4"/>
		</g>
		<g>
			<rect x="406.1" y="134.7" fill="#FFFFFF" width="34.8" height="1.7"/>
		</g>
		<g>
			<rect x="406.1" y="139.2" fill="#FFFFFF" width="34.8" height="1.7"/>
		</g>
		<g>
			<rect x="406.1" y="143.8" fill="#FFFFFF" width="34.8" height="1.7"/>
		</g>
		<g>
			<rect x="406.1" y="161" fill="#FFFFFF" width="34.8" height="1.7"/>
		</g>
		<g>
			<rect x="406.1" y="165.6" fill="#FFFFFF" width="34.8" height="1.7"/>
		</g>
		<g>
			<rect x="406.1" y="170.1" fill="#FFFFFF" width="34.8" height="1.7"/>
		</g>
		<g>
			<rect x="406.1" y="174.1" fill="#FFFFFF" width="34.8" height="1.7"/>
		</g>
		<g>
			<g>
				<g>
					<rect x="361.6" y="135" fill="#FFFFFF" width="34.8" height="1.7"/>
				</g>
				<g>
					<rect x="361.6" y="139.6" fill="#FFFFFF" width="34.8" height="1.7"/>
				</g>
				<g>
					<rect x="361.6" y="144.2" fill="#FFFFFF" width="34.8" height="1.7"/>
				</g>
				<g>
					<rect x="361.6" y="148.8" fill="#FFFFFF" width="34.8" height="1.7"/>
				</g>
			</g>
			<g>
				<g>
					<rect x="361.6" y="154.1" fill="#FFFFFF" width="34.8" height="1.7"/>
				</g>
				<g>
					<rect x="361.6" y="158.7" fill="#FFFFFF" width="34.8" height="1.7"/>
				</g>
				<g>
					<rect x="361.6" y="163.3" fill="#FFFFFF" width="34.8" height="1.7"/>
				</g>
				<g>
					<rect x="361.6" y="167.8" fill="#FFFFFF" width="34.8" height="1.7"/>
				</g>
				<g>
					<rect x="361.6" y="172.8" fill="#FFFFFF" width="34.8" height="1.7"/>
				</g>
			</g>
		</g>
		<g>
			<g>
				<g>
					<rect x="449.2" y="154.1" fill="#FFFFFF" width="34.8" height="1.7"/>
				</g>
				<g>
					<rect x="449.2" y="158.7" fill="#FFFFFF" width="34.8" height="1.7"/>
				</g>
				<g>
					<rect x="449.2" y="163.3" fill="#FFFFFF" width="34.8" height="1.7"/>
				</g>
				<g>
					<rect x="449.2" y="167.8" fill="#FFFFFF" width="34.8" height="1.7"/>
				</g>
				<g>
					<rect x="449.2" y="172.8" fill="#FFFFFF" width="34.8" height="1.7"/>
				</g>
			</g>
		</g>
	</g>
	<g>
		<g>
			<path fill="#E2E2E2" d="M495.4,96.3v76.6c0,6.3,5.1,11.4,11.4,11.4h109.9c6.3,0,11.4-5.1,11.4-11.4V96.3H495.4z"/>
		</g>
		<g>
			<path fill="#591B16" d="M523.9,123v-6.4h-6.7v6.4h-4.1v-16h4.1v6h6.7v-6h4.1v16H523.9z"/>
			<path fill="#591B16" d="M532.2,123v-16h11.8v3.6h-7.6v2.5h7.5v3.6h-7.5v2.7h7.6v3.6H532.2z"/>
			<path fill="#591B16" d="M556.4,123l-2.7-5.4h-2.1v5.4h-4.1v-16h8c3.6,0,5.6,2.4,5.6,5.3c0,2.8-1.7,4.3-3.2,4.8l3.3,5.9H556.4z
				 M556.9,112.3c0-1.1-0.9-1.7-2-1.7h-3.3v3.4h3.3C556,114,556.9,113.4,556.9,112.3z"/>
			<path fill="#591B16" d="M575.5,123l-0.8-2.3h-6.3l-0.8,2.3h-4.7l6-16h5.2l6,16H575.5z M571.5,111.1l-2,6h4.1L571.5,111.1z"/>
			<path fill="#591B16" d="M582.5,123v-16h4.1v12.4h6.4v3.6H582.5z"/>
			<path fill="#591B16" d="M596.4,123v-16h6.7c5,0,8.7,3,8.7,8c0,5-3.6,8-8.7,8H596.4z M607.5,115c0-2.5-1.5-4.4-4.4-4.4h-2.6v8.8
				h2.6C605.9,119.4,607.5,117.4,607.5,115z"/>
		</g>
		<g>
			<rect x="502.2" y="128.6" fill="#FFFFFF" width="122.8" height="1.7"/>
		</g>
		<g>
			<rect x="502.2" y="159.5" fill="#591B16" width="14.9" height="14.6"/>
		</g>
		<g>
			<rect x="590.2" y="149.5" fill="#591B16" width="34" height="24.6"/>
		</g>
		<g>
			<rect x="590.2" y="134.7" fill="#FFFFFF" width="34.8" height="1.7"/>
		</g>
		<g>
			<rect x="590.2" y="139.2" fill="#FFFFFF" width="34.8" height="1.7"/>
		</g>
		<g>
			<rect x="590.2" y="143.8" fill="#FFFFFF" width="34.8" height="1.7"/>
		</g>
		<g>
			<rect x="501.3" y="134.7" fill="#FFFFFF" width="34.8" height="1.7"/>
		</g>
		<g>
			<rect x="501.3" y="139.5" fill="#FFFFFF" width="34.8" height="1.7"/>
		</g>
		<g>
			<rect x="501.3" y="144.4" fill="#FFFFFF" width="34.8" height="1.7"/>
		</g>
		<g>
			<rect x="501.3" y="149.2" fill="#FFFFFF" width="34.8" height="1.7"/>
		</g>
		<g>
			<rect x="501.3" y="154.1" fill="#FFFFFF" width="34.8" height="1.7"/>
		</g>
		<g>
			<rect x="518.7" y="159.1" fill="#FFFFFF" width="17.4" height="1.7"/>
		</g>
		<g>
			<rect x="518.7" y="163.8" fill="#FFFFFF" width="17.4" height="1.7"/>
		</g>
		<g>
			<rect x="518.7" y="168.6" fill="#FFFFFF" width="17.4" height="1.7"/>
		</g>
		<g>
			<rect x="518.7" y="173.3" fill="#FFFFFF" width="17.4" height="1.7"/>
		</g>
		<g>
			<g>
				<rect x="546.2" y="135" fill="#FFFFFF" width="34.8" height="1.7"/>
			</g>
			<g>
				<rect x="546.2" y="139.6" fill="#FFFFFF" width="34.8" height="1.7"/>
			</g>
			<g>
				<rect x="546.2" y="144.2" fill="#FFFFFF" width="34.8" height="1.7"/>
			</g>
			<g>
				<rect x="546.2" y="148.8" fill="#FFFFFF" width="34.8" height="1.7"/>
			</g>
		</g>
		<g>
			<g>
				<rect x="546.2" y="154.1" fill="#FFFFFF" width="34.8" height="1.7"/>
			</g>
			<g>
				<rect x="546.2" y="158.7" fill="#FFFFFF" width="34.8" height="1.7"/>
			</g>
			<g>
				<rect x="546.2" y="163.3" fill="#FFFFFF" width="34.8" height="1.7"/>
			</g>
			<g>
				<rect x="546.2" y="167.8" fill="#FFFFFF" width="34.8" height="1.7"/>
			</g>
			<g>
				<rect x="546.2" y="172.8" fill="#FFFFFF" width="34.8" height="1.7"/>
			</g>
		</g>
	</g>
	<g>
		<g>
			<path fill="#E2E2E2" d="M635.9,96.3v76.6c0,6.3,5.1,11.4,11.4,11.4h109.9c6.3,0,11.4-5.1,11.4-11.4V96.3H635.9z"/>
		</g>
		<g>
			<path fill="#591B16" d="M664.5,123v-6.4h-6.7v6.4h-4.1v-16h4.1v6h6.7v-6h4.1v16H664.5z"/>
			<path fill="#591B16" d="M672.7,123v-16h11.8v3.6h-7.6v2.5h7.5v3.6h-7.5v2.7h7.6v3.6H672.7z"/>
			<path fill="#591B16" d="M697,123l-2.7-5.4h-2.1v5.4h-4.1v-16h8c3.6,0,5.6,2.4,5.6,5.3c0,2.8-1.7,4.3-3.2,4.8l3.3,5.9H697z
				 M697.5,112.3c0-1.1-0.9-1.7-2-1.7h-3.3v3.4h3.3C696.6,114,697.5,113.4,697.5,112.3z"/>
			<path fill="#591B16" d="M716,123l-0.8-2.3h-6.3l-0.8,2.3h-4.7l6-16h5.2l6,16H716z M712.1,111.1l-2,6h4.1L712.1,111.1z"/>
			<path fill="#591B16" d="M723,123v-16h4.1v12.4h6.4v3.6H723z"/>
			<path fill="#591B16" d="M736.9,123v-16h6.7c5,0,8.7,3,8.7,8c0,5-3.6,8-8.7,8H736.9z M748.1,115c0-2.5-1.5-4.4-4.4-4.4h-2.6v8.8
				h2.6C746.5,119.4,748.1,117.4,748.1,115z"/>
		</g>
		<g>
			<rect x="642.7" y="128.6" fill="#FFFFFF" width="122.8" height="1.7"/>
		</g>
		<g>
			<rect x="642.7" y="159.5" fill="#591B16" width="14.9" height="14.6"/>
		</g>
		<g>
			<rect x="730.7" y="149.5" fill="#591B16" width="34" height="24.6"/>
		</g>
		<g>
			<rect x="730.7" y="134.7" fill="#FFFFFF" width="34.8" height="1.7"/>
		</g>
		<g>
			<rect x="730.7" y="139.2" fill="#FFFFFF" width="34.8" height="1.7"/>
		</g>
		<g>
			<rect x="730.7" y="143.8" fill="#FFFFFF" width="34.8" height="1.7"/>
		</g>
		<g>
			<rect x="641.9" y="134.7" fill="#FFFFFF" width="34.8" height="1.7"/>
		</g>
		<g>
			<rect x="641.9" y="139.5" fill="#FFFFFF" width="34.8" height="1.7"/>
		</g>
		<g>
			<rect x="641.9" y="144.4" fill="#FFFFFF" width="34.8" height="1.7"/>
		</g>
		<g>
			<rect x="641.9" y="149.2" fill="#FFFFFF" width="34.8" height="1.7"/>
		</g>
		<g>
			<rect x="641.9" y="154.1" fill="#FFFFFF" width="34.8" height="1.7"/>
		</g>
		<g>
			<rect x="659.3" y="159.1" fill="#FFFFFF" width="17.4" height="1.7"/>
		</g>
		<g>
			<rect x="659.3" y="163.8" fill="#FFFFFF" width="17.4" height="1.7"/>
		</g>
		<g>
			<rect x="659.3" y="168.6" fill="#FFFFFF" width="17.4" height="1.7"/>
		</g>
		<g>
			<rect x="659.3" y="173.3" fill="#FFFFFF" width="17.4" height="1.7"/>
		</g>
		<g>
			<g>
				<rect x="686.7" y="135" fill="#FFFFFF" width="34.8" height="1.7"/>
			</g>
			<g>
				<rect x="686.7" y="139.6" fill="#FFFFFF" width="34.8" height="1.7"/>
			</g>
			<g>
				<rect x="686.7" y="144.2" fill="#FFFFFF" width="34.8" height="1.7"/>
			</g>
			<g>
				<rect x="686.7" y="148.8" fill="#FFFFFF" width="34.8" height="1.7"/>
			</g>
		</g>
		<g>
			<g>
				<rect x="686.7" y="154.1" fill="#FFFFFF" width="34.8" height="1.7"/>
			</g>
			<g>
				<rect x="686.7" y="158.7" fill="#FFFFFF" width="34.8" height="1.7"/>
			</g>
			<g>
				<rect x="686.7" y="163.3" fill="#FFFFFF" width="34.8" height="1.7"/>
			</g>
			<g>
				<rect x="686.7" y="167.8" fill="#FFFFFF" width="34.8" height="1.7"/>
			</g>
			<g>
				<rect x="686.7" y="172.8" fill="#FFFFFF" width="34.8" height="1.7"/>
			</g>
		</g>
	</g>
	<g>
		<g>
			<g>
				<path fill="#591B16" d="M203.3,20H76.9v39.2c0,2.6,2.1,4.8,4.8,4.8h104.2l17.5-17.5V20z"/>
			</g>
			<g>
				<path fill="#E2E2E2" d="M185.9,64l17.5-17.5h-12.7c-2.6,0-4.8,2.1-4.8,4.8V64z"/>
			</g>
		</g>
		<g>
			<path fill="#C22B2E" d="M97.1,36.3l0.9-1.3c0.6,0.7,1.7,1.3,3,1.3c1.3,0,1.9-0.7,1.9-1.3c0-2-5.4-0.7-5.4-4.2
				c0-1.6,1.3-2.7,3.4-2.7c1.4,0,2.6,0.5,3.5,1.3l-0.9,1.2c-0.7-0.7-1.7-1.1-2.7-1.1c-1,0-1.6,0.5-1.6,1.2c0,1.8,5.4,0.7,5.4,4.1
				c0,1.6-1.1,2.9-3.6,2.9C99.2,37.8,98,37.2,97.1,36.3z"/>
			<path fill="#C22B2E" d="M105.6,34.3c0-2,1.4-3.5,3.4-3.5c2,0,3.3,1.5,3.3,3.7v0.4h-5.2c0.1,1,0.9,1.9,2.1,1.9
				c0.7,0,1.4-0.3,1.9-0.8l0.7,1c-0.7,0.6-1.7,1-2.7,1C107.1,37.8,105.6,36.4,105.6,34.3z M109,31.9c-1.2,0-1.8,1-1.9,1.8h3.8
				C110.9,32.9,110.4,31.9,109,31.9z"/>
			<path fill="#C22B2E" d="M118,37.6v-0.7c-0.5,0.6-1.3,0.9-2.2,0.9c-1.1,0-2.3-0.8-2.3-2.2c0-1.6,1.2-2.2,2.3-2.2
				c0.9,0,1.7,0.3,2.2,0.9v-1c0-0.8-0.7-1.3-1.6-1.3c-0.8,0-1.4,0.3-2,0.9l-0.6-1c0.8-0.8,1.8-1.1,2.8-1.1c1.5,0,2.8,0.6,2.8,2.4
				v4.5H118z M118,36.1v-1c-0.4-0.5-1-0.7-1.6-0.7c-0.8,0-1.5,0.5-1.5,1.2c0,0.7,0.6,1.2,1.5,1.2C117,36.8,117.6,36.6,118,36.1z"/>
			<path fill="#C22B2E" d="M121.3,37.6v-6.8h1.5v1c0.5-0.6,1.3-1.1,2.2-1.1v1.5c-0.1,0-0.3,0-0.4,0c-0.6,0-1.5,0.4-1.8,0.9v4.6
				H121.3z"/>
			<path fill="#C22B2E" d="M125.8,34.3c0-2,1.4-3.5,3.5-3.5c1.3,0,2.1,0.6,2.6,1.2l-1,0.9c-0.4-0.5-0.9-0.8-1.6-0.8
				c-1.2,0-2,0.9-2,2.2s0.8,2.3,2,2.3c0.7,0,1.2-0.3,1.6-0.8l1,0.9c-0.5,0.6-1.3,1.2-2.6,1.2C127.2,37.8,125.8,36.3,125.8,34.3z"/>
			<path fill="#C22B2E" d="M137.7,37.6v-4.3c0-1.1-0.5-1.4-1.4-1.4c-0.8,0-1.4,0.4-1.7,0.9v4.7h-1.5v-9.3h1.5v3.5
				c0.4-0.5,1.3-1.1,2.4-1.1c1.5,0,2.2,0.8,2.2,2.1v4.8H137.7z"/>
			<path fill="#C22B2E" d="M141.2,37.6v-9.3h6.4v1.4h-4.8v2.4h4.7v1.4h-4.7v2.6h4.8v1.4H141.2z"/>
			<path fill="#C22B2E" d="M153.8,37.6v-4.2c0-1.1-0.5-1.4-1.4-1.4c-0.7,0-1.4,0.4-1.7,0.9v4.7h-1.5v-6.8h1.5v0.9
				c0.4-0.5,1.3-1.1,2.4-1.1c1.5,0,2.2,0.8,2.2,2.2v4.8H153.8z"/>
			<path fill="#C22B2E" d="M157.1,39.4l0.7-1.1c0.6,0.6,1.3,0.9,2.2,0.9c1,0,2-0.4,2-1.9v-0.8c-0.5,0.7-1.3,1.1-2.2,1.1
				c-1.7,0-3-1.2-3-3.5c0-2.2,1.2-3.5,3-3.5c0.9,0,1.6,0.4,2.2,1.1v-0.9h1.5v6.4c0,2.4-1.8,3.1-3.5,3.1
				C158.8,40.4,157.9,40.1,157.1,39.4z M161.9,35.4v-2.5c-0.3-0.5-1.1-0.9-1.7-0.9c-1.2,0-1.9,0.9-1.9,2.2s0.7,2.2,1.9,2.2
				C160.9,36.3,161.6,35.9,161.9,35.4z"/>
			<path fill="#C22B2E" d="M165.1,29.1c0-0.5,0.4-0.9,0.9-0.9s0.9,0.4,0.9,0.9c0,0.5-0.4,0.9-0.9,0.9S165.1,29.7,165.1,29.1z
				 M165.3,37.6v-6.8h1.5v6.8H165.3z"/>
			<path fill="#C22B2E" d="M173.2,37.6v-4.2c0-1.1-0.5-1.4-1.4-1.4c-0.7,0-1.4,0.4-1.7,0.9v4.7h-1.5v-6.8h1.5v0.9
				c0.4-0.5,1.3-1.1,2.4-1.1c1.5,0,2.2,0.8,2.2,2.2v4.8H173.2z"/>
			<path fill="#C22B2E" d="M176.2,34.3c0-2,1.4-3.5,3.4-3.5c2,0,3.3,1.5,3.3,3.7v0.4h-5.2c0.1,1,0.9,1.9,2.1,1.9
				c0.7,0,1.4-0.3,1.9-0.8l0.7,1c-0.7,0.6-1.7,1-2.7,1C177.7,37.8,176.2,36.4,176.2,34.3z M179.6,31.9c-1.2,0-1.8,1-1.9,1.8h3.8
				C181.5,32.9,180.9,31.9,179.6,31.9z"/>
			<path fill="#C22B2E" d="M104.4,54.4v-9.3h4.1c2,0,3,1.3,3,2.9c0,1.6-1.1,2.9-3,2.9H106v3.5H104.4z M109.9,48
				c0-0.9-0.7-1.5-1.6-1.5H106v3h2.3C109.2,49.5,109.9,48.9,109.9,48z"/>
			<path fill="#C22B2E" d="M112.3,51.1c0-2,1.4-3.5,3.4-3.5c2,0,3.3,1.5,3.3,3.7v0.4h-5.2c0.1,1,0.9,1.9,2.1,1.9
				c0.7,0,1.4-0.3,1.9-0.8l0.7,1c-0.7,0.6-1.7,1-2.7,1C113.8,54.6,112.3,53.2,112.3,51.1z M115.7,48.7c-1.2,0-1.8,1-1.9,1.8h3.8
				C117.5,49.7,117,48.7,115.7,48.7z"/>
			<path fill="#C22B2E" d="M120.1,51.1c0-1.9,1.3-3.5,3.5-3.5s3.5,1.6,3.5,3.5c0,1.9-1.3,3.6-3.5,3.6S120.1,53,120.1,51.1z
				 M125.5,51.1c0-1.2-0.7-2.2-1.9-2.2c-1.2,0-1.9,1.1-1.9,2.2c0,1.2,0.7,2.3,1.9,2.3C124.8,53.3,125.5,52.3,125.5,51.1z"/>
			<path fill="#C22B2E" d="M130,53.5V57h-1.5v-9.3h1.5v0.9c0.5-0.7,1.3-1.1,2.2-1.1c1.8,0,3,1.3,3,3.5c0,2.2-1.2,3.6-3,3.6
				C131.3,54.6,130.5,54.2,130,53.5z M133.6,51.1c0-1.3-0.8-2.2-1.9-2.2c-0.7,0-1.4,0.4-1.7,0.9v2.7c0.3,0.5,1.1,0.9,1.7,0.9
				C132.9,53.3,133.6,52.4,133.6,51.1z"/>
			<path fill="#C22B2E" d="M136.6,54.4v-9.3h1.5v9.3H136.6z"/>
			<path fill="#C22B2E" d="M139.6,51.1c0-2,1.4-3.5,3.4-3.5c2,0,3.3,1.5,3.3,3.7v0.4h-5.2c0.1,1,0.9,1.9,2.1,1.9
				c0.7,0,1.4-0.3,1.9-0.8l0.7,1c-0.7,0.6-1.7,1-2.7,1C141.1,54.6,139.6,53.2,139.6,51.1z M143,48.7c-1.2,0-1.8,1-1.9,1.8h3.8
				C144.9,49.7,144.3,48.7,143,48.7z"/>
			<path fill="#C22B2E" d="M147.5,53.6c0-0.5,0.4-1,1-1c0.5,0,1,0.4,1,1c0,0.5-0.4,1-1,1C147.9,54.6,147.5,54.1,147.5,53.6z"/>
			<path fill="#C22B2E" d="M150.7,51.1c0-2,1.4-3.5,3.5-3.5c1.3,0,2.1,0.6,2.6,1.2l-1,0.9c-0.4-0.5-0.9-0.8-1.6-0.8
				c-1.2,0-2,0.9-2,2.2c0,1.3,0.8,2.3,2,2.3c0.7,0,1.2-0.3,1.6-0.8l1,0.9c-0.5,0.6-1.3,1.2-2.6,1.2
				C152.1,54.6,150.7,53.1,150.7,51.1z"/>
			<path fill="#C22B2E" d="M157.6,51.1c0-1.9,1.3-3.5,3.5-3.5s3.5,1.6,3.5,3.5c0,1.9-1.3,3.6-3.5,3.6S157.6,53,157.6,51.1z
				 M163.1,51.1c0-1.2-0.7-2.2-1.9-2.2c-1.2,0-1.9,1.1-1.9,2.2c0,1.2,0.7,2.3,1.9,2.3C162.4,53.3,163.1,52.3,163.1,51.1z"/>
			<path fill="#C22B2E" d="M174.4,54.4V50c0-0.7-0.3-1.2-1.1-1.2c-0.7,0-1.3,0.4-1.6,0.9v4.7h-1.5V50c0-0.7-0.3-1.2-1.1-1.2
				c-0.7,0-1.3,0.5-1.6,0.9v4.7h-1.5v-6.8h1.5v0.9c0.3-0.4,1.2-1.1,2.2-1.1c1,0,1.6,0.5,1.8,1.2c0.4-0.6,1.3-1.2,2.3-1.2
				c1.2,0,1.9,0.7,1.9,2v4.9H174.4z"/>
		</g>
	</g>
	<g>
		<g>
			<g>
				<path fill="#591B16" d="M343.9,20H217.4v39.2c0,2.6,2.1,4.8,4.8,4.8h104.2l17.5-17.5V20z"/>
			</g>
			<g>
				<path fill="#E2E2E2" d="M326.4,64l17.5-17.5h-12.7c-2.6,0-4.8,2.1-4.8,4.8V64z"/>
			</g>
		</g>
		<g>
			<path fill="#C22B2E" d="M234.9,33c0-2.9,2.2-4.8,4.9-4.8c1.8,0,3,0.9,3.8,1.9l-1.3,0.8c-0.5-0.7-1.4-1.2-2.4-1.2
				c-1.8,0-3.2,1.4-3.2,3.4c0,1.9,1.4,3.4,3.2,3.4c1,0,1.8-0.4,2.2-0.8v-1.4h-2.8v-1.4h4.4v3.5c-0.9,1-2.2,1.7-3.8,1.7
				C237.1,37.8,234.9,35.9,234.9,33z"/>
			<path fill="#C22B2E" d="M245.3,37.6v-6.8h1.5v1c0.5-0.6,1.3-1.1,2.2-1.1v1.5c-0.1,0-0.3,0-0.4,0c-0.6,0-1.5,0.4-1.8,0.9v4.6
				H245.3z"/>
			<path fill="#C22B2E" d="M254.3,37.6v-0.7c-0.5,0.6-1.3,0.9-2.2,0.9c-1.1,0-2.3-0.8-2.3-2.2c0-1.6,1.2-2.2,2.3-2.2
				c0.9,0,1.7,0.3,2.2,0.9v-1c0-0.8-0.7-1.3-1.6-1.3c-0.8,0-1.4,0.3-2,0.9l-0.6-1c0.8-0.8,1.8-1.1,2.8-1.1c1.5,0,2.8,0.6,2.8,2.4
				v4.5H254.3z M254.3,36.1v-1c-0.4-0.5-1-0.7-1.6-0.7c-0.8,0-1.5,0.5-1.5,1.2c0,0.7,0.6,1.2,1.5,1.2
				C253.4,36.8,254,36.6,254.3,36.1z"/>
			<path fill="#C22B2E" d="M259.2,36.7v3.5h-1.5v-9.3h1.5v0.9c0.5-0.7,1.3-1.1,2.2-1.1c1.8,0,3,1.3,3,3.5c0,2.2-1.2,3.6-3,3.6
				C260.5,37.8,259.7,37.4,259.2,36.7z M262.8,34.3c0-1.3-0.8-2.2-1.9-2.2c-0.7,0-1.4,0.4-1.7,0.9v2.7c0.3,0.5,1.1,0.9,1.7,0.9
				C262.1,36.5,262.8,35.6,262.8,34.3z"/>
			<path fill="#C22B2E" d="M270.4,37.6v-4.3c0-1.1-0.5-1.4-1.4-1.4c-0.8,0-1.4,0.4-1.7,0.9v4.7h-1.5v-9.3h1.5v3.5
				c0.4-0.5,1.3-1.1,2.4-1.1c1.5,0,2.2,0.8,2.2,2.1v4.8H270.4z"/>
			<path fill="#C22B2E" d="M273.6,29.1c0-0.5,0.4-0.9,0.9-0.9s0.9,0.4,0.9,0.9c0,0.5-0.4,0.9-0.9,0.9S273.6,29.7,273.6,29.1z
				 M273.8,37.6v-6.8h1.5v6.8H273.8z"/>
			<path fill="#C22B2E" d="M276.7,34.3c0-2,1.4-3.5,3.5-3.5c1.3,0,2.1,0.6,2.6,1.2l-1,0.9c-0.4-0.5-0.9-0.8-1.6-0.8
				c-1.2,0-2,0.9-2,2.2s0.8,2.3,2,2.3c0.7,0,1.2-0.3,1.6-0.8l1,0.9c-0.5,0.6-1.3,1.2-2.6,1.2C278.2,37.8,276.7,36.3,276.7,34.3z"/>
			<path fill="#C22B2E" d="M284.2,37.6v-9.3h3.5c2.9,0,4.9,1.9,4.9,4.7c0,2.8-2,4.7-4.9,4.7H284.2z M290.8,33c0-1.8-1.1-3.2-3.2-3.2
				h-1.8v6.5h1.8C289.7,36.2,290.8,34.7,290.8,33z"/>
			<path fill="#C22B2E" d="M293.7,34.3c0-2,1.4-3.5,3.4-3.5c2,0,3.3,1.5,3.3,3.7v0.4h-5.2c0.1,1,0.9,1.9,2.1,1.9
				c0.7,0,1.4-0.3,1.9-0.8l0.7,1c-0.7,0.6-1.7,1-2.7,1C295.1,37.8,293.7,36.4,293.7,34.3z M297.1,31.9c-1.2,0-1.8,1-1.9,1.8h3.8
				C298.9,32.9,298.4,31.9,297.1,31.9z"/>
			<path fill="#C22B2E" d="M301.3,36.8l0.7-1.1c0.5,0.5,1.4,0.9,2.3,0.9c0.9,0,1.3-0.4,1.3-0.9c0-1.3-4.1-0.4-4.1-3c0-1.1,1-2,2.7-2
				c1.1,0,2,0.4,2.6,0.9l-0.6,1c-0.4-0.4-1.1-0.8-2-0.8c-0.8,0-1.2,0.4-1.2,0.8c0,1.2,4.1,0.3,4.1,3c0,1.2-1,2.1-2.8,2.1
				C303,37.8,302,37.4,301.3,36.8z"/>
			<path fill="#C22B2E" d="M308.3,29.1c0-0.5,0.4-0.9,0.9-0.9s0.9,0.4,0.9,0.9c0,0.5-0.4,0.9-0.9,0.9S308.3,29.7,308.3,29.1z
				 M308.5,37.6v-6.8h1.5v6.8H308.5z"/>
			<path fill="#C22B2E" d="M311.8,39.4l0.7-1.1c0.6,0.6,1.3,0.9,2.2,0.9c1,0,2-0.4,2-1.9v-0.8c-0.5,0.7-1.3,1.1-2.2,1.1
				c-1.7,0-3-1.2-3-3.5c0-2.2,1.2-3.5,3-3.5c0.9,0,1.6,0.4,2.2,1.1v-0.9h1.5v6.4c0,2.4-1.8,3.1-3.5,3.1
				C313.4,40.4,312.6,40.1,311.8,39.4z M316.6,35.4v-2.5c-0.3-0.5-1.1-0.9-1.7-0.9c-1.2,0-1.9,0.9-1.9,2.2s0.7,2.2,1.9,2.2
				C315.5,36.3,316.3,35.9,316.6,35.4z"/>
			<path fill="#C22B2E" d="M324.6,37.6v-4.2c0-1.1-0.5-1.4-1.4-1.4c-0.7,0-1.4,0.4-1.7,0.9v4.7H320v-6.8h1.5v0.9
				c0.4-0.5,1.3-1.1,2.4-1.1c1.5,0,2.2,0.8,2.2,2.2v4.8H324.6z"/>
			<path fill="#C22B2E" d="M266.4,53.6c0-0.5,0.4-1,1-1c0.5,0,1,0.4,1,1c0,0.5-0.4,1-1,1C266.8,54.6,266.4,54.1,266.4,53.6z"/>
			<path fill="#C22B2E" d="M269.6,51.1c0-2,1.4-3.5,3.5-3.5c1.3,0,2.1,0.6,2.6,1.2l-1,0.9c-0.4-0.5-0.9-0.8-1.6-0.8
				c-1.2,0-2,0.9-2,2.2c0,1.3,0.8,2.3,2,2.3c0.7,0,1.2-0.3,1.6-0.8l1,0.9c-0.5,0.6-1.3,1.2-2.6,1.2C271,54.6,269.6,53.1,269.6,51.1z
				"/>
			<path fill="#C22B2E" d="M276.5,51.1c0-1.9,1.3-3.5,3.5-3.5s3.5,1.6,3.5,3.5c0,1.9-1.3,3.6-3.5,3.6S276.5,53,276.5,51.1z
				 M281.9,51.1c0-1.2-0.7-2.2-1.9-2.2c-1.2,0-1.9,1.1-1.9,2.2c0,1.2,0.7,2.3,1.9,2.3C281.3,53.3,281.9,52.3,281.9,51.1z"/>
			<path fill="#C22B2E" d="M293.3,54.4V50c0-0.7-0.3-1.2-1.1-1.2c-0.7,0-1.3,0.4-1.6,0.9v4.7h-1.5V50c0-0.7-0.3-1.2-1.1-1.2
				c-0.7,0-1.3,0.5-1.6,0.9v4.7H285v-6.8h1.5v0.9c0.3-0.4,1.2-1.1,2.2-1.1c1,0,1.6,0.5,1.8,1.2c0.4-0.6,1.3-1.2,2.3-1.2
				c1.2,0,1.9,0.7,1.9,2v4.9H293.3z"/>
		</g>
	</g>
	<g>
		<g>
			<g>
				<path fill="#591B16" d="M484.5,20H358v38.3c0,3.2,2.6,5.7,5.7,5.7H467l17.5-17.5V20z"/>
			</g>
			<g>
				<path fill="#E2E2E2" d="M467,64l17.5-17.5h-10.2c-4,0-7.3,3.3-7.3,7.3V64z"/>
			</g>
		</g>
		<g>
			<path fill="#C22B2E" d="M382.5,36.3l0.9-1.3c0.6,0.7,1.7,1.3,3,1.3c1.3,0,1.9-0.7,1.9-1.3c0-2-5.4-0.7-5.4-4.2
				c0-1.6,1.3-2.7,3.4-2.7c1.4,0,2.6,0.5,3.5,1.3l-0.9,1.2c-0.7-0.7-1.7-1.1-2.7-1.1c-1,0-1.6,0.5-1.6,1.2c0,1.8,5.4,0.7,5.4,4.1
				c0,1.6-1.1,2.9-3.6,2.9C384.6,37.8,383.4,37.2,382.5,36.3z"/>
			<path fill="#C22B2E" d="M391,34.3c0-2,1.4-3.5,3.4-3.5c2,0,3.3,1.5,3.3,3.7v0.4h-5.2c0.1,1,0.9,1.9,2.1,1.9
				c0.7,0,1.4-0.3,1.9-0.8l0.7,1c-0.7,0.6-1.7,1-2.7,1C392.5,37.8,391,36.4,391,34.3z M394.4,31.9c-1.2,0-1.8,1-1.9,1.8h3.8
				C396.3,32.9,395.7,31.9,394.4,31.9z"/>
			<path fill="#C22B2E" d="M403.3,37.6v-0.7c-0.5,0.6-1.3,0.9-2.2,0.9c-1.1,0-2.3-0.8-2.3-2.2c0-1.6,1.2-2.2,2.3-2.2
				c0.9,0,1.7,0.3,2.2,0.9v-1c0-0.8-0.7-1.3-1.6-1.3c-0.8,0-1.4,0.3-2,0.9l-0.6-1c0.8-0.8,1.8-1.1,2.8-1.1c1.5,0,2.8,0.6,2.8,2.4
				v4.5H403.3z M403.3,36.1v-1c-0.4-0.5-1-0.7-1.6-0.7c-0.8,0-1.5,0.5-1.5,1.2c0,0.7,0.6,1.2,1.5,1.2
				C402.3,36.8,403,36.6,403.3,36.1z"/>
			<path fill="#C22B2E" d="M407,36.1v-3.9h-1.1v-1.3h1.1V29h1.5v1.8h1.4v1.3h-1.4v3.5c0,0.5,0.2,0.8,0.6,0.8c0.3,0,0.5-0.1,0.6-0.3
				l0.4,1.1c-0.3,0.2-0.7,0.4-1.4,0.4C407.6,37.8,407,37.2,407,36.1z"/>
			<path fill="#C22B2E" d="M411.5,36.1v-3.9h-1.1v-1.3h1.1V29h1.5v1.8h1.4v1.3h-1.4v3.5c0,0.5,0.2,0.8,0.6,0.8
				c0.3,0,0.5-0.1,0.6-0.3l0.4,1.1c-0.3,0.2-0.7,0.4-1.4,0.4C412.1,37.8,411.5,37.2,411.5,36.1z"/>
			<path fill="#C22B2E" d="M415.6,37.6v-9.3h1.5v9.3H415.6z"/>
			<path fill="#C22B2E" d="M418.6,34.3c0-2,1.4-3.5,3.4-3.5c2,0,3.3,1.5,3.3,3.7v0.4h-5.2c0.1,1,0.9,1.9,2.1,1.9
				c0.7,0,1.4-0.3,1.9-0.8l0.7,1c-0.7,0.6-1.7,1-2.7,1C420.1,37.8,418.6,36.4,418.6,34.3z M422,31.9c-1.2,0-1.8,1-1.9,1.8h3.8
				C423.9,32.9,423.3,31.9,422,31.9z"/>
			<path fill="#C22B2E" d="M430.2,37.6v-1.3c3.6-2.7,5.1-4,5.1-5.3c0-1-0.9-1.4-1.7-1.4c-1.1,0-1.9,0.4-2.5,1.1l-1-1.1
				c0.8-1,2.1-1.5,3.5-1.5c1.8,0,3.4,1,3.4,2.9c0,1.7-1.6,3.3-4.1,5.2h4.1v1.4H430.2z"/>
			<path fill="#C22B2E" d="M442.6,37.6v-2.1h-4.5v-1.3l3.8-5.9h2.3v5.8h1.2v1.4h-1.2v2.1H442.6z M442.6,29.8l-2.8,4.3h2.8V29.8z"/>
			<path fill="#C22B2E" d="M451.2,37.6l-1.8-2.5l-1.8,2.5H446l2.5-3.5l-2.3-3.3h1.7l1.6,2.3l1.6-2.3h1.7l-2.3,3.3l2.5,3.5H451.2z"/>
			<path fill="#C22B2E" d="M454.6,37.6l3.5-7.9h-4.8v-1.4h6.7v1.1l-3.6,8.2H454.6z"/>
		</g>
	</g>
	<g>
		<g>
			<g>
				<path fill="#591B16" d="M625,20H498.5v39.1c0,2.7,2.2,4.9,4.9,4.9h104.1L625,46.5V20z"/>
			</g>
			<g>
				<path fill="#E2E2E2" d="M607.5,64L625,46.5h-12.6c-2.7,0-4.9,2.2-4.9,4.9V64z"/>
			</g>
		</g>
		<g>
			<path fill="#C22B2E" d="M532.6,33c0-2.9,2.2-4.8,4.9-4.8c1.8,0,3,0.9,3.8,1.9l-1.3,0.8c-0.5-0.7-1.4-1.2-2.4-1.2
				c-1.8,0-3.2,1.4-3.2,3.4c0,1.9,1.4,3.4,3.2,3.4c1,0,1.8-0.4,2.2-0.8v-1.4h-2.8v-1.4h4.4v3.5c-0.9,1-2.2,1.7-3.8,1.7
				C534.7,37.8,532.6,35.9,532.6,33z"/>
			<path fill="#C22B2E" d="M542.6,34.3c0-2,1.4-3.5,3.4-3.5c2,0,3.3,1.5,3.3,3.7v0.4h-5.2c0.1,1,0.9,1.9,2.1,1.9
				c0.7,0,1.4-0.3,1.9-0.8l0.7,1c-0.7,0.6-1.7,1-2.7,1C544.1,37.8,542.6,36.4,542.6,34.3z M546,31.9c-1.2,0-1.8,1-1.9,1.8h3.8
				C547.9,32.9,547.3,31.9,546,31.9z"/>
			<path fill="#C22B2E" d="M550.4,34.3c0-2,1.4-3.5,3.4-3.5c2,0,3.3,1.5,3.3,3.7v0.4h-5.2c0.1,1,0.9,1.9,2.1,1.9
				c0.7,0,1.4-0.3,1.9-0.8l0.7,1c-0.7,0.6-1.7,1-2.7,1C551.9,37.8,550.4,36.4,550.4,34.3z M553.8,31.9c-1.2,0-1.8,1-1.9,1.8h3.8
				C555.7,32.9,555.1,31.9,553.8,31.9z"/>
			<path fill="#C22B2E" d="M563,37.6l-2.1-2.8l-1,1v1.8h-1.5v-9.3h1.5v5.8l3-3.3h1.8L562,34l2.9,3.7H563z"/>
			<path fill="#C22B2E" d="M571.8,37.6l-1.6-5l-1.6,5h-1.5l-2.1-6.8h1.5l1.4,4.9l1.6-4.9h1.3l1.6,4.9l1.4-4.9h1.5l-2.1,6.8H571.8z"
				/>
			<path fill="#C22B2E" d="M576.3,29.1c0-0.5,0.4-0.9,0.9-0.9c0.5,0,0.9,0.4,0.9,0.9c0,0.5-0.4,0.9-0.9,0.9
				C576.7,30.1,576.3,29.7,576.3,29.1z M576.5,37.6v-6.8h1.5v6.8H576.5z"/>
			<path fill="#C22B2E" d="M579.9,37.6v-6.8h1.5v1c0.5-0.6,1.3-1.1,2.2-1.1v1.5c-0.1,0-0.3,0-0.4,0c-0.6,0-1.5,0.4-1.8,0.9v4.6
				H579.9z"/>
			<path fill="#C22B2E" d="M584.3,34.3c0-2,1.4-3.5,3.4-3.5c2,0,3.3,1.5,3.3,3.7v0.4h-5.2c0.1,1,0.9,1.9,2.1,1.9
				c0.7,0,1.4-0.3,1.9-0.8l0.7,1c-0.7,0.6-1.7,1-2.7,1C585.8,37.8,584.3,36.4,584.3,34.3z M587.8,31.9c-1.2,0-1.8,1-1.9,1.8h3.8
				C589.6,32.9,589.1,31.9,587.8,31.9z"/>
		</g>
	</g>
	<g>
		<g>
			<g>
				<path fill="#591B16" d="M765.6,20H639.1v39.6c0,2.4,2,4.4,4.4,4.4h104.6l17.5-17.5V20z"/>
			</g>
			<g>
				<path fill="#E2E2E2" d="M748.1,64l17.5-17.5h-13c-2.4,0-4.4,2-4.4,4.4V64z"/>
			</g>
		</g>
		<g>
			<path fill="#C22B2E" d="M657.5,37.6v-9.3h4.6c1.7,0,2.7,1.1,2.7,2.4c0,1.2-0.8,2-1.6,2.1c1,0.2,1.8,1.1,1.8,2.3
				c0,1.5-1,2.5-2.7,2.5H657.5z M663.1,31c0-0.7-0.5-1.2-1.3-1.2h-2.6v2.4h2.6C662.6,32.2,663.1,31.7,663.1,31z M663.2,34.9
				c0-0.7-0.5-1.3-1.4-1.3h-2.7v2.6h2.7C662.7,36.2,663.2,35.7,663.2,34.9z"/>
			<path fill="#C22B2E" d="M671.1,37.6v-0.9c-0.5,0.5-1.3,1.1-2.4,1.1c-1.5,0-2.2-0.8-2.2-2.1v-4.8h1.5v4.2c0,1.1,0.5,1.4,1.4,1.4
				c0.7,0,1.4-0.4,1.7-0.9v-4.7h1.5v6.8H671.1z"/>
			<path fill="#C22B2E" d="M673.9,36.8l0.7-1.1c0.5,0.5,1.4,0.9,2.3,0.9c0.9,0,1.3-0.4,1.3-0.9c0-1.3-4.1-0.4-4.1-3c0-1.1,1-2,2.7-2
				c1.1,0,2,0.4,2.6,0.9l-0.6,1c-0.4-0.4-1.1-0.8-2-0.8c-0.8,0-1.2,0.4-1.2,0.8c0,1.2,4.1,0.3,4.1,3c0,1.2-1,2.1-2.8,2.1
				C675.6,37.8,674.6,37.4,673.9,36.8z"/>
			<path fill="#C22B2E" d="M680.9,29.1c0-0.5,0.4-0.9,0.9-0.9c0.5,0,0.9,0.4,0.9,0.9c0,0.5-0.4,0.9-0.9,0.9
				C681.3,30.1,680.9,29.7,680.9,29.1z M681.1,37.6v-6.8h1.5v6.8H681.1z"/>
			<path fill="#C22B2E" d="M689,37.6v-4.2c0-1.1-0.5-1.4-1.4-1.4c-0.7,0-1.4,0.4-1.7,0.9v4.7h-1.5v-6.8h1.5v0.9
				c0.4-0.5,1.3-1.1,2.4-1.1c1.5,0,2.2,0.8,2.2,2.2v4.8H689z"/>
			<path fill="#C22B2E" d="M692,34.3c0-2,1.4-3.5,3.4-3.5c2,0,3.3,1.5,3.3,3.7v0.4h-5.2c0.1,1,0.9,1.9,2.1,1.9
				c0.7,0,1.4-0.3,1.9-0.8l0.7,1c-0.7,0.6-1.7,1-2.7,1C693.5,37.8,692,36.4,692,34.3z M695.4,31.9c-1.2,0-1.8,1-1.9,1.8h3.8
				C697.3,32.9,696.7,31.9,695.4,31.9z"/>
			<path fill="#C22B2E" d="M699.6,36.8l0.7-1.1c0.5,0.5,1.4,0.9,2.3,0.9c0.9,0,1.3-0.4,1.3-0.9c0-1.3-4.1-0.4-4.1-3c0-1.1,1-2,2.7-2
				c1.1,0,2,0.4,2.6,0.9l-0.6,1c-0.4-0.4-1.1-0.8-2-0.8c-0.8,0-1.2,0.4-1.2,0.8c0,1.2,4.1,0.3,4.1,3c0,1.2-1,2.1-2.8,2.1
				C701.4,37.8,700.3,37.4,699.6,36.8z"/>
			<path fill="#C22B2E" d="M706.2,36.8l0.7-1.1c0.5,0.5,1.4,0.9,2.3,0.9c0.9,0,1.3-0.4,1.3-0.9c0-1.3-4.1-0.4-4.1-3c0-1.1,1-2,2.7-2
				c1.1,0,2,0.4,2.6,0.9l-0.6,1c-0.4-0.4-1.1-0.8-2-0.8c-0.8,0-1.2,0.4-1.2,0.8c0,1.2,4.1,0.3,4.1,3c0,1.2-1,2.1-2.8,2.1
				C708,37.8,706.9,37.4,706.2,36.8z"/>
			<path fill="#C22B2E" d="M713.5,37.6v-9.3h1.6v9.3H713.5z"/>
			<path fill="#C22B2E" d="M721.6,37.6v-4.2c0-1.1-0.5-1.4-1.4-1.4c-0.7,0-1.4,0.4-1.7,0.9v4.7H717v-6.8h1.5v0.9
				c0.4-0.5,1.3-1.1,2.4-1.1c1.5,0,2.2,0.8,2.2,2.2v4.8H721.6z"/>
			<path fill="#C22B2E" d="M725.3,36.1v-3.9h-1.1v-1.3h1.1V29h1.5v1.8h1.4v1.3h-1.4v3.5c0,0.5,0.2,0.8,0.6,0.8
				c0.3,0,0.5-0.1,0.6-0.3l0.3,1.1c-0.3,0.2-0.7,0.4-1.4,0.4C725.9,37.8,725.3,37.2,725.3,36.1z"/>
			<path fill="#C22B2E" d="M729,34.3c0-2,1.4-3.5,3.4-3.5c2,0,3.3,1.5,3.3,3.7v0.4h-5.2c0.1,1,0.9,1.9,2.1,1.9
				c0.7,0,1.4-0.3,1.9-0.8l0.7,1c-0.7,0.6-1.7,1-2.7,1C730.5,37.8,729,36.4,729,34.3z M732.5,31.9c-1.2,0-1.8,1-1.9,1.8h3.8
				C734.3,32.9,733.8,31.9,732.5,31.9z"/>
			<path fill="#C22B2E" d="M737.3,37.6v-6.8h1.5v1c0.5-0.6,1.3-1.1,2.2-1.1v1.5c-0.1,0-0.3,0-0.4,0c-0.6,0-1.5,0.4-1.8,0.9v4.6
				H737.3z"/>
			<path fill="#C22B2E" d="M743.9,37.6l-2.8-6.8h1.6l2,5.1l2-5.1h1.6l-2.8,6.8H743.9z"/>
			<path fill="#C22B2E" d="M673.9,45.9c0-0.5,0.4-0.9,0.9-0.9c0.5,0,0.9,0.4,0.9,0.9c0,0.5-0.4,0.9-0.9,0.9
				C674.3,46.9,673.9,46.5,673.9,45.9z M674.1,54.4v-6.8h1.5v6.8H674.1z"/>
			<path fill="#C22B2E" d="M677.1,51.1c0-2,1.4-3.5,3.4-3.5c2,0,3.3,1.5,3.3,3.7v0.4h-5.2c0.1,1,0.9,1.9,2.1,1.9
				c0.7,0,1.4-0.3,1.9-0.8l0.7,1c-0.7,0.6-1.7,1-2.7,1C678.6,54.6,677.1,53.2,677.1,51.1z M680.5,48.7c-1.2,0-1.8,1-1.9,1.8h3.8
				C682.4,49.7,681.8,48.7,680.5,48.7z"/>
			<path fill="#C22B2E" d="M691.2,54.4l-1.6-5l-1.6,5h-1.5l-2.1-6.8h1.5l1.4,4.9l1.6-4.9h1.3l1.6,4.9l1.4-4.9h1.5l-2.1,6.8H691.2z"
				/>
			<path fill="#C22B2E" d="M695.3,53.6l0.7-1.1c0.5,0.5,1.4,0.9,2.3,0.9c0.9,0,1.3-0.4,1.3-0.9c0-1.3-4.1-0.4-4.1-3c0-1.1,1-2,2.7-2
				c1.1,0,2,0.4,2.6,0.9l-0.6,1c-0.4-0.4-1.1-0.8-2-0.8c-0.8,0-1.2,0.4-1.2,0.8c0,1.2,4.1,0.3,4.1,3c0,1.2-1,2.1-2.8,2.1
				C697,54.6,696,54.2,695.3,53.6z"/>
			<path fill="#C22B2E" d="M702.2,53.6c0-0.5,0.4-1,1-1c0.5,0,1,0.4,1,1c0,0.5-0.4,1-1,1C702.7,54.6,702.2,54.1,702.2,53.6z"/>
			<path fill="#C22B2E" d="M705.4,51.1c0-2,1.4-3.5,3.5-3.5c1.3,0,2.1,0.6,2.6,1.2l-1,0.9c-0.4-0.5-0.9-0.8-1.6-0.8
				c-1.2,0-2,0.9-2,2.2c0,1.3,0.8,2.3,2,2.3c0.7,0,1.2-0.3,1.6-0.8l1,0.9c-0.5,0.6-1.3,1.2-2.6,1.2
				C706.8,54.6,705.4,53.1,705.4,51.1z"/>
			<path fill="#C22B2E" d="M712.4,51.1c0-1.9,1.3-3.5,3.5-3.5s3.5,1.6,3.5,3.5c0,1.9-1.3,3.6-3.5,3.6S712.4,53,712.4,51.1z
				 M717.8,51.1c0-1.2-0.7-2.2-1.9-2.2c-1.2,0-1.9,1.1-1.9,2.2c0,1.2,0.7,2.3,1.9,2.3C717.1,53.3,717.8,52.3,717.8,51.1z"/>
			<path fill="#C22B2E" d="M729.1,54.4V50c0-0.7-0.3-1.2-1.1-1.2c-0.7,0-1.3,0.4-1.6,0.9v4.7H725V50c0-0.7-0.3-1.2-1.1-1.2
				c-0.7,0-1.3,0.5-1.6,0.9v4.7h-1.5v-6.8h1.5v0.9c0.3-0.4,1.2-1.1,2.2-1.1c1,0,1.6,0.5,1.8,1.2c0.4-0.6,1.3-1.2,2.3-1.2
				c1.2,0,1.9,0.7,1.9,2v4.9H729.1z"/>
		</g>
	</g>
	<g>
		<g>
			<g>
				<path fill="#E2E2E2" d="M505.9,256.2v118.6c0,1.3,1.1,2.4,2.4,2.4H618c1.3,0,2.4-1.1,2.4-2.4V268.2l-14.4-14.4h-97.6
					C507,253.8,505.9,254.9,505.9,256.2z"/>
			</g>
			<g>
				<path fill="#FFFFFF" d="M620.3,268.2l-14.4-14.4v12c0,1.3,1.1,2.4,2.4,2.4H620.3z"/>
			</g>
		</g>
		<g>
			<rect x="510.4" y="367.6" fill="#FFFFFF" width="102.7" height="3"/>
		</g>
		<g>
			<path fill="#591B16" d="M517.8,282.2c0-6.1,4.7-10,10.5-10c4.3,0,6.9,2.3,8.3,4.7l-4.2,2.2c-0.7-1.3-2.2-2.5-4.1-2.5
				c-3.2,0-5.4,2.4-5.4,5.6c0,3.2,2.2,5.6,5.4,5.6c1.4,0,2.9-0.6,3.6-1.2v-1.5h-4.4v-4.4h9.3v7.7c-2.1,2.3-4.9,3.8-8.6,3.8
				C522.5,292.2,517.8,288.4,517.8,282.2z"/>
			<path fill="#591B16" d="M540.2,282.2c0-5.9,4.4-10,10.4-10c5.9,0,10.3,4.1,10.3,10s-4.4,10-10.3,10
				C544.7,292.2,540.2,288.1,540.2,282.2z M555.8,282.2c0-3.2-2.1-5.6-5.2-5.6c-3.2,0-5.3,2.4-5.3,5.6c0,3.1,2.1,5.6,5.3,5.6
				C553.8,287.8,555.8,285.3,555.8,282.2z"/>
			<path fill="#591B16" d="M535.8,326.7v-12.8l-4.9,12.8h-2.2l-4.9-12.8v12.8h-5v-19.3h6.9l4.1,10.7l4-10.7h6.9v19.3H535.8z"/>
			<path fill="#591B16" d="M545.7,326.7v-19.3h14.2v4.4h-9.2v3h9v4.4h-9v3.3h9.2v4.4H545.7z"/>
			<path fill="#591B16" d="M564.2,326.7v-19.3h8.1c6.1,0,10.5,3.7,10.5,9.7c0,6-4.4,9.7-10.4,9.7H564.2z M577.7,317
				c0-3-1.8-5.3-5.3-5.3h-3.2v10.6h3.1C575.7,322.3,577.7,319.8,577.7,317z"/>
			<path fill="#591B16" d="M586.7,326.7v-19.3h5v19.3H586.7z"/>
			<path fill="#591B16" d="M609.8,326.7l-1-2.8h-7.6l-1,2.8h-5.7l7.3-19.3h6.3l7.3,19.3H609.8z M605,312.2l-2.5,7.3h4.9L605,312.2z"
				/>
			<path fill="#591B16" d="M518.2,361.5v-4l8.2-11h-8.2v-4.4H533v3.9l-8.3,11.1h8.5v4.4H518.2z"/>
			<path fill="#591B16" d="M537.5,361.5v-19.3h5v19.3H537.5z"/>
			<path fill="#591B16" d="M560.6,361.5l-8.2-11.2v11.2h-5v-19.3h5.1l7.8,10.6v-10.6h5v19.3H560.6z"/>
			<path fill="#591B16" d="M570.3,361.5v-19.3h14.2v4.4h-9.2v3h9v4.4h-9v3.3h9.2v4.4H570.3z"/>
		</g>
		<g>
			<rect x="569.7" y="273" fill="#591B16" width="38.5" height="25.3"/>
		</g>
	</g>
	<g>
		<g>
			<g>
				<path fill="#E2E2E2" d="M364.9,256.2v118.6c0,1.3,1.1,2.4,2.4,2.4H477c1.3,0,2.4-1.1,2.4-2.4V268.2l-14.4-14.4h-97.6
					C366,253.8,364.9,254.9,364.9,256.2z"/>
			</g>
			<g>
				<path fill="#FFFFFF" d="M479.3,268.2l-14.4-14.4v12c0,1.3,1.1,2.4,2.4,2.4H479.3z"/>
			</g>
		</g>
		<g>
			<g>
				<rect x="373.3" y="352.3" fill="#FFFFFF" width="41.5" height="3"/>
			</g>
			<g>
				<rect x="373.3" y="359" fill="#FFFFFF" width="41.5" height="3"/>
			</g>
			<g>
				<rect x="373.3" y="345.6" fill="#FFFFFF" width="41.5" height="3"/>
			</g>
			<g>
				<rect x="373.3" y="365.6" fill="#FFFFFF" width="41.5" height="3"/>
			</g>
		</g>
		<g>
			<g>
				<rect x="428.9" y="352.3" fill="#FFFFFF" width="41.5" height="3"/>
			</g>
			<g>
				<rect x="428.9" y="359" fill="#FFFFFF" width="41.5" height="3"/>
			</g>
			<g>
				<rect x="428.9" y="345.6" fill="#FFFFFF" width="41.5" height="3"/>
			</g>
			<g>
				<rect x="428.9" y="365.6" fill="#FFFFFF" width="41.5" height="3"/>
			</g>
		</g>
		<g>
			<path fill="#591B16" d="M371.7,283.3c0-4.1,3.1-6.9,7.2-6.9c3.2,0,5,1.8,5.8,3.6l-3,1.4c-0.4-1.1-1.6-1.9-2.9-1.9
				c-2.2,0-3.7,1.7-3.7,3.9c0,2.2,1.5,3.9,3.7,3.9c1.3,0,2.4-0.9,2.9-1.9l3,1.4c-0.9,1.7-2.6,3.6-5.8,3.6
				C374.8,290.2,371.7,287.4,371.7,283.3z"/>
			<path fill="#591B16" d="M394.7,290l-2.2-4.5h-1.8v4.5h-3.4v-13.3h6.7c3,0,4.6,2,4.6,4.4c0,2.3-1.4,3.6-2.7,4l2.7,4.9H394.7z
				 M395,281.1c0-0.9-0.7-1.4-1.7-1.4h-2.7v2.9h2.7C394.3,282.5,395,282,395,281.1z"/>
			<path fill="#591B16" d="M401.4,290v-13.3h9.8v3h-6.3v2.1h6.2v3h-6.2v2.3h6.3v3H401.4z"/>
			<path fill="#591B16" d="M423.3,290l-0.7-1.9h-5.3l-0.7,1.9h-3.9l5-13.3h4.3l5,13.3H423.3z M420,280.1l-1.7,5h3.4L420,280.1z"/>
			<path fill="#591B16" d="M430.9,290v-10.3h-3.7v-3h10.9v3h-3.7V290H430.9z"/>
			<path fill="#591B16" d="M440.7,290v-13.3h3.4V290H440.7z"/>
			<path fill="#591B16" d="M451.1,290l-5-13.3h3.9l3.3,9.6l3.3-9.6h3.9l-5,13.3H451.1z"/>
			<path fill="#591B16" d="M462.5,290v-13.3h9.8v3h-6.3v2.1h6.2v3h-6.2v2.3h6.3v3H462.5z"/>
			<path fill="#591B16" d="M394.7,314v-13.3h7.6c2.7,0,3.9,1.7,3.9,3.4c0,1.7-1,2.8-2.3,3.1c1.4,0.2,2.5,1.6,2.5,3.3
				c0,1.9-1.3,3.6-3.9,3.6H394.7z M402.7,304.7c0-0.6-0.5-1-1.2-1h-3.3v2.1h3.3C402.2,305.7,402.7,305.4,402.7,304.7z M402.9,309.9
				c0-0.7-0.5-1.1-1.3-1.1h-3.5v2.3h3.5C402.4,311,402.9,310.6,402.9,309.9z"/>
			<path fill="#591B16" d="M409.2,314v-13.3h3.4V311h5.4v3H409.2z"/>
			<path fill="#591B16" d="M419.6,307.3c0-4.1,3.1-6.9,7.1-6.9s7.1,2.8,7.1,6.9c0,4.1-3,6.9-7.1,6.9S419.6,311.4,419.6,307.3z
				 M430.4,307.3c0-2.2-1.4-3.9-3.6-3.9c-2.2,0-3.6,1.7-3.6,3.9c0,2.2,1.4,3.9,3.6,3.9C429,311.2,430.4,309.5,430.4,307.3z"/>
			<path fill="#591B16" d="M436,307.3c0-4.1,3.1-6.9,7.1-6.9s7.1,2.8,7.1,6.9c0,1.8-0.6,3.4-1.7,4.6l0.8,1l-2.4,1.9l-1-1.2
				c-0.9,0.3-1.9,0.5-2.9,0.5C439,314.2,436,311.4,436,307.3z M443.9,311.1l-1.2-1.5l2.4-1.9l1.3,1.5c0.3-0.6,0.4-1.2,0.4-1.9
				c0-2.2-1.4-3.9-3.6-3.9c-2.2,0-3.6,1.7-3.6,3.9c0,2.2,1.4,3.9,3.6,3.9C443.4,311.2,443.6,311.2,443.9,311.1z"/>
		</g>
		<g>
			<rect x="374.8" y="321.5" fill="#591B16" width="95.5" height="15.7"/>
		</g>
	</g>
	<g>
		<g>
			<g>
				<path fill="#E2E2E2" d="M223.9,256.2v118.6c0,1.3,1.1,2.4,2.4,2.4h109.7c1.3,0,2.4-1.1,2.4-2.4V268.2l-14.4-14.4h-97.6
					C225,253.8,223.9,254.9,223.9,256.2z"/>
			</g>
			<g>
				<path fill="#FFFFFF" d="M338.3,268.2l-14.4-14.4v12c0,1.3,1.1,2.4,2.4,2.4H338.3z"/>
			</g>
		</g>
		<g>
			<path fill="#591B16" d="M261,347.1v-18.6h-19.2v18.6h-11.9v-46.3h11.9v17.3H261v-17.3H273v46.3H261z"/>
			<path fill="#591B16" d="M282.4,324c0-14.1,10.6-24,24.8-24s24.7,9.9,24.7,24c0,6.4-2.2,11.9-5.8,16l2.9,3.5l-8.3,6.7l-3.5-4.2
				c-3.1,1.2-6.5,1.9-10.1,1.9C293,348,282.4,338.1,282.4,324z M309.9,337.1l-4.2-5.1l8.3-6.7l4.4,5.3c0.9-1.9,1.5-4.2,1.5-6.6
				c0-7.6-4.9-13.4-12.6-13.4c-7.6,0-12.6,5.8-12.6,13.4c0,7.5,5,13.4,12.6,13.4C308.1,337.4,309,337.3,309.9,337.1z"/>
		</g>
		<g>
			<rect x="228.4" y="365.6" fill="#FFFFFF" width="97.7" height="3"/>
		</g>
		<g>
			<rect x="228.4" y="355.6" fill="#FFFFFF" width="98.7" height="3"/>
		</g>
		<g>
			<path fill="#591B16" d="M229,288.5v-10.7h2.8v10.7H229z"/>
			<path fill="#591B16" d="M241.8,288.5l-4.5-6.2v6.2h-2.8v-10.7h2.8l4.3,5.9v-5.9h2.8v10.7H241.8z"/>
			<path fill="#591B16" d="M249.5,288.5v-8.3h-3v-2.4h8.7v2.4h-3v8.3H249.5z"/>
			<path fill="#591B16" d="M257.4,288.5v-10.7h7.8v2.4h-5.1v1.7h5v2.4h-5v1.8h5.1v2.4H257.4z"/>
			<path fill="#591B16" d="M267.5,288.5v-10.7h2.8v8.3h4.3v2.4H267.5z"/>
			<path fill="#591B16" d="M276.7,288.5v-10.7h2.8v8.3h4.3v2.4H276.7z"/>
			<path fill="#591B16" d="M286,288.5v-10.7h2.8v10.7H286z"/>
			<path fill="#591B16" d="M290.9,283.2c0-3.4,2.6-5.5,5.8-5.5c2.4,0,3.8,1.3,4.6,2.6l-2.3,1.2c-0.4-0.7-1.2-1.4-2.3-1.4
				c-1.7,0-3,1.3-3,3.1c0,1.7,1.2,3.1,3,3.1c0.8,0,1.6-0.3,2-0.6v-0.8h-2.4v-2.4h5.2v4.2c-1.1,1.3-2.7,2.1-4.7,2.1
				C293.5,288.7,290.9,286.6,290.9,283.2z"/>
			<path fill="#591B16" d="M303.8,288.5v-10.7h7.8v2.4h-5.1v1.7h5v2.4h-5v1.8h5.1v2.4H303.8z"/>
			<path fill="#591B16" d="M321.3,288.5l-4.5-6.2v6.2h-2.8v-10.7h2.8l4.3,5.9v-5.9h2.8v10.7H321.3z"/>
			<path fill="#591B16" d="M329.1,288.5v-8.3h-3v-2.4h8.7v2.4h-3v8.3H329.1z"/>
		</g>
	</g>
	<g>
		<g>
			<g>
				<path fill="#E2E2E2" d="M82.9,256.2v118.6c0,1.3,1.1,2.4,2.4,2.4h109.7c1.3,0,2.4-1.1,2.4-2.4V268.2l-14.4-14.4H85.3
					C83.9,253.8,82.9,254.9,82.9,256.2z"/>
			</g>
			<g>
				<path fill="#FFFFFF" d="M197.3,268.2l-14.4-14.4v12c0,1.3,1.1,2.4,2.4,2.4H197.3z"/>
			</g>
		</g>
		<g>
			<rect x="87.4" y="365.6" fill="#FFFFFF" width="84.7" height="3"/>
		</g>
		<g>
			<rect x="87.4" y="355.6" fill="#FFFFFF" width="50" height="3"/>
		</g>
		<g>
			<rect x="87.4" y="345.6" fill="#FFFFFF" width="66.6" height="3"/>
		</g>
		<g>
			<rect x="87.4" y="299" fill="#FFFFFF" width="102.7" height="3"/>
		</g>
		<g>
			<path fill="#591B16" d="M94.7,291.9V264h15.8c5.5,0,8.1,3.6,8.1,7.1c0,3.5-2.1,5.8-4.8,6.4c3,0.5,5.3,3.3,5.3,6.8
				c0,4-2.7,7.5-8.2,7.5H94.7z M111.3,272.5c0-1.3-1-2.2-2.5-2.2h-7v4.3h7C110.3,274.6,111.3,273.8,111.3,272.5z M111.9,283.2
				c0-1.4-1-2.3-2.8-2.3h-7.2v4.7h7.2C110.8,285.6,111.9,284.7,111.9,283.2z"/>
			<path fill="#591B16" d="M125.2,291.9V264h15.8c5.5,0,8.1,3.6,8.1,7.1c0,3.5-2.1,5.8-4.8,6.4c3,0.5,5.3,3.3,5.3,6.8
				c0,4-2.7,7.5-8.2,7.5H125.2z M141.8,272.5c0-1.3-1-2.2-2.5-2.2h-7v4.3h7C140.8,274.6,141.8,273.8,141.8,272.5z M142.3,283.2
				c0-1.4-1-2.3-2.8-2.3h-7.2v4.7h7.2C141.3,285.6,142.3,284.7,142.3,283.2z"/>
			<path fill="#591B16" d="M154.2,278c0-8.6,6.5-14.4,15.1-14.4c6.7,0,10.3,3.8,12.1,7.4l-6.2,3c-0.9-2.2-3.3-4-6-4
				c-4.5,0-7.8,3.5-7.8,8c0,4.5,3.2,8,7.8,8c2.7,0,5-1.8,6-4l6.2,2.9c-1.8,3.5-5.4,7.5-12.1,7.5C160.7,292.4,154.2,286.5,154.2,278z
				"/>
		</g>
	</g>
	<g>
		<g>
			<g>
				<path fill="#E2E2E2" d="M646.9,256.2v118.6c0,1.3,1.1,2.4,2.4,2.4H759c1.3,0,2.4-1.1,2.4-2.4V268.2l-14.4-14.4h-97.6
					C648,253.8,646.9,254.9,646.9,256.2z"/>
			</g>
			<g>
				<path fill="#FFFFFF" d="M761.4,268.2l-14.4-14.4v12c0,1.3,1.1,2.4,2.4,2.4H761.4z"/>
			</g>
		</g>
		<g>
			<rect x="651.4" y="299" fill="#FFFFFF" width="102.7" height="3"/>
		</g>
		<g>
			<rect x="651.4" y="306.6" fill="#FFFFFF" width="102.7" height="3"/>
		</g>
		<g>
			<rect x="651.4" y="329.1" fill="#FFFFFF" width="42.3" height="3"/>
		</g>
		<g>
			<rect x="651.4" y="338.2" fill="#FFFFFF" width="42.3" height="3"/>
		</g>
		<g>
			<rect x="651.4" y="347.4" fill="#FFFFFF" width="42.3" height="3"/>
		</g>
		<g>
			<rect x="651.4" y="356.5" fill="#FFFFFF" width="42.3" height="3"/>
		</g>
		<g>
			<rect x="651.4" y="320" fill="#FFFFFF" width="42.3" height="3"/>
		</g>
		<g>
			<rect x="651.4" y="365.6" fill="#FFFFFF" width="42.3" height="3"/>
		</g>
		<g>
			<path fill="#591B16" d="M655.5,291.9v-13.4h-4.9v-3.9h14.2v3.9H660v13.4H655.5z"/>
			<path fill="#591B16" d="M668.3,291.9v-17.3h4.5v17.3H668.3z"/>
			<path fill="#591B16" d="M689,291.9l-7.3-10v10h-4.5v-17.3h4.6l7,9.5v-9.5h4.5v17.3H689z"/>
			<path fill="#591B16" d="M702.4,291.9v-7l-6.6-10.3h5l3.8,6.4l3.7-6.4h5.1l-6.6,10.3v7H702.4z"/>
			<path fill="#591B16" d="M727.7,291.9v-7h-7.2v7H716v-17.3h4.5v6.5h7.2v-6.5h4.5v17.3H727.7z"/>
			<path fill="#591B16" d="M746.3,291.9l-2.9-5.8h-2.3v5.8h-4.5v-17.3h8.7c3.8,0,6,2.5,6,5.8c0,3-1.8,4.6-3.5,5.2l3.5,6.4H746.3z
				 M746.8,280.3c0-1.2-1-1.8-2.2-1.8h-3.5v3.7h3.5C745.8,282.1,746.8,281.5,746.8,280.3z"/>
		</g>
		<g>
			<rect x="707.7" y="345.3" fill="#591B16" width="46.5" height="23.8"/>
		</g>
		<g>
			<rect x="707.7" y="318.7" fill="#591B16" width="46.5" height="18.4"/>
		</g>
	</g>
	<g>
		<g>
			<g>
				<path fill="#E2E2E2" d="M505.9,446.5V565c0,1.3,1.1,2.4,2.4,2.4H618c1.3,0,2.4-1.1,2.4-2.4V458.5l-14.4-14.4h-97.6
					C507,444.1,505.9,445.1,505.9,446.5z"/>
			</g>
			<g>
				<path fill="#FFFFFF" d="M620.3,458.5l-14.4-14.4v12c0,1.3,1.1,2.4,2.4,2.4H620.3z"/>
			</g>
		</g>
		<g>
			<rect x="510.4" y="555.9" fill="#FFFFFF" width="84.7" height="3"/>
		</g>
		<g>
			<rect x="510.4" y="545.9" fill="#FFFFFF" width="50" height="3"/>
		</g>
		<g>
			<rect x="510.4" y="535.9" fill="#FFFFFF" width="66.6" height="3"/>
		</g>
		<g>
			<rect x="510.4" y="512.6" fill="#FFFFFF" width="102.7" height="3"/>
		</g>
		<g>
			<rect x="510.4" y="518.6" fill="#FFFFFF" width="102.7" height="3"/>
		</g>
		<g>
			<path fill="#591B16" d="M520.7,482.1l-4.8-12.7h3.7l3.1,9.1l3.1-9.1h3.7l-4.8,12.7H520.7z"/>
			<path fill="#591B16" d="M531.5,482.1v-12.7h3.3v12.7H531.5z"/>
			<path fill="#591B16" d="M545.1,482.1l-2.1-4.3h-1.7v4.3H538v-12.7h6.3c2.8,0,4.4,1.9,4.4,4.2c0,2.2-1.3,3.4-2.5,3.8l2.6,4.7
				H545.1z M545.4,473.6c0-0.9-0.7-1.3-1.6-1.3h-2.6v2.7h2.6C544.7,475,545.4,474.5,545.4,473.6z"/>
			<path fill="#591B16" d="M554.1,482.1v-9.8h-3.6v-2.8h10.4v2.8h-3.5v9.8H554.1z"/>
			<path fill="#591B16" d="M563.4,477v-7.5h3.3v7.4c0,1.5,0.9,2.6,2.7,2.6c1.7,0,2.7-1.1,2.7-2.6v-7.4h3.3v7.5c0,3.2-1.9,5.4-6,5.4
				S563.4,480.1,563.4,477z"/>
			<path fill="#591B16" d="M578,475.8c0-3.9,2.9-6.6,6.8-6.6c3.9,0,6.8,2.7,6.8,6.6s-2.9,6.6-6.8,6.6
				C580.9,482.3,578,479.7,578,475.8z M588.2,475.8c0-2.1-1.3-3.7-3.4-3.7s-3.5,1.6-3.5,3.7c0,2.1,1.4,3.7,3.5,3.7
				S588.2,477.8,588.2,475.8z"/>
			<path fill="#591B16" d="M593.2,480.3l1.7-2.5c0.9,0.9,2.3,1.7,4.1,1.7c1.1,0,1.8-0.4,1.8-1c0-1.7-7.2-0.3-7.2-5.2
				c0-2.1,1.8-4,5-4c2,0,3.8,0.6,5.1,1.8l-1.8,2.5c-1.1-0.9-2.5-1.3-3.7-1.3c-1,0-1.4,0.3-1.4,0.9c0,1.6,7.2,0.4,7.2,5.1
				c0,2.5-1.9,4.2-5.3,4.2C596.3,482.3,594.5,481.5,593.2,480.3z"/>
			<path fill="#591B16" d="M606.6,482.1v-12.7h3.3v12.7H606.6z"/>
			<path fill="#591B16" d="M533.3,506.1v-12.8l-4.9,12.8h-2.2l-4.9-12.8v12.8h-5v-19.3h6.9l4.1,10.7l4-10.7h6.9v19.3H533.3z"/>
			<path fill="#591B16" d="M543.2,506.1v-19.3h14.2v4.4h-9.2v3h9v4.4h-9v3.3h9.2v4.4H543.2z"/>
			<path fill="#591B16" d="M561.7,506.1v-19.3h8.1c6.1,0,10.5,3.7,10.5,9.7c0,6-4.4,9.7-10.4,9.7H561.7z M575.2,496.4
				c0-3-1.8-5.3-5.3-5.3h-3.2v10.6h3.1C573.2,501.8,575.2,499.3,575.2,496.4z"/>
			<path fill="#591B16" d="M584.2,506.1v-19.3h5v19.3H584.2z"/>
			<path fill="#591B16" d="M607.3,506.1l-1-2.8h-7.6l-1,2.8h-5.7l7.3-19.3h6.3l7.3,19.3H607.3z M602.5,491.7l-2.5,7.3h4.9
				L602.5,491.7z"/>
		</g>
	</g>
	<g>
		<g>
			<g>
				<path fill="#E2E2E2" d="M364.9,446.5V565c0,1.3,1.1,2.4,2.4,2.4H477c1.3,0,2.4-1.1,2.4-2.4V458.5l-14.4-14.4h-97.6
					C366,444.1,364.9,445.1,364.9,446.5z"/>
			</g>
			<g>
				<path fill="#FFFFFF" d="M479.3,458.5l-14.4-14.4v12c0,1.3,1.1,2.4,2.4,2.4H479.3z"/>
			</g>
		</g>
		<g>
			<rect x="373.3" y="524.6" fill="#FFFFFF" width="97" height="3"/>
		</g>
		<g>
			<rect x="373.3" y="530.6" fill="#FFFFFF" width="97" height="3"/>
		</g>
		<g>
			<rect x="373.3" y="536.6" fill="#FFFFFF" width="97" height="3"/>
		</g>
		<g>
			<rect x="373.3" y="542.6" fill="#FFFFFF" width="97" height="3"/>
		</g>
		<g>
			<rect x="373.3" y="548.6" fill="#FFFFFF" width="97" height="3"/>
		</g>
		<g>
			<rect x="373.3" y="554.6" fill="#FFFFFF" width="97" height="3"/>
		</g>
		<g>
			<rect x="373.3" y="560.6" fill="#FFFFFF" width="97" height="3"/>
		</g>
		<g>
			<path fill="#591B16" d="M373.5,485.6v-18h4.6v18H373.5z"/>
			<path fill="#591B16" d="M398.5,485.6v-11.9l-4.5,11.9h-2.1l-4.6-11.9v11.9h-4.6v-18h6.5l3.8,9.9l3.8-9.9h6.5v18H398.5z"/>
			<path fill="#591B16" d="M407.7,485.6v-18h13.2v4h-8.6v2.8h8.4v4.1h-8.4v3h8.6v4H407.7z"/>
			<path fill="#591B16" d="M425,485.6v-18h7.6c5.7,0,9.7,3.4,9.7,9s-4.1,9-9.7,9H425z M437.5,476.6c0-2.8-1.7-4.9-5-4.9h-2.9v9.9
				h2.9C435.7,481.5,437.5,479.3,437.5,476.6z"/>
			<path fill="#591B16" d="M446,485.6v-18h4.6v18H446z"/>
			<path fill="#591B16" d="M467.4,485.6l-0.9-2.6h-7.1l-0.9,2.6h-5.3l6.8-18h5.9l6.8,18H467.4z M463,472.2l-2.3,6.8h4.6L463,472.2z"
				/>
			<path fill="#591B16" d="M373.1,497.7c0-2.9,2.2-4.8,5.1-4.8c2.3,0,3.5,1.3,4.1,2.5l-2.1,1c-0.3-0.7-1.1-1.4-2-1.4
				c-1.5,0-2.6,1.2-2.6,2.7c0,1.5,1.1,2.7,2.6,2.7c0.9,0,1.7-0.6,2-1.4l2.1,1c-0.6,1.2-1.8,2.5-4.1,2.5
				C375.3,502.6,373.1,500.6,373.1,497.7z"/>
			<path fill="#591B16" d="M383.5,497.7c0-2.8,2.1-4.8,5-4.8c2.9,0,5,2,5,4.8c0,2.8-2.1,4.8-5,4.8
				C385.6,502.6,383.5,500.6,383.5,497.7z M391,497.7c0-1.5-1-2.7-2.5-2.7c-1.5,0-2.5,1.2-2.5,2.7c0,1.5,1,2.7,2.5,2.7
				C390,500.4,391,499.2,391,497.7z"/>
			<path fill="#591B16" d="M401.7,502.4l-3.9-5.4v5.4h-2.4v-9.3h2.5l3.8,5.1v-5.1h2.4v9.3H401.7z"/>
			<path fill="#591B16" d="M412.8,502.4l-4-5.4v5.4h-2.4v-9.3h2.5l3.8,5.1v-5.1h2.4v9.3H412.8z"/>
			<path fill="#591B16" d="M417.5,502.4v-9.3h6.9v2.1h-4.4v1.5h4.3v2.1h-4.3v1.6h4.4v2.1H417.5z"/>
			<path fill="#591B16" d="M426,497.7c0-2.9,2.2-4.8,5.1-4.8c2.3,0,3.5,1.3,4.1,2.5l-2.1,1c-0.3-0.7-1.1-1.4-2-1.4
				c-1.5,0-2.6,1.2-2.6,2.7c0,1.5,1.1,2.7,2.6,2.7c0.9,0,1.7-0.6,2-1.4l2.1,1c-0.6,1.2-1.8,2.5-4.1,2.5
				C428.2,502.6,426,500.6,426,497.7z"/>
			<path fill="#591B16" d="M438.9,502.4v-7.2h-2.6v-2.1h7.6v2.1h-2.6v7.2H438.9z"/>
			<path fill="#591B16" d="M445.8,502.4v-9.3h2.4v9.3H445.8z"/>
			<path fill="#591B16" d="M450.1,497.7c0-2.8,2.1-4.8,5-4.8s5,2,5,4.8c0,2.8-2.1,4.8-5,4.8S450.1,500.6,450.1,497.7z M457.6,497.7
				c0-1.5-1-2.7-2.5-2.7s-2.5,1.2-2.5,2.7c0,1.5,1,2.7,2.5,2.7S457.6,499.2,457.6,497.7z"/>
			<path fill="#591B16" d="M468.4,502.4l-4-5.4v5.4H462v-9.3h2.5l3.8,5.1v-5.1h2.4v9.3H468.4z"/>
		</g>
		<g>
			<rect x="373.3" y="508.7" fill="#591B16" width="45.8" height="10.7"/>
		</g>
		<g>
			<rect x="426" y="508.7" fill="#591B16" width="42.8" height="10.7"/>
		</g>
	</g>
	<g>
		<g>
			<g>
				<path fill="#E2E2E2" d="M223.9,446.5V565c0,1.3,1.1,2.4,2.4,2.4h109.7c1.3,0,2.4-1.1,2.4-2.4V458.5l-14.4-14.4h-97.6
					C225,444.1,223.9,445.1,223.9,446.5z"/>
			</g>
			<g>
				<path fill="#FFFFFF" d="M338.3,458.5l-14.4-14.4v12c0,1.3,1.1,2.4,2.4,2.4H338.3z"/>
			</g>
		</g>
		<g>
			<rect x="228.4" y="527.4" fill="#FFFFFF" width="50" height="3"/>
		</g>
		<g>
			<rect x="228.4" y="532.1" fill="#FFFFFF" width="50" height="3"/>
		</g>
		<g>
			<rect x="228.4" y="536.9" fill="#FFFFFF" width="50" height="3"/>
		</g>
		<g>
			<rect x="228.4" y="541.6" fill="#FFFFFF" width="50" height="3"/>
		</g>
		<g>
			<rect x="228.4" y="546.4" fill="#FFFFFF" width="50" height="3"/>
		</g>
		<g>
			<rect x="228.4" y="551.1" fill="#FFFFFF" width="50" height="3"/>
		</g>
		<g>
			<rect x="228.4" y="555.9" fill="#FFFFFF" width="50" height="3"/>
		</g>
		<g>
			<rect x="228.4" y="522.6" fill="#FFFFFF" width="50" height="3"/>
		</g>
		<g>
			<rect x="284" y="527.4" fill="#FFFFFF" width="50" height="3"/>
		</g>
		<g>
			<rect x="284" y="532.1" fill="#FFFFFF" width="50" height="3"/>
		</g>
		<g>
			<rect x="284" y="536.9" fill="#FFFFFF" width="50" height="3"/>
		</g>
		<g>
			<rect x="284" y="541.6" fill="#FFFFFF" width="50" height="3"/>
		</g>
		<g>
			<rect x="284" y="546.4" fill="#FFFFFF" width="50" height="3"/>
		</g>
		<g>
			<rect x="284" y="551.1" fill="#FFFFFF" width="50" height="3"/>
		</g>
		<g>
			<rect x="284" y="555.9" fill="#FFFFFF" width="50" height="3"/>
		</g>
		<g>
			<rect x="284" y="522.6" fill="#FFFFFF" width="50" height="3"/>
		</g>
		<g>
			<rect x="228.4" y="504.2" fill="#FFFFFF" width="102.7" height="3"/>
		</g>
		<g>
			<rect x="228.4" y="511.6" fill="#FFFFFF" width="102.7" height="3"/>
		</g>
		<g>
			<path fill="#591B16" d="M236.8,478.2l1.5-2.1c0.8,0.8,2,1.4,3.4,1.4c0.9,0,1.5-0.3,1.5-0.8c0-1.4-6-0.2-6-4.4
				c0-1.8,1.5-3.4,4.2-3.4c1.7,0,3.2,0.5,4.3,1.5l-1.5,2.1c-0.9-0.8-2.1-1.1-3.1-1.1c-0.8,0-1.2,0.3-1.2,0.7c0,1.3,6,0.3,6,4.3
				c0,2.1-1.6,3.6-4.4,3.6C239.4,479.9,237.9,479.2,236.8,478.2z"/>
			<path fill="#591B16" d="M257.4,479.7v-7.1l-2.7,7.1h-1.2l-2.7-7.1v7.1H248v-10.7h3.8l2.2,5.9l2.2-5.9h3.8v10.7H257.4z"/>
			<path fill="#591B16" d="M270.1,479.7l-0.5-1.5h-4.2l-0.5,1.5h-3.1l4-10.7h3.5l4,10.7H270.1z M267.5,471.8l-1.4,4h2.7L267.5,471.8
				z"/>
			<path fill="#591B16" d="M274,478.2l1.5-2.1c0.8,0.8,2,1.4,3.4,1.4c0.9,0,1.5-0.3,1.5-0.8c0-1.4-6-0.2-6-4.4
				c0-1.8,1.5-3.4,4.2-3.4c1.7,0,3.2,0.5,4.3,1.5l-1.5,2.1c-0.9-0.8-2.1-1.1-3.1-1.1c-0.8,0-1.2,0.3-1.2,0.7c0,1.3,6,0.3,6,4.3
				c0,2.1-1.6,3.6-4.4,3.6C276.6,479.9,275.1,479.2,274,478.2z"/>
			<path fill="#591B16" d="M292.4,479.7v-4.3H288v4.3h-2.8v-10.7h2.8v4h4.4v-4h2.8v10.7H292.4z"/>
			<path fill="#591B16" d="M297.9,479.7v-10.7h2.8v10.7H297.9z"/>
			<path fill="#591B16" d="M310.7,479.7l-4.5-6.2v6.2h-2.8v-10.7h2.8l4.3,5.9v-5.9h2.8v10.7H310.7z"/>
			<path fill="#591B16" d="M315.5,474.4c0-3.4,2.6-5.5,5.8-5.5c2.4,0,3.8,1.3,4.6,2.6l-2.3,1.2c-0.4-0.7-1.2-1.4-2.3-1.4
				c-1.7,0-3,1.3-3,3.1c0,1.7,1.2,3.1,3,3.1c0.8,0,1.6-0.3,2-0.6V476h-2.4v-2.4h5.2v4.2c-1.1,1.3-2.7,2.1-4.7,2.1
				C318.1,479.9,315.5,477.8,315.5,474.4z"/>
			<path fill="#591B16" d="M247.8,498.9v-7.1l-2.7,7.1h-1.2l-2.7-7.1v7.1h-2.8v-10.7h3.8l2.2,5.9l2.2-5.9h3.8v10.7H247.8z"/>
			<path fill="#591B16" d="M260.5,498.9l-0.5-1.5h-4.2l-0.5,1.5h-3.1l4-10.7h3.5l4,10.7H260.5z M257.9,491l-1.4,4h2.7L257.9,491z"/>
			<path fill="#591B16" d="M264.1,493.6c0-3.4,2.6-5.5,5.8-5.5c2.4,0,3.8,1.3,4.6,2.6l-2.3,1.2c-0.4-0.7-1.2-1.4-2.3-1.4
				c-1.7,0-3,1.3-3,3.1c0,1.7,1.2,3.1,3,3.1c0.8,0,1.6-0.3,2-0.6v-0.8h-2.4v-2.4h5.2v4.2c-1.1,1.3-2.7,2.1-4.7,2.1
				C266.7,499.1,264.1,497,264.1,493.6z"/>
			<path fill="#591B16" d="M284.2,498.9l-0.5-1.5h-4.2l-0.5,1.5h-3.1l4-10.7h3.5l4,10.7H284.2z M281.5,491l-1.4,4h2.7L281.5,491z"/>
			<path fill="#591B16" d="M288.5,498.9v-2.2l4.5-6.1h-4.5v-2.4h8.2v2.2l-4.6,6.1h4.7v2.4H288.5z"/>
			<path fill="#591B16" d="M299.2,498.9v-10.7h2.8v10.7H299.2z"/>
			<path fill="#591B16" d="M311.9,498.9l-4.5-6.2v6.2h-2.8v-10.7h2.8l4.3,5.9v-5.9h2.8v10.7H311.9z"/>
			<path fill="#591B16" d="M317.3,498.9v-10.7h7.8v2.4h-5.1v1.7h5v2.4h-5v1.8h5.1v2.4H317.3z"/>
		</g>
	</g>
	<g>
		<g>
			<g>
				<path fill="#E2E2E2" d="M82.9,446.5V565c0,1.3,1.1,2.4,2.4,2.4h109.7c1.3,0,2.4-1.1,2.4-2.4V458.5l-14.4-14.4H85.3
					C83.9,444.1,82.9,445.1,82.9,446.5z"/>
			</g>
			<g>
				<path fill="#FFFFFF" d="M197.3,458.5l-14.4-14.4v12c0,1.3,1.1,2.4,2.4,2.4H197.3z"/>
			</g>
		</g>
		<g>
			<path fill="#591B16" d="M96.7,539.5v-56h14.4v56H96.7z"/>
			<path fill="#591B16" d="M163.6,539.5l-23.7-32.4v32.4h-14.4v-56h14.9l22.7,30.8v-30.8h14.5v56H163.6z"/>
		</g>
		<g>
			<path fill="#591B16" d="M96,470.6l1.6-2.4c0.9,0.9,2.2,1.6,3.8,1.6c1,0,1.7-0.4,1.7-0.9c0-1.6-6.7-0.3-6.7-4.9
				c0-2,1.7-3.8,4.7-3.8c1.9,0,3.6,0.6,4.8,1.7l-1.7,2.3c-1-0.8-2.3-1.3-3.5-1.3c-0.9,0-1.3,0.3-1.3,0.8c0,1.5,6.7,0.4,6.7,4.8
				c0,2.4-1.8,4-5,4C98.8,472.5,97.2,471.8,96,470.6z"/>
			<path fill="#591B16" d="M110.9,472.3v-9.2h-3.3v-2.7h9.7v2.7H114v9.2H110.9z"/>
			<path fill="#591B16" d="M126.7,472.3l-0.6-1.7h-4.7l-0.6,1.7h-3.5l4.5-11.9h3.9l4.5,11.9H126.7z M123.7,463.4l-1.5,4.5h3
				L123.7,463.4z"/>
			<path fill="#591B16" d="M138.6,472.3l-2-4H135v4h-3.1v-11.9h6c2.6,0,4.1,1.8,4.1,4c0,2.1-1.3,3.2-2.4,3.6l2.4,4.4H138.6z
				 M138.9,464.3c0-0.8-0.7-1.3-1.5-1.3H135v2.6h2.4C138.2,465.6,138.9,465.2,138.9,464.3z"/>
			<path fill="#591B16" d="M147.1,472.3v-9.2h-3.3v-2.7h9.7v2.7h-3.3v9.2H147.1z"/>
			<path fill="#591B16" d="M155.9,472.3v-11.9h8.7v2.7h-5.7v1.9h5.5v2.7h-5.5v2h5.7v2.7H155.9z"/>
			<path fill="#591B16" d="M167.3,472.3v-11.9h5c3.8,0,6.5,2.3,6.5,6c0,3.7-2.7,6-6.4,6H167.3z M175.6,466.3c0-1.8-1.1-3.3-3.3-3.3
				h-1.9v6.6h1.9C174.4,469.6,175.6,468.1,175.6,466.3z"/>
		</g>
		<g>
			<path fill="#591B16" d="M94.6,558.5l1.8-2.6c0.9,0.9,2.4,1.7,4.2,1.7c1.1,0,1.8-0.4,1.8-1c0-1.7-7.4-0.3-7.4-5.3
				c0-2.2,1.8-4.2,5.2-4.2c2.1,0,3.9,0.6,5.3,1.8l-1.8,2.5c-1.1-0.9-2.5-1.4-3.8-1.4c-1,0-1.4,0.3-1.4,0.9c0,1.6,7.4,0.4,7.4,5.2
				c0,2.6-1.9,4.4-5.4,4.4C97.7,560.6,95.9,559.8,94.6,558.5z"/>
			<path fill="#591B16" d="M108.3,560.4v-13.1h9.6v2.9h-6.2v2h6.1v2.9h-6.1v2.2h6.2v2.9H108.3z"/>
			<path fill="#591B16" d="M129.7,560.4l-0.6-1.9h-5.1l-0.6,1.9h-3.8l4.9-13.1h4.2l4.9,13.1H129.7z M126.5,550.6l-1.7,4.9h3.3
				L126.5,550.6z"/>
			<path fill="#591B16" d="M137.2,560.4v-10.1h-3.7v-2.9h10.7v2.9h-3.6v10.1H137.2z"/>
			<path fill="#591B16" d="M149.7,560.4v-10.1H146v-2.9h10.7v2.9h-3.6v10.1H149.7z"/>
			<path fill="#591B16" d="M159.2,560.4v-13.1h3.4v10.1h5.2v2.9H159.2z"/>
			<path fill="#591B16" d="M170.5,560.4v-13.1h9.6v2.9h-6.2v2h6.1v2.9h-6.1v2.2h6.2v2.9H170.5z"/>
		</g>
	</g>
	<g>
		<g>
			<g>
				<path fill="#E2E2E2" d="M646.9,446.5V565c0,1.3,1.1,2.4,2.4,2.4H759c1.3,0,2.4-1.1,2.4-2.4V458.5l-14.4-14.4h-97.6
					C648,444.1,646.9,445.1,646.9,446.5z"/>
			</g>
			<g>
				<path fill="#FFFFFF" d="M761.4,458.5l-14.4-14.4v12c0,1.3,1.1,2.4,2.4,2.4H761.4z"/>
			</g>
		</g>
		<g>
			<path fill="#591B16" d="M652.9,471.5c0-6.6,5-11,11.6-11c5.2,0,7.9,2.9,9.3,5.7l-4.7,2.3c-0.7-1.7-2.5-3.1-4.6-3.1
				c-3.5,0-6,2.7-6,6.2c0,3.5,2.5,6.2,6,6.2c2,0,3.9-1.4,4.6-3.1l4.7,2.2c-1.4,2.7-4.2,5.7-9.3,5.7
				C657.9,482.5,652.9,478,652.9,471.5z"/>
			<path fill="#591B16" d="M677.6,482.1v-21.3h5.5v16.5h8.6v4.8H677.6z"/>
			<path fill="#591B16" d="M710.6,482.1l-1.1-3.1h-8.4l-1.1,3.1h-6.2l8-21.3h6.9l8,21.3H710.6z M705.4,466.2l-2.7,8h5.4L705.4,466.2
				z"/>
			<path fill="#591B16" d="M731.9,482.1l-3.6-7.2h-2.8v7.2H720v-21.3h10.7c4.7,0,7.4,3.1,7.4,7.1c0,3.7-2.2,5.7-4.3,6.4l4.4,7.8
				H731.9z M732.6,467.8c0-1.5-1.2-2.3-2.7-2.3h-4.4v4.6h4.4C731.4,470.2,732.6,469.4,732.6,467.8z"/>
			<path fill="#591B16" d="M742.8,482.1v-21.3h5.5v21.3H742.8z"/>
			<path fill="#591B16" d="M655.7,504.9v-9.8h-3.6v-2.8h10.4v2.8h-3.5v9.8H655.7z"/>
			<path fill="#591B16" d="M663.9,498.6c0-3.9,2.9-6.6,6.8-6.6c3.9,0,6.8,2.7,6.8,6.6s-2.9,6.6-6.8,6.6
				C666.8,505.1,663.9,502.5,663.9,498.6z M674.1,498.6c0-2.1-1.3-3.7-3.4-3.7s-3.5,1.6-3.5,3.7c0,2.1,1.4,3.7,3.5,3.7
				S674.1,500.6,674.1,498.6z"/>
			<path fill="#591B16" d="M680.1,504.9v-12.7h6.3c2.8,0,4.4,1.9,4.4,4.2c0,2.3-1.6,4.2-4.4,4.2h-3.1v4.3H680.1z M687.5,496.5
				c0-0.9-0.7-1.4-1.6-1.4h-2.6v2.7h2.6C686.8,497.8,687.5,497.3,687.5,496.5z"/>
			<path fill="#591B16" d="M700.5,504.9l-0.6-1.8h-5l-0.6,1.8h-3.7l4.8-12.7h4.1l4.8,12.7H700.5z M697.4,495.5l-1.6,4.8h3.2
				L697.4,495.5z"/>
			<path fill="#591B16" d="M706,504.9v-12.7h3.3v9.8h5.1v2.8H706z"/>
			<path fill="#591B16" d="M717,504.9v-12.7h3.3v12.7H717z"/>
			<path fill="#591B16" d="M732.1,504.9l-0.6-1.8h-5l-0.6,1.8h-3.7l4.8-12.7h4.1l4.8,12.7H732.1z M729,495.5l-1.6,4.8h3.2L729,495.5
				z"/>
			<path fill="#591B16" d="M746.3,504.9l-5.4-7.3v7.3h-3.3v-12.7h3.4l5.1,7v-7h3.3v12.7H746.3z"/>
		</g>
		<g>
			<rect x="651.4" y="523.4" fill="#FFFFFF" width="49.7" height="3"/>
		</g>
		<g>
			<rect x="651.4" y="534.3" fill="#FFFFFF" width="49.7" height="3"/>
		</g>
		<g>
			<rect x="651.4" y="545.1" fill="#FFFFFF" width="49.7" height="3"/>
		</g>
		<g>
			<rect x="651.4" y="555.9" fill="#FFFFFF" width="49.7" height="3"/>
		</g>
		<g>
			<rect x="651.4" y="512.6" fill="#FFFFFF" width="49.7" height="3"/>
		</g>
		<g>
			<rect x="706.1" y="523.4" fill="#FFFFFF" width="49.7" height="3"/>
		</g>
		<g>
			<rect x="706.1" y="534.3" fill="#FFFFFF" width="49.7" height="3"/>
		</g>
		<g>
			<rect x="706.1" y="545.1" fill="#FFFFFF" width="49.7" height="3"/>
		</g>
		<g>
			<rect x="706.1" y="555.9" fill="#FFFFFF" width="49.7" height="3"/>
		</g>
		<g>
			<rect x="706.1" y="512.6" fill="#FFFFFF" width="49.7" height="3"/>
		</g>
	</g>
	<g>
		<g>
			<g>
				<path fill="#E2E2E2" d="M505.9,637.1v118.6c0,1.3,1.1,2.4,2.4,2.4H618c1.3,0,2.4-1.1,2.4-2.4V649.1l-14.4-14.4h-97.6
					C507,634.7,505.9,635.8,505.9,637.1z"/>
			</g>
			<g>
				<path fill="#FFFFFF" d="M620.3,649.1l-14.4-14.4v12c0,1.3,1.1,2.4,2.4,2.4H620.3z"/>
			</g>
		</g>
		<g>
			<path fill="#591B16" d="M529.2,692.1l-14.3-38h11.1l9.4,27.4l9.3-27.4h11.1l-14.3,38H529.2z"/>
			<path fill="#591B16" d="M561.6,692.1v-38h9.8v38H561.6z"/>
			<path fill="#591B16" d="M579.9,692.1v-7.8l16.2-21.7h-16.2v-8.6H609v7.8l-16.2,21.7h16.6v8.6H579.9z"/>
			<path fill="#591B16" d="M533,719.7l-2.3-9.6l-2.3,9.6h-4.2l-4.4-15.3h4.4l2.3,10.2l2.6-10.2h3l2.6,10.2l2.3-10.2h4.5l-4.4,15.3
				H533z"/>
			<path fill="#591B16" d="M542.8,712c0-4.7,3.5-7.9,8.2-7.9s8.2,3.3,8.2,7.9s-3.5,7.9-8.2,7.9S542.8,716.7,542.8,712z M555.1,712
				c0-2.5-1.6-4.4-4.2-4.4s-4.2,1.9-4.2,4.4c0,2.5,1.7,4.4,4.2,4.4S555.1,714.5,555.1,712z"/>
			<path fill="#591B16" d="M570.9,719.7l-2.6-5.2h-2v5.2h-4v-15.3h7.7c3.4,0,5.3,2.3,5.3,5.1c0,2.7-1.6,4.1-3.1,4.6l3.1,5.6H570.9z
				 M571.3,709.4c0-1.1-0.8-1.6-1.9-1.6h-3.1v3.3h3.1C570.5,711.1,571.3,710.5,571.3,709.4z"/>
			<path fill="#591B16" d="M578.6,719.7v-15.3h4v11.9h6.2v3.4H578.6z"/>
			<path fill="#591B16" d="M591.9,719.7v-15.3h6.4c4.8,0,8.3,2.9,8.3,7.7s-3.5,7.7-8.3,7.7H591.9z M602.6,712c0-2.4-1.4-4.2-4.2-4.2
				h-2.5v8.4h2.5C601,716.2,602.6,714.3,602.6,712z"/>
		</g>
		<g>
			<rect x="552.7" y="726.2" fill="#591B16" width="24.2" height="27.2"/>
		</g>
		<g>
			<g>
				<rect x="518.3" y="730.6" fill="#FFFFFF" width="29.7" height="3"/>
			</g>
			<g>
				<rect x="518.3" y="734.7" fill="#FFFFFF" width="29.7" height="3"/>
			</g>
			<g>
				<rect x="518.3" y="738.7" fill="#FFFFFF" width="29.7" height="3"/>
			</g>
			<g>
				<rect x="518.3" y="742.8" fill="#FFFFFF" width="29.7" height="3"/>
			</g>
			<g>
				<rect x="518.3" y="746.9" fill="#FFFFFF" width="29.7" height="3"/>
			</g>
			<g>
				<rect x="518.3" y="726.5" fill="#FFFFFF" width="29.7" height="3"/>
			</g>
			<g>
				<rect x="518.3" y="751" fill="#FFFFFF" width="29.7" height="3"/>
			</g>
		</g>
		<g>
			<g>
				<rect x="582.2" y="730.6" fill="#FFFFFF" width="29.7" height="3"/>
			</g>
			<g>
				<rect x="582.2" y="734.7" fill="#FFFFFF" width="29.7" height="3"/>
			</g>
			<g>
				<rect x="582.2" y="738.7" fill="#FFFFFF" width="29.7" height="3"/>
			</g>
			<g>
				<rect x="582.2" y="742.8" fill="#FFFFFF" width="29.7" height="3"/>
			</g>
			<g>
				<rect x="582.2" y="746.9" fill="#FFFFFF" width="29.7" height="3"/>
			</g>
			<g>
				<rect x="582.2" y="726.5" fill="#FFFFFF" width="29.7" height="3"/>
			</g>
			<g>
				<rect x="582.2" y="751" fill="#FFFFFF" width="29.7" height="3"/>
			</g>
		</g>
	</g>
	<g>
		<g>
			<g>
				<path fill="#E2E2E2" d="M364.9,637.1v118.6c0,1.3,1.1,2.4,2.4,2.4H477c1.3,0,2.4-1.1,2.4-2.4V649.1l-14.4-14.4h-97.6
					C366,634.7,364.9,635.8,364.9,637.1z"/>
			</g>
			<g>
				<path fill="#FFFFFF" d="M479.3,649.1l-14.4-14.4v12c0,1.3,1.1,2.4,2.4,2.4H479.3z"/>
			</g>
		</g>
		<g>
			<rect x="376.3" y="718.6" fill="#FFFFFF" width="92.5" height="3"/>
		</g>
		<g>
			<rect x="376.3" y="723.2" fill="#FFFFFF" width="92.5" height="3"/>
		</g>
		<g>
			<rect x="376.3" y="727.9" fill="#FFFFFF" width="92.5" height="3"/>
		</g>
		<g>
			<rect x="376.3" y="732.5" fill="#FFFFFF" width="92.5" height="3"/>
		</g>
		<g>
			<rect x="376.3" y="737.2" fill="#FFFFFF" width="92.5" height="3"/>
		</g>
		<g>
			<rect x="376.3" y="741.9" fill="#FFFFFF" width="92.5" height="3"/>
		</g>
		<g>
			<rect x="376.3" y="713.9" fill="#FFFFFF" width="92.5" height="3"/>
		</g>
		<g>
			<rect x="376.3" y="746.5" fill="#FFFFFF" width="92.5" height="3"/>
		</g>
		<g>
			<path fill="#591B16" d="M375.2,667l1.9-2.8c1,1,2.6,1.9,4.5,1.9c1.2,0,2-0.4,2-1.1c0-1.9-7.9-0.3-7.9-5.7c0-2.4,2-4.5,5.6-4.5
				c2.3,0,4.2,0.7,5.7,2l-2,2.7c-1.2-1-2.7-1.5-4.1-1.5c-1.1,0-1.5,0.4-1.5,1c0,1.7,7.9,0.4,7.9,5.6c0,2.8-2.1,4.7-5.9,4.7
				C378.5,669.2,376.6,668.3,375.2,667z"/>
			<path fill="#591B16" d="M390,668.9v-14h10.3v3.2h-6.7v2.2h6.5v3.2h-6.5v2.4h6.7v3.2H390z"/>
			<path fill="#591B16" d="M413,668.9l-0.7-2h-5.5l-0.7,2h-4.1l5.3-14h4.6l5.3,14H413z M409.5,658.5l-1.8,5.3h3.6L409.5,658.5z"/>
			<path fill="#591B16" d="M421,668.9v-10.9h-3.9v-3.2h11.5v3.2h-3.9v10.9H421z"/>
			<path fill="#591B16" d="M434.5,668.9v-10.9h-3.9v-3.2H442v3.2h-3.9v10.9H434.5z"/>
			<path fill="#591B16" d="M444.7,668.9v-14h3.6v10.9h5.6v3.2H444.7z"/>
			<path fill="#591B16" d="M456.9,668.9v-14h10.3v3.2h-6.7v2.2h6.5v3.2h-6.5v2.4h6.7v3.2H456.9z"/>
			<path fill="#591B16" d="M402.8,703.7v-19l-7.3,19h-3.3l-7.3-19v19h-7.4v-28.8h10.3l6,15.9l6-15.9h10.3v28.8H402.8z"/>
			<path fill="#591B16" d="M417.6,703.7v-28.8h21.1v6.5H425v4.5h13.4v6.5H425v4.9h13.7v6.5H417.6z"/>
			<path fill="#591B16" d="M451.6,703.7v-22.3h-8.1v-6.5H467v6.5h-8v22.3H451.6z"/>
		</g>
	</g>
	<g>
		<g>
			<g>
				<path fill="#E2E2E2" d="M223.9,637.1v118.6c0,1.3,1.1,2.4,2.4,2.4h109.7c1.3,0,2.4-1.1,2.4-2.4V649.1l-14.4-14.4h-97.6
					C225,634.7,223.9,635.8,223.9,637.1z"/>
			</g>
			<g>
				<path fill="#FFFFFF" d="M338.3,649.1l-14.4-14.4v12c0,1.3,1.1,2.4,2.4,2.4H338.3z"/>
			</g>
		</g>
		<g>
			<rect x="228.4" y="736.5" fill="#FFFFFF" width="50" height="3"/>
		</g>
		<g>
			<rect x="228.4" y="743.5" fill="#FFFFFF" width="50" height="3"/>
		</g>
		<g>
			<rect x="228.4" y="729.5" fill="#FFFFFF" width="50" height="3"/>
		</g>
		<g>
			<rect x="284" y="736.5" fill="#FFFFFF" width="50" height="3"/>
		</g>
		<g>
			<rect x="284" y="743.5" fill="#FFFFFF" width="50" height="3"/>
		</g>
		<g>
			<rect x="284" y="729.5" fill="#FFFFFF" width="50" height="3"/>
		</g>
		<g>
			<path fill="#591B16" d="M245.9,665.8V657l-3.4,8.8h-1.5l-3.4-8.8v8.8h-3.4v-13.3h4.8l2.8,7.4l2.8-7.4h4.8v13.3H245.9z"/>
			<path fill="#591B16" d="M256.4,665.8v-5.4l-5.1-8h3.9l2.9,4.9l2.9-4.9h3.9l-5,8v5.4H256.4z"/>
			<path fill="#591B16" d="M234.2,689.8v-13.3h7.6c2.7,0,3.9,1.7,3.9,3.4c0,1.7-1,2.8-2.3,3.1c1.4,0.2,2.5,1.6,2.5,3.3
				c0,1.9-1.3,3.6-3.9,3.6H234.2z M242.2,680.5c0-0.6-0.5-1-1.2-1h-3.3v2.1h3.3C241.7,681.5,242.2,681.1,242.2,680.5z M242.5,685.6
				c0-0.7-0.5-1.1-1.3-1.1h-3.5v2.3h3.5C242,686.8,242.5,686.4,242.5,685.6z"/>
			<path fill="#591B16" d="M257.9,689.8l-0.7-1.9H252l-0.7,1.9h-3.9l5-13.3h4.3l5,13.3H257.9z M254.6,679.8l-1.7,5h3.4L254.6,679.8z
				"/>
			<path fill="#591B16" d="M263.7,689.8v-13.3h3.4v10.3h5.4v3H263.7z"/>
			<path fill="#591B16" d="M275.2,689.8v-13.3h3.4v10.3h5.4v3H275.2z"/>
			<path fill="#591B16" d="M295.8,689.8l-0.7-1.9h-5.3l-0.7,1.9h-3.9l5-13.3h4.3l5,13.3H295.8z M292.6,679.8l-1.7,5h3.4L292.6,679.8
				z"/>
			<path fill="#591B16" d="M309.2,689.8l-2.2-4.5h-1.8v4.5h-3.4v-13.3h6.7c3,0,4.6,2,4.6,4.4c0,2.3-1.4,3.6-2.7,4l2.7,4.9H309.2z
				 M309.5,680.9c0-0.9-0.7-1.4-1.7-1.4h-2.7v2.9h2.7C308.8,682.3,309.5,681.8,309.5,680.9z"/>
			<path fill="#591B16" d="M315.9,689.8v-13.3h5.6c4.2,0,7.2,2.5,7.2,6.7s-3,6.7-7.2,6.7H315.9z M325.2,683.1c0-2.1-1.2-3.7-3.7-3.7
				h-2.2v7.3h2.2C323.9,686.8,325.2,685.1,325.2,683.1z"/>
			<path fill="#591B16" d="M233.8,712.1c0-1,0.9-1.9,1.9-1.9c1,0,1.9,0.9,1.9,1.9c0,1-0.9,1.9-1.9,1.9
				C234.7,714,233.8,713.1,233.8,712.1z"/>
			<path fill="#591B16" d="M240,707.1c0-4.1,3.1-6.9,7.2-6.9c3.2,0,5,1.8,5.8,3.6l-3,1.4c-0.4-1.1-1.6-1.9-2.9-1.9
				c-2.2,0-3.7,1.7-3.7,3.9c0,2.2,1.5,3.9,3.7,3.9c1.3,0,2.4-0.9,2.9-1.9l3,1.4c-0.9,1.7-2.6,3.6-5.8,3.6
				C243.1,714,240,711.2,240,707.1z"/>
			<path fill="#591B16" d="M254.8,707.1c0-4.1,3.1-6.9,7.1-6.9s7.1,2.8,7.1,6.9c0,4.1-3,6.9-7.1,6.9S254.8,711.2,254.8,707.1z
				 M265.6,707.1c0-2.2-1.4-3.9-3.6-3.9s-3.6,1.7-3.6,3.9c0,2.2,1.4,3.9,3.6,3.9S265.6,709.3,265.6,707.1z"/>
			<path fill="#591B16" d="M283.5,713.8V705l-3.4,8.8h-1.5l-3.4-8.8v8.8h-3.4v-13.3h4.8l2.8,7.4l2.8-7.4h4.8v13.3H283.5z"/>
		</g>
		<g>
			<rect x="277.2" y="653.1" fill="#591B16" width="49.8" height="14.9"/>
		</g>
		<g>
			<rect x="293.4" y="700.5" fill="#591B16" width="33.7" height="14.9"/>
		</g>
	</g>
	<g>
		<g>
			<g>
				<path fill="#E2E2E2" d="M82.9,637.1v118.6c0,1.3,1.1,2.4,2.4,2.4h109.7c1.3,0,2.4-1.1,2.4-2.4V649.1l-14.4-14.4H85.3
					C83.9,634.7,82.9,635.8,82.9,637.1z"/>
			</g>
			<g>
				<path fill="#FFFFFF" d="M197.3,649.1l-14.4-14.4v12c0,1.3,1.1,2.4,2.4,2.4H197.3z"/>
			</g>
		</g>
		<g>
			<path fill="#591B16" d="M98.4,668.1v-15.3h7.7c3.4,0,5.3,2.3,5.3,5.1c0,2.8-1.9,5.1-5.3,5.1h-3.7v5.2H98.4z M107.4,657.8
				c0-1.1-0.9-1.7-1.9-1.7h-3.1v3.3h3.1C106.6,659.5,107.4,658.9,107.4,657.8z"/>
			<path fill="#591B16" d="M123.1,668.1l-0.8-2.2h-6l-0.8,2.2h-4.5l5.8-15.3h5l5.8,15.3H123.1z M119.4,656.6l-2,5.8h3.9L119.4,656.6
				z"/>
			<path fill="#591B16" d="M140.3,668.1l-6.5-8.9v8.9h-4v-15.3h4.1l6.2,8.4v-8.4h4v15.3H140.3z"/>
			<path fill="#591B16" d="M148.1,668.1v-15.3h6.4c4.8,0,8.3,2.9,8.3,7.7s-3.5,7.7-8.3,7.7H148.1z M158.8,660.4
				c0-2.4-1.4-4.2-4.2-4.2H152v8.4h2.5C157.2,664.6,158.8,662.7,158.8,660.4z"/>
			<path fill="#591B16" d="M175.6,668.1l-0.8-2.2h-6l-0.8,2.2h-4.5l5.8-15.3h5l5.8,15.3H175.6z M171.9,656.6l-2,5.8h3.9L171.9,656.6
				z"/>
			<path fill="#591B16" d="M110.1,687.1l-2.3-9.6l-2.3,9.6h-4.2l-4.4-15.3h4.4l2.3,10.2l2.6-10.2h3L112,682l2.3-10.2h4.5l-4.4,15.3
				H110.1z"/>
			<path fill="#591B16" d="M131.4,687.1v-6.2h-6.4v6.2h-4v-15.3h4v5.7h6.4v-5.7h4v15.3H131.4z"/>
			<path fill="#591B16" d="M149.7,687.1l-0.8-2.2h-6l-0.8,2.2h-4.5l5.8-15.3h5l5.8,15.3H149.7z M146,675.6l-2,5.8h3.9L146,675.6z"/>
			<path fill="#591B16" d="M156.4,687.1v-15.3h4v11.9h6.2v3.4H156.4z"/>
			<path fill="#591B16" d="M169.7,687.1v-15.3H181v3.4h-7.3v2.4h7.1v3.4h-7.1v2.6h7.3v3.4H169.7z"/>
			<path fill="#591B16" d="M98.3,709.6c0-1.5,1.3-2.8,2.9-2.8s2.8,1.3,2.8,2.8c0,1.5-1.3,2.8-2.8,2.8S98.3,711.1,98.3,709.6z"/>
			<path fill="#591B16" d="M107.4,702.1c0-6.2,4.7-10.3,10.8-10.3c4.8,0,7.4,2.7,8.7,5.3l-4.4,2.1c-0.7-1.6-2.4-2.9-4.3-2.9
				c-3.3,0-5.6,2.5-5.6,5.8c0,3.3,2.3,5.8,5.6,5.8c1.9,0,3.6-1.3,4.3-2.9l4.4,2.1c-1.3,2.6-3.9,5.4-8.7,5.4
				C112.1,712.4,107.4,708.2,107.4,702.1z"/>
			<path fill="#591B16" d="M129.7,702.1c0-6.1,4.6-10.3,10.7-10.3c6.1,0,10.7,4.3,10.7,10.3s-4.6,10.3-10.7,10.3
				C134.3,712.4,129.7,708.2,129.7,702.1z M145.8,702.1c0-3.3-2.1-5.8-5.4-5.8c-3.3,0-5.5,2.5-5.5,5.8c0,3.2,2.2,5.8,5.5,5.8
				C143.7,707.9,145.8,705.3,145.8,702.1z"/>
			<path fill="#591B16" d="M172.7,712.1v-13.2l-5,13.2h-2.3l-5.1-13.2v13.2h-5.2v-20h7.2l4.2,11l4.2-11h7.2v20H172.7z"/>
		</g>
		<g>
			<rect x="87.4" y="746.5" fill="#FFFFFF" width="101.7" height="3"/>
		</g>
		<g>
			<rect x="87.4" y="740.5" fill="#FFFFFF" width="101.7" height="3"/>
		</g>
		<g>
			<rect x="87.4" y="719.9" fill="#591B16" width="102.7" height="16.2"/>
		</g>
	</g>
	<g>
		<g>
			<g>
				<path fill="#E2E2E2" d="M646.9,637.1v118.6c0,1.3,1.1,2.4,2.4,2.4H759c1.3,0,2.4-1.1,2.4-2.4V649.1l-14.4-14.4h-97.6
					C648,634.7,646.9,635.8,646.9,637.1z"/>
			</g>
			<g>
				<path fill="#FFFFFF" d="M761.4,649.1l-14.4-14.4v12c0,1.3,1.1,2.4,2.4,2.4H761.4z"/>
			</g>
		</g>
		<g>
			<rect x="651.4" y="746.5" fill="#FFFFFF" width="104.4" height="3"/>
		</g>
		<g>
			<rect x="651.4" y="740.5" fill="#FFFFFF" width="104.4" height="3"/>
		</g>
		<g>
			<rect x="651.4" y="732.5" fill="#FFFFFF" width="44" height="3"/>
		</g>
		<g>
			<path fill="#591B16" d="M662.1,672.7l-6.5-17.3h5.1l4.3,12.5l4.3-12.5h5.1l-6.5,17.3H662.1z"/>
			<path fill="#591B16" d="M687.5,672.7l-0.9-2.5h-6.8l-0.9,2.5h-5.1l6.5-17.3h5.6l6.5,17.3H687.5z M683.2,659.8l-2.2,6.5h4.4
				L683.2,659.8z"/>
			<path fill="#591B16" d="M697.4,672.7v-13.4h-4.9v-3.9h14.2v3.9h-4.8v13.4H697.4z"/>
			<path fill="#591B16" d="M708.7,664.1c0-5.3,4-9,9.3-9c5.3,0,9.3,3.7,9.3,9c0,5.3-4,9-9.3,9C712.7,673,708.7,669.4,708.7,664.1z
				 M722.7,664.1c0-2.8-1.8-5-4.7-5c-2.9,0-4.7,2.2-4.7,5c0,2.8,1.9,5,4.7,5C720.8,669.1,722.7,666.9,722.7,664.1z"/>
			<path fill="#591B16" d="M740.5,672.7l-2.9-5.8h-2.3v5.8h-4.5v-17.3h8.7c3.8,0,6,2.5,6,5.8c0,3-1.8,4.6-3.5,5.2l3.5,6.4H740.5z
				 M741,661.1c0-1.2-1-1.8-2.2-1.8h-3.5v3.7h3.5C740,663,741,662.4,741,661.1z"/>
			<path fill="#591B16" d="M658.3,715.9c0-2.9,2.6-5.4,5.5-5.4s5.5,2.5,5.5,5.4c0,3-2.5,5.5-5.5,5.5S658.3,718.9,658.3,715.9z"/>
			<path fill="#591B16" d="M681,720.7v-30h-10.8v-8.7h31.6v8.7h-10.8v30H681z"/>
			<path fill="#591B16" d="M719.8,720.7l-14.6-38.7h11.3l9.6,27.9l9.5-27.9H747l-14.6,38.7H719.8z"/>
		</g>
	</g>
</g>
</svg>
