<?xml version="1.0" encoding="UTF-8" standalone="no"?>
<!-- Created with Inkscape (http://www.inkscape.org/) -->

<svg
   xmlns:dc="http://purl.org/dc/elements/1.1/"
   xmlns:cc="http://creativecommons.org/ns#"
   xmlns:rdf="http://www.w3.org/1999/02/22-rdf-syntax-ns#"
   xmlns:svg="http://www.w3.org/2000/svg"
   xmlns="http://www.w3.org/2000/svg"
   xmlns:sodipodi="http://sodipodi.sourceforge.net/DTD/sodipodi-0.dtd"
   xmlns:inkscape="http://www.inkscape.org/namespaces/inkscape"
   width="43"
   height="105"
   id="svg3526"
   version="1.1"
   inkscape:version="0.48.4 r9939"
   sodipodi:docname="amy-svg.svg">
  <defs
     id="defs3528" />
  <sodipodi:namedview
     id="base"
     pagecolor="#ffffff"
     bordercolor="#666666"
     borderopacity="1.0"
     inkscape:pageopacity="0.0"
     inkscape:pageshadow="2"
     inkscape:zoom="1.2851562"
     inkscape:cx="375"
     inkscape:cy="302.12766"
     inkscape:document-units="px"
     inkscape:current-layer="layer1"
     showgrid="false"
     inkscape:showpageshadow="false"
     inkscape:window-width="1920"
     inkscape:window-height="1137"
     inkscape:window-x="-8"
     inkscape:window-y="-8"
     inkscape:window-maximized="1" />
  <metadata
     id="metadata3531">
    <rdf:RDF>
      <cc:Work
         rdf:about="">
        <dc:format>image/svg+xml</dc:format>
        <dc:type
           rdf:resource="http://purl.org/dc/dcmitype/StillImage" />
        <dc:title></dc:title>
      </cc:Work>
    </rdf:RDF>
  </metadata>
  <g
     inkscape:label="Layer 1"
     inkscape:groupmode="layer"
     id="layer1"
     transform="translate(0,-947.36218)">
    <g
       transform="translate(-479.91277,721.45656)"
       id="g263">
      <polygon
         style="fill:#c32b2e"
         points="487.1,265.2 490.6,262.8 488.5,257.8 480.9,264.4 494.1,279.5 494.9,277.7 "
         id="polygon265" />
      <polygon
         style="fill:#591b16"
         points="490.6,262.8 496.4,259.1 495.6,251.4 487.5,258.1 "
         id="polygon267" />
      <polygon
         style="fill:#c32b2e"
         points="516.3,265.2 512.8,262.8 514.9,257.8 522.5,264.4 509.3,279.5 508.5,277.7 "
         id="polygon269" />
      <path
         style="fill:#c32b2e"
         inkscape:connector-curvature="0"
         d="m 508.5,232.2 0,0 c -1.3,-2 -3.7,-3.7 -6.4,-3.7 -2.7,0 -5.1,1.7 -6.3,3.7 h 0 c -0.4,0.7 -0.8,1.8 -1.1,3.3 -0.3,3.5 -0.7,6.4 -0.7,6.4 h 1.5 v 5.5 c 0,0 10.5,2.9 13.4,-8.2 0,0 0.5,-1.2 0.5,-3.3 -0.2,-1.2 0,-2 -0.9,-3.7 z"
         id="path271" />
      <path
         style="fill:#591b16"
         inkscape:connector-curvature="0"
         d="m 493,280.6 c 0,3.9 3.1,7 7,7 h 3.4 c 3.9,0 7,-3.1 7,-7 v -23.8 c 0,-3.9 -3.1,-7 -7,-7 H 500 c -3.9,0 -7,3.1 -7,7 v 23.8 z"
         id="path273" />
      <polygon
         style="fill:#22a1cd"
         points="503.8,326.5 502.2,288.2 500.4,288.2 499.5,326.5 494.4,326.5 493,280.7 510.3,280.6 508.9,326.5 "
         id="polygon275" />
      <path
         style="fill:#c32b2e"
         inkscape:connector-curvature="0"
         d="m 504.5,247.4 v 2.6 c 0,0 -2.3,0.9 -5.8,0 v -1 c 0,0 3.6,-0.1 5.8,-1.6 z"
         id="path277" />
      <circle
         d="m 498.40001,237.2 c 0,0.3866 -0.3134,0.7 -0.7,0.7 -0.3866,0 -0.7,-0.3134 -0.7,-0.7 0,-0.3866 0.3134,-0.7 0.7,-0.7 0.3866,0 0.7,0.3134 0.7,0.7 z"
         style="fill:#591b16"
         sodipodi:ry="0.69999999"
         sodipodi:rx="0.69999999"
         sodipodi:cy="237.2"
         sodipodi:cx="497.70001"
         cx="497.70001"
         cy="237.2"
         r="0.69999999"
         id="circle279" />
      <polygon
         style="fill:#591b16"
         points="499.1,330.6 499.5,326.5 494.4,326.5 493,328.8 485.6,329.1 485.6,330.6 "
         id="polygon281" />
      <polygon
         style="fill:#591b16"
         points="504.1,330.6 503.8,326.5 508.9,326.5 510.2,328.8 518,329.1 518,330.6 "
         id="polygon283" />
      <polygon
         style="fill:#591b16"
         points="512.8,262.8 507,259.1 507.8,251.4 515.9,258.1 "
         id="polygon285" />
    </g>
  </g>
</svg>
