<?xml version="1.0" encoding="utf-8"?>
<!-- Generator: Adobe Illustrator 17.1.0, SVG Export Plug-In . SVG Version: 6.00 Build 0)  -->
<!DOCTYPE svg PUBLIC "-//W3C//DTD SVG 1.1//EN" "http://www.w3.org/Graphics/SVG/1.1/DTD/svg11.dtd">
<svg version="1.1" id="Layer_1" xmlns="http://www.w3.org/2000/svg" xmlns:xlink="http://www.w3.org/1999/xlink" x="0px" y="0px"
	 viewBox="0 0 307.4 457.5" enable-background="new 0 0 307.4 457.5" xml:space="preserve">
<g>
	<path fill="#22A1CD" d="M230.8,52c0.1,0.9,0.1,1.9,0.1,2.8c0,27.1-21.9,49-49,49c-17.1,0-32.2-8.8-40.9-22.1
		c1.5,25.8,22.8,46.2,48.9,46.2c27.1,0,49-21.9,49-49C238.8,69,235.9,59.7,230.8,52z"/>
	<path fill="#22A1CD" d="M86.9,52c-0.1,0.9-0.1,1.9-0.1,2.8c0,27.1,21.9,49,49,49c17.1,0,32.2-8.8,40.9-22.1
		c-1.5,25.8-22.8,46.2-48.9,46.2c-27.1,0-49-21.9-49-49C78.8,69,81.8,59.7,86.9,52z"/>
	<circle fill="#C32B2E" cx="158.8" cy="121.7" r="57.7"/>
	<rect x="101.2" y="121.7" fill="#C32B2E" width="115.3" height="93.3"/>
	<circle fill="#FFFFFF" cx="139.9" cy="157.6" r="6.6"/>
	<rect x="133.2" y="157.6" fill="#FFFFFF" width="13.3" height="10.7"/>
	<circle fill="#FFFFFF" cx="199.9" cy="157.6" r="6.6"/>
	<rect x="193.2" y="157.6" fill="#FFFFFF" width="13.3" height="10.7"/>
	<rect x="101.2" y="168.3" fill="#C32B2E" width="143.7" height="96"/>
	<path fill="#C32B2E" d="M101.2,168.3v96c0,39.7,32.2,71.9,71.9,71.9c39.7,0,71.9-32.2,71.9-71.9v-96H101.2z"/>
	<circle fill="#FFFFFF" cx="158.8" cy="121.7" r="21.8"/>
	<circle fill="#591B16" cx="158.8" cy="121.7" r="6.3"/>
	<g>
		<path fill="#591B16" d="M124.8,107.7c0,0,0.2-0.1,0.7-0.4c0.4-0.3,1.1-0.6,1.9-1c0.8-0.4,1.8-0.9,3-1.4c0.6-0.2,1.2-0.5,1.9-0.8
			c0.7-0.3,1.4-0.5,2.1-0.8c1.5-0.6,3.2-1,4.9-1.5c0.9-0.2,1.8-0.4,2.7-0.6c0.5-0.1,0.9-0.2,1.4-0.3c0.5-0.1,1-0.2,1.5-0.2
			c1-0.2,2-0.3,3-0.5c1-0.1,2-0.2,3.1-0.4c2.1-0.2,4.2-0.3,6.3-0.4c0.5,0,1.1,0,1.6,0l1.6,0.1c1.1,0,2.1,0.1,3.2,0.1
			c2.1,0.1,4.1,0.4,6.1,0.7c2,0.2,3.8,0.7,5.6,1.1c1.8,0.3,3.4,0.9,4.9,1.4c1.5,0.5,2.9,0.8,4.1,1.4c1.2,0.5,2.2,0.9,3.1,1.3
			c1.7,0.7,2.6,1.2,2.6,1.2c0.5,0.2,0.7,0.8,0.5,1.3c-0.2,0.4-0.7,0.6-1.1,0.6l-0.1,0c0,0-1-0.2-2.8-0.6c-0.9-0.2-1.9-0.4-3.1-0.7
			c-0.3-0.1-0.6-0.1-0.9-0.2c-0.3-0.1-0.7-0.1-1-0.2c-0.7-0.1-1.4-0.3-2.2-0.4c-1.5-0.2-3.1-0.7-4.8-0.8c-0.9-0.1-1.7-0.2-2.7-0.3
			c-0.9-0.1-1.8-0.3-2.8-0.3c-0.9-0.1-1.9-0.1-2.9-0.2c-1-0.1-1.9-0.2-2.9-0.2c-1,0-2-0.1-3-0.1c-1,0-2-0.1-3,0c-2,0-4,0-6,0.3
			c-1,0.1-2,0.1-2.9,0.2c-1,0.1-1.9,0.2-2.9,0.3c-1.9,0.2-3.7,0.5-5.4,0.8c-1.7,0.4-3.3,0.6-4.8,1c-0.7,0.2-1.5,0.3-2.1,0.5
			c-0.7,0.2-1.3,0.3-1.9,0.5c-1.2,0.3-2.2,0.6-3.1,0.9c-0.8,0.3-1.5,0.5-1.9,0.6c-0.4,0.1-0.7,0.2-0.7,0.2c-0.5,0.2-1.1,0-1.3-0.6
			C124.2,108.5,124.3,108,124.8,107.7L124.8,107.7z"/>
	</g>
	<path fill="none" stroke="#C32B2E" stroke-width="5" stroke-miterlimit="10" d="M148.8,316.9c0,0-11.5,33.5,0,60.5"/>
	<polygon fill="#C32B2E" points="151.1,376.4 151.1,384.2 120.9,384.2 145.6,376.4 	"/>
	<path fill="none" stroke="#C32B2E" stroke-width="5" stroke-miterlimit="10" d="M194.8,316.9c0,0,11.5,33.5,0,60.5"/>
	<polygon fill="#C32B2E" points="192.5,376.4 192.5,384.2 222.8,384.2 198,376.4 	"/>
	<circle fill="#591B16" cx="146.5" cy="84.6" r="5.6"/>
	<circle fill="#591B16" cx="157.5" cy="73.5" r="3"/>
	<circle fill="#591B16" cx="213.4" cy="210.6" r="3"/>
	<circle fill="#591B16" cx="173" cy="282.5" r="3"/>
	<circle fill="#591B16" cx="164" cy="87.8" r="6.5"/>
	<circle fill="#591B16" cx="222.8" cy="194.8" r="6.5"/>
	<circle fill="#591B16" cx="199.9" cy="194.8" r="6.5"/>
	<circle fill="#22A1CD" cx="150" cy="174.9" r="4.1"/>
	<rect x="145.9" y="168.3" fill="#22A1CD" width="8.1" height="6.6"/>
	<circle fill="#22A1CD" cx="159.8" cy="181.1" r="4.1"/>
	<rect x="155.7" y="168.3" fill="#22A1CD" width="8.1" height="12.7"/>
	<circle fill="#22A1CD" cx="129.2" cy="195.5" r="4.1"/>
	<rect x="125.1" y="168.4" fill="#22A1CD" width="8.1" height="27.1"/>
	<path fill="#22A1CD" d="M154.1,168.3v2.4c0-0.5,0.4-0.8,0.8-0.8c0.5,0,0.8,0.4,0.8,0.8h0v-2.4H154.1z"/>
	<path fill="#591B16" d="M108.5,296c4,8.2,9.6,15.6,16.3,21.6c2-0.5,4.2-0.8,6.4-0.8c11.5,0,21.3,7.2,25.1,17.4
		c5.4,1.3,10.9,2,16.7,2c5.7,0,11.3-0.7,16.7-2c3.8-10.1,13.6-17.4,25.1-17.4c2.2,0,4.3,0.3,6.4,0.8c6.7-6.1,12.3-13.4,16.3-21.6
		H108.5z"/>
	<path fill="none" stroke="#591B16" stroke-width="3" stroke-linecap="round" stroke-miterlimit="10" d="M178.2,276.1
		c-2.8-2.8-7.4-2.8-10.3,0"/>
	<g>
		<defs>
			<path id="SVGID_1_" d="M108.5,296c4,8.2,9.6,15.6,16.3,21.6c2-0.5,4.2-0.8,6.4-0.8c11.5,0,21.3,7.2,25.1,17.4
				c5.4,1.3,10.9,2,16.7,2c5.7,0,11.3-0.7,16.7-2c3.8-10.1,13.6-17.4,25.1-17.4c2.2,0,4.3,0.3,6.4,0.8c6.7-6.1,12.3-13.4,16.3-21.6
				H108.5z"/>
		</defs>
		<clipPath id="SVGID_2_">
			<use xlink:href="#SVGID_1_"  overflow="visible"/>
		</clipPath>
		
			<line clip-path="url(#SVGID_2_)" fill="none" stroke="#C32B2E" stroke-width="3" stroke-miterlimit="10" x1="101.2" y1="304" x2="253" y2="304"/>
	</g>
</g>
</svg>
