<?xml version="1.0" encoding="utf-8"?>
<!-- Generator: Adobe Illustrator 17.1.0, SVG Export Plug-In . SVG Version: 6.00 Build 0)  -->
<!DOCTYPE svg PUBLIC "-//W3C//DTD SVG 1.1//EN" "http://www.w3.org/Graphics/SVG/1.1/DTD/svg11.dtd">
<svg version="1.1" id="Layer_1" xmlns="http://www.w3.org/2000/svg" xmlns:xlink="http://www.w3.org/1999/xlink" x="0px" y="0px"
	 viewBox="0 0 307.4 274.5" enable-background="new 0 0 307.4 274.5" xml:space="preserve">
<g>
	<polygon fill="#C32B2E" points="163.7,133.9 170.4,142.7 158.5,152.8 157.9,152.1 165.1,142.7 159.8,135.3 	"/>
	<polygon fill="#C32B2E" points="143.4,133.3 136.7,142.2 148.7,152.3 149.2,151.6 142,142.2 147.3,134.8 	"/>
	<path fill="#591B16" d="M145.7,156.6c0,3.9,2.7,7,6,7h2.9c3.3,0,6-3.1,6-7l-0.9-11.6l0.9-12.2c0-3.9-2.7-7-6-7h-2.9
		c-3.3,0-6,3.1-6,7l0.9,12.2L145.7,156.6z"/>
	<polygon fill="#C32B2E" points="160.7,156.7 158.8,204.7 155.4,204.7 153.7,164.2 152.1,164.2 151,204.7 147.6,204.7 145.8,156.7 	
		"/>
	<path fill="#C32B2E" d="M146.6,107.9L146.6,107.9c1.3-1,3.6-3.6,6.4-3.6c2.7,0,5.1,2.6,6.3,3.6h0c0.4,1,0.8,2,1.1,3.5
		c0.3,3.5,0.7,6.5,0.7,6.5h-1.2v5.6c0,0-10.6,2.9-13.5-8.1c0,0-0.6-1.4-0.6-3.6C145.9,110.7,145.7,109.9,146.6,107.9z"/>
	<path fill="#C32B2E" d="M151,123.7v2.3c0,0,2,1.7,5.1,0.9v-1.8C156.1,125.1,153,125,151,123.7z"/>
	<circle fill="#591B16" cx="157.3" cy="113.4" r="0.7"/>
	<path fill="#591B16" d="M155.3,204.3h6.8c1.2,0,2.2,1,2.2,2.2h-9V204.3z"/>
	<path fill="#591B16" d="M151,204.3h-6.8c-1.2,0-2.2,1-2.2,2.2h9V204.3z"/>
	<polygon fill="#591B16" points="148.1,127.3 142,133.1 146.6,136.4 150.2,132.5 	"/>
	<polygon fill="#591B16" points="158.5,127.5 164.5,133.3 159.8,136.6 156.3,132.7 	"/>
	<polygon fill="#C32B2E" points="156.1,126.9 153.6,130.2 151,126 153.7,126 	"/>
	<path fill="#591B16" d="M159.7,108.9c0,0-5.8-0.4-5.8,6.2c0,6.6,0,12.2,0,12.2H144v-18.5c0,0,0.5-5.9,7.7-5.9
		C159.2,102.9,159.7,108.9,159.7,108.9z"/>
</g>
</svg>
