<?xml version="1.0" encoding="utf-8"?>
<!-- Generator: Adobe Illustrator 17.1.0, SVG Export Plug-In . SVG Version: 6.00 Build 0)  -->
<!DOCTYPE svg PUBLIC "-//W3C//DTD SVG 1.1//EN" "http://www.w3.org/Graphics/SVG/1.1/DTD/svg11.dtd">
<svg version="1.1" id="Layer_1" xmlns="http://www.w3.org/2000/svg" xmlns:xlink="http://www.w3.org/1999/xlink" x="0px" y="0px"
	 viewBox="0 0 307.4 274.5" enable-background="new 0 0 307.4 274.5" xml:space="preserve">
<g>
	<polygon fill="#C32B2E" points="165.4,115.5 173.1,122.1 159.9,137.1 159,135.4 166.9,122.9 163.4,120.5 	"/>
	<polygon fill="#591B16" points="158.3,109.1 166.5,115.8 163.4,120.5 157.5,116.8 	"/>
	<polygon fill="#C32B2E" points="139.1,115.5 131.4,122.1 144.7,137.1 145.5,135.4 137.6,122.9 141.1,120.5 	"/>
	<path fill="#C32B2E" d="M145.5,89.9L145.5,89.9c1.3-2,3.7-3.7,6.4-3.7c2.7,0,5.1,1.7,6.3,3.7h0c0.4,0.7,0.8,1.8,1.1,3.3
		c0.3,3.5,0.7,6.4,0.7,6.4h-1.5v5.5c0,0-10.5,2.9-13.4-8.2c0,0-0.5-1.2-0.5-3.3C144.7,92.4,144.6,91.5,145.5,89.9z"/>
	<path fill="#591B16" d="M161,138.3c0,3.9-3.1,7-7,7h-3.4c-3.9,0-7-3.1-7-7v-23.8c0-3.9,3.1-7,7-7h3.4c3.9,0,7,3.1,7,7V138.3z"/>
	<polygon fill="#C32B2E" points="143.7,138.3 145.1,184.2 150.2,184.2 151.8,145.9 153.6,145.9 154.5,184.2 159.6,184.2 161,138.4 	
		"/>
	<path fill="#C32B2E" d="M149.5,105.1v2.6c0,0,2.3,0.9,5.8,0v-1C155.2,106.7,151.7,106.6,149.5,105.1z"/>
	<circle fill="#591B16" cx="156.2" cy="94.9" r="0.7"/>
	<polygon fill="#591B16" points="159.6,184.2 160.9,186.5 168.4,186.7 168.4,188.3 154.8,188.3 154.5,184.2 	"/>
	<polygon fill="#591B16" points="145.1,184.2 143.8,186.5 136,186.7 136,188.3 149.9,188.3 150.2,184.2 	"/>
	<polygon fill="#591B16" points="146.2,109.1 138.1,115.8 141.1,120.5 147,116.8 	"/>
</g>
</svg>
