<?xml version="1.0" encoding="utf-8"?>
<!-- Generator: Adobe Illustrator 17.1.0, SVG Export Plug-In . SVG Version: 6.00 Build 0)  -->
<!DOCTYPE svg PUBLIC "-//W3C//DTD SVG 1.1//EN" "http://www.w3.org/Graphics/SVG/1.1/DTD/svg11.dtd">
<svg version="1.1" id="Layer_1" xmlns="http://www.w3.org/2000/svg" xmlns:xlink="http://www.w3.org/1999/xlink" x="0px" y="0px"
	 viewBox="0 0 960 560" enable-background="new 0 0 960 560" xml:space="preserve">
<g>
	<path fill="#591B16" d="M556.2,299.7c0-8.9-1.4-17.5-4-25.5c0.4,3.2,0.6,6.5,0.6,9.8c0,44-34.7,80-78.3,81.9v15.7
		C519.6,381.6,556.2,344.9,556.2,299.7z"/>
	<path fill="#591B16" d="M512.5,247.8l-24.9-24.9h-13.1h-13.1l-24.9,24.9c-2.2,2.2-3.7,6.4-3.4,9.5L443.5,391c0.3,3,3.1,5.5,6.1,5.5
		h24.8h24.8c3.1,0,5.8-2.5,6.1-5.5l10.4-133.7C516.2,254.2,514.7,250,512.5,247.8z"/>
	<circle fill="#C32B2E" cx="474.5" cy="248.6" r="7.9"/>
	<path fill="#591B16" d="M510.6,194.8c0-19-16.2-31.5-36.1-31.5c-19.9,0-36.1,12.5-36.1,31.5c0,8.5,3.2,15.1,8.6,19.9l0,0
		c0,0,11.8,11.6,11.8,29.7c0,4.3,3.5,7.9,7.9,7.9s7.9-3.5,7.9-7.9c0,4.3,3.5,7.9,7.9,7.9c4.3,0,7.9-3.5,7.9-7.9
		c0-18.2,11.8-29.7,11.8-29.7l0,0C507.4,209.9,510.6,203.2,510.6,194.8z"/>
	<path fill="#E2E2E2" d="M502,214.7L502,214.7c0.7-0.6,1.4-1.3,2-2l0,0h0c0.5-0.5,0.8-1.2,0.8-1.9c0-1.5-1.2-2.8-2.8-2.8
		c-0.6,0-1.2,0.2-1.7,0.6l0,0c0,0,0,0-0.1,0.1c-0.2,0.2-0.4,0.4-0.5,0.6c-1.7,1.8-6.6,7.5-10.5,14.3c-0.2,0.4-0.4,0.9-0.7,1.3
		c0,0,0,0,0,0l0,0c-1.2,1.7-3.1,2.7-5.3,2.7c-3.6,0-6.5-2.9-6.5-6.5c0-0.3,0-1,0-1v-24.1c0-1.3-1.1-2.4-2.4-2.4
		c-1.3,0-2.4,1.1-2.4,2.4c0,0,0,24.9,0,25.2c0,3.6-2.9,6.5-6.5,6.5c-2.2,0-4.1-1.1-5.3-2.7l0,0c0,0,0,0,0,0
		c-0.3-0.4-0.5-0.8-0.7-1.3c-3.9-6.8-8.8-12.5-10.5-14.3c-0.1-0.2-0.3-0.4-0.5-0.6c0,0-0.1-0.1-0.1-0.1l0,0
		c-0.5-0.4-1.1-0.6-1.7-0.6c-1.5,0-2.8,1.2-2.8,2.8c0,0.9,0.5,1.7,1.2,2.2l0,0.1c0.5,0.6,1.1,1.1,1.7,1.7l0,0
		c0,0,11.8,11.6,11.8,29.7c0,4.3,3.5,7.9,7.9,7.9s7.9-3.5,7.9-7.9c0,4.3,3.5,7.9,7.9,7.9c4.3,0,7.9-3.5,7.9-7.9
		C490.2,226.3,502,214.7,502,214.7z"/>
	<path fill="#591B16" d="M464.3,235.7c0,0.1,0,0.1,0,0.2c0,5.1,10.1,9.3,10.1,9.3s10.1-4.1,10.1-9.3c0-0.1,0-0.1,0-0.2
		c-2.9-1.2-6.4-1.9-10.1-1.9C470.7,233.8,467.2,234.5,464.3,235.7z"/>
	<circle fill="#FFFFFF" cx="461.3" cy="203.7" r="2.4"/>
	<circle fill="#FFFFFF" cx="487.6" cy="203.7" r="2.4"/>
	<path fill="#E2E2E2" d="M464.6,194c1.4,0.9,3.5,3.9,2.6,5.3c-0.9,1.4-4.5,0.6-5.9-0.3c-1.4-0.9-1.7-2.7-0.8-4.1
		C461.4,193.5,463.3,193.1,464.6,194z"/>
	<path fill="#E2E2E2" d="M484.3,194c-1.4,0.9-3.5,3.9-2.6,5.3c0.9,1.4,4.5,0.6,5.9-0.3c1.4-0.9,1.7-2.7,0.8-4.1
		C487.5,193.5,485.6,193.1,484.3,194z"/>
	<path fill="#591B16" d="M493.8,171c0,0,19.5,3.8,34.5,13.3c0,0-2.8,22-19.2,32.8C509.1,217.1,493.4,205.4,493.8,171z"/>
	<path fill="#591B16" d="M455.1,171c0,0-19.5,3.8-34.5,13.3c0,0,2.8,22,19.2,32.8C439.9,217.1,455.6,205.4,455.1,171z"/>
	<circle fill="#591B16" cx="433" cy="338.3" r="10.4"/>
	<polygon fill="#591B16" points="443.4,396.5 428.6,396.5 422.7,338.3 443.4,338.3 	"/>
	<rect x="414.1" y="386.6" fill="#591B16" width="23.8" height="10"/>
	<path fill="#591B16" d="M414.1,386.6c-5.5,0-10,4.5-10,10h20C424.1,391,419.6,386.6,414.1,386.6z"/>
	<circle fill="#591B16" cx="515.9" cy="338.3" r="10.4"/>
	<polygon fill="#591B16" points="505.5,396.5 520.3,396.5 526.3,338.3 505.5,338.3 	"/>
	<rect x="511" y="386.6" fill="#591B16" width="23.8" height="10"/>
	<path fill="#591B16" d="M534.8,386.6c5.5,0,10,4.5,10,10h-20C524.8,391,529.3,386.6,534.8,386.6z"/>
	<polygon fill="#E2E2E2" points="454.8,396.5 447.4,396.5 442.9,325.2 459.2,325.2 	"/>
	<path fill="#E2E2E2" d="M462.6,391c0,3.1-2.5,5.6-5.6,5.6h-11.9c-3.1,0-5.6-2.5-5.6-5.6v-1.5c0-3.1,2.5-5.6,5.6-5.6H457
		c3.1,0,5.6,2.5,5.6,5.6V391z"/>
	<circle fill="#E2E2E2" cx="451.1" cy="325.2" r="8.2"/>
	<polygon fill="#E2E2E2" points="494.1,396.5 501.6,396.5 506,325.2 489.7,325.2 	"/>
	<path fill="#E2E2E2" d="M486.4,391c0,3.1,2.5,5.6,5.6,5.6h11.9c3.1,0,5.6-2.5,5.6-5.6v-1.5c0-3.1-2.5-5.6-5.6-5.6h-11.9
		c-3.1,0-5.6,2.5-5.6,5.6V391z"/>
	<circle fill="#E2E2E2" cx="497.8" cy="325.2" r="8.2"/>
	<circle fill="#E2E2E2" cx="474.5" cy="291.1" r="13.1"/>
	<polygon fill="#E2E2E2" points="481.5,396.5 467.5,396.5 461.3,291.1 487.6,291.1 	"/>
</g>
</svg>
