<?xml version="1.0" encoding="utf-8"?>
<!-- Generator: Adobe Illustrator 17.1.0, SVG Export Plug-In . SVG Version: 6.00 Build 0)  -->
<!DOCTYPE svg PUBLIC "-//W3C//DTD SVG 1.1//EN" "http://www.w3.org/Graphics/SVG/1.1/DTD/svg11.dtd">
<svg version="1.1" id="Layer_1" xmlns="http://www.w3.org/2000/svg" xmlns:xlink="http://www.w3.org/1999/xlink" x="0px" y="0px"
	 viewBox="0 0 960 560" enable-background="new 0 0 960 560" xml:space="preserve">
<g>
	<circle fill="#591B16" cx="500" cy="297.8" r="4.3"/>
	<polygon fill="#591B16" points="495.6,322.2 501.8,322.2 504.3,297.8 495.6,297.8 	"/>
	<rect x="497.9" y="318" fill="#591B16" width="10" height="4.2"/>
	<path fill="#591B16" d="M507.9,318c2.3,0,4.2,1.9,4.2,4.2h-8.4C503.7,319.8,505.6,318,507.9,318z"/>
	<circle fill="#591B16" cx="460.1" cy="297.8" r="4.3"/>
	<polygon fill="#591B16" points="464.4,322.2 458.2,322.2 455.7,297.8 464.4,297.8 	"/>
	<rect x="452.1" y="318" fill="#591B16" width="10" height="4.2"/>
	<path fill="#591B16" d="M452.1,318c-2.3,0-4.2,1.9-4.2,4.2h8.4C456.3,319.8,454.4,318,452.1,318z"/>
	<polygon fill="#581B16" points="499.3,322.2 460.9,322.2 467.6,272.9 492.6,272.9 	"/>
	<polygon fill="#581B16" points="475,249.7 456.2,259.5 459.6,238.5 	"/>
	<polygon fill="#581B16" points="485,249.7 503.9,259.5 500.4,238.5 	"/>
	<rect x="463.3" y="243" fill="#581B16" width="33.3" height="26.5"/>
	<polygon fill="#581B16" points="488.8,276.7 471.2,276.7 463.3,269.5 496.7,269.5 	"/>
	<circle fill="#E2E2E2" cx="471.2" cy="262.5" r="1.5"/>
	<circle fill="#E2E2E2" cx="488.9" cy="262.5" r="1.5"/>
	<path fill="#C12B2D" d="M475.9,277.9c0,2.3,1.9,4.1,4.1,4.1c2.3,0,4.1-1.9,4.1-4.1h0v-15.4h-8.3L475.9,277.9L475.9,277.9z"/>
	<path fill="#E2E2E2" d="M480,265.1c-3.2-0.1-6.5,1.7-8.4,4.9c-1.8,3.2-1.7,7,0.1,9.7c3.2,0.1,6.5-1.7,8.4-4.9
		C481.9,271.5,481.8,267.8,480,265.1z"/>
	<path fill="#E2E2E2" d="M480,265.1c3.2-0.1,6.5,1.7,8.4,4.9c1.8,3.2,1.7,7-0.1,9.7c-3.2,0.1-6.5-1.7-8.4-4.9
		C478.1,271.5,478.2,267.8,480,265.1z"/>
	<path fill="#E2E2E2" d="M484.2,256.4c0-2.3-1.9-4.1-4.1-4.1c-2.3,0-4.1,1.9-4.1,4.1h0v15.4h8.3L484.2,256.4L484.2,256.4z"/>
	<polygon fill="#581B16" points="483.3,266.7 480.1,269.5 476.9,266.7 	"/>
	<polygon fill="#E2E2E2" points="474.4,322.2 471,322.2 469,297.7 476.5,297.7 	"/>
	<path fill="#E2E2E2" d="M478,319.6c0,1.4-1.1,2.6-2.6,2.6H470c-1.4,0-2.6-1.1-2.6-2.6v-0.7c0-1.4,1.1-2.6,2.6-2.6h5.5
		c1.4,0,2.6,1.1,2.6,2.6V319.6z"/>
	<circle fill="#E2E2E2" cx="472.7" cy="297.7" r="3.8"/>
	<polygon fill="#E2E2E2" points="486.6,322.2 490,322.2 492.1,297.7 484.5,297.7 	"/>
	<path fill="#E2E2E2" d="M483,319.6c0,1.4,1.1,2.6,2.6,2.6h5.5c1.4,0,2.6-1.1,2.6-2.6v-0.7c0-1.4-1.1-2.6-2.6-2.6h-5.5
		c-1.4,0-2.6,1.1-2.6,2.6V319.6z"/>
	<circle fill="#E2E2E2" cx="488.3" cy="297.7" r="3.8"/>
</g>
</svg>
